G04 #@! TF.FileFunction,Copper,L4,Bot,Signal*
%FSLAX46Y46*%
G04 Gerber Fmt 4.6, Leading zero omitted, Abs format (unit mm)*
G04 Created by KiCad (PCBNEW 4.0.0-stable) date Friday, August 18, 2017 'PMt' 03:24:48 PM*
%MOMM*%
G01*
G04 APERTURE LIST*
%ADD10C,0.100000*%
%ADD11R,1.700000X1.200000*%
%ADD12O,1.700000X1.200000*%
%ADD13R,1.700000X1.700000*%
%ADD14O,1.700000X1.700000*%
%ADD15R,1.524000X1.524000*%
%ADD16C,1.524000*%
%ADD17C,0.600000*%
%ADD18C,0.177800*%
%ADD19C,0.381000*%
%ADD20C,0.203200*%
%ADD21C,0.250000*%
G04 APERTURE END LIST*
D10*
D11*
X135636000Y-81280000D03*
D12*
X135636000Y-83280000D03*
D13*
X130302000Y-120548400D03*
X103733600Y-94589600D03*
D14*
X103733600Y-97129600D03*
X103733600Y-99669600D03*
X103733600Y-102209600D03*
D13*
X134315200Y-98653600D03*
X113030000Y-43434000D03*
D14*
X113030000Y-45974000D03*
X113030000Y-48514000D03*
X113030000Y-51054000D03*
X113030000Y-53594000D03*
X113030000Y-56134000D03*
X113030000Y-58674000D03*
X113030000Y-61214000D03*
X113030000Y-63754000D03*
X113030000Y-66294000D03*
X113030000Y-68834000D03*
X113030000Y-71374000D03*
X113030000Y-73914000D03*
X113030000Y-76454000D03*
X113030000Y-78994000D03*
X113030000Y-81534000D03*
X113030000Y-84074000D03*
X113030000Y-86614000D03*
X113030000Y-89154000D03*
X113030000Y-91694000D03*
X113030000Y-94234000D03*
X113030000Y-96774000D03*
X113030000Y-99314000D03*
X113030000Y-101854000D03*
D13*
X125730000Y-45974000D03*
X128270000Y-43434000D03*
D14*
X128270000Y-45974000D03*
X128270000Y-48514000D03*
X128270000Y-51054000D03*
X128270000Y-53594000D03*
X128270000Y-56134000D03*
X128270000Y-58674000D03*
X128270000Y-61214000D03*
X128270000Y-63754000D03*
X128270000Y-66294000D03*
X128270000Y-68834000D03*
X128270000Y-71374000D03*
X128270000Y-73914000D03*
X128270000Y-76454000D03*
X128270000Y-78994000D03*
X128270000Y-81534000D03*
X128270000Y-84074000D03*
X128270000Y-86614000D03*
X128270000Y-89154000D03*
X128270000Y-91694000D03*
X128270000Y-94234000D03*
X128270000Y-96774000D03*
X128270000Y-99314000D03*
X128270000Y-101854000D03*
D13*
X106121200Y-76555600D03*
D14*
X103581200Y-76555600D03*
D13*
X106121200Y-79095600D03*
D14*
X103581200Y-79095600D03*
D13*
X106121200Y-81635600D03*
D14*
X103581200Y-81635600D03*
D13*
X106121200Y-84175600D03*
D14*
X103581200Y-84175600D03*
D13*
X106121200Y-86715600D03*
D14*
X103581200Y-86715600D03*
D15*
X104241600Y-108915200D03*
D16*
X109321600Y-108915200D03*
X106781600Y-113995200D03*
D17*
X132219700Y-30073600D03*
X119989600Y-45847000D03*
X132054600Y-70472300D03*
X137845800Y-62801500D03*
X109791500Y-114528600D03*
X116598700Y-100342700D03*
X119801600Y-52512000D03*
X121701600Y-52512000D03*
X121701600Y-50612000D03*
X119801600Y-50612000D03*
X122732800Y-62788800D03*
X109575600Y-57912000D03*
X115595400Y-56603900D03*
X115392200Y-50342800D03*
X105702100Y-30505400D03*
X130632200Y-35902900D03*
X121488200Y-38950900D03*
X123850400Y-45935900D03*
X115531900Y-45466000D03*
X124980700Y-57175400D03*
X128587500Y-106870500D03*
X114960400Y-107950000D03*
X109829600Y-123342400D03*
X118008400Y-123342400D03*
X125476000Y-121310400D03*
X131876800Y-63246000D03*
X135534400Y-64211200D03*
X134162800Y-57048400D03*
X134162800Y-55270400D03*
X134162800Y-56184800D03*
X117983000Y-64389000D03*
X118110000Y-54483000D03*
X124955300Y-56083200D03*
X125526800Y-62699900D03*
X117144800Y-107340400D03*
X116586000Y-103428800D03*
X115582700Y-46545500D03*
X117983000Y-62611000D03*
X115443000Y-63881000D03*
X105664000Y-60198000D03*
X116598700Y-56591200D03*
X116090700Y-48666400D03*
X118338600Y-46050200D03*
X123977400Y-65303400D03*
X133604000Y-54483000D03*
X137261600Y-54356000D03*
X115316000Y-61010800D03*
X108585000Y-58801000D03*
X109423200Y-72694800D03*
X138836400Y-66497200D03*
X121323100Y-39916100D03*
X123342400Y-48996600D03*
X121958100Y-59232800D03*
X104902000Y-64262000D03*
X130251200Y-100685600D03*
X125234700Y-36093400D03*
X132080000Y-51866800D03*
X126847600Y-41757600D03*
X132740400Y-59182000D03*
X126466600Y-51308000D03*
X126898400Y-95478600D03*
X126199900Y-98082100D03*
X125818900Y-54991000D03*
X111480600Y-120459500D03*
X110566200Y-119468900D03*
X110667800Y-48526700D03*
X111353600Y-100584000D03*
X125374400Y-99161600D03*
X126746000Y-119634000D03*
X122212100Y-102311200D03*
X121983500Y-60071000D03*
X117081300Y-68313300D03*
X117106700Y-57848500D03*
X118376700Y-73875900D03*
X118910100Y-57365900D03*
X117805200Y-119938800D03*
X117449600Y-81889600D03*
X118986300Y-84429600D03*
X118973600Y-119989600D03*
X129476500Y-57365900D03*
X126936500Y-59613800D03*
X126453900Y-52260500D03*
X123367800Y-76428600D03*
X123304300Y-57162700D03*
X121462800Y-120142000D03*
X123240800Y-94234000D03*
X112293400Y-121399300D03*
X115773200Y-96875600D03*
X125349000Y-77495400D03*
X125488700Y-50431700D03*
X124701300Y-79921100D03*
X125107700Y-49555400D03*
X120332500Y-47536100D03*
X120891300Y-85356700D03*
X120332500Y-46685200D03*
X120154700Y-87528400D03*
X117843300Y-48882300D03*
X119761000Y-37871400D03*
X117068600Y-50368200D03*
X119316500Y-37122100D03*
X117170200Y-40767000D03*
X116230400Y-44005500D03*
D18*
X130213100Y-30073600D02*
X132219700Y-30073600D01*
X124244100Y-36042600D02*
X130213100Y-30073600D01*
X122885200Y-36042600D02*
X124244100Y-36042600D01*
X119875300Y-39052500D02*
X122885200Y-36042600D01*
X119875300Y-45732700D02*
X119875300Y-39052500D01*
X119989600Y-45847000D02*
X119875300Y-45732700D01*
X119801600Y-52512000D02*
X119799100Y-52514500D01*
X121701600Y-52512000D02*
X121704100Y-52514500D01*
X121701600Y-50612000D02*
X121704100Y-50609500D01*
X119801600Y-50612000D02*
X119799100Y-50609500D01*
D19*
X115392200Y-50342800D02*
X115392200Y-50304700D01*
X128587500Y-106870500D02*
X128587500Y-106908600D01*
X116090700Y-48298100D02*
X116090700Y-48666400D01*
X118338600Y-46050200D02*
X116090700Y-48298100D01*
X133604000Y-54483000D02*
X133604000Y-54457600D01*
D20*
X106781600Y-113995200D02*
X106781600Y-109702600D01*
X109832798Y-73104398D02*
X109423200Y-72694800D01*
X109832798Y-106651402D02*
X109832798Y-73104398D01*
X106781600Y-109702600D02*
X109832798Y-106651402D01*
D19*
X138836400Y-61417200D02*
X138836400Y-60401200D01*
X138836400Y-66497200D02*
X138836400Y-61417200D01*
X131267200Y-52578000D02*
X131267200Y-41452800D01*
X131267200Y-41452800D02*
X129743200Y-39928800D01*
X124561600Y-39928800D02*
X129743200Y-39928800D01*
X131267200Y-55676800D02*
X131267200Y-52578000D01*
X134467600Y-58877200D02*
X131267200Y-55676800D01*
X137312400Y-58877200D02*
X134467600Y-58877200D01*
X138836400Y-60401200D02*
X137312400Y-58877200D01*
X125730000Y-45974000D02*
X124561600Y-44805600D01*
X124561600Y-44805600D02*
X124561600Y-39928800D01*
X124561600Y-39928800D02*
X121323100Y-39916100D01*
D18*
X122669300Y-49669700D02*
X123342400Y-48996600D01*
X122669300Y-58521600D02*
X122669300Y-49669700D01*
X121958100Y-59232800D02*
X122669300Y-58521600D01*
D19*
X108483400Y-107111800D02*
X108483400Y-73990200D01*
X104902000Y-70408800D02*
X104902000Y-64262000D01*
X108483400Y-73990200D02*
X104902000Y-70408800D01*
X130251200Y-100685600D02*
X132486400Y-102920800D01*
X104597200Y-110998000D02*
X108483400Y-107111800D01*
X108483400Y-107111800D02*
X108508800Y-107086400D01*
X104597200Y-116382800D02*
X104597200Y-110998000D01*
X110655100Y-122466100D02*
X104597200Y-116382800D01*
X120611900Y-122466100D02*
X110655100Y-122466100D01*
X121818400Y-123647200D02*
X120611900Y-122466100D01*
X131114800Y-123647200D02*
X121818400Y-123647200D01*
X132486400Y-122275600D02*
X131114800Y-123647200D01*
X132486400Y-102920800D02*
X132486400Y-122275600D01*
D20*
X127055319Y-36097919D02*
X125247400Y-36106100D01*
X125247400Y-36106100D02*
X125234700Y-36093400D01*
X132080000Y-51866800D02*
X132089367Y-41131967D01*
X132089367Y-41131967D02*
X127055319Y-36097919D01*
D21*
X128930400Y-41757600D02*
X126847600Y-41757600D01*
X130505200Y-43332400D02*
X128930400Y-41757600D01*
X130505200Y-56946800D02*
X130505200Y-43332400D01*
X132740400Y-59182000D02*
X130505200Y-56946800D01*
D20*
X126466600Y-51308000D02*
X125679200Y-52095400D01*
X125679200Y-52095400D02*
X125679200Y-52501800D01*
X125679200Y-52501800D02*
X126698398Y-53520998D01*
X126698398Y-53520998D02*
X126698398Y-57287788D01*
X126698398Y-57287788D02*
X125882400Y-58103786D01*
X125882400Y-58103786D02*
X125882400Y-61187314D01*
X125882400Y-61187314D02*
X126898400Y-62203314D01*
X126898400Y-62203314D02*
X126898400Y-95478600D01*
X126199900Y-62075028D02*
X126199900Y-98082100D01*
X125479198Y-61354326D02*
X126199900Y-62075028D01*
X125479198Y-57936774D02*
X125479198Y-61354326D01*
X126295196Y-57120776D02*
X125479198Y-57936774D01*
X126295196Y-55467296D02*
X126295196Y-57120776D01*
X125818900Y-54991000D02*
X126295196Y-55467296D01*
X110731300Y-107873800D02*
X110731300Y-107886500D01*
X113030000Y-45974000D02*
X111480600Y-47523400D01*
X111175800Y-120103900D02*
X111480600Y-120459500D01*
X111175800Y-109207300D02*
X111175800Y-120103900D01*
X110731300Y-51282600D02*
X110731300Y-107873800D01*
X111480600Y-50533300D02*
X110731300Y-51282600D01*
X111480600Y-47523400D02*
X111480600Y-50533300D01*
X111175800Y-108331000D02*
X111175800Y-109207300D01*
X110731300Y-107886500D02*
X111175800Y-108331000D01*
X110566200Y-108356400D02*
X110566200Y-119468900D01*
X110236000Y-108026200D02*
X110566200Y-108356400D01*
X110236000Y-48958500D02*
X110236000Y-108026200D01*
X110667800Y-48526700D02*
X110236000Y-48958500D01*
X111810800Y-51054000D02*
X113030000Y-51054000D01*
X111353600Y-51511200D02*
X111810800Y-51054000D01*
X111353600Y-100584000D02*
X111353600Y-51511200D01*
X126746000Y-100533200D02*
X125374400Y-99161600D01*
X126746000Y-119634000D02*
X126746000Y-100533200D01*
X121983500Y-102082600D02*
X122212100Y-102311200D01*
X121983500Y-60071000D02*
X121983500Y-102082600D01*
X117081300Y-57873900D02*
X117081300Y-68313300D01*
X117106700Y-57848500D02*
X117081300Y-57873900D01*
X118910100Y-73342500D02*
X118376700Y-73875900D01*
X118910100Y-57365900D02*
X118910100Y-73342500D01*
X117805200Y-119938800D02*
X117805200Y-82245200D01*
X117805200Y-82245200D02*
X117449600Y-81889600D01*
X118973600Y-119989600D02*
X118986300Y-84429600D01*
X129476500Y-52260500D02*
X128270000Y-51054000D01*
X129476500Y-57365900D02*
X129476500Y-52260500D01*
X128270000Y-56134000D02*
X128270000Y-56946800D01*
X126936500Y-58280300D02*
X128270000Y-56946800D01*
X126936500Y-59651900D02*
X126936500Y-58280300D01*
X128270000Y-63754000D02*
X128270000Y-63004700D01*
X128270000Y-63004700D02*
X126314200Y-61048900D01*
X127101600Y-52908200D02*
X126453900Y-52260500D01*
X127101600Y-57492900D02*
X127101600Y-52908200D01*
X126314200Y-58280300D02*
X127101600Y-57492900D01*
X126314200Y-61048900D02*
X126314200Y-58280300D01*
X123367800Y-76428600D02*
X123367800Y-57226200D01*
X123367800Y-57226200D02*
X123304300Y-57162700D01*
X121462800Y-120142000D02*
X123240800Y-118364000D01*
X123240800Y-118364000D02*
X123240800Y-94234000D01*
X112293400Y-121399300D02*
X115760500Y-117919500D01*
X115760500Y-117919500D02*
X115773200Y-96875600D01*
D18*
X125349000Y-63842900D02*
X125349000Y-77495400D01*
X124345700Y-62839600D02*
X125349000Y-63842900D01*
X124345700Y-51574700D02*
X124345700Y-62839600D01*
X125488700Y-50431700D02*
X124345700Y-51574700D01*
X124701300Y-63729492D02*
X124701300Y-79921100D01*
X123904398Y-62932590D02*
X124701300Y-63729492D01*
X123904398Y-50758702D02*
X123904398Y-62932590D01*
X125107700Y-49555400D02*
X123904398Y-50758702D01*
D20*
X120332500Y-47536100D02*
X120980200Y-48183800D01*
X120980200Y-85267800D02*
X120891300Y-85356700D01*
X120980200Y-48183800D02*
X120980200Y-85267800D01*
X120332500Y-46685200D02*
X119710200Y-47307500D01*
X120154700Y-85001100D02*
X120154700Y-87528400D01*
X120576998Y-84578802D02*
X120154700Y-85001100D01*
X120576998Y-48694998D02*
X120576998Y-84578802D01*
X119710200Y-47828200D02*
X120576998Y-48694998D01*
X119710200Y-47307500D02*
X119710200Y-47828200D01*
D18*
X117843300Y-48882300D02*
X119316500Y-47409100D01*
X119316500Y-38315900D02*
X119761000Y-37871400D01*
X119316500Y-47409100D02*
X119316500Y-38315900D01*
X117068600Y-50368200D02*
X117068600Y-48818800D01*
D19*
X118935500Y-37503100D02*
X119316500Y-37122100D01*
D18*
X118935500Y-46951900D02*
X118935500Y-37503100D01*
X117068600Y-48818800D02*
X118935500Y-46951900D01*
D20*
X117170200Y-43065700D02*
X117170200Y-40767000D01*
X116230400Y-44005500D02*
X117170200Y-43065700D01*
M02*
