G04 #@! TF.FileFunction,Soldermask,Top*
%FSLAX46Y46*%
G04 Gerber Fmt 4.6, Leading zero omitted, Abs format (unit mm)*
G04 Created by KiCad (PCBNEW 4.0.0-stable) date Friday, August 18, 2017 'PMt' 03:24:48 PM*
%MOMM*%
G01*
G04 APERTURE LIST*
%ADD10C,0.100000*%
%ADD11C,3.600000*%
%ADD12R,2.100000X1.600000*%
%ADD13O,2.100000X1.600000*%
%ADD14R,1.400000X2.000000*%
%ADD15R,1.432000X0.900000*%
%ADD16R,1.432000X1.022000*%
%ADD17R,2.100000X2.100000*%
%ADD18O,2.100000X2.100000*%
%ADD19R,1.150000X1.200000*%
%ADD20R,1.924000X1.924000*%
%ADD21C,1.924000*%
%ADD22R,2.000000X1.600000*%
%ADD23O,1.200000X2.400000*%
%ADD24O,2.400000X1.200000*%
%ADD25R,1.400000X2.200000*%
%ADD26R,0.600000X1.150000*%
%ADD27R,1.150000X0.600000*%
%ADD28R,2.300000X2.300000*%
%ADD29R,1.460000X1.050000*%
%ADD30R,3.200000X3.200000*%
%ADD31R,3.200000X2.600000*%
%ADD32C,2.100000*%
%ADD33R,0.900000X1.000000*%
%ADD34R,1.000000X0.900000*%
%ADD35R,0.800000X1.000000*%
%ADD36R,1.000000X0.800000*%
%ADD37R,0.830000X0.680000*%
%ADD38R,0.680000X0.830000*%
G04 APERTURE END LIST*
D10*
D11*
X105156000Y-48615600D03*
X105206800Y-122123200D03*
X136499600Y-122123200D03*
X136448800Y-48615600D03*
D12*
X135636000Y-81280000D03*
D13*
X135636000Y-83280000D03*
D14*
X127278000Y-123317000D03*
X130278000Y-123317000D03*
X111072800Y-123317000D03*
X114072800Y-123317000D03*
X119353200Y-123317000D03*
X122353200Y-123317000D03*
X115695600Y-39878000D03*
X118695600Y-39878000D03*
X122655200Y-39878000D03*
X125655200Y-39878000D03*
X133882000Y-76504800D03*
X136882000Y-76504800D03*
D15*
X104472000Y-56164400D03*
X106680000Y-56164400D03*
D16*
X104472000Y-57048400D03*
X104472000Y-55280400D03*
X106680000Y-55280400D03*
X106680000Y-57048400D03*
D17*
X130302000Y-120548400D03*
X103733600Y-94589600D03*
D18*
X103733600Y-97129600D03*
X103733600Y-99669600D03*
X103733600Y-102209600D03*
D17*
X134315200Y-98653600D03*
X113030000Y-43434000D03*
D18*
X113030000Y-45974000D03*
X113030000Y-48514000D03*
X113030000Y-51054000D03*
X113030000Y-53594000D03*
X113030000Y-56134000D03*
X113030000Y-58674000D03*
X113030000Y-61214000D03*
X113030000Y-63754000D03*
X113030000Y-66294000D03*
X113030000Y-68834000D03*
X113030000Y-71374000D03*
X113030000Y-73914000D03*
X113030000Y-76454000D03*
X113030000Y-78994000D03*
X113030000Y-81534000D03*
X113030000Y-84074000D03*
X113030000Y-86614000D03*
X113030000Y-89154000D03*
X113030000Y-91694000D03*
X113030000Y-94234000D03*
X113030000Y-96774000D03*
X113030000Y-99314000D03*
X113030000Y-101854000D03*
D17*
X125730000Y-45974000D03*
X128270000Y-43434000D03*
D18*
X128270000Y-45974000D03*
X128270000Y-48514000D03*
X128270000Y-51054000D03*
X128270000Y-53594000D03*
X128270000Y-56134000D03*
X128270000Y-58674000D03*
X128270000Y-61214000D03*
X128270000Y-63754000D03*
X128270000Y-66294000D03*
X128270000Y-68834000D03*
X128270000Y-71374000D03*
X128270000Y-73914000D03*
X128270000Y-76454000D03*
X128270000Y-78994000D03*
X128270000Y-81534000D03*
X128270000Y-84074000D03*
X128270000Y-86614000D03*
X128270000Y-89154000D03*
X128270000Y-91694000D03*
X128270000Y-94234000D03*
X128270000Y-96774000D03*
X128270000Y-99314000D03*
X128270000Y-101854000D03*
D17*
X106121200Y-76555600D03*
D18*
X103581200Y-76555600D03*
D17*
X106121200Y-79095600D03*
D18*
X103581200Y-79095600D03*
D17*
X106121200Y-81635600D03*
D18*
X103581200Y-81635600D03*
D17*
X106121200Y-84175600D03*
D18*
X103581200Y-84175600D03*
D17*
X106121200Y-86715600D03*
D18*
X103581200Y-86715600D03*
D19*
X128041400Y-35902200D03*
X128041400Y-37402200D03*
X128028700Y-34316100D03*
X128028700Y-32816100D03*
X129413000Y-37402200D03*
X129413000Y-35902200D03*
X122567700Y-44069700D03*
X122567700Y-42569700D03*
X117259100Y-44006200D03*
X117259100Y-42506200D03*
X129387600Y-32816100D03*
X129387600Y-34316100D03*
D20*
X104241600Y-108915200D03*
D21*
X109321600Y-108915200D03*
X106781600Y-113995200D03*
D22*
X106502000Y-64262000D03*
X103302000Y-64262000D03*
X106502000Y-66762000D03*
X103302000Y-66762000D03*
X103302000Y-61762000D03*
X106502000Y-61762000D03*
D23*
X128580400Y-104953600D03*
X127380400Y-104953600D03*
X126180400Y-104953600D03*
X124980400Y-104953600D03*
X123780400Y-104953600D03*
X122580400Y-104953600D03*
X121380400Y-104953600D03*
X120180400Y-104953600D03*
X118980400Y-104953600D03*
X117780400Y-104953600D03*
X116580400Y-104953600D03*
X115380400Y-104953600D03*
D24*
X112880400Y-107253600D03*
X112880400Y-108253600D03*
X112880400Y-109553600D03*
X112880400Y-110753600D03*
X112880400Y-111953600D03*
X112880400Y-113153600D03*
X112880400Y-114453600D03*
X112880400Y-115453600D03*
D23*
X115380400Y-117753600D03*
X116580400Y-117753600D03*
X117780400Y-117753600D03*
X118980400Y-117753600D03*
X120180400Y-117753600D03*
X121380400Y-117753600D03*
X122580400Y-117753600D03*
X123780400Y-117753600D03*
X124980400Y-117753600D03*
X126180400Y-117753600D03*
X127380400Y-117753600D03*
X128580400Y-117753600D03*
D25*
X113280400Y-105753600D03*
X113280400Y-116953600D03*
X132280400Y-116953600D03*
X132280400Y-105753600D03*
D26*
X118951600Y-54062000D03*
X119351600Y-54062000D03*
X119751600Y-54062000D03*
X120151600Y-54062000D03*
X120551600Y-54062000D03*
X120951600Y-54062000D03*
X121351600Y-54062000D03*
X121751600Y-54062000D03*
X122151600Y-54062000D03*
X122551600Y-54062000D03*
D27*
X123251600Y-53362000D03*
X123251600Y-52962000D03*
X123251600Y-52562000D03*
X123251600Y-52162000D03*
X123251600Y-51762000D03*
X123251600Y-51362000D03*
X123251600Y-50962000D03*
X123251600Y-50562000D03*
X123251600Y-50162000D03*
X123251600Y-49762000D03*
D26*
X122551600Y-49062000D03*
X122151600Y-49062000D03*
X121751600Y-49062000D03*
X121351600Y-49062000D03*
X120951600Y-49062000D03*
X120551600Y-49062000D03*
X120151600Y-49062000D03*
X119751600Y-49062000D03*
X119351600Y-49062000D03*
X118951600Y-49062000D03*
D27*
X118251600Y-49762000D03*
X118251600Y-50162000D03*
X118251600Y-50562000D03*
X118251600Y-50962000D03*
X118251600Y-51362000D03*
X118251600Y-51762000D03*
X118251600Y-52162000D03*
X118251600Y-52562000D03*
X118251600Y-52962000D03*
X118251600Y-53362000D03*
D28*
X121701600Y-50612000D03*
X119801600Y-50612000D03*
X121701600Y-52512000D03*
X119801600Y-52512000D03*
D29*
X134231200Y-63312000D03*
X134231200Y-64262000D03*
X134231200Y-65212000D03*
X136431200Y-65212000D03*
X136431200Y-63312000D03*
X119448400Y-63312000D03*
X119448400Y-64262000D03*
X119448400Y-65212000D03*
X121648400Y-65212000D03*
X121648400Y-63312000D03*
D15*
X137513800Y-56179800D03*
X135305800Y-56179800D03*
D16*
X137513800Y-55295800D03*
X137513800Y-57063800D03*
X135305800Y-57063800D03*
X135305800Y-55295800D03*
D30*
X108395200Y-43848400D03*
X103445200Y-39948400D03*
D31*
X111845200Y-32548400D03*
D32*
X107645200Y-38648400D03*
X107645200Y-31648400D03*
D31*
X103445200Y-30548400D03*
D30*
X130064400Y-39948400D03*
D31*
X138464400Y-32548400D03*
D32*
X134264400Y-38648400D03*
X134264400Y-31648400D03*
D31*
X130064400Y-30548400D03*
D33*
X116586000Y-102480200D03*
X116586000Y-101380200D03*
X116674900Y-52434400D03*
X116674900Y-53534400D03*
X116547900Y-45462100D03*
X116547900Y-46562100D03*
X124307600Y-57179300D03*
X124307600Y-56079300D03*
X125603000Y-57179300D03*
X125603000Y-56079300D03*
D34*
X116653400Y-55664100D03*
X115553400Y-55664100D03*
X116653400Y-54686200D03*
X115553400Y-54686200D03*
D33*
X115557300Y-52434400D03*
X115557300Y-53534400D03*
D34*
X116513700Y-49606200D03*
X115413700Y-49606200D03*
D33*
X117602000Y-46562100D03*
X117602000Y-45462100D03*
X123012200Y-47032000D03*
X123012200Y-45932000D03*
X120484900Y-43539500D03*
X120484900Y-42439500D03*
X119329200Y-43539500D03*
X119329200Y-42439500D03*
D34*
X130933100Y-71361300D03*
X132033100Y-71361300D03*
D33*
X138125200Y-65167600D03*
X138125200Y-64067600D03*
D34*
X132139600Y-55295800D03*
X133239600Y-55295800D03*
X132139600Y-57086500D03*
X133239600Y-57086500D03*
X109744600Y-57048400D03*
X108644600Y-57048400D03*
X109706500Y-55295800D03*
X108606500Y-55295800D03*
D33*
X116840000Y-63204000D03*
X116840000Y-64304000D03*
X131876800Y-65256500D03*
X131876800Y-64156500D03*
X123774200Y-64367500D03*
X123774200Y-63267500D03*
D34*
X109757300Y-76606400D03*
X108657300Y-76606400D03*
X109719200Y-79095600D03*
X108619200Y-79095600D03*
X109592200Y-84328000D03*
X108492200Y-84328000D03*
X109655700Y-87376000D03*
X108555700Y-87376000D03*
D35*
X127272200Y-121285000D03*
X126372200Y-121285000D03*
X113215000Y-121412000D03*
X114115000Y-121412000D03*
D36*
X125514100Y-61841800D03*
X125514100Y-60941800D03*
X125526800Y-63519900D03*
X125526800Y-64419900D03*
D35*
X121444600Y-121335800D03*
X122344600Y-121335800D03*
D36*
X131165600Y-60205200D03*
X131165600Y-61105200D03*
X132689600Y-60205200D03*
X132689600Y-61105200D03*
D35*
X136405200Y-61607700D03*
X137305200Y-61607700D03*
D37*
X118973600Y-56292400D03*
X118973600Y-55772400D03*
X120599200Y-56292400D03*
X120599200Y-55772400D03*
X121412000Y-56292400D03*
X121412000Y-55772400D03*
X122224800Y-56292400D03*
X122224800Y-55772400D03*
X123037600Y-56292400D03*
X123037600Y-55772400D03*
X119786400Y-56292400D03*
X119786400Y-55772400D03*
D38*
X125596300Y-51320700D03*
X125076300Y-51320700D03*
X125596300Y-52184300D03*
X125076300Y-52184300D03*
X125596300Y-53047900D03*
X125076300Y-53047900D03*
X125596300Y-53911500D03*
X125076300Y-53911500D03*
M02*
