G04 #@! TF.FileFunction,Legend,Top*
%FSLAX46Y46*%
G04 Gerber Fmt 4.6, Leading zero omitted, Abs format (unit mm)*
G04 Created by KiCad (PCBNEW 4.0.0-stable) date Friday, August 18, 2017 'PMt' 03:24:48 PM*
%MOMM*%
G01*
G04 APERTURE LIST*
%ADD10C,0.100000*%
%ADD11C,0.177800*%
%ADD12C,0.120000*%
%ADD13C,0.150000*%
%ADD14C,0.300000*%
%ADD15C,0.127000*%
G04 APERTURE END LIST*
D10*
D11*
X125697343Y-119735600D02*
X125624772Y-119699314D01*
X125515915Y-119699314D01*
X125407058Y-119735600D01*
X125334486Y-119808171D01*
X125298201Y-119880743D01*
X125261915Y-120025886D01*
X125261915Y-120134743D01*
X125298201Y-120279886D01*
X125334486Y-120352457D01*
X125407058Y-120425029D01*
X125515915Y-120461314D01*
X125588486Y-120461314D01*
X125697343Y-120425029D01*
X125733629Y-120388743D01*
X125733629Y-120134743D01*
X125588486Y-120134743D01*
X126060201Y-120461314D02*
X126060201Y-119699314D01*
X126350486Y-119699314D01*
X126423058Y-119735600D01*
X126459343Y-119771886D01*
X126495629Y-119844457D01*
X126495629Y-119953314D01*
X126459343Y-120025886D01*
X126423058Y-120062171D01*
X126350486Y-120098457D01*
X126060201Y-120098457D01*
X126822201Y-120461314D02*
X126822201Y-119699314D01*
X127330200Y-119699314D02*
X127475343Y-119699314D01*
X127547915Y-119735600D01*
X127620486Y-119808171D01*
X127656772Y-119953314D01*
X127656772Y-120207314D01*
X127620486Y-120352457D01*
X127547915Y-120425029D01*
X127475343Y-120461314D01*
X127330200Y-120461314D01*
X127257629Y-120425029D01*
X127185058Y-120352457D01*
X127148772Y-120207314D01*
X127148772Y-119953314D01*
X127185058Y-119808171D01*
X127257629Y-119735600D01*
X127330200Y-119699314D01*
X128346201Y-119699314D02*
X127983344Y-119699314D01*
X127947058Y-120062171D01*
X127983344Y-120025886D01*
X128055915Y-119989600D01*
X128237344Y-119989600D01*
X128309915Y-120025886D01*
X128346201Y-120062171D01*
X128382486Y-120134743D01*
X128382486Y-120316171D01*
X128346201Y-120388743D01*
X128309915Y-120425029D01*
X128237344Y-120461314D01*
X128055915Y-120461314D01*
X127983344Y-120425029D01*
X127947058Y-120388743D01*
X133734628Y-100787200D02*
X133662057Y-100750914D01*
X133553200Y-100750914D01*
X133444343Y-100787200D01*
X133371771Y-100859771D01*
X133335486Y-100932343D01*
X133299200Y-101077486D01*
X133299200Y-101186343D01*
X133335486Y-101331486D01*
X133371771Y-101404057D01*
X133444343Y-101476629D01*
X133553200Y-101512914D01*
X133625771Y-101512914D01*
X133734628Y-101476629D01*
X133770914Y-101440343D01*
X133770914Y-101186343D01*
X133625771Y-101186343D01*
X134097486Y-101512914D02*
X134097486Y-100750914D01*
X134532914Y-101512914D01*
X134532914Y-100750914D01*
X134895772Y-101512914D02*
X134895772Y-100750914D01*
X135077200Y-100750914D01*
X135186057Y-100787200D01*
X135258629Y-100859771D01*
X135294914Y-100932343D01*
X135331200Y-101077486D01*
X135331200Y-101186343D01*
X135294914Y-101331486D01*
X135258629Y-101404057D01*
X135186057Y-101476629D01*
X135077200Y-101512914D01*
X134895772Y-101512914D01*
X122437071Y-38295943D02*
X122400785Y-38332229D01*
X122291928Y-38368514D01*
X122219357Y-38368514D01*
X122110500Y-38332229D01*
X122037928Y-38259657D01*
X122001643Y-38187086D01*
X121965357Y-38041943D01*
X121965357Y-37933086D01*
X122001643Y-37787943D01*
X122037928Y-37715371D01*
X122110500Y-37642800D01*
X122219357Y-37606514D01*
X122291928Y-37606514D01*
X122400785Y-37642800D01*
X122437071Y-37679086D01*
X122763643Y-38368514D02*
X122763643Y-37606514D01*
X123090214Y-38368514D02*
X123090214Y-37969371D01*
X123053928Y-37896800D01*
X122981357Y-37860514D01*
X122872500Y-37860514D01*
X122799928Y-37896800D01*
X122763643Y-37933086D01*
X123779643Y-38368514D02*
X123779643Y-37969371D01*
X123743357Y-37896800D01*
X123670786Y-37860514D01*
X123525643Y-37860514D01*
X123453072Y-37896800D01*
X123779643Y-38332229D02*
X123707072Y-38368514D01*
X123525643Y-38368514D01*
X123453072Y-38332229D01*
X123416786Y-38259657D01*
X123416786Y-38187086D01*
X123453072Y-38114514D01*
X123525643Y-38078229D01*
X123707072Y-38078229D01*
X123779643Y-38041943D01*
X124142501Y-38368514D02*
X124142501Y-37860514D01*
X124142501Y-38005657D02*
X124178786Y-37933086D01*
X124215072Y-37896800D01*
X124287643Y-37860514D01*
X124360215Y-37860514D01*
X124940786Y-37860514D02*
X124940786Y-38477371D01*
X124904500Y-38549943D01*
X124868215Y-38586229D01*
X124795643Y-38622514D01*
X124686786Y-38622514D01*
X124614215Y-38586229D01*
X124940786Y-38332229D02*
X124868215Y-38368514D01*
X124723072Y-38368514D01*
X124650500Y-38332229D01*
X124614215Y-38295943D01*
X124577929Y-38223371D01*
X124577929Y-38005657D01*
X124614215Y-37933086D01*
X124650500Y-37896800D01*
X124723072Y-37860514D01*
X124868215Y-37860514D01*
X124940786Y-37896800D01*
X125593929Y-38332229D02*
X125521358Y-38368514D01*
X125376215Y-38368514D01*
X125303644Y-38332229D01*
X125267358Y-38259657D01*
X125267358Y-37969371D01*
X125303644Y-37896800D01*
X125376215Y-37860514D01*
X125521358Y-37860514D01*
X125593929Y-37896800D01*
X125630215Y-37969371D01*
X125630215Y-38041943D01*
X125267358Y-38114514D01*
X126283358Y-38368514D02*
X126283358Y-37606514D01*
X126283358Y-38332229D02*
X126210787Y-38368514D01*
X126065644Y-38368514D01*
X125993072Y-38332229D01*
X125956787Y-38295943D01*
X125920501Y-38223371D01*
X125920501Y-38005657D01*
X125956787Y-37933086D01*
X125993072Y-37896800D01*
X126065644Y-37860514D01*
X126210787Y-37860514D01*
X126283358Y-37896800D01*
X115328699Y-38156243D02*
X115292413Y-38192529D01*
X115183556Y-38228814D01*
X115110985Y-38228814D01*
X115002128Y-38192529D01*
X114929556Y-38119957D01*
X114893271Y-38047386D01*
X114856985Y-37902243D01*
X114856985Y-37793386D01*
X114893271Y-37648243D01*
X114929556Y-37575671D01*
X115002128Y-37503100D01*
X115110985Y-37466814D01*
X115183556Y-37466814D01*
X115292413Y-37503100D01*
X115328699Y-37539386D01*
X115655271Y-38228814D02*
X115655271Y-37466814D01*
X115981842Y-38228814D02*
X115981842Y-37829671D01*
X115945556Y-37757100D01*
X115872985Y-37720814D01*
X115764128Y-37720814D01*
X115691556Y-37757100D01*
X115655271Y-37793386D01*
X116671271Y-38228814D02*
X116671271Y-37829671D01*
X116634985Y-37757100D01*
X116562414Y-37720814D01*
X116417271Y-37720814D01*
X116344700Y-37757100D01*
X116671271Y-38192529D02*
X116598700Y-38228814D01*
X116417271Y-38228814D01*
X116344700Y-38192529D01*
X116308414Y-38119957D01*
X116308414Y-38047386D01*
X116344700Y-37974814D01*
X116417271Y-37938529D01*
X116598700Y-37938529D01*
X116671271Y-37902243D01*
X117034129Y-38228814D02*
X117034129Y-37720814D01*
X117034129Y-37865957D02*
X117070414Y-37793386D01*
X117106700Y-37757100D01*
X117179271Y-37720814D01*
X117251843Y-37720814D01*
X117832414Y-37720814D02*
X117832414Y-38337671D01*
X117796128Y-38410243D01*
X117759843Y-38446529D01*
X117687271Y-38482814D01*
X117578414Y-38482814D01*
X117505843Y-38446529D01*
X117832414Y-38192529D02*
X117759843Y-38228814D01*
X117614700Y-38228814D01*
X117542128Y-38192529D01*
X117505843Y-38156243D01*
X117469557Y-38083671D01*
X117469557Y-37865957D01*
X117505843Y-37793386D01*
X117542128Y-37757100D01*
X117614700Y-37720814D01*
X117759843Y-37720814D01*
X117832414Y-37757100D01*
X118195272Y-38228814D02*
X118195272Y-37720814D01*
X118195272Y-37466814D02*
X118158986Y-37503100D01*
X118195272Y-37539386D01*
X118231557Y-37503100D01*
X118195272Y-37466814D01*
X118195272Y-37539386D01*
X118558129Y-37720814D02*
X118558129Y-38228814D01*
X118558129Y-37793386D02*
X118594414Y-37757100D01*
X118666986Y-37720814D01*
X118775843Y-37720814D01*
X118848414Y-37757100D01*
X118884700Y-37829671D01*
X118884700Y-38228814D01*
X119574129Y-37720814D02*
X119574129Y-38337671D01*
X119537843Y-38410243D01*
X119501558Y-38446529D01*
X119428986Y-38482814D01*
X119320129Y-38482814D01*
X119247558Y-38446529D01*
X119574129Y-38192529D02*
X119501558Y-38228814D01*
X119356415Y-38228814D01*
X119283843Y-38192529D01*
X119247558Y-38156243D01*
X119211272Y-38083671D01*
X119211272Y-37865957D01*
X119247558Y-37793386D01*
X119283843Y-37757100D01*
X119356415Y-37720814D01*
X119501558Y-37720814D01*
X119574129Y-37757100D01*
X121255971Y-72188614D02*
X121255971Y-73059471D01*
X119731971Y-72624042D02*
X121255971Y-72624042D01*
X120457686Y-73857757D02*
X119731971Y-73857757D01*
X121255971Y-73349757D02*
X120457686Y-73857757D01*
X121255971Y-74365757D01*
X119731971Y-74873757D02*
X121255971Y-74873757D01*
X120167400Y-75381757D01*
X121255971Y-75889757D01*
X119731971Y-75889757D01*
X119731971Y-76615471D02*
X121255971Y-76615471D01*
X121255971Y-77196043D01*
X121183400Y-77341185D01*
X121110829Y-77413757D01*
X120965686Y-77486328D01*
X120747971Y-77486328D01*
X120602829Y-77413757D01*
X120530257Y-77341185D01*
X120457686Y-77196043D01*
X120457686Y-76615471D01*
X120167400Y-78066900D02*
X120167400Y-78792614D01*
X119731971Y-77921757D02*
X121255971Y-78429757D01*
X119731971Y-78937757D01*
X119731971Y-79445757D02*
X121255971Y-79445757D01*
X119731971Y-80316614D01*
X121255971Y-80316614D01*
X119731971Y-84235471D02*
X120457686Y-83727471D01*
X119731971Y-83364614D02*
X121255971Y-83364614D01*
X121255971Y-83945186D01*
X121183400Y-84090328D01*
X121110829Y-84162900D01*
X120965686Y-84235471D01*
X120747971Y-84235471D01*
X120602829Y-84162900D01*
X120530257Y-84090328D01*
X120457686Y-83945186D01*
X120457686Y-83364614D01*
X119804543Y-85469186D02*
X119731971Y-85324043D01*
X119731971Y-85033757D01*
X119804543Y-84888614D01*
X119949686Y-84816043D01*
X120530257Y-84816043D01*
X120675400Y-84888614D01*
X120747971Y-85033757D01*
X120747971Y-85324043D01*
X120675400Y-85469186D01*
X120530257Y-85541757D01*
X120385114Y-85541757D01*
X120239971Y-84816043D01*
X120747971Y-86049757D02*
X119731971Y-86412614D01*
X120747971Y-86775472D01*
X119877114Y-89388043D02*
X119804543Y-89315472D01*
X119731971Y-89097758D01*
X119731971Y-88952615D01*
X119804543Y-88734900D01*
X119949686Y-88589758D01*
X120094829Y-88517186D01*
X120385114Y-88444615D01*
X120602829Y-88444615D01*
X120893114Y-88517186D01*
X121038257Y-88589758D01*
X121183400Y-88734900D01*
X121255971Y-88952615D01*
X121255971Y-89097758D01*
X121183400Y-89315472D01*
X121110829Y-89388043D01*
X138636829Y-84295342D02*
X138636829Y-83714771D01*
X138636829Y-81029629D02*
X138636829Y-80449058D01*
X138927114Y-80739344D02*
X138346543Y-80739344D01*
X106587471Y-95010514D02*
X106152043Y-95010514D01*
X106369757Y-95010514D02*
X106369757Y-94248514D01*
X106297186Y-94357371D01*
X106224614Y-94429943D01*
X106152043Y-94466229D01*
X106805185Y-94248514D02*
X107059185Y-95010514D01*
X107313185Y-94248514D01*
X107676043Y-94575086D02*
X107603471Y-94538800D01*
X107567186Y-94502514D01*
X107530900Y-94429943D01*
X107530900Y-94393657D01*
X107567186Y-94321086D01*
X107603471Y-94284800D01*
X107676043Y-94248514D01*
X107821186Y-94248514D01*
X107893757Y-94284800D01*
X107930043Y-94321086D01*
X107966328Y-94393657D01*
X107966328Y-94429943D01*
X107930043Y-94502514D01*
X107893757Y-94538800D01*
X107821186Y-94575086D01*
X107676043Y-94575086D01*
X107603471Y-94611371D01*
X107567186Y-94647657D01*
X107530900Y-94720229D01*
X107530900Y-94865371D01*
X107567186Y-94937943D01*
X107603471Y-94974229D01*
X107676043Y-95010514D01*
X107821186Y-95010514D01*
X107893757Y-94974229D01*
X107930043Y-94937943D01*
X107966328Y-94865371D01*
X107966328Y-94720229D01*
X107930043Y-94647657D01*
X107893757Y-94611371D01*
X107821186Y-94575086D01*
X106188329Y-97499714D02*
X106188329Y-96737714D01*
X106442329Y-97282000D01*
X106696329Y-96737714D01*
X106696329Y-97499714D01*
X107059186Y-97499714D02*
X107059186Y-96737714D01*
X107385757Y-97463429D02*
X107494614Y-97499714D01*
X107676043Y-97499714D01*
X107748614Y-97463429D01*
X107784900Y-97427143D01*
X107821185Y-97354571D01*
X107821185Y-97282000D01*
X107784900Y-97209429D01*
X107748614Y-97173143D01*
X107676043Y-97136857D01*
X107530900Y-97100571D01*
X107458328Y-97064286D01*
X107422043Y-97028000D01*
X107385757Y-96955429D01*
X107385757Y-96882857D01*
X107422043Y-96810286D01*
X107458328Y-96774000D01*
X107530900Y-96737714D01*
X107712328Y-96737714D01*
X107821185Y-96774000D01*
X108292899Y-96737714D02*
X108438042Y-96737714D01*
X108510614Y-96774000D01*
X108583185Y-96846571D01*
X108619471Y-96991714D01*
X108619471Y-97245714D01*
X108583185Y-97390857D01*
X108510614Y-97463429D01*
X108438042Y-97499714D01*
X108292899Y-97499714D01*
X108220328Y-97463429D01*
X108147757Y-97390857D01*
X108111471Y-97245714D01*
X108111471Y-96991714D01*
X108147757Y-96846571D01*
X108220328Y-96774000D01*
X108292899Y-96737714D01*
X106152043Y-99952629D02*
X106260900Y-99988914D01*
X106442329Y-99988914D01*
X106514900Y-99952629D01*
X106551186Y-99916343D01*
X106587471Y-99843771D01*
X106587471Y-99771200D01*
X106551186Y-99698629D01*
X106514900Y-99662343D01*
X106442329Y-99626057D01*
X106297186Y-99589771D01*
X106224614Y-99553486D01*
X106188329Y-99517200D01*
X106152043Y-99444629D01*
X106152043Y-99372057D01*
X106188329Y-99299486D01*
X106224614Y-99263200D01*
X106297186Y-99226914D01*
X106478614Y-99226914D01*
X106587471Y-99263200D01*
X107349471Y-99916343D02*
X107313185Y-99952629D01*
X107204328Y-99988914D01*
X107131757Y-99988914D01*
X107022900Y-99952629D01*
X106950328Y-99880057D01*
X106914043Y-99807486D01*
X106877757Y-99662343D01*
X106877757Y-99553486D01*
X106914043Y-99408343D01*
X106950328Y-99335771D01*
X107022900Y-99263200D01*
X107131757Y-99226914D01*
X107204328Y-99226914D01*
X107313185Y-99263200D01*
X107349471Y-99299486D01*
X108038900Y-99988914D02*
X107676043Y-99988914D01*
X107676043Y-99226914D01*
X108292900Y-99988914D02*
X108292900Y-99226914D01*
X108728328Y-99988914D02*
X108401757Y-99553486D01*
X108728328Y-99226914D02*
X108292900Y-99662343D01*
X106587471Y-101752400D02*
X106514900Y-101716114D01*
X106406043Y-101716114D01*
X106297186Y-101752400D01*
X106224614Y-101824971D01*
X106188329Y-101897543D01*
X106152043Y-102042686D01*
X106152043Y-102151543D01*
X106188329Y-102296686D01*
X106224614Y-102369257D01*
X106297186Y-102441829D01*
X106406043Y-102478114D01*
X106478614Y-102478114D01*
X106587471Y-102441829D01*
X106623757Y-102405543D01*
X106623757Y-102151543D01*
X106478614Y-102151543D01*
X106950329Y-102478114D02*
X106950329Y-101716114D01*
X107385757Y-102478114D01*
X107385757Y-101716114D01*
X107748615Y-102478114D02*
X107748615Y-101716114D01*
X107930043Y-101716114D01*
X108038900Y-101752400D01*
X108111472Y-101824971D01*
X108147757Y-101897543D01*
X108184043Y-102042686D01*
X108184043Y-102151543D01*
X108147757Y-102296686D01*
X108111472Y-102369257D01*
X108038900Y-102441829D01*
X107930043Y-102478114D01*
X107748615Y-102478114D01*
X102957086Y-69568785D02*
X102957086Y-69713928D01*
X102920800Y-69786500D01*
X102848229Y-69859071D01*
X102703086Y-69895357D01*
X102449086Y-69895357D01*
X102303943Y-69859071D01*
X102231371Y-69786500D01*
X102195086Y-69713928D01*
X102195086Y-69568785D01*
X102231371Y-69496214D01*
X102303943Y-69423643D01*
X102449086Y-69387357D01*
X102703086Y-69387357D01*
X102848229Y-69423643D01*
X102920800Y-69496214D01*
X102957086Y-69568785D01*
X102594229Y-70475929D02*
X102594229Y-70221929D01*
X102195086Y-70221929D02*
X102957086Y-70221929D01*
X102957086Y-70584786D01*
X102594229Y-71129072D02*
X102594229Y-70875072D01*
X102195086Y-70875072D02*
X102957086Y-70875072D01*
X102957086Y-71237929D01*
X102842786Y-58253085D02*
X102842786Y-58398228D01*
X102806500Y-58470800D01*
X102733929Y-58543371D01*
X102588786Y-58579657D01*
X102334786Y-58579657D01*
X102189643Y-58543371D01*
X102117071Y-58470800D01*
X102080786Y-58398228D01*
X102080786Y-58253085D01*
X102117071Y-58180514D01*
X102189643Y-58107943D01*
X102334786Y-58071657D01*
X102588786Y-58071657D01*
X102733929Y-58107943D01*
X102806500Y-58180514D01*
X102842786Y-58253085D01*
X102080786Y-58906229D02*
X102842786Y-58906229D01*
X102080786Y-59341657D01*
X102842786Y-59341657D01*
X102360186Y-33341129D02*
X103122186Y-33341129D01*
X102360186Y-33703986D02*
X103122186Y-33703986D01*
X102360186Y-34139414D01*
X103122186Y-34139414D01*
X102360186Y-34502272D02*
X103122186Y-34502272D01*
X103122186Y-34792557D01*
X103085900Y-34865129D01*
X103049614Y-34901414D01*
X102977043Y-34937700D01*
X102868186Y-34937700D01*
X102795614Y-34901414D01*
X102759329Y-34865129D01*
X102723043Y-34792557D01*
X102723043Y-34502272D01*
X103122186Y-35264272D02*
X102505329Y-35264272D01*
X102432757Y-35300557D01*
X102396471Y-35336843D01*
X102360186Y-35409414D01*
X102360186Y-35554557D01*
X102396471Y-35627129D01*
X102432757Y-35663414D01*
X102505329Y-35699700D01*
X103122186Y-35699700D01*
X103122186Y-35953700D02*
X103122186Y-36389129D01*
X102360186Y-36171415D02*
X103122186Y-36171415D01*
X138517086Y-35500129D02*
X139279086Y-35500129D01*
X139279086Y-35790414D01*
X139242800Y-35862986D01*
X139206514Y-35899271D01*
X139133943Y-35935557D01*
X139025086Y-35935557D01*
X138952514Y-35899271D01*
X138916229Y-35862986D01*
X138879943Y-35790414D01*
X138879943Y-35500129D01*
X138517086Y-36262129D02*
X139279086Y-36262129D01*
X138916229Y-36262129D02*
X138916229Y-36697557D01*
X138517086Y-36697557D02*
X139279086Y-36697557D01*
X139279086Y-37205557D02*
X139279086Y-37350700D01*
X139242800Y-37423272D01*
X139170229Y-37495843D01*
X139025086Y-37532129D01*
X138771086Y-37532129D01*
X138625943Y-37495843D01*
X138553371Y-37423272D01*
X138517086Y-37350700D01*
X138517086Y-37205557D01*
X138553371Y-37132986D01*
X138625943Y-37060415D01*
X138771086Y-37024129D01*
X139025086Y-37024129D01*
X139170229Y-37060415D01*
X139242800Y-37132986D01*
X139279086Y-37205557D01*
X138517086Y-37858701D02*
X139279086Y-37858701D01*
X138517086Y-38294129D01*
X139279086Y-38294129D01*
X138916229Y-38656987D02*
X138916229Y-38910987D01*
X138517086Y-39019844D02*
X138517086Y-38656987D01*
X139279086Y-38656987D01*
X139279086Y-39019844D01*
X138553371Y-39310130D02*
X138517086Y-39418987D01*
X138517086Y-39600416D01*
X138553371Y-39672987D01*
X138589657Y-39709273D01*
X138662229Y-39745558D01*
X138734800Y-39745558D01*
X138807371Y-39709273D01*
X138843657Y-39672987D01*
X138879943Y-39600416D01*
X138916229Y-39455273D01*
X138952514Y-39382701D01*
X138988800Y-39346416D01*
X139061371Y-39310130D01*
X139133943Y-39310130D01*
X139206514Y-39346416D01*
X139242800Y-39382701D01*
X139279086Y-39455273D01*
X139279086Y-39636701D01*
X139242800Y-39745558D01*
X104546400Y-54268914D02*
X104292400Y-53906057D01*
X104110972Y-54268914D02*
X104110972Y-53506914D01*
X104401257Y-53506914D01*
X104473829Y-53543200D01*
X104510114Y-53579486D01*
X104546400Y-53652057D01*
X104546400Y-53760914D01*
X104510114Y-53833486D01*
X104473829Y-53869771D01*
X104401257Y-53906057D01*
X104110972Y-53906057D01*
X104872972Y-54268914D02*
X104872972Y-53506914D01*
X105634971Y-53543200D02*
X105562400Y-53506914D01*
X105453543Y-53506914D01*
X105344686Y-53543200D01*
X105272114Y-53615771D01*
X105235829Y-53688343D01*
X105199543Y-53833486D01*
X105199543Y-53942343D01*
X105235829Y-54087486D01*
X105272114Y-54160057D01*
X105344686Y-54232629D01*
X105453543Y-54268914D01*
X105526114Y-54268914D01*
X105634971Y-54232629D01*
X105671257Y-54196343D01*
X105671257Y-53942343D01*
X105526114Y-53942343D01*
X105997829Y-54268914D02*
X105997829Y-53506914D01*
X105997829Y-53869771D02*
X106433257Y-53869771D01*
X106433257Y-54268914D02*
X106433257Y-53506914D01*
X106687257Y-53506914D02*
X107122686Y-53506914D01*
X106904972Y-54268914D02*
X106904972Y-53506914D01*
X135557986Y-54141914D02*
X135195129Y-54141914D01*
X135195129Y-53379914D01*
X135811986Y-53742771D02*
X136065986Y-53742771D01*
X136174843Y-54141914D02*
X135811986Y-54141914D01*
X135811986Y-53379914D01*
X136174843Y-53379914D01*
X136755415Y-53742771D02*
X136501415Y-53742771D01*
X136501415Y-54141914D02*
X136501415Y-53379914D01*
X136864272Y-53379914D01*
X137045700Y-53379914D02*
X137481129Y-53379914D01*
X137263415Y-54141914D02*
X137263415Y-53379914D01*
X103232858Y-89651114D02*
X102870001Y-89651114D01*
X102870001Y-88889114D01*
X103632000Y-88889114D02*
X103777143Y-88889114D01*
X103849715Y-88925400D01*
X103922286Y-88997971D01*
X103958572Y-89143114D01*
X103958572Y-89397114D01*
X103922286Y-89542257D01*
X103849715Y-89614829D01*
X103777143Y-89651114D01*
X103632000Y-89651114D01*
X103559429Y-89614829D01*
X103486858Y-89542257D01*
X103450572Y-89397114D01*
X103450572Y-89143114D01*
X103486858Y-88997971D01*
X103559429Y-88925400D01*
X103632000Y-88889114D01*
X105228572Y-89651114D02*
X104865715Y-89651114D01*
X104865715Y-88889114D01*
X106026857Y-88852829D02*
X105373714Y-89832543D01*
X106716286Y-89651114D02*
X106462286Y-89288257D01*
X106280858Y-89651114D02*
X106280858Y-88889114D01*
X106571143Y-88889114D01*
X106643715Y-88925400D01*
X106680000Y-88961686D01*
X106716286Y-89034257D01*
X106716286Y-89143114D01*
X106680000Y-89215686D01*
X106643715Y-89251971D01*
X106571143Y-89288257D01*
X106280858Y-89288257D01*
X102532544Y-74385714D02*
X102532544Y-73623714D01*
X102895401Y-74385714D02*
X102895401Y-73623714D01*
X103330829Y-74385714D01*
X103330829Y-73623714D01*
X104092829Y-74385714D02*
X103657401Y-74385714D01*
X103875115Y-74385714D02*
X103875115Y-73623714D01*
X103802544Y-73732571D01*
X103729972Y-73805143D01*
X103657401Y-73841429D01*
X105362829Y-74385714D02*
X104999972Y-74385714D01*
X104999972Y-73623714D01*
X106161114Y-73587429D02*
X105507971Y-74567143D01*
X106850543Y-74385714D02*
X106596543Y-74022857D01*
X106415115Y-74385714D02*
X106415115Y-73623714D01*
X106705400Y-73623714D01*
X106777972Y-73660000D01*
X106814257Y-73696286D01*
X106850543Y-73768857D01*
X106850543Y-73877714D01*
X106814257Y-73950286D01*
X106777972Y-73986571D01*
X106705400Y-74022857D01*
X106415115Y-74022857D01*
X108378171Y-82158114D02*
X107942743Y-82158114D01*
X108160457Y-82158114D02*
X108160457Y-81396114D01*
X108087886Y-81504971D01*
X108015314Y-81577543D01*
X107942743Y-81613829D01*
X108704743Y-82085543D02*
X108741028Y-82121829D01*
X108704743Y-82158114D01*
X108668457Y-82121829D01*
X108704743Y-82085543D01*
X108704743Y-82158114D01*
X109176457Y-81722686D02*
X109103885Y-81686400D01*
X109067600Y-81650114D01*
X109031314Y-81577543D01*
X109031314Y-81541257D01*
X109067600Y-81468686D01*
X109103885Y-81432400D01*
X109176457Y-81396114D01*
X109321600Y-81396114D01*
X109394171Y-81432400D01*
X109430457Y-81468686D01*
X109466742Y-81541257D01*
X109466742Y-81577543D01*
X109430457Y-81650114D01*
X109394171Y-81686400D01*
X109321600Y-81722686D01*
X109176457Y-81722686D01*
X109103885Y-81758971D01*
X109067600Y-81795257D01*
X109031314Y-81867829D01*
X109031314Y-82012971D01*
X109067600Y-82085543D01*
X109103885Y-82121829D01*
X109176457Y-82158114D01*
X109321600Y-82158114D01*
X109394171Y-82121829D01*
X109430457Y-82085543D01*
X109466742Y-82012971D01*
X109466742Y-81867829D01*
X109430457Y-81795257D01*
X109394171Y-81758971D01*
X109321600Y-81722686D01*
X109684456Y-81396114D02*
X109938456Y-82158114D01*
X110192456Y-81396114D01*
D12*
X137436000Y-79230000D02*
X132736000Y-79230000D01*
X132736000Y-79230000D02*
X132736000Y-85330000D01*
X132736000Y-85330000D02*
X137436000Y-85330000D01*
X137436000Y-85330000D02*
X137436000Y-79230000D01*
X137436000Y-81780000D02*
X136836000Y-81780000D01*
X136836000Y-81780000D02*
X136836000Y-79830000D01*
X136836000Y-79830000D02*
X133336000Y-79830000D01*
X133336000Y-79830000D02*
X133336000Y-84730000D01*
X133336000Y-84730000D02*
X136836000Y-84730000D01*
X136836000Y-84730000D02*
X136836000Y-82780000D01*
X136836000Y-82780000D02*
X137436000Y-82780000D01*
X136136000Y-79230000D02*
X136136000Y-79830000D01*
X134836000Y-79230000D02*
X134836000Y-79830000D01*
X136136000Y-85330000D02*
X136136000Y-84730000D01*
X134836000Y-85330000D02*
X134836000Y-84730000D01*
X137436000Y-80980000D02*
X137636000Y-80980000D01*
X137636000Y-80980000D02*
X137636000Y-80680000D01*
X137636000Y-80680000D02*
X137436000Y-80680000D01*
X137536000Y-80980000D02*
X137536000Y-80680000D01*
X133336000Y-82180000D02*
X133836000Y-82180000D01*
X133836000Y-82180000D02*
X133836000Y-82380000D01*
X133836000Y-82380000D02*
X133336000Y-82380000D01*
X133336000Y-82280000D02*
X133836000Y-82280000D01*
X137736000Y-80180000D02*
X137736000Y-78930000D01*
X137736000Y-78930000D02*
X136486000Y-78930000D01*
X129778000Y-122297000D02*
X127778000Y-122297000D01*
X127778000Y-124337000D02*
X129778000Y-124337000D01*
X113572800Y-122297000D02*
X111572800Y-122297000D01*
X111572800Y-124337000D02*
X113572800Y-124337000D01*
X121853200Y-122297000D02*
X119853200Y-122297000D01*
X119853200Y-124337000D02*
X121853200Y-124337000D01*
X118195600Y-38858000D02*
X116195600Y-38858000D01*
X116195600Y-40898000D02*
X118195600Y-40898000D01*
X125155200Y-38858000D02*
X123155200Y-38858000D01*
X123155200Y-40898000D02*
X125155200Y-40898000D01*
X136382000Y-75484800D02*
X134382000Y-75484800D01*
X134382000Y-77524800D02*
X136382000Y-77524800D01*
D13*
X103826000Y-54889400D02*
X103826000Y-56189400D01*
X107326000Y-57489400D02*
X105326000Y-57489400D01*
X107326000Y-54839400D02*
X107326000Y-57489400D01*
X103826000Y-54839400D02*
X107326000Y-54839400D01*
D12*
X128972000Y-121818400D02*
X128972000Y-121878400D01*
X128972000Y-121878400D02*
X131632000Y-121878400D01*
X131632000Y-121878400D02*
X131632000Y-121818400D01*
X131632000Y-121818400D02*
X128972000Y-121818400D01*
X128972000Y-120548400D02*
X128972000Y-119218400D01*
X128972000Y-119218400D02*
X130302000Y-119218400D01*
X102403600Y-95859600D02*
X102403600Y-103539600D01*
X102403600Y-103539600D02*
X105063600Y-103539600D01*
X105063600Y-103539600D02*
X105063600Y-95859600D01*
X105063600Y-95859600D02*
X102403600Y-95859600D01*
X102403600Y-94589600D02*
X102403600Y-93259600D01*
X102403600Y-93259600D02*
X103733600Y-93259600D01*
X132985200Y-99923600D02*
X132985200Y-99983600D01*
X132985200Y-99983600D02*
X135645200Y-99983600D01*
X135645200Y-99983600D02*
X135645200Y-99923600D01*
X135645200Y-99923600D02*
X132985200Y-99923600D01*
X132985200Y-98653600D02*
X132985200Y-97323600D01*
X132985200Y-97323600D02*
X134315200Y-97323600D01*
X111700000Y-44704000D02*
X111700000Y-103184000D01*
X111700000Y-103184000D02*
X114360000Y-103184000D01*
X114360000Y-103184000D02*
X114360000Y-44704000D01*
X114360000Y-44704000D02*
X111700000Y-44704000D01*
X111700000Y-43434000D02*
X111700000Y-42104000D01*
X111700000Y-42104000D02*
X113030000Y-42104000D01*
X124400000Y-47244000D02*
X124400000Y-47304000D01*
X124400000Y-47304000D02*
X127060000Y-47304000D01*
X127060000Y-47304000D02*
X127060000Y-47244000D01*
X127060000Y-47244000D02*
X124400000Y-47244000D01*
X124400000Y-45974000D02*
X124400000Y-44644000D01*
X124400000Y-44644000D02*
X125730000Y-44644000D01*
X126940000Y-44704000D02*
X126940000Y-103184000D01*
X126940000Y-103184000D02*
X129600000Y-103184000D01*
X129600000Y-103184000D02*
X129600000Y-44704000D01*
X129600000Y-44704000D02*
X126940000Y-44704000D01*
X126940000Y-43434000D02*
X126940000Y-42104000D01*
X126940000Y-42104000D02*
X128270000Y-42104000D01*
X104851200Y-75225600D02*
X102251200Y-75225600D01*
X102251200Y-75225600D02*
X102251200Y-77885600D01*
X102251200Y-77885600D02*
X104851200Y-77885600D01*
X104851200Y-77885600D02*
X104851200Y-75225600D01*
X106121200Y-75225600D02*
X107451200Y-75225600D01*
X107451200Y-75225600D02*
X107451200Y-76555600D01*
X104851200Y-77765600D02*
X102251200Y-77765600D01*
X102251200Y-77765600D02*
X102251200Y-80425600D01*
X102251200Y-80425600D02*
X104851200Y-80425600D01*
X104851200Y-80425600D02*
X104851200Y-77765600D01*
X106121200Y-77765600D02*
X107451200Y-77765600D01*
X107451200Y-77765600D02*
X107451200Y-79095600D01*
X104851200Y-80305600D02*
X102251200Y-80305600D01*
X102251200Y-80305600D02*
X102251200Y-82965600D01*
X102251200Y-82965600D02*
X104851200Y-82965600D01*
X104851200Y-82965600D02*
X104851200Y-80305600D01*
X106121200Y-80305600D02*
X107451200Y-80305600D01*
X107451200Y-80305600D02*
X107451200Y-81635600D01*
X104851200Y-82845600D02*
X102251200Y-82845600D01*
X102251200Y-82845600D02*
X102251200Y-85505600D01*
X102251200Y-85505600D02*
X104851200Y-85505600D01*
X104851200Y-85505600D02*
X104851200Y-82845600D01*
X106121200Y-82845600D02*
X107451200Y-82845600D01*
X107451200Y-82845600D02*
X107451200Y-84175600D01*
X104851200Y-85385600D02*
X102251200Y-85385600D01*
X102251200Y-85385600D02*
X102251200Y-88045600D01*
X102251200Y-88045600D02*
X104851200Y-88045600D01*
X104851200Y-88045600D02*
X104851200Y-85385600D01*
X106121200Y-85385600D02*
X107451200Y-85385600D01*
X107451200Y-85385600D02*
X107451200Y-86715600D01*
X128641400Y-36302200D02*
X128641400Y-37002200D01*
X127441400Y-37002200D02*
X127441400Y-36302200D01*
X127428700Y-33916100D02*
X127428700Y-33216100D01*
X128628700Y-33216100D02*
X128628700Y-33916100D01*
X128813000Y-37002200D02*
X128813000Y-36302200D01*
X130013000Y-36302200D02*
X130013000Y-37002200D01*
X121967700Y-43669700D02*
X121967700Y-42969700D01*
X123167700Y-42969700D02*
X123167700Y-43669700D01*
X116659100Y-43606200D02*
X116659100Y-42906200D01*
X117859100Y-42906200D02*
X117859100Y-43606200D01*
X129987600Y-33216100D02*
X129987600Y-33916100D01*
X128787600Y-33916100D02*
X128787600Y-33216100D01*
D14*
X101781600Y-113995200D02*
X101781600Y-106395200D01*
X101781600Y-106395200D02*
X111781600Y-106395200D01*
X111781600Y-106395200D02*
X111781600Y-113995200D01*
X101781600Y-113995200D02*
X101781600Y-116395200D01*
X101781600Y-116395200D02*
X106781600Y-116395200D01*
X106781600Y-116395200D02*
X111781600Y-116395200D01*
X111781600Y-116395200D02*
X111781600Y-113995200D01*
X106652000Y-60012000D02*
X106652000Y-68512000D01*
X106652000Y-68512000D02*
X103152000Y-68512000D01*
X103152000Y-68512000D02*
X103152000Y-60012000D01*
X103152000Y-60012000D02*
X106652000Y-60012000D01*
D13*
X131480400Y-104553600D02*
X131480400Y-106953600D01*
X131480400Y-106953600D02*
X133080400Y-106953600D01*
X133080400Y-104553600D02*
X133080400Y-118153600D01*
X129580400Y-104553600D02*
X138380400Y-104553600D01*
X138380400Y-104553600D02*
X138380400Y-118153600D01*
X138380400Y-118153600D02*
X129580400Y-118153600D01*
X112480400Y-116053600D02*
X112480400Y-118153600D01*
X112480400Y-118153600D02*
X114580400Y-118153600D01*
X112480400Y-106653600D02*
X112480400Y-104553600D01*
X112480400Y-104553600D02*
X114580400Y-104553600D01*
X118126600Y-48937000D02*
X118626600Y-48937000D01*
X123376600Y-54187000D02*
X122876600Y-54187000D01*
X123376600Y-48937000D02*
X122876600Y-48937000D01*
X118126600Y-54187000D02*
X118126600Y-53687000D01*
X123376600Y-54187000D02*
X123376600Y-53687000D01*
X123376600Y-48937000D02*
X123376600Y-49437000D01*
X118126600Y-48937000D02*
X118126600Y-49437000D01*
D12*
X134431200Y-65872000D02*
X136231200Y-65872000D01*
X136231200Y-62652000D02*
X133781200Y-62652000D01*
X119648400Y-65872000D02*
X121448400Y-65872000D01*
X121448400Y-62652000D02*
X118998400Y-62652000D01*
D13*
X138159800Y-57454800D02*
X138159800Y-56154800D01*
X134659800Y-54854800D02*
X136659800Y-54854800D01*
X134659800Y-57504800D02*
X134659800Y-54854800D01*
X138159800Y-57504800D02*
X134659800Y-57504800D01*
D14*
X111145200Y-28148400D02*
X104145200Y-28148400D01*
X111145200Y-31648400D02*
X111145200Y-42648400D01*
X111145200Y-42648400D02*
X104145200Y-42648400D01*
X104145200Y-42648400D02*
X104145200Y-31648400D01*
X111145200Y-31648400D02*
X111145200Y-25648400D01*
X111145200Y-25648400D02*
X104145200Y-25648400D01*
X104145200Y-25648400D02*
X104145200Y-31648400D01*
X137764400Y-28148400D02*
X130764400Y-28148400D01*
X137764400Y-31648400D02*
X137764400Y-42648400D01*
X137764400Y-42648400D02*
X130764400Y-42648400D01*
X130764400Y-42648400D02*
X130764400Y-31648400D01*
X137764400Y-31648400D02*
X137764400Y-25648400D01*
X137764400Y-25648400D02*
X130764400Y-25648400D01*
X130764400Y-25648400D02*
X130764400Y-31648400D01*
D12*
X116116000Y-101680200D02*
X116116000Y-102180200D01*
X117056000Y-102180200D02*
X117056000Y-101680200D01*
X117144900Y-53234400D02*
X117144900Y-52734400D01*
X116204900Y-52734400D02*
X116204900Y-53234400D01*
X117017900Y-46262100D02*
X117017900Y-45762100D01*
X116077900Y-45762100D02*
X116077900Y-46262100D01*
X123837600Y-56379300D02*
X123837600Y-56879300D01*
X124777600Y-56879300D02*
X124777600Y-56379300D01*
X125133000Y-56379300D02*
X125133000Y-56879300D01*
X126073000Y-56879300D02*
X126073000Y-56379300D01*
X115853400Y-56134100D02*
X116353400Y-56134100D01*
X116353400Y-55194100D02*
X115853400Y-55194100D01*
X115853400Y-55156200D02*
X116353400Y-55156200D01*
X116353400Y-54216200D02*
X115853400Y-54216200D01*
X116027300Y-53234400D02*
X116027300Y-52734400D01*
X115087300Y-52734400D02*
X115087300Y-53234400D01*
X115713700Y-50076200D02*
X116213700Y-50076200D01*
X116213700Y-49136200D02*
X115713700Y-49136200D01*
X117132000Y-45762100D02*
X117132000Y-46262100D01*
X118072000Y-46262100D02*
X118072000Y-45762100D01*
X122542200Y-46232000D02*
X122542200Y-46732000D01*
X123482200Y-46732000D02*
X123482200Y-46232000D01*
X120014900Y-42739500D02*
X120014900Y-43239500D01*
X120954900Y-43239500D02*
X120954900Y-42739500D01*
X118859200Y-42739500D02*
X118859200Y-43239500D01*
X119799200Y-43239500D02*
X119799200Y-42739500D01*
X131733100Y-70891300D02*
X131233100Y-70891300D01*
X131233100Y-71831300D02*
X131733100Y-71831300D01*
X137655200Y-64367600D02*
X137655200Y-64867600D01*
X138595200Y-64867600D02*
X138595200Y-64367600D01*
X132939600Y-54825800D02*
X132439600Y-54825800D01*
X132439600Y-55765800D02*
X132939600Y-55765800D01*
X132939600Y-56616500D02*
X132439600Y-56616500D01*
X132439600Y-57556500D02*
X132939600Y-57556500D01*
X108944600Y-57518400D02*
X109444600Y-57518400D01*
X109444600Y-56578400D02*
X108944600Y-56578400D01*
X108906500Y-55765800D02*
X109406500Y-55765800D01*
X109406500Y-54825800D02*
X108906500Y-54825800D01*
X117310000Y-64004000D02*
X117310000Y-63504000D01*
X116370000Y-63504000D02*
X116370000Y-64004000D01*
X131406800Y-64456500D02*
X131406800Y-64956500D01*
X132346800Y-64956500D02*
X132346800Y-64456500D01*
X123304200Y-63567500D02*
X123304200Y-64067500D01*
X124244200Y-64067500D02*
X124244200Y-63567500D01*
X108957300Y-77076400D02*
X109457300Y-77076400D01*
X109457300Y-76136400D02*
X108957300Y-76136400D01*
X108919200Y-79565600D02*
X109419200Y-79565600D01*
X109419200Y-78625600D02*
X108919200Y-78625600D01*
X108792200Y-84798000D02*
X109292200Y-84798000D01*
X109292200Y-83858000D02*
X108792200Y-83858000D01*
X108855700Y-87846000D02*
X109355700Y-87846000D01*
X109355700Y-86906000D02*
X108855700Y-86906000D01*
X126572200Y-121815000D02*
X127072200Y-121815000D01*
X127072200Y-120755000D02*
X126572200Y-120755000D01*
X113915000Y-120882000D02*
X113415000Y-120882000D01*
X113415000Y-121942000D02*
X113915000Y-121942000D01*
X124984100Y-61141800D02*
X124984100Y-61641800D01*
X126044100Y-61641800D02*
X126044100Y-61141800D01*
X126056800Y-64219900D02*
X126056800Y-63719900D01*
X124996800Y-63719900D02*
X124996800Y-64219900D01*
X122144600Y-120805800D02*
X121644600Y-120805800D01*
X121644600Y-121865800D02*
X122144600Y-121865800D01*
X131695600Y-60905200D02*
X131695600Y-60405200D01*
X130635600Y-60405200D02*
X130635600Y-60905200D01*
X133219600Y-60905200D02*
X133219600Y-60405200D01*
X132159600Y-60405200D02*
X132159600Y-60905200D01*
X137105200Y-61077700D02*
X136605200Y-61077700D01*
X136605200Y-62137700D02*
X137105200Y-62137700D01*
D15*
X135238671Y-78237443D02*
X135329385Y-78267681D01*
X135359624Y-78297919D01*
X135389862Y-78358395D01*
X135389862Y-78449110D01*
X135359624Y-78509586D01*
X135329385Y-78539824D01*
X135268909Y-78570062D01*
X135027004Y-78570062D01*
X135027004Y-77935062D01*
X135238671Y-77935062D01*
X135299147Y-77965300D01*
X135329385Y-77995538D01*
X135359624Y-78056014D01*
X135359624Y-78116490D01*
X135329385Y-78176967D01*
X135299147Y-78207205D01*
X135238671Y-78237443D01*
X135027004Y-78237443D01*
X135571290Y-77935062D02*
X135934147Y-77935062D01*
X135752719Y-78570062D02*
X135752719Y-77935062D01*
X136478434Y-78570062D02*
X136115576Y-78570062D01*
X136297005Y-78570062D02*
X136297005Y-77935062D01*
X136236529Y-78025776D01*
X136176053Y-78086252D01*
X136115576Y-78116490D01*
X128360109Y-125204462D02*
X128360109Y-124569462D01*
X128511300Y-124569462D01*
X128602014Y-124599700D01*
X128662490Y-124660176D01*
X128692729Y-124720652D01*
X128722967Y-124841605D01*
X128722967Y-124932319D01*
X128692729Y-125053271D01*
X128662490Y-125113748D01*
X128602014Y-125174224D01*
X128511300Y-125204462D01*
X128360109Y-125204462D01*
X129327729Y-125204462D02*
X128964871Y-125204462D01*
X129146300Y-125204462D02*
X129146300Y-124569462D01*
X129085824Y-124660176D01*
X129025348Y-124720652D01*
X128964871Y-124750890D01*
X112053309Y-125229862D02*
X112053309Y-124594862D01*
X112204500Y-124594862D01*
X112295214Y-124625100D01*
X112355690Y-124685576D01*
X112385929Y-124746052D01*
X112416167Y-124867005D01*
X112416167Y-124957719D01*
X112385929Y-125078671D01*
X112355690Y-125139148D01*
X112295214Y-125199624D01*
X112204500Y-125229862D01*
X112053309Y-125229862D01*
X112658071Y-124655338D02*
X112688309Y-124625100D01*
X112748786Y-124594862D01*
X112899976Y-124594862D01*
X112960452Y-124625100D01*
X112990690Y-124655338D01*
X113020929Y-124715814D01*
X113020929Y-124776290D01*
X112990690Y-124867005D01*
X112627833Y-125229862D01*
X113020929Y-125229862D01*
X120333709Y-125255262D02*
X120333709Y-124620262D01*
X120484900Y-124620262D01*
X120575614Y-124650500D01*
X120636090Y-124710976D01*
X120666329Y-124771452D01*
X120696567Y-124892405D01*
X120696567Y-124983119D01*
X120666329Y-125104071D01*
X120636090Y-125164548D01*
X120575614Y-125225024D01*
X120484900Y-125255262D01*
X120333709Y-125255262D01*
X120908233Y-124620262D02*
X121301329Y-124620262D01*
X121089662Y-124862167D01*
X121180376Y-124862167D01*
X121240852Y-124892405D01*
X121271090Y-124922643D01*
X121301329Y-124983119D01*
X121301329Y-125134310D01*
X121271090Y-125194786D01*
X121240852Y-125225024D01*
X121180376Y-125255262D01*
X120998948Y-125255262D01*
X120938471Y-125225024D01*
X120908233Y-125194786D01*
X119698709Y-39542962D02*
X119698709Y-38907962D01*
X119849900Y-38907962D01*
X119940614Y-38938200D01*
X120001090Y-38998676D01*
X120031329Y-39059152D01*
X120061567Y-39180105D01*
X120061567Y-39270819D01*
X120031329Y-39391771D01*
X120001090Y-39452248D01*
X119940614Y-39512724D01*
X119849900Y-39542962D01*
X119698709Y-39542962D01*
X120605852Y-39119629D02*
X120605852Y-39542962D01*
X120454662Y-38877724D02*
X120303471Y-39331295D01*
X120696567Y-39331295D01*
X126658309Y-39568362D02*
X126658309Y-38933362D01*
X126809500Y-38933362D01*
X126900214Y-38963600D01*
X126960690Y-39024076D01*
X126990929Y-39084552D01*
X127021167Y-39205505D01*
X127021167Y-39296219D01*
X126990929Y-39417171D01*
X126960690Y-39477648D01*
X126900214Y-39538124D01*
X126809500Y-39568362D01*
X126658309Y-39568362D01*
X127595690Y-38933362D02*
X127293309Y-38933362D01*
X127263071Y-39235743D01*
X127293309Y-39205505D01*
X127353786Y-39175267D01*
X127504976Y-39175267D01*
X127565452Y-39205505D01*
X127595690Y-39235743D01*
X127625929Y-39296219D01*
X127625929Y-39447410D01*
X127595690Y-39507886D01*
X127565452Y-39538124D01*
X127504976Y-39568362D01*
X127353786Y-39568362D01*
X127293309Y-39538124D01*
X127263071Y-39507886D01*
X135170333Y-74709443D02*
X134958666Y-74709443D01*
X134958666Y-75042062D02*
X134958666Y-74407062D01*
X135261047Y-74407062D01*
X135835572Y-75042062D02*
X135472714Y-75042062D01*
X135654143Y-75042062D02*
X135654143Y-74407062D01*
X135593667Y-74497776D01*
X135533191Y-74558252D01*
X135472714Y-74588490D01*
X104528862Y-58788462D02*
X104528862Y-58153462D01*
X104740529Y-58607033D01*
X104952196Y-58153462D01*
X104952196Y-58788462D01*
X105254576Y-58788462D02*
X105254576Y-58153462D01*
X105919815Y-58727986D02*
X105889577Y-58758224D01*
X105798862Y-58788462D01*
X105738386Y-58788462D01*
X105647672Y-58758224D01*
X105587196Y-58697748D01*
X105556957Y-58637271D01*
X105526719Y-58516319D01*
X105526719Y-58425605D01*
X105556957Y-58304652D01*
X105587196Y-58244176D01*
X105647672Y-58183700D01*
X105738386Y-58153462D01*
X105798862Y-58153462D01*
X105889577Y-58183700D01*
X105919815Y-58213938D01*
X106161719Y-58213938D02*
X106191957Y-58183700D01*
X106252434Y-58153462D01*
X106403624Y-58153462D01*
X106464100Y-58183700D01*
X106494338Y-58213938D01*
X106524577Y-58274414D01*
X106524577Y-58334890D01*
X106494338Y-58425605D01*
X106131481Y-58788462D01*
X106524577Y-58788462D01*
X131685090Y-119819662D02*
X132047947Y-119819662D01*
X131866519Y-120454662D02*
X131866519Y-119819662D01*
X132259614Y-120454662D02*
X132259614Y-119819662D01*
X132501519Y-119819662D01*
X132561995Y-119849900D01*
X132592234Y-119880138D01*
X132622472Y-119940614D01*
X132622472Y-120031329D01*
X132592234Y-120091805D01*
X132561995Y-120122043D01*
X132501519Y-120152281D01*
X132259614Y-120152281D01*
X133227234Y-120454662D02*
X132864376Y-120454662D01*
X133045805Y-120454662D02*
X133045805Y-119819662D01*
X132985329Y-119910376D01*
X132924853Y-119970852D01*
X132864376Y-120001090D01*
X103264909Y-92546862D02*
X103264909Y-91911862D01*
X103506814Y-91911862D01*
X103567290Y-91942100D01*
X103597529Y-91972338D01*
X103627767Y-92032814D01*
X103627767Y-92123529D01*
X103597529Y-92184005D01*
X103567290Y-92214243D01*
X103506814Y-92244481D01*
X103264909Y-92244481D01*
X103869671Y-91972338D02*
X103899909Y-91942100D01*
X103960386Y-91911862D01*
X104111576Y-91911862D01*
X104172052Y-91942100D01*
X104202290Y-91972338D01*
X104232529Y-92032814D01*
X104232529Y-92093290D01*
X104202290Y-92184005D01*
X103839433Y-92546862D01*
X104232529Y-92546862D01*
X136028490Y-97874062D02*
X136391347Y-97874062D01*
X136209919Y-98509062D02*
X136209919Y-97874062D01*
X136603014Y-98509062D02*
X136603014Y-97874062D01*
X136844919Y-97874062D01*
X136905395Y-97904300D01*
X136935634Y-97934538D01*
X136965872Y-97995014D01*
X136965872Y-98085729D01*
X136935634Y-98146205D01*
X136905395Y-98176443D01*
X136844919Y-98206681D01*
X136603014Y-98206681D01*
X137207776Y-97934538D02*
X137238014Y-97904300D01*
X137298491Y-97874062D01*
X137449681Y-97874062D01*
X137510157Y-97904300D01*
X137540395Y-97934538D01*
X137570634Y-97995014D01*
X137570634Y-98055490D01*
X137540395Y-98146205D01*
X137177538Y-98509062D01*
X137570634Y-98509062D01*
X113564609Y-41359062D02*
X113564609Y-40724062D01*
X113806514Y-40724062D01*
X113866990Y-40754300D01*
X113897229Y-40784538D01*
X113927467Y-40845014D01*
X113927467Y-40935729D01*
X113897229Y-40996205D01*
X113866990Y-41026443D01*
X113806514Y-41056681D01*
X113564609Y-41056681D01*
X114471752Y-40935729D02*
X114471752Y-41359062D01*
X114320562Y-40693824D02*
X114169371Y-41147395D01*
X114562467Y-41147395D01*
X125261309Y-43931262D02*
X125261309Y-43296262D01*
X125503214Y-43296262D01*
X125563690Y-43326500D01*
X125593929Y-43356738D01*
X125624167Y-43417214D01*
X125624167Y-43507929D01*
X125593929Y-43568405D01*
X125563690Y-43598643D01*
X125503214Y-43628881D01*
X125261309Y-43628881D01*
X126198690Y-43296262D02*
X125896309Y-43296262D01*
X125866071Y-43598643D01*
X125896309Y-43568405D01*
X125956786Y-43538167D01*
X126107976Y-43538167D01*
X126168452Y-43568405D01*
X126198690Y-43598643D01*
X126228929Y-43659119D01*
X126228929Y-43810310D01*
X126198690Y-43870786D01*
X126168452Y-43901024D01*
X126107976Y-43931262D01*
X125956786Y-43931262D01*
X125896309Y-43901024D01*
X125866071Y-43870786D01*
X126594809Y-41359062D02*
X126594809Y-40724062D01*
X126836714Y-40724062D01*
X126897190Y-40754300D01*
X126927429Y-40784538D01*
X126957667Y-40845014D01*
X126957667Y-40935729D01*
X126927429Y-40996205D01*
X126897190Y-41026443D01*
X126836714Y-41056681D01*
X126594809Y-41056681D01*
X127501952Y-40724062D02*
X127381000Y-40724062D01*
X127320524Y-40754300D01*
X127290286Y-40784538D01*
X127229809Y-40875252D01*
X127199571Y-40996205D01*
X127199571Y-41238110D01*
X127229809Y-41298586D01*
X127260048Y-41328824D01*
X127320524Y-41359062D01*
X127441476Y-41359062D01*
X127501952Y-41328824D01*
X127532190Y-41298586D01*
X127562429Y-41238110D01*
X127562429Y-41086919D01*
X127532190Y-41026443D01*
X127501952Y-40996205D01*
X127441476Y-40965967D01*
X127320524Y-40965967D01*
X127260048Y-40996205D01*
X127229809Y-41026443D01*
X127199571Y-41086919D01*
X108471909Y-75674462D02*
X108471909Y-75039462D01*
X108713814Y-75039462D01*
X108774290Y-75069700D01*
X108804529Y-75099938D01*
X108834767Y-75160414D01*
X108834767Y-75251129D01*
X108804529Y-75311605D01*
X108774290Y-75341843D01*
X108713814Y-75372081D01*
X108471909Y-75372081D01*
X109046433Y-75039462D02*
X109469767Y-75039462D01*
X109197624Y-75674462D01*
X108421109Y-78290662D02*
X108421109Y-77655662D01*
X108663014Y-77655662D01*
X108723490Y-77685900D01*
X108753729Y-77716138D01*
X108783967Y-77776614D01*
X108783967Y-77867329D01*
X108753729Y-77927805D01*
X108723490Y-77958043D01*
X108663014Y-77988281D01*
X108421109Y-77988281D01*
X109146824Y-77927805D02*
X109086348Y-77897567D01*
X109056109Y-77867329D01*
X109025871Y-77806852D01*
X109025871Y-77776614D01*
X109056109Y-77716138D01*
X109086348Y-77685900D01*
X109146824Y-77655662D01*
X109267776Y-77655662D01*
X109328252Y-77685900D01*
X109358490Y-77716138D01*
X109388729Y-77776614D01*
X109388729Y-77806852D01*
X109358490Y-77867329D01*
X109328252Y-77897567D01*
X109267776Y-77927805D01*
X109146824Y-77927805D01*
X109086348Y-77958043D01*
X109056109Y-77988281D01*
X109025871Y-78048757D01*
X109025871Y-78169710D01*
X109056109Y-78230186D01*
X109086348Y-78260424D01*
X109146824Y-78290662D01*
X109267776Y-78290662D01*
X109328252Y-78260424D01*
X109358490Y-78230186D01*
X109388729Y-78169710D01*
X109388729Y-78048757D01*
X109358490Y-77988281D01*
X109328252Y-77958043D01*
X109267776Y-77927805D01*
X108421109Y-81033862D02*
X108421109Y-80398862D01*
X108663014Y-80398862D01*
X108723490Y-80429100D01*
X108753729Y-80459338D01*
X108783967Y-80519814D01*
X108783967Y-80610529D01*
X108753729Y-80671005D01*
X108723490Y-80701243D01*
X108663014Y-80731481D01*
X108421109Y-80731481D01*
X109086348Y-81033862D02*
X109207300Y-81033862D01*
X109267776Y-81003624D01*
X109298014Y-80973386D01*
X109358490Y-80882671D01*
X109388729Y-80761719D01*
X109388729Y-80519814D01*
X109358490Y-80459338D01*
X109328252Y-80429100D01*
X109267776Y-80398862D01*
X109146824Y-80398862D01*
X109086348Y-80429100D01*
X109056109Y-80459338D01*
X109025871Y-80519814D01*
X109025871Y-80671005D01*
X109056109Y-80731481D01*
X109086348Y-80761719D01*
X109146824Y-80791957D01*
X109267776Y-80791957D01*
X109328252Y-80761719D01*
X109358490Y-80731481D01*
X109388729Y-80671005D01*
X108347328Y-83599262D02*
X108347328Y-82964262D01*
X108589233Y-82964262D01*
X108649709Y-82994500D01*
X108679948Y-83024738D01*
X108710186Y-83085214D01*
X108710186Y-83175929D01*
X108679948Y-83236405D01*
X108649709Y-83266643D01*
X108589233Y-83296881D01*
X108347328Y-83296881D01*
X109314948Y-83599262D02*
X108952090Y-83599262D01*
X109133519Y-83599262D02*
X109133519Y-82964262D01*
X109073043Y-83054976D01*
X109012567Y-83115452D01*
X108952090Y-83145690D01*
X109708043Y-82964262D02*
X109768519Y-82964262D01*
X109828995Y-82994500D01*
X109859233Y-83024738D01*
X109889471Y-83085214D01*
X109919710Y-83206167D01*
X109919710Y-83357357D01*
X109889471Y-83478310D01*
X109859233Y-83538786D01*
X109828995Y-83569024D01*
X109768519Y-83599262D01*
X109708043Y-83599262D01*
X109647567Y-83569024D01*
X109617329Y-83538786D01*
X109587090Y-83478310D01*
X109556852Y-83357357D01*
X109556852Y-83206167D01*
X109587090Y-83085214D01*
X109617329Y-83024738D01*
X109647567Y-82994500D01*
X109708043Y-82964262D01*
X108347328Y-86621862D02*
X108347328Y-85986862D01*
X108589233Y-85986862D01*
X108649709Y-86017100D01*
X108679948Y-86047338D01*
X108710186Y-86107814D01*
X108710186Y-86198529D01*
X108679948Y-86259005D01*
X108649709Y-86289243D01*
X108589233Y-86319481D01*
X108347328Y-86319481D01*
X109314948Y-86621862D02*
X108952090Y-86621862D01*
X109133519Y-86621862D02*
X109133519Y-85986862D01*
X109073043Y-86077576D01*
X109012567Y-86138052D01*
X108952090Y-86168290D01*
X109919710Y-86621862D02*
X109556852Y-86621862D01*
X109738281Y-86621862D02*
X109738281Y-85986862D01*
X109677805Y-86077576D01*
X109617329Y-86138052D01*
X109556852Y-86168290D01*
X126385562Y-36501614D02*
X126083181Y-36713281D01*
X126385562Y-36864472D02*
X125750562Y-36864472D01*
X125750562Y-36622567D01*
X125780800Y-36562091D01*
X125811038Y-36531852D01*
X125871514Y-36501614D01*
X125962229Y-36501614D01*
X126022705Y-36531852D01*
X126052943Y-36562091D01*
X126083181Y-36622567D01*
X126083181Y-36864472D01*
X126385562Y-35896852D02*
X126385562Y-36259710D01*
X126385562Y-36078281D02*
X125750562Y-36078281D01*
X125841276Y-36138757D01*
X125901752Y-36199233D01*
X125931990Y-36259710D01*
X125811038Y-35654948D02*
X125780800Y-35624710D01*
X125750562Y-35564233D01*
X125750562Y-35413043D01*
X125780800Y-35352567D01*
X125811038Y-35322329D01*
X125871514Y-35292090D01*
X125931990Y-35292090D01*
X126022705Y-35322329D01*
X126385562Y-35685186D01*
X126385562Y-35292090D01*
X126690362Y-31116814D02*
X126387981Y-31328481D01*
X126690362Y-31479672D02*
X126055362Y-31479672D01*
X126055362Y-31237767D01*
X126085600Y-31177291D01*
X126115838Y-31147052D01*
X126176314Y-31116814D01*
X126267029Y-31116814D01*
X126327505Y-31147052D01*
X126357743Y-31177291D01*
X126387981Y-31237767D01*
X126387981Y-31479672D01*
X126690362Y-30512052D02*
X126690362Y-30874910D01*
X126690362Y-30693481D02*
X126055362Y-30693481D01*
X126146076Y-30753957D01*
X126206552Y-30814433D01*
X126236790Y-30874910D01*
X126055362Y-30300386D02*
X126055362Y-29907290D01*
X126297267Y-30118957D01*
X126297267Y-30028243D01*
X126327505Y-29967767D01*
X126357743Y-29937529D01*
X126418219Y-29907290D01*
X126569410Y-29907290D01*
X126629886Y-29937529D01*
X126660124Y-29967767D01*
X126690362Y-30028243D01*
X126690362Y-30209671D01*
X126660124Y-30270148D01*
X126629886Y-30300386D01*
X127223762Y-36501614D02*
X126921381Y-36713281D01*
X127223762Y-36864472D02*
X126588762Y-36864472D01*
X126588762Y-36622567D01*
X126619000Y-36562091D01*
X126649238Y-36531852D01*
X126709714Y-36501614D01*
X126800429Y-36501614D01*
X126860905Y-36531852D01*
X126891143Y-36562091D01*
X126921381Y-36622567D01*
X126921381Y-36864472D01*
X127223762Y-35896852D02*
X127223762Y-36259710D01*
X127223762Y-36078281D02*
X126588762Y-36078281D01*
X126679476Y-36138757D01*
X126739952Y-36199233D01*
X126770190Y-36259710D01*
X126800429Y-35352567D02*
X127223762Y-35352567D01*
X126558524Y-35503757D02*
X127012095Y-35654948D01*
X127012095Y-35261852D01*
X121699262Y-43258014D02*
X121396881Y-43469681D01*
X121699262Y-43620872D02*
X121064262Y-43620872D01*
X121064262Y-43378967D01*
X121094500Y-43318491D01*
X121124738Y-43288252D01*
X121185214Y-43258014D01*
X121275929Y-43258014D01*
X121336405Y-43288252D01*
X121366643Y-43318491D01*
X121396881Y-43378967D01*
X121396881Y-43620872D01*
X121699262Y-42653252D02*
X121699262Y-43016110D01*
X121699262Y-42834681D02*
X121064262Y-42834681D01*
X121154976Y-42895157D01*
X121215452Y-42955633D01*
X121245690Y-43016110D01*
X121064262Y-42078729D02*
X121064262Y-42381110D01*
X121366643Y-42411348D01*
X121336405Y-42381110D01*
X121306167Y-42320633D01*
X121306167Y-42169443D01*
X121336405Y-42108967D01*
X121366643Y-42078729D01*
X121427119Y-42048490D01*
X121578310Y-42048490D01*
X121638786Y-42078729D01*
X121669024Y-42108967D01*
X121699262Y-42169443D01*
X121699262Y-42320633D01*
X121669024Y-42381110D01*
X121638786Y-42411348D01*
X118689362Y-43232614D02*
X118386981Y-43444281D01*
X118689362Y-43595472D02*
X118054362Y-43595472D01*
X118054362Y-43353567D01*
X118084600Y-43293091D01*
X118114838Y-43262852D01*
X118175314Y-43232614D01*
X118266029Y-43232614D01*
X118326505Y-43262852D01*
X118356743Y-43293091D01*
X118386981Y-43353567D01*
X118386981Y-43595472D01*
X118689362Y-42627852D02*
X118689362Y-42990710D01*
X118689362Y-42809281D02*
X118054362Y-42809281D01*
X118145076Y-42869757D01*
X118205552Y-42930233D01*
X118235790Y-42990710D01*
X118054362Y-42083567D02*
X118054362Y-42204519D01*
X118084600Y-42264995D01*
X118114838Y-42295233D01*
X118205552Y-42355710D01*
X118326505Y-42385948D01*
X118568410Y-42385948D01*
X118628886Y-42355710D01*
X118659124Y-42325471D01*
X118689362Y-42264995D01*
X118689362Y-42144043D01*
X118659124Y-42083567D01*
X118628886Y-42053329D01*
X118568410Y-42023090D01*
X118417219Y-42023090D01*
X118356743Y-42053329D01*
X118326505Y-42083567D01*
X118296267Y-42144043D01*
X118296267Y-42264995D01*
X118326505Y-42325471D01*
X118356743Y-42355710D01*
X118417219Y-42385948D01*
X127693662Y-31142214D02*
X127391281Y-31353881D01*
X127693662Y-31505072D02*
X127058662Y-31505072D01*
X127058662Y-31263167D01*
X127088900Y-31202691D01*
X127119138Y-31172452D01*
X127179614Y-31142214D01*
X127270329Y-31142214D01*
X127330805Y-31172452D01*
X127361043Y-31202691D01*
X127391281Y-31263167D01*
X127391281Y-31505072D01*
X127693662Y-30537452D02*
X127693662Y-30900310D01*
X127693662Y-30718881D02*
X127058662Y-30718881D01*
X127149376Y-30779357D01*
X127209852Y-30839833D01*
X127240090Y-30900310D01*
X127058662Y-30325786D02*
X127058662Y-29902452D01*
X127693662Y-30174595D01*
X103503624Y-105482462D02*
X103291957Y-105180081D01*
X103140766Y-105482462D02*
X103140766Y-104847462D01*
X103382671Y-104847462D01*
X103443147Y-104877700D01*
X103473386Y-104907938D01*
X103503624Y-104968414D01*
X103503624Y-105059129D01*
X103473386Y-105119605D01*
X103443147Y-105149843D01*
X103382671Y-105180081D01*
X103140766Y-105180081D01*
X103685052Y-104847462D02*
X103896719Y-105482462D01*
X104108386Y-104847462D01*
X104652672Y-105482462D02*
X104289814Y-105482462D01*
X104471243Y-105482462D02*
X104471243Y-104847462D01*
X104410767Y-104938176D01*
X104350291Y-104998652D01*
X104289814Y-105028890D01*
X108664224Y-65057867D02*
X108694462Y-64967152D01*
X108694462Y-64815962D01*
X108664224Y-64755486D01*
X108633986Y-64725248D01*
X108573510Y-64695009D01*
X108513033Y-64695009D01*
X108452557Y-64725248D01*
X108422319Y-64755486D01*
X108392081Y-64815962D01*
X108361843Y-64936914D01*
X108331605Y-64997390D01*
X108301367Y-65027629D01*
X108240890Y-65057867D01*
X108180414Y-65057867D01*
X108119938Y-65027629D01*
X108089700Y-64997390D01*
X108059462Y-64936914D01*
X108059462Y-64785724D01*
X108089700Y-64695009D01*
X108059462Y-64483343D02*
X108694462Y-64332152D01*
X108240890Y-64211200D01*
X108694462Y-64090247D01*
X108059462Y-63939057D01*
X108694462Y-63364533D02*
X108694462Y-63727391D01*
X108694462Y-63545962D02*
X108059462Y-63545962D01*
X108150176Y-63606438D01*
X108210652Y-63666914D01*
X108240890Y-63727391D01*
X130834190Y-102776262D02*
X130834190Y-103290310D01*
X130864429Y-103350786D01*
X130894667Y-103381024D01*
X130955143Y-103411262D01*
X131076095Y-103411262D01*
X131136571Y-103381024D01*
X131166810Y-103350786D01*
X131197048Y-103290310D01*
X131197048Y-102776262D01*
X131832048Y-103411262D02*
X131469190Y-103411262D01*
X131650619Y-103411262D02*
X131650619Y-102776262D01*
X131590143Y-102866976D01*
X131529667Y-102927452D01*
X131469190Y-102957690D01*
X117736862Y-55906610D02*
X118250910Y-55906610D01*
X118311386Y-55876371D01*
X118341624Y-55846133D01*
X118371862Y-55785657D01*
X118371862Y-55664705D01*
X118341624Y-55604229D01*
X118311386Y-55573990D01*
X118250910Y-55543752D01*
X117736862Y-55543752D01*
X117797338Y-55271610D02*
X117767100Y-55241372D01*
X117736862Y-55180895D01*
X117736862Y-55029705D01*
X117767100Y-54969229D01*
X117797338Y-54938991D01*
X117857814Y-54908752D01*
X117918290Y-54908752D01*
X118009005Y-54938991D01*
X118371862Y-55301848D01*
X118371862Y-54908752D01*
X133831390Y-61526662D02*
X133831390Y-62040710D01*
X133861629Y-62101186D01*
X133891867Y-62131424D01*
X133952343Y-62161662D01*
X134073295Y-62161662D01*
X134133771Y-62131424D01*
X134164010Y-62101186D01*
X134194248Y-62040710D01*
X134194248Y-61526662D01*
X134436152Y-61526662D02*
X134829248Y-61526662D01*
X134617581Y-61768567D01*
X134708295Y-61768567D01*
X134768771Y-61798805D01*
X134799009Y-61829043D01*
X134829248Y-61889519D01*
X134829248Y-62040710D01*
X134799009Y-62101186D01*
X134768771Y-62131424D01*
X134708295Y-62161662D01*
X134526867Y-62161662D01*
X134466390Y-62131424D01*
X134436152Y-62101186D01*
X118870790Y-61767962D02*
X118870790Y-62282010D01*
X118901029Y-62342486D01*
X118931267Y-62372724D01*
X118991743Y-62402962D01*
X119112695Y-62402962D01*
X119173171Y-62372724D01*
X119203410Y-62342486D01*
X119233648Y-62282010D01*
X119233648Y-61767962D01*
X119808171Y-61979629D02*
X119808171Y-62402962D01*
X119656981Y-61737724D02*
X119505790Y-62191295D01*
X119898886Y-62191295D01*
X135300962Y-58618362D02*
X135300962Y-57983362D01*
X135512629Y-58436933D01*
X135724296Y-57983362D01*
X135724296Y-58618362D01*
X136026676Y-58618362D02*
X136026676Y-57983362D01*
X136691915Y-58557886D02*
X136661677Y-58588124D01*
X136570962Y-58618362D01*
X136510486Y-58618362D01*
X136419772Y-58588124D01*
X136359296Y-58527648D01*
X136329057Y-58467171D01*
X136298819Y-58346219D01*
X136298819Y-58255505D01*
X136329057Y-58134552D01*
X136359296Y-58074076D01*
X136419772Y-58013600D01*
X136510486Y-57983362D01*
X136570962Y-57983362D01*
X136661677Y-58013600D01*
X136691915Y-58043838D01*
X137296677Y-58618362D02*
X136933819Y-58618362D01*
X137115248Y-58618362D02*
X137115248Y-57983362D01*
X137054772Y-58074076D01*
X136994296Y-58134552D01*
X136933819Y-58164790D01*
X111920262Y-29828067D02*
X112373833Y-29828067D01*
X112464548Y-29858305D01*
X112525024Y-29918781D01*
X112555262Y-30009496D01*
X112555262Y-30069972D01*
X111980738Y-29555924D02*
X111950500Y-29525686D01*
X111920262Y-29465209D01*
X111920262Y-29314019D01*
X111950500Y-29253543D01*
X111980738Y-29223305D01*
X112041214Y-29193066D01*
X112101690Y-29193066D01*
X112192405Y-29223305D01*
X112555262Y-29586162D01*
X112555262Y-29193066D01*
X138399762Y-29828067D02*
X138853333Y-29828067D01*
X138944048Y-29858305D01*
X139004524Y-29918781D01*
X139034762Y-30009496D01*
X139034762Y-30069972D01*
X139034762Y-29193066D02*
X139034762Y-29555924D01*
X139034762Y-29374495D02*
X138399762Y-29374495D01*
X138490476Y-29434971D01*
X138550952Y-29495447D01*
X138581190Y-29555924D01*
X116812786Y-100080233D02*
X116843024Y-100110471D01*
X116873262Y-100201186D01*
X116873262Y-100261662D01*
X116843024Y-100352376D01*
X116782548Y-100412852D01*
X116722071Y-100443091D01*
X116601119Y-100473329D01*
X116510405Y-100473329D01*
X116389452Y-100443091D01*
X116328976Y-100412852D01*
X116268500Y-100352376D01*
X116238262Y-100261662D01*
X116238262Y-100201186D01*
X116268500Y-100110471D01*
X116298738Y-100080233D01*
X116873262Y-99475471D02*
X116873262Y-99838329D01*
X116873262Y-99656900D02*
X116238262Y-99656900D01*
X116328976Y-99717376D01*
X116389452Y-99777852D01*
X116419690Y-99838329D01*
X116914386Y-51375733D02*
X116944624Y-51405971D01*
X116974862Y-51496686D01*
X116974862Y-51557162D01*
X116944624Y-51647876D01*
X116884148Y-51708352D01*
X116823671Y-51738591D01*
X116702719Y-51768829D01*
X116612005Y-51768829D01*
X116491052Y-51738591D01*
X116430576Y-51708352D01*
X116370100Y-51647876D01*
X116339862Y-51557162D01*
X116339862Y-51496686D01*
X116370100Y-51405971D01*
X116400338Y-51375733D01*
X116400338Y-51133829D02*
X116370100Y-51103591D01*
X116339862Y-51043114D01*
X116339862Y-50891924D01*
X116370100Y-50831448D01*
X116400338Y-50801210D01*
X116460814Y-50770971D01*
X116521290Y-50770971D01*
X116612005Y-50801210D01*
X116974862Y-51164067D01*
X116974862Y-50770971D01*
X115745986Y-46079833D02*
X115776224Y-46110071D01*
X115806462Y-46200786D01*
X115806462Y-46261262D01*
X115776224Y-46351976D01*
X115715748Y-46412452D01*
X115655271Y-46442691D01*
X115534319Y-46472929D01*
X115443605Y-46472929D01*
X115322652Y-46442691D01*
X115262176Y-46412452D01*
X115201700Y-46351976D01*
X115171462Y-46261262D01*
X115171462Y-46200786D01*
X115201700Y-46110071D01*
X115231938Y-46079833D01*
X115171462Y-45868167D02*
X115171462Y-45475071D01*
X115413367Y-45686738D01*
X115413367Y-45596024D01*
X115443605Y-45535548D01*
X115473843Y-45505310D01*
X115534319Y-45475071D01*
X115685510Y-45475071D01*
X115745986Y-45505310D01*
X115776224Y-45535548D01*
X115806462Y-45596024D01*
X115806462Y-45777452D01*
X115776224Y-45837929D01*
X115745986Y-45868167D01*
X124496286Y-58640133D02*
X124526524Y-58670371D01*
X124556762Y-58761086D01*
X124556762Y-58821562D01*
X124526524Y-58912276D01*
X124466048Y-58972752D01*
X124405571Y-59002991D01*
X124284619Y-59033229D01*
X124193905Y-59033229D01*
X124072952Y-59002991D01*
X124012476Y-58972752D01*
X123952000Y-58912276D01*
X123921762Y-58821562D01*
X123921762Y-58761086D01*
X123952000Y-58670371D01*
X123982238Y-58640133D01*
X124133429Y-58095848D02*
X124556762Y-58095848D01*
X123891524Y-58247038D02*
X124345095Y-58398229D01*
X124345095Y-58005133D01*
X125867886Y-58602033D02*
X125898124Y-58632271D01*
X125928362Y-58722986D01*
X125928362Y-58783462D01*
X125898124Y-58874176D01*
X125837648Y-58934652D01*
X125777171Y-58964891D01*
X125656219Y-58995129D01*
X125565505Y-58995129D01*
X125444552Y-58964891D01*
X125384076Y-58934652D01*
X125323600Y-58874176D01*
X125293362Y-58783462D01*
X125293362Y-58722986D01*
X125323600Y-58632271D01*
X125353838Y-58602033D01*
X125293362Y-58027510D02*
X125293362Y-58329891D01*
X125595743Y-58360129D01*
X125565505Y-58329891D01*
X125535267Y-58269414D01*
X125535267Y-58118224D01*
X125565505Y-58057748D01*
X125595743Y-58027510D01*
X125656219Y-57997271D01*
X125807410Y-57997271D01*
X125867886Y-58027510D01*
X125898124Y-58057748D01*
X125928362Y-58118224D01*
X125928362Y-58269414D01*
X125898124Y-58329891D01*
X125867886Y-58360129D01*
X115718167Y-57833986D02*
X115687929Y-57864224D01*
X115597214Y-57894462D01*
X115536738Y-57894462D01*
X115446024Y-57864224D01*
X115385548Y-57803748D01*
X115355309Y-57743271D01*
X115325071Y-57622319D01*
X115325071Y-57531605D01*
X115355309Y-57410652D01*
X115385548Y-57350176D01*
X115446024Y-57289700D01*
X115536738Y-57259462D01*
X115597214Y-57259462D01*
X115687929Y-57289700D01*
X115718167Y-57319938D01*
X116262452Y-57259462D02*
X116141500Y-57259462D01*
X116081024Y-57289700D01*
X116050786Y-57319938D01*
X115990309Y-57410652D01*
X115960071Y-57531605D01*
X115960071Y-57773510D01*
X115990309Y-57833986D01*
X116020548Y-57864224D01*
X116081024Y-57894462D01*
X116201976Y-57894462D01*
X116262452Y-57864224D01*
X116292690Y-57833986D01*
X116322929Y-57773510D01*
X116322929Y-57622319D01*
X116292690Y-57561843D01*
X116262452Y-57531605D01*
X116201976Y-57501367D01*
X116081024Y-57501367D01*
X116020548Y-57531605D01*
X115990309Y-57561843D01*
X115960071Y-57622319D01*
X115743567Y-56843386D02*
X115713329Y-56873624D01*
X115622614Y-56903862D01*
X115562138Y-56903862D01*
X115471424Y-56873624D01*
X115410948Y-56813148D01*
X115380709Y-56752671D01*
X115350471Y-56631719D01*
X115350471Y-56541005D01*
X115380709Y-56420052D01*
X115410948Y-56359576D01*
X115471424Y-56299100D01*
X115562138Y-56268862D01*
X115622614Y-56268862D01*
X115713329Y-56299100D01*
X115743567Y-56329338D01*
X115955233Y-56268862D02*
X116378567Y-56268862D01*
X116106424Y-56903862D01*
X115822186Y-51413833D02*
X115852424Y-51444071D01*
X115882662Y-51534786D01*
X115882662Y-51595262D01*
X115852424Y-51685976D01*
X115791948Y-51746452D01*
X115731471Y-51776691D01*
X115610519Y-51806929D01*
X115519805Y-51806929D01*
X115398852Y-51776691D01*
X115338376Y-51746452D01*
X115277900Y-51685976D01*
X115247662Y-51595262D01*
X115247662Y-51534786D01*
X115277900Y-51444071D01*
X115308138Y-51413833D01*
X115519805Y-51050976D02*
X115489567Y-51111452D01*
X115459329Y-51141691D01*
X115398852Y-51171929D01*
X115368614Y-51171929D01*
X115308138Y-51141691D01*
X115277900Y-51111452D01*
X115247662Y-51050976D01*
X115247662Y-50930024D01*
X115277900Y-50869548D01*
X115308138Y-50839310D01*
X115368614Y-50809071D01*
X115398852Y-50809071D01*
X115459329Y-50839310D01*
X115489567Y-50869548D01*
X115519805Y-50930024D01*
X115519805Y-51050976D01*
X115550043Y-51111452D01*
X115580281Y-51141691D01*
X115640757Y-51171929D01*
X115761710Y-51171929D01*
X115822186Y-51141691D01*
X115852424Y-51111452D01*
X115882662Y-51050976D01*
X115882662Y-50930024D01*
X115852424Y-50869548D01*
X115822186Y-50839310D01*
X115761710Y-50809071D01*
X115640757Y-50809071D01*
X115580281Y-50839310D01*
X115550043Y-50869548D01*
X115519805Y-50930024D01*
X115641967Y-47953386D02*
X115611729Y-47983624D01*
X115521014Y-48013862D01*
X115460538Y-48013862D01*
X115369824Y-47983624D01*
X115309348Y-47923148D01*
X115279109Y-47862671D01*
X115248871Y-47741719D01*
X115248871Y-47651005D01*
X115279109Y-47530052D01*
X115309348Y-47469576D01*
X115369824Y-47409100D01*
X115460538Y-47378862D01*
X115521014Y-47378862D01*
X115611729Y-47409100D01*
X115641967Y-47439338D01*
X115944348Y-48013862D02*
X116065300Y-48013862D01*
X116125776Y-47983624D01*
X116156014Y-47953386D01*
X116216490Y-47862671D01*
X116246729Y-47741719D01*
X116246729Y-47499814D01*
X116216490Y-47439338D01*
X116186252Y-47409100D01*
X116125776Y-47378862D01*
X116004824Y-47378862D01*
X115944348Y-47409100D01*
X115914109Y-47439338D01*
X115883871Y-47499814D01*
X115883871Y-47651005D01*
X115914109Y-47711481D01*
X115944348Y-47741719D01*
X116004824Y-47771957D01*
X116125776Y-47771957D01*
X116186252Y-47741719D01*
X116216490Y-47711481D01*
X116246729Y-47651005D01*
X118870186Y-46382214D02*
X118900424Y-46412452D01*
X118930662Y-46503167D01*
X118930662Y-46563643D01*
X118900424Y-46654357D01*
X118839948Y-46714833D01*
X118779471Y-46745072D01*
X118658519Y-46775310D01*
X118567805Y-46775310D01*
X118446852Y-46745072D01*
X118386376Y-46714833D01*
X118325900Y-46654357D01*
X118295662Y-46563643D01*
X118295662Y-46503167D01*
X118325900Y-46412452D01*
X118356138Y-46382214D01*
X118930662Y-45777452D02*
X118930662Y-46140310D01*
X118930662Y-45958881D02*
X118295662Y-45958881D01*
X118386376Y-46019357D01*
X118446852Y-46079833D01*
X118477090Y-46140310D01*
X118295662Y-45384357D02*
X118295662Y-45323881D01*
X118325900Y-45263405D01*
X118356138Y-45233167D01*
X118416614Y-45202929D01*
X118537567Y-45172690D01*
X118688757Y-45172690D01*
X118809710Y-45202929D01*
X118870186Y-45233167D01*
X118900424Y-45263405D01*
X118930662Y-45323881D01*
X118930662Y-45384357D01*
X118900424Y-45444833D01*
X118870186Y-45475071D01*
X118809710Y-45505310D01*
X118688757Y-45535548D01*
X118537567Y-45535548D01*
X118416614Y-45505310D01*
X118356138Y-45475071D01*
X118325900Y-45444833D01*
X118295662Y-45384357D01*
X122235686Y-46915614D02*
X122265924Y-46945852D01*
X122296162Y-47036567D01*
X122296162Y-47097043D01*
X122265924Y-47187757D01*
X122205448Y-47248233D01*
X122144971Y-47278472D01*
X122024019Y-47308710D01*
X121933305Y-47308710D01*
X121812352Y-47278472D01*
X121751876Y-47248233D01*
X121691400Y-47187757D01*
X121661162Y-47097043D01*
X121661162Y-47036567D01*
X121691400Y-46945852D01*
X121721638Y-46915614D01*
X122296162Y-46310852D02*
X122296162Y-46673710D01*
X122296162Y-46492281D02*
X121661162Y-46492281D01*
X121751876Y-46552757D01*
X121812352Y-46613233D01*
X121842590Y-46673710D01*
X122296162Y-45706090D02*
X122296162Y-46068948D01*
X122296162Y-45887519D02*
X121661162Y-45887519D01*
X121751876Y-45947995D01*
X121812352Y-46008471D01*
X121842590Y-46068948D01*
X120495786Y-44803786D02*
X120465548Y-44834024D01*
X120374833Y-44864262D01*
X120314357Y-44864262D01*
X120223643Y-44834024D01*
X120163167Y-44773548D01*
X120132928Y-44713071D01*
X120102690Y-44592119D01*
X120102690Y-44501405D01*
X120132928Y-44380452D01*
X120163167Y-44319976D01*
X120223643Y-44259500D01*
X120314357Y-44229262D01*
X120374833Y-44229262D01*
X120465548Y-44259500D01*
X120495786Y-44289738D01*
X121100548Y-44864262D02*
X120737690Y-44864262D01*
X120919119Y-44864262D02*
X120919119Y-44229262D01*
X120858643Y-44319976D01*
X120798167Y-44380452D01*
X120737690Y-44410690D01*
X121342452Y-44289738D02*
X121372690Y-44259500D01*
X121433167Y-44229262D01*
X121584357Y-44229262D01*
X121644833Y-44259500D01*
X121675071Y-44289738D01*
X121705310Y-44350214D01*
X121705310Y-44410690D01*
X121675071Y-44501405D01*
X121312214Y-44864262D01*
X121705310Y-44864262D01*
X118565386Y-44829186D02*
X118535148Y-44859424D01*
X118444433Y-44889662D01*
X118383957Y-44889662D01*
X118293243Y-44859424D01*
X118232767Y-44798948D01*
X118202528Y-44738471D01*
X118172290Y-44617519D01*
X118172290Y-44526805D01*
X118202528Y-44405852D01*
X118232767Y-44345376D01*
X118293243Y-44284900D01*
X118383957Y-44254662D01*
X118444433Y-44254662D01*
X118535148Y-44284900D01*
X118565386Y-44315138D01*
X119170148Y-44889662D02*
X118807290Y-44889662D01*
X118988719Y-44889662D02*
X118988719Y-44254662D01*
X118928243Y-44345376D01*
X118867767Y-44405852D01*
X118807290Y-44436090D01*
X119381814Y-44254662D02*
X119774910Y-44254662D01*
X119563243Y-44496567D01*
X119653957Y-44496567D01*
X119714433Y-44526805D01*
X119744671Y-44557043D01*
X119774910Y-44617519D01*
X119774910Y-44768710D01*
X119744671Y-44829186D01*
X119714433Y-44859424D01*
X119653957Y-44889662D01*
X119472529Y-44889662D01*
X119412052Y-44859424D01*
X119381814Y-44829186D01*
X133462486Y-71537286D02*
X133432248Y-71567524D01*
X133341533Y-71597762D01*
X133281057Y-71597762D01*
X133190343Y-71567524D01*
X133129867Y-71507048D01*
X133099628Y-71446571D01*
X133069390Y-71325619D01*
X133069390Y-71234905D01*
X133099628Y-71113952D01*
X133129867Y-71053476D01*
X133190343Y-70993000D01*
X133281057Y-70962762D01*
X133341533Y-70962762D01*
X133432248Y-70993000D01*
X133462486Y-71023238D01*
X134067248Y-71597762D02*
X133704390Y-71597762D01*
X133885819Y-71597762D02*
X133885819Y-70962762D01*
X133825343Y-71053476D01*
X133764867Y-71113952D01*
X133704390Y-71144190D01*
X134611533Y-71174429D02*
X134611533Y-71597762D01*
X134460343Y-70932524D02*
X134309152Y-71386095D01*
X134702248Y-71386095D01*
X138301186Y-67476914D02*
X138331424Y-67507152D01*
X138361662Y-67597867D01*
X138361662Y-67658343D01*
X138331424Y-67749057D01*
X138270948Y-67809533D01*
X138210471Y-67839772D01*
X138089519Y-67870010D01*
X137998805Y-67870010D01*
X137877852Y-67839772D01*
X137817376Y-67809533D01*
X137756900Y-67749057D01*
X137726662Y-67658343D01*
X137726662Y-67597867D01*
X137756900Y-67507152D01*
X137787138Y-67476914D01*
X138361662Y-66872152D02*
X138361662Y-67235010D01*
X138361662Y-67053581D02*
X137726662Y-67053581D01*
X137817376Y-67114057D01*
X137877852Y-67174533D01*
X137908090Y-67235010D01*
X137726662Y-66297629D02*
X137726662Y-66600010D01*
X138029043Y-66630248D01*
X137998805Y-66600010D01*
X137968567Y-66539533D01*
X137968567Y-66388343D01*
X137998805Y-66327867D01*
X138029043Y-66297629D01*
X138089519Y-66267390D01*
X138240710Y-66267390D01*
X138301186Y-66297629D01*
X138331424Y-66327867D01*
X138361662Y-66388343D01*
X138361662Y-66539533D01*
X138331424Y-66600010D01*
X138301186Y-66630248D01*
X132281386Y-54252586D02*
X132251148Y-54282824D01*
X132160433Y-54313062D01*
X132099957Y-54313062D01*
X132009243Y-54282824D01*
X131948767Y-54222348D01*
X131918528Y-54161871D01*
X131888290Y-54040919D01*
X131888290Y-53950205D01*
X131918528Y-53829252D01*
X131948767Y-53768776D01*
X132009243Y-53708300D01*
X132099957Y-53678062D01*
X132160433Y-53678062D01*
X132251148Y-53708300D01*
X132281386Y-53738538D01*
X132886148Y-54313062D02*
X132523290Y-54313062D01*
X132704719Y-54313062D02*
X132704719Y-53678062D01*
X132644243Y-53768776D01*
X132583767Y-53829252D01*
X132523290Y-53859490D01*
X133430433Y-53678062D02*
X133309481Y-53678062D01*
X133249005Y-53708300D01*
X133218767Y-53738538D01*
X133158290Y-53829252D01*
X133128052Y-53950205D01*
X133128052Y-54192110D01*
X133158290Y-54252586D01*
X133188529Y-54282824D01*
X133249005Y-54313062D01*
X133369957Y-54313062D01*
X133430433Y-54282824D01*
X133460671Y-54252586D01*
X133490910Y-54192110D01*
X133490910Y-54040919D01*
X133460671Y-53980443D01*
X133430433Y-53950205D01*
X133369957Y-53919967D01*
X133249005Y-53919967D01*
X133188529Y-53950205D01*
X133158290Y-53980443D01*
X133128052Y-54040919D01*
X132141686Y-58507086D02*
X132111448Y-58537324D01*
X132020733Y-58567562D01*
X131960257Y-58567562D01*
X131869543Y-58537324D01*
X131809067Y-58476848D01*
X131778828Y-58416371D01*
X131748590Y-58295419D01*
X131748590Y-58204705D01*
X131778828Y-58083752D01*
X131809067Y-58023276D01*
X131869543Y-57962800D01*
X131960257Y-57932562D01*
X132020733Y-57932562D01*
X132111448Y-57962800D01*
X132141686Y-57993038D01*
X132746448Y-58567562D02*
X132383590Y-58567562D01*
X132565019Y-58567562D02*
X132565019Y-57932562D01*
X132504543Y-58023276D01*
X132444067Y-58083752D01*
X132383590Y-58113990D01*
X132958114Y-57932562D02*
X133381448Y-57932562D01*
X133109305Y-58567562D01*
X108786386Y-58545186D02*
X108756148Y-58575424D01*
X108665433Y-58605662D01*
X108604957Y-58605662D01*
X108514243Y-58575424D01*
X108453767Y-58514948D01*
X108423528Y-58454471D01*
X108393290Y-58333519D01*
X108393290Y-58242805D01*
X108423528Y-58121852D01*
X108453767Y-58061376D01*
X108514243Y-58000900D01*
X108604957Y-57970662D01*
X108665433Y-57970662D01*
X108756148Y-58000900D01*
X108786386Y-58031138D01*
X109391148Y-58605662D02*
X109028290Y-58605662D01*
X109209719Y-58605662D02*
X109209719Y-57970662D01*
X109149243Y-58061376D01*
X109088767Y-58121852D01*
X109028290Y-58152090D01*
X109754005Y-58242805D02*
X109693529Y-58212567D01*
X109663290Y-58182329D01*
X109633052Y-58121852D01*
X109633052Y-58091614D01*
X109663290Y-58031138D01*
X109693529Y-58000900D01*
X109754005Y-57970662D01*
X109874957Y-57970662D01*
X109935433Y-58000900D01*
X109965671Y-58031138D01*
X109995910Y-58091614D01*
X109995910Y-58121852D01*
X109965671Y-58182329D01*
X109935433Y-58212567D01*
X109874957Y-58242805D01*
X109754005Y-58242805D01*
X109693529Y-58273043D01*
X109663290Y-58303281D01*
X109633052Y-58363757D01*
X109633052Y-58484710D01*
X109663290Y-58545186D01*
X109693529Y-58575424D01*
X109754005Y-58605662D01*
X109874957Y-58605662D01*
X109935433Y-58575424D01*
X109965671Y-58545186D01*
X109995910Y-58484710D01*
X109995910Y-58363757D01*
X109965671Y-58303281D01*
X109935433Y-58273043D01*
X109874957Y-58242805D01*
X108748286Y-54430386D02*
X108718048Y-54460624D01*
X108627333Y-54490862D01*
X108566857Y-54490862D01*
X108476143Y-54460624D01*
X108415667Y-54400148D01*
X108385428Y-54339671D01*
X108355190Y-54218719D01*
X108355190Y-54128005D01*
X108385428Y-54007052D01*
X108415667Y-53946576D01*
X108476143Y-53886100D01*
X108566857Y-53855862D01*
X108627333Y-53855862D01*
X108718048Y-53886100D01*
X108748286Y-53916338D01*
X109353048Y-54490862D02*
X108990190Y-54490862D01*
X109171619Y-54490862D02*
X109171619Y-53855862D01*
X109111143Y-53946576D01*
X109050667Y-54007052D01*
X108990190Y-54037290D01*
X109655429Y-54490862D02*
X109776381Y-54490862D01*
X109836857Y-54460624D01*
X109867095Y-54430386D01*
X109927571Y-54339671D01*
X109957810Y-54218719D01*
X109957810Y-53976814D01*
X109927571Y-53916338D01*
X109897333Y-53886100D01*
X109836857Y-53855862D01*
X109715905Y-53855862D01*
X109655429Y-53886100D01*
X109625190Y-53916338D01*
X109594952Y-53976814D01*
X109594952Y-54128005D01*
X109625190Y-54188481D01*
X109655429Y-54218719D01*
X109715905Y-54248957D01*
X109836857Y-54248957D01*
X109897333Y-54218719D01*
X109927571Y-54188481D01*
X109957810Y-54128005D01*
X117003286Y-61990514D02*
X117033524Y-62020752D01*
X117063762Y-62111467D01*
X117063762Y-62171943D01*
X117033524Y-62262657D01*
X116973048Y-62323133D01*
X116912571Y-62353372D01*
X116791619Y-62383610D01*
X116700905Y-62383610D01*
X116579952Y-62353372D01*
X116519476Y-62323133D01*
X116459000Y-62262657D01*
X116428762Y-62171943D01*
X116428762Y-62111467D01*
X116459000Y-62020752D01*
X116489238Y-61990514D01*
X116489238Y-61748610D02*
X116459000Y-61718372D01*
X116428762Y-61657895D01*
X116428762Y-61506705D01*
X116459000Y-61446229D01*
X116489238Y-61415991D01*
X116549714Y-61385752D01*
X116610190Y-61385752D01*
X116700905Y-61415991D01*
X117063762Y-61778848D01*
X117063762Y-61385752D01*
X116428762Y-60992657D02*
X116428762Y-60932181D01*
X116459000Y-60871705D01*
X116489238Y-60841467D01*
X116549714Y-60811229D01*
X116670667Y-60780990D01*
X116821857Y-60780990D01*
X116942810Y-60811229D01*
X117003286Y-60841467D01*
X117033524Y-60871705D01*
X117063762Y-60932181D01*
X117063762Y-60992657D01*
X117033524Y-61053133D01*
X117003286Y-61083371D01*
X116942810Y-61113610D01*
X116821857Y-61143848D01*
X116670667Y-61143848D01*
X116549714Y-61113610D01*
X116489238Y-61083371D01*
X116459000Y-61053133D01*
X116428762Y-60992657D01*
X132154386Y-67464214D02*
X132184624Y-67494452D01*
X132214862Y-67585167D01*
X132214862Y-67645643D01*
X132184624Y-67736357D01*
X132124148Y-67796833D01*
X132063671Y-67827072D01*
X131942719Y-67857310D01*
X131852005Y-67857310D01*
X131731052Y-67827072D01*
X131670576Y-67796833D01*
X131610100Y-67736357D01*
X131579862Y-67645643D01*
X131579862Y-67585167D01*
X131610100Y-67494452D01*
X131640338Y-67464214D01*
X131640338Y-67222310D02*
X131610100Y-67192072D01*
X131579862Y-67131595D01*
X131579862Y-66980405D01*
X131610100Y-66919929D01*
X131640338Y-66889691D01*
X131700814Y-66859452D01*
X131761290Y-66859452D01*
X131852005Y-66889691D01*
X132214862Y-67252548D01*
X132214862Y-66859452D01*
X132214862Y-66254690D02*
X132214862Y-66617548D01*
X132214862Y-66436119D02*
X131579862Y-66436119D01*
X131670576Y-66496595D01*
X131731052Y-66557071D01*
X131761290Y-66617548D01*
X124013686Y-66473614D02*
X124043924Y-66503852D01*
X124074162Y-66594567D01*
X124074162Y-66655043D01*
X124043924Y-66745757D01*
X123983448Y-66806233D01*
X123922971Y-66836472D01*
X123802019Y-66866710D01*
X123711305Y-66866710D01*
X123590352Y-66836472D01*
X123529876Y-66806233D01*
X123469400Y-66745757D01*
X123439162Y-66655043D01*
X123439162Y-66594567D01*
X123469400Y-66503852D01*
X123499638Y-66473614D01*
X123499638Y-66231710D02*
X123469400Y-66201472D01*
X123439162Y-66140995D01*
X123439162Y-65989805D01*
X123469400Y-65929329D01*
X123499638Y-65899091D01*
X123560114Y-65868852D01*
X123620590Y-65868852D01*
X123711305Y-65899091D01*
X124074162Y-66261948D01*
X124074162Y-65868852D01*
X123499638Y-65626948D02*
X123469400Y-65596710D01*
X123439162Y-65536233D01*
X123439162Y-65385043D01*
X123469400Y-65324567D01*
X123499638Y-65294329D01*
X123560114Y-65264090D01*
X123620590Y-65264090D01*
X123711305Y-65294329D01*
X124074162Y-65657186D01*
X124074162Y-65264090D01*
X110983486Y-77078114D02*
X111013724Y-77108352D01*
X111043962Y-77199067D01*
X111043962Y-77259543D01*
X111013724Y-77350257D01*
X110953248Y-77410733D01*
X110892771Y-77440972D01*
X110771819Y-77471210D01*
X110681105Y-77471210D01*
X110560152Y-77440972D01*
X110499676Y-77410733D01*
X110439200Y-77350257D01*
X110408962Y-77259543D01*
X110408962Y-77199067D01*
X110439200Y-77108352D01*
X110469438Y-77078114D01*
X110469438Y-76836210D02*
X110439200Y-76805972D01*
X110408962Y-76745495D01*
X110408962Y-76594305D01*
X110439200Y-76533829D01*
X110469438Y-76503591D01*
X110529914Y-76473352D01*
X110590390Y-76473352D01*
X110681105Y-76503591D01*
X111043962Y-76866448D01*
X111043962Y-76473352D01*
X110408962Y-76261686D02*
X110408962Y-75868590D01*
X110650867Y-76080257D01*
X110650867Y-75989543D01*
X110681105Y-75929067D01*
X110711343Y-75898829D01*
X110771819Y-75868590D01*
X110923010Y-75868590D01*
X110983486Y-75898829D01*
X111013724Y-75929067D01*
X111043962Y-75989543D01*
X111043962Y-76170971D01*
X111013724Y-76231448D01*
X110983486Y-76261686D01*
X110983486Y-79503814D02*
X111013724Y-79534052D01*
X111043962Y-79624767D01*
X111043962Y-79685243D01*
X111013724Y-79775957D01*
X110953248Y-79836433D01*
X110892771Y-79866672D01*
X110771819Y-79896910D01*
X110681105Y-79896910D01*
X110560152Y-79866672D01*
X110499676Y-79836433D01*
X110439200Y-79775957D01*
X110408962Y-79685243D01*
X110408962Y-79624767D01*
X110439200Y-79534052D01*
X110469438Y-79503814D01*
X110469438Y-79261910D02*
X110439200Y-79231672D01*
X110408962Y-79171195D01*
X110408962Y-79020005D01*
X110439200Y-78959529D01*
X110469438Y-78929291D01*
X110529914Y-78899052D01*
X110590390Y-78899052D01*
X110681105Y-78929291D01*
X111043962Y-79292148D01*
X111043962Y-78899052D01*
X110620629Y-78354767D02*
X111043962Y-78354767D01*
X110378724Y-78505957D02*
X110832295Y-78657148D01*
X110832295Y-78264052D01*
X111021586Y-84761614D02*
X111051824Y-84791852D01*
X111082062Y-84882567D01*
X111082062Y-84943043D01*
X111051824Y-85033757D01*
X110991348Y-85094233D01*
X110930871Y-85124472D01*
X110809919Y-85154710D01*
X110719205Y-85154710D01*
X110598252Y-85124472D01*
X110537776Y-85094233D01*
X110477300Y-85033757D01*
X110447062Y-84943043D01*
X110447062Y-84882567D01*
X110477300Y-84791852D01*
X110507538Y-84761614D01*
X110507538Y-84519710D02*
X110477300Y-84489472D01*
X110447062Y-84428995D01*
X110447062Y-84277805D01*
X110477300Y-84217329D01*
X110507538Y-84187091D01*
X110568014Y-84156852D01*
X110628490Y-84156852D01*
X110719205Y-84187091D01*
X111082062Y-84549948D01*
X111082062Y-84156852D01*
X110447062Y-83582329D02*
X110447062Y-83884710D01*
X110749443Y-83914948D01*
X110719205Y-83884710D01*
X110688967Y-83824233D01*
X110688967Y-83673043D01*
X110719205Y-83612567D01*
X110749443Y-83582329D01*
X110809919Y-83552090D01*
X110961110Y-83552090D01*
X111021586Y-83582329D01*
X111051824Y-83612567D01*
X111082062Y-83673043D01*
X111082062Y-83824233D01*
X111051824Y-83884710D01*
X111021586Y-83914948D01*
X110983486Y-87669914D02*
X111013724Y-87700152D01*
X111043962Y-87790867D01*
X111043962Y-87851343D01*
X111013724Y-87942057D01*
X110953248Y-88002533D01*
X110892771Y-88032772D01*
X110771819Y-88063010D01*
X110681105Y-88063010D01*
X110560152Y-88032772D01*
X110499676Y-88002533D01*
X110439200Y-87942057D01*
X110408962Y-87851343D01*
X110408962Y-87790867D01*
X110439200Y-87700152D01*
X110469438Y-87669914D01*
X110469438Y-87428010D02*
X110439200Y-87397772D01*
X110408962Y-87337295D01*
X110408962Y-87186105D01*
X110439200Y-87125629D01*
X110469438Y-87095391D01*
X110529914Y-87065152D01*
X110590390Y-87065152D01*
X110681105Y-87095391D01*
X111043962Y-87458248D01*
X111043962Y-87065152D01*
X110408962Y-86520867D02*
X110408962Y-86641819D01*
X110439200Y-86702295D01*
X110469438Y-86732533D01*
X110560152Y-86793010D01*
X110681105Y-86823248D01*
X110923010Y-86823248D01*
X110983486Y-86793010D01*
X111013724Y-86762771D01*
X111043962Y-86702295D01*
X111043962Y-86581343D01*
X111013724Y-86520867D01*
X110983486Y-86490629D01*
X110923010Y-86460390D01*
X110771819Y-86460390D01*
X110711343Y-86490629D01*
X110681105Y-86520867D01*
X110650867Y-86581343D01*
X110650867Y-86702295D01*
X110681105Y-86762771D01*
X110711343Y-86793010D01*
X110771819Y-86823248D01*
X125509867Y-122486662D02*
X125298200Y-122184281D01*
X125147009Y-122486662D02*
X125147009Y-121851662D01*
X125388914Y-121851662D01*
X125449390Y-121881900D01*
X125479629Y-121912138D01*
X125509867Y-121972614D01*
X125509867Y-122063329D01*
X125479629Y-122123805D01*
X125449390Y-122154043D01*
X125388914Y-122184281D01*
X125147009Y-122184281D01*
X126114629Y-122486662D02*
X125751771Y-122486662D01*
X125933200Y-122486662D02*
X125933200Y-121851662D01*
X125872724Y-121942376D01*
X125812248Y-122002852D01*
X125751771Y-122033090D01*
X113256786Y-120349262D02*
X113045119Y-120046881D01*
X112893928Y-120349262D02*
X112893928Y-119714262D01*
X113135833Y-119714262D01*
X113196309Y-119744500D01*
X113226548Y-119774738D01*
X113256786Y-119835214D01*
X113256786Y-119925929D01*
X113226548Y-119986405D01*
X113196309Y-120016643D01*
X113135833Y-120046881D01*
X112893928Y-120046881D01*
X113861548Y-120349262D02*
X113498690Y-120349262D01*
X113680119Y-120349262D02*
X113680119Y-119714262D01*
X113619643Y-119804976D01*
X113559167Y-119865452D01*
X113498690Y-119895690D01*
X114224405Y-119986405D02*
X114163929Y-119956167D01*
X114133690Y-119925929D01*
X114103452Y-119865452D01*
X114103452Y-119835214D01*
X114133690Y-119774738D01*
X114163929Y-119744500D01*
X114224405Y-119714262D01*
X114345357Y-119714262D01*
X114405833Y-119744500D01*
X114436071Y-119774738D01*
X114466310Y-119835214D01*
X114466310Y-119865452D01*
X114436071Y-119925929D01*
X114405833Y-119956167D01*
X114345357Y-119986405D01*
X114224405Y-119986405D01*
X114163929Y-120016643D01*
X114133690Y-120046881D01*
X114103452Y-120107357D01*
X114103452Y-120228310D01*
X114133690Y-120288786D01*
X114163929Y-120319024D01*
X114224405Y-120349262D01*
X114345357Y-120349262D01*
X114405833Y-120319024D01*
X114436071Y-120288786D01*
X114466310Y-120228310D01*
X114466310Y-120107357D01*
X114436071Y-120046881D01*
X114405833Y-120016643D01*
X114345357Y-119986405D01*
X124645662Y-61774614D02*
X124343281Y-61986281D01*
X124645662Y-62137472D02*
X124010662Y-62137472D01*
X124010662Y-61895567D01*
X124040900Y-61835091D01*
X124071138Y-61804852D01*
X124131614Y-61774614D01*
X124222329Y-61774614D01*
X124282805Y-61804852D01*
X124313043Y-61835091D01*
X124343281Y-61895567D01*
X124343281Y-62137472D01*
X124645662Y-61169852D02*
X124645662Y-61532710D01*
X124645662Y-61351281D02*
X124010662Y-61351281D01*
X124101376Y-61411757D01*
X124161852Y-61472233D01*
X124192090Y-61532710D01*
X124645662Y-60867471D02*
X124645662Y-60746519D01*
X124615424Y-60686043D01*
X124585186Y-60655805D01*
X124494471Y-60595329D01*
X124373519Y-60565090D01*
X124131614Y-60565090D01*
X124071138Y-60595329D01*
X124040900Y-60625567D01*
X124010662Y-60686043D01*
X124010662Y-60806995D01*
X124040900Y-60867471D01*
X124071138Y-60897710D01*
X124131614Y-60927948D01*
X124282805Y-60927948D01*
X124343281Y-60897710D01*
X124373519Y-60867471D01*
X124403757Y-60806995D01*
X124403757Y-60686043D01*
X124373519Y-60625567D01*
X124343281Y-60595329D01*
X124282805Y-60565090D01*
X125852162Y-66270414D02*
X125549781Y-66482081D01*
X125852162Y-66633272D02*
X125217162Y-66633272D01*
X125217162Y-66391367D01*
X125247400Y-66330891D01*
X125277638Y-66300652D01*
X125338114Y-66270414D01*
X125428829Y-66270414D01*
X125489305Y-66300652D01*
X125519543Y-66330891D01*
X125549781Y-66391367D01*
X125549781Y-66633272D01*
X125277638Y-66028510D02*
X125247400Y-65998272D01*
X125217162Y-65937795D01*
X125217162Y-65786605D01*
X125247400Y-65726129D01*
X125277638Y-65695891D01*
X125338114Y-65665652D01*
X125398590Y-65665652D01*
X125489305Y-65695891D01*
X125852162Y-66058748D01*
X125852162Y-65665652D01*
X125217162Y-65272557D02*
X125217162Y-65212081D01*
X125247400Y-65151605D01*
X125277638Y-65121367D01*
X125338114Y-65091129D01*
X125459067Y-65060890D01*
X125610257Y-65060890D01*
X125731210Y-65091129D01*
X125791686Y-65121367D01*
X125821924Y-65151605D01*
X125852162Y-65212081D01*
X125852162Y-65272557D01*
X125821924Y-65333033D01*
X125791686Y-65363271D01*
X125731210Y-65393510D01*
X125610257Y-65423748D01*
X125459067Y-65423748D01*
X125338114Y-65393510D01*
X125277638Y-65363271D01*
X125247400Y-65333033D01*
X125217162Y-65272557D01*
X121486386Y-120429262D02*
X121274719Y-120126881D01*
X121123528Y-120429262D02*
X121123528Y-119794262D01*
X121365433Y-119794262D01*
X121425909Y-119824500D01*
X121456148Y-119854738D01*
X121486386Y-119915214D01*
X121486386Y-120005929D01*
X121456148Y-120066405D01*
X121425909Y-120096643D01*
X121365433Y-120126881D01*
X121123528Y-120126881D01*
X121728290Y-119854738D02*
X121758528Y-119824500D01*
X121819005Y-119794262D01*
X121970195Y-119794262D01*
X122030671Y-119824500D01*
X122060909Y-119854738D01*
X122091148Y-119915214D01*
X122091148Y-119975690D01*
X122060909Y-120066405D01*
X121698052Y-120429262D01*
X122091148Y-120429262D01*
X122695910Y-120429262D02*
X122333052Y-120429262D01*
X122514481Y-120429262D02*
X122514481Y-119794262D01*
X122454005Y-119884976D01*
X122393529Y-119945452D01*
X122333052Y-119975690D01*
X131452862Y-62943014D02*
X131150481Y-63154681D01*
X131452862Y-63305872D02*
X130817862Y-63305872D01*
X130817862Y-63063967D01*
X130848100Y-63003491D01*
X130878338Y-62973252D01*
X130938814Y-62943014D01*
X131029529Y-62943014D01*
X131090005Y-62973252D01*
X131120243Y-63003491D01*
X131150481Y-63063967D01*
X131150481Y-63305872D01*
X130878338Y-62701110D02*
X130848100Y-62670872D01*
X130817862Y-62610395D01*
X130817862Y-62459205D01*
X130848100Y-62398729D01*
X130878338Y-62368491D01*
X130938814Y-62338252D01*
X130999290Y-62338252D01*
X131090005Y-62368491D01*
X131452862Y-62731348D01*
X131452862Y-62338252D01*
X130878338Y-62096348D02*
X130848100Y-62066110D01*
X130817862Y-62005633D01*
X130817862Y-61854443D01*
X130848100Y-61793967D01*
X130878338Y-61763729D01*
X130938814Y-61733490D01*
X130999290Y-61733490D01*
X131090005Y-61763729D01*
X131452862Y-62126586D01*
X131452862Y-61733490D01*
X133027662Y-62943014D02*
X132725281Y-63154681D01*
X133027662Y-63305872D02*
X132392662Y-63305872D01*
X132392662Y-63063967D01*
X132422900Y-63003491D01*
X132453138Y-62973252D01*
X132513614Y-62943014D01*
X132604329Y-62943014D01*
X132664805Y-62973252D01*
X132695043Y-63003491D01*
X132725281Y-63063967D01*
X132725281Y-63305872D01*
X132453138Y-62701110D02*
X132422900Y-62670872D01*
X132392662Y-62610395D01*
X132392662Y-62459205D01*
X132422900Y-62398729D01*
X132453138Y-62368491D01*
X132513614Y-62338252D01*
X132574090Y-62338252D01*
X132664805Y-62368491D01*
X133027662Y-62731348D01*
X133027662Y-62338252D01*
X132392662Y-62126586D02*
X132392662Y-61733490D01*
X132634567Y-61945157D01*
X132634567Y-61854443D01*
X132664805Y-61793967D01*
X132695043Y-61763729D01*
X132755519Y-61733490D01*
X132906710Y-61733490D01*
X132967186Y-61763729D01*
X132997424Y-61793967D01*
X133027662Y-61854443D01*
X133027662Y-62035871D01*
X132997424Y-62096348D01*
X132967186Y-62126586D01*
X136485086Y-60828162D02*
X136273419Y-60525781D01*
X136122228Y-60828162D02*
X136122228Y-60193162D01*
X136364133Y-60193162D01*
X136424609Y-60223400D01*
X136454848Y-60253638D01*
X136485086Y-60314114D01*
X136485086Y-60404829D01*
X136454848Y-60465305D01*
X136424609Y-60495543D01*
X136364133Y-60525781D01*
X136122228Y-60525781D01*
X136726990Y-60253638D02*
X136757228Y-60223400D01*
X136817705Y-60193162D01*
X136968895Y-60193162D01*
X137029371Y-60223400D01*
X137059609Y-60253638D01*
X137089848Y-60314114D01*
X137089848Y-60374590D01*
X137059609Y-60465305D01*
X136696752Y-60828162D01*
X137089848Y-60828162D01*
X137634133Y-60404829D02*
X137634133Y-60828162D01*
X137482943Y-60162924D02*
X137331752Y-60616495D01*
X137724848Y-60616495D01*
X119235462Y-57382833D02*
X118933081Y-57594500D01*
X119235462Y-57745691D02*
X118600462Y-57745691D01*
X118600462Y-57503786D01*
X118630700Y-57443310D01*
X118660938Y-57413071D01*
X118721414Y-57382833D01*
X118812129Y-57382833D01*
X118872605Y-57413071D01*
X118902843Y-57443310D01*
X118933081Y-57503786D01*
X118933081Y-57745691D01*
X118660938Y-57140929D02*
X118630700Y-57110691D01*
X118600462Y-57050214D01*
X118600462Y-56899024D01*
X118630700Y-56838548D01*
X118660938Y-56808310D01*
X118721414Y-56778071D01*
X118781890Y-56778071D01*
X118872605Y-56808310D01*
X119235462Y-57171167D01*
X119235462Y-56778071D01*
X120899162Y-57382833D02*
X120596781Y-57594500D01*
X120899162Y-57745691D02*
X120264162Y-57745691D01*
X120264162Y-57503786D01*
X120294400Y-57443310D01*
X120324638Y-57413071D01*
X120385114Y-57382833D01*
X120475829Y-57382833D01*
X120536305Y-57413071D01*
X120566543Y-57443310D01*
X120596781Y-57503786D01*
X120596781Y-57745691D01*
X120264162Y-57171167D02*
X120264162Y-56778071D01*
X120506067Y-56989738D01*
X120506067Y-56899024D01*
X120536305Y-56838548D01*
X120566543Y-56808310D01*
X120627019Y-56778071D01*
X120778210Y-56778071D01*
X120838686Y-56808310D01*
X120868924Y-56838548D01*
X120899162Y-56899024D01*
X120899162Y-57080452D01*
X120868924Y-57140929D01*
X120838686Y-57171167D01*
X121711962Y-57382833D02*
X121409581Y-57594500D01*
X121711962Y-57745691D02*
X121076962Y-57745691D01*
X121076962Y-57503786D01*
X121107200Y-57443310D01*
X121137438Y-57413071D01*
X121197914Y-57382833D01*
X121288629Y-57382833D01*
X121349105Y-57413071D01*
X121379343Y-57443310D01*
X121409581Y-57503786D01*
X121409581Y-57745691D01*
X121288629Y-56838548D02*
X121711962Y-56838548D01*
X121046724Y-56989738D02*
X121500295Y-57140929D01*
X121500295Y-56747833D01*
X122524762Y-57395533D02*
X122222381Y-57607200D01*
X122524762Y-57758391D02*
X121889762Y-57758391D01*
X121889762Y-57516486D01*
X121920000Y-57456010D01*
X121950238Y-57425771D01*
X122010714Y-57395533D01*
X122101429Y-57395533D01*
X122161905Y-57425771D01*
X122192143Y-57456010D01*
X122222381Y-57516486D01*
X122222381Y-57758391D01*
X121889762Y-56821010D02*
X121889762Y-57123391D01*
X122192143Y-57153629D01*
X122161905Y-57123391D01*
X122131667Y-57062914D01*
X122131667Y-56911724D01*
X122161905Y-56851248D01*
X122192143Y-56821010D01*
X122252619Y-56790771D01*
X122403810Y-56790771D01*
X122464286Y-56821010D01*
X122494524Y-56851248D01*
X122524762Y-56911724D01*
X122524762Y-57062914D01*
X122494524Y-57123391D01*
X122464286Y-57153629D01*
X123362962Y-57395533D02*
X123060581Y-57607200D01*
X123362962Y-57758391D02*
X122727962Y-57758391D01*
X122727962Y-57516486D01*
X122758200Y-57456010D01*
X122788438Y-57425771D01*
X122848914Y-57395533D01*
X122939629Y-57395533D01*
X123000105Y-57425771D01*
X123030343Y-57456010D01*
X123060581Y-57516486D01*
X123060581Y-57758391D01*
X122727962Y-56851248D02*
X122727962Y-56972200D01*
X122758200Y-57032676D01*
X122788438Y-57062914D01*
X122879152Y-57123391D01*
X123000105Y-57153629D01*
X123242010Y-57153629D01*
X123302486Y-57123391D01*
X123332724Y-57093152D01*
X123362962Y-57032676D01*
X123362962Y-56911724D01*
X123332724Y-56851248D01*
X123302486Y-56821010D01*
X123242010Y-56790771D01*
X123090819Y-56790771D01*
X123030343Y-56821010D01*
X123000105Y-56851248D01*
X122969867Y-56911724D01*
X122969867Y-57032676D01*
X123000105Y-57093152D01*
X123030343Y-57123391D01*
X123090819Y-57153629D01*
X120086362Y-57382833D02*
X119783981Y-57594500D01*
X120086362Y-57745691D02*
X119451362Y-57745691D01*
X119451362Y-57503786D01*
X119481600Y-57443310D01*
X119511838Y-57413071D01*
X119572314Y-57382833D01*
X119663029Y-57382833D01*
X119723505Y-57413071D01*
X119753743Y-57443310D01*
X119783981Y-57503786D01*
X119783981Y-57745691D01*
X119451362Y-57171167D02*
X119451362Y-56747833D01*
X120086362Y-57019976D01*
X125179667Y-48496462D02*
X124968000Y-48194081D01*
X124816809Y-48496462D02*
X124816809Y-47861462D01*
X125058714Y-47861462D01*
X125119190Y-47891700D01*
X125149429Y-47921938D01*
X125179667Y-47982414D01*
X125179667Y-48073129D01*
X125149429Y-48133605D01*
X125119190Y-48163843D01*
X125058714Y-48194081D01*
X124816809Y-48194081D01*
X125542524Y-48133605D02*
X125482048Y-48103367D01*
X125451809Y-48073129D01*
X125421571Y-48012652D01*
X125421571Y-47982414D01*
X125451809Y-47921938D01*
X125482048Y-47891700D01*
X125542524Y-47861462D01*
X125663476Y-47861462D01*
X125723952Y-47891700D01*
X125754190Y-47921938D01*
X125784429Y-47982414D01*
X125784429Y-48012652D01*
X125754190Y-48073129D01*
X125723952Y-48103367D01*
X125663476Y-48133605D01*
X125542524Y-48133605D01*
X125482048Y-48163843D01*
X125451809Y-48194081D01*
X125421571Y-48254557D01*
X125421571Y-48375510D01*
X125451809Y-48435986D01*
X125482048Y-48466224D01*
X125542524Y-48496462D01*
X125663476Y-48496462D01*
X125723952Y-48466224D01*
X125754190Y-48435986D01*
X125784429Y-48375510D01*
X125784429Y-48254557D01*
X125754190Y-48194081D01*
X125723952Y-48163843D01*
X125663476Y-48133605D01*
X125154267Y-49448962D02*
X124942600Y-49146581D01*
X124791409Y-49448962D02*
X124791409Y-48813962D01*
X125033314Y-48813962D01*
X125093790Y-48844200D01*
X125124029Y-48874438D01*
X125154267Y-48934914D01*
X125154267Y-49025629D01*
X125124029Y-49086105D01*
X125093790Y-49116343D01*
X125033314Y-49146581D01*
X124791409Y-49146581D01*
X125456648Y-49448962D02*
X125577600Y-49448962D01*
X125638076Y-49418724D01*
X125668314Y-49388486D01*
X125728790Y-49297771D01*
X125759029Y-49176819D01*
X125759029Y-48934914D01*
X125728790Y-48874438D01*
X125698552Y-48844200D01*
X125638076Y-48813962D01*
X125517124Y-48813962D01*
X125456648Y-48844200D01*
X125426409Y-48874438D01*
X125396171Y-48934914D01*
X125396171Y-49086105D01*
X125426409Y-49146581D01*
X125456648Y-49176819D01*
X125517124Y-49207057D01*
X125638076Y-49207057D01*
X125698552Y-49176819D01*
X125728790Y-49146581D01*
X125759029Y-49086105D01*
X124889986Y-50376062D02*
X124678319Y-50073681D01*
X124527128Y-50376062D02*
X124527128Y-49741062D01*
X124769033Y-49741062D01*
X124829509Y-49771300D01*
X124859748Y-49801538D01*
X124889986Y-49862014D01*
X124889986Y-49952729D01*
X124859748Y-50013205D01*
X124829509Y-50043443D01*
X124769033Y-50073681D01*
X124527128Y-50073681D01*
X125494748Y-50376062D02*
X125131890Y-50376062D01*
X125313319Y-50376062D02*
X125313319Y-49741062D01*
X125252843Y-49831776D01*
X125192367Y-49892252D01*
X125131890Y-49922490D01*
X125887843Y-49741062D02*
X125948319Y-49741062D01*
X126008795Y-49771300D01*
X126039033Y-49801538D01*
X126069271Y-49862014D01*
X126099510Y-49982967D01*
X126099510Y-50134157D01*
X126069271Y-50255110D01*
X126039033Y-50315586D01*
X126008795Y-50345824D01*
X125948319Y-50376062D01*
X125887843Y-50376062D01*
X125827367Y-50345824D01*
X125797129Y-50315586D01*
X125766890Y-50255110D01*
X125736652Y-50134157D01*
X125736652Y-49982967D01*
X125766890Y-49862014D01*
X125797129Y-49801538D01*
X125827367Y-49771300D01*
X125887843Y-49741062D01*
X124940786Y-55138562D02*
X124729119Y-54836181D01*
X124577928Y-55138562D02*
X124577928Y-54503562D01*
X124819833Y-54503562D01*
X124880309Y-54533800D01*
X124910548Y-54564038D01*
X124940786Y-54624514D01*
X124940786Y-54715229D01*
X124910548Y-54775705D01*
X124880309Y-54805943D01*
X124819833Y-54836181D01*
X124577928Y-54836181D01*
X125545548Y-55138562D02*
X125182690Y-55138562D01*
X125364119Y-55138562D02*
X125364119Y-54503562D01*
X125303643Y-54594276D01*
X125243167Y-54654752D01*
X125182690Y-54684990D01*
X126150310Y-55138562D02*
X125787452Y-55138562D01*
X125968881Y-55138562D02*
X125968881Y-54503562D01*
X125908405Y-54594276D01*
X125847929Y-54654752D01*
X125787452Y-54684990D01*
M02*
