G04 #@! TF.FileFunction,Copper,L3,Inr,Signal*
%FSLAX46Y46*%
G04 Gerber Fmt 4.6, Leading zero omitted, Abs format (unit mm)*
G04 Created by KiCad (PCBNEW 4.0.0-stable) date Friday, August 18, 2017 'PMt' 03:24:48 PM*
%MOMM*%
G01*
G04 APERTURE LIST*
%ADD10C,0.100000*%
%ADD11R,1.700000X1.200000*%
%ADD12O,1.700000X1.200000*%
%ADD13R,1.700000X1.700000*%
%ADD14O,1.700000X1.700000*%
%ADD15R,1.524000X1.524000*%
%ADD16C,1.524000*%
%ADD17C,0.600000*%
%ADD18C,0.254000*%
G04 APERTURE END LIST*
D10*
D11*
X135636000Y-81280000D03*
D12*
X135636000Y-83280000D03*
D13*
X130302000Y-120548400D03*
X103733600Y-94589600D03*
D14*
X103733600Y-97129600D03*
X103733600Y-99669600D03*
X103733600Y-102209600D03*
D13*
X134315200Y-98653600D03*
X113030000Y-43434000D03*
D14*
X113030000Y-45974000D03*
X113030000Y-48514000D03*
X113030000Y-51054000D03*
X113030000Y-53594000D03*
X113030000Y-56134000D03*
X113030000Y-58674000D03*
X113030000Y-61214000D03*
X113030000Y-63754000D03*
X113030000Y-66294000D03*
X113030000Y-68834000D03*
X113030000Y-71374000D03*
X113030000Y-73914000D03*
X113030000Y-76454000D03*
X113030000Y-78994000D03*
X113030000Y-81534000D03*
X113030000Y-84074000D03*
X113030000Y-86614000D03*
X113030000Y-89154000D03*
X113030000Y-91694000D03*
X113030000Y-94234000D03*
X113030000Y-96774000D03*
X113030000Y-99314000D03*
X113030000Y-101854000D03*
D13*
X125730000Y-45974000D03*
X128270000Y-43434000D03*
D14*
X128270000Y-45974000D03*
X128270000Y-48514000D03*
X128270000Y-51054000D03*
X128270000Y-53594000D03*
X128270000Y-56134000D03*
X128270000Y-58674000D03*
X128270000Y-61214000D03*
X128270000Y-63754000D03*
X128270000Y-66294000D03*
X128270000Y-68834000D03*
X128270000Y-71374000D03*
X128270000Y-73914000D03*
X128270000Y-76454000D03*
X128270000Y-78994000D03*
X128270000Y-81534000D03*
X128270000Y-84074000D03*
X128270000Y-86614000D03*
X128270000Y-89154000D03*
X128270000Y-91694000D03*
X128270000Y-94234000D03*
X128270000Y-96774000D03*
X128270000Y-99314000D03*
X128270000Y-101854000D03*
D13*
X106121200Y-76555600D03*
D14*
X103581200Y-76555600D03*
D13*
X106121200Y-79095600D03*
D14*
X103581200Y-79095600D03*
D13*
X106121200Y-81635600D03*
D14*
X103581200Y-81635600D03*
D13*
X106121200Y-84175600D03*
D14*
X103581200Y-84175600D03*
D13*
X106121200Y-86715600D03*
D14*
X103581200Y-86715600D03*
D15*
X104241600Y-108915200D03*
D16*
X109321600Y-108915200D03*
X106781600Y-113995200D03*
D17*
X132219700Y-30073600D03*
X119989600Y-45847000D03*
X132054600Y-70472300D03*
X137845800Y-62801500D03*
X109791500Y-114528600D03*
X116598700Y-100342700D03*
X119801600Y-52512000D03*
X121701600Y-52512000D03*
X121701600Y-50612000D03*
X119801600Y-50612000D03*
X122732800Y-62788800D03*
X109575600Y-57912000D03*
X115595400Y-56603900D03*
X115392200Y-50342800D03*
X105702100Y-30505400D03*
X130632200Y-35902900D03*
X121488200Y-38950900D03*
X123850400Y-45935900D03*
X115531900Y-45466000D03*
X124980700Y-57175400D03*
X128587500Y-106870500D03*
X114960400Y-107950000D03*
X109829600Y-123342400D03*
X118008400Y-123342400D03*
X125476000Y-121310400D03*
X131876800Y-63246000D03*
X135534400Y-64211200D03*
X134162800Y-57048400D03*
X134162800Y-55270400D03*
X134162800Y-56184800D03*
X117983000Y-64389000D03*
X118110000Y-54483000D03*
X124955300Y-56083200D03*
X125526800Y-62699900D03*
X117144800Y-107340400D03*
X116586000Y-103428800D03*
X115582700Y-46545500D03*
X117983000Y-62611000D03*
X115443000Y-63881000D03*
X105664000Y-60198000D03*
X116598700Y-56591200D03*
X116090700Y-48666400D03*
X118338600Y-46050200D03*
X123977400Y-65303400D03*
X133604000Y-54483000D03*
X137261600Y-54356000D03*
X115316000Y-61010800D03*
X108585000Y-58801000D03*
X109423200Y-72694800D03*
X138836400Y-66497200D03*
X121323100Y-39916100D03*
X123342400Y-48996600D03*
X121958100Y-59232800D03*
X104902000Y-64262000D03*
X130251200Y-100685600D03*
X125234700Y-36093400D03*
X132080000Y-51866800D03*
X126847600Y-41757600D03*
X132740400Y-59182000D03*
X126466600Y-51308000D03*
X126898400Y-95478600D03*
X126199900Y-98082100D03*
X125818900Y-54991000D03*
X111480600Y-120459500D03*
X110566200Y-119468900D03*
X110667800Y-48526700D03*
X111353600Y-100584000D03*
X125374400Y-99161600D03*
X126746000Y-119634000D03*
X122212100Y-102311200D03*
X121983500Y-60071000D03*
X117081300Y-68313300D03*
X117106700Y-57848500D03*
X118376700Y-73875900D03*
X118910100Y-57365900D03*
X117805200Y-119938800D03*
X117449600Y-81889600D03*
X118986300Y-84429600D03*
X118973600Y-119989600D03*
X129476500Y-57365900D03*
X126936500Y-59613800D03*
X126453900Y-52260500D03*
X123367800Y-76428600D03*
X123304300Y-57162700D03*
X121462800Y-120142000D03*
X123240800Y-94234000D03*
X112293400Y-121399300D03*
X115773200Y-96875600D03*
X125349000Y-77495400D03*
X125488700Y-50431700D03*
X124701300Y-79921100D03*
X125107700Y-49555400D03*
X120332500Y-47536100D03*
X120891300Y-85356700D03*
X120332500Y-46685200D03*
X120154700Y-87528400D03*
X117843300Y-48882300D03*
X119761000Y-37871400D03*
X117068600Y-50368200D03*
X119316500Y-37122100D03*
X117170200Y-40767000D03*
X116230400Y-44005500D03*
D18*
G36*
X139599600Y-86818400D02*
X132384800Y-86818400D01*
X132210296Y-86853111D01*
X132062359Y-86951959D01*
X131963511Y-87099896D01*
X131928800Y-87274400D01*
X131928800Y-94996000D01*
X131963511Y-95170504D01*
X132062359Y-95318441D01*
X132210296Y-95417289D01*
X132384800Y-95452000D01*
X137541000Y-95452000D01*
X137541000Y-100521886D01*
X133018030Y-104039752D01*
X132985171Y-104077985D01*
X132969000Y-104140000D01*
X132969000Y-125274000D01*
X102056000Y-125274000D01*
X102056000Y-122515516D01*
X103225457Y-122515516D01*
X103526411Y-123243880D01*
X104083189Y-123801631D01*
X104811026Y-124103855D01*
X105599116Y-124104543D01*
X106327480Y-123803589D01*
X106885231Y-123246811D01*
X107187455Y-122518974D01*
X107188143Y-121730884D01*
X106887189Y-121002520D01*
X106330411Y-120444769D01*
X105602574Y-120142545D01*
X104814484Y-120141857D01*
X104086120Y-120442811D01*
X103528369Y-120999589D01*
X103226145Y-121727426D01*
X103225457Y-122515516D01*
X102056000Y-122515516D01*
X102056000Y-119603765D01*
X109885082Y-119603765D01*
X109988539Y-119854152D01*
X110179941Y-120045887D01*
X110430146Y-120149782D01*
X110701065Y-120150018D01*
X110915429Y-120061445D01*
X110903613Y-120073241D01*
X110799718Y-120323446D01*
X110799482Y-120594365D01*
X110902939Y-120844752D01*
X111094341Y-121036487D01*
X111344546Y-121140382D01*
X111615465Y-121140618D01*
X111673373Y-121116691D01*
X111612518Y-121263246D01*
X111612282Y-121534165D01*
X111715739Y-121784552D01*
X111907141Y-121976287D01*
X112157346Y-122080182D01*
X112428265Y-122080418D01*
X112678652Y-121976961D01*
X112870387Y-121785559D01*
X112974282Y-121535354D01*
X112974518Y-121264435D01*
X112871061Y-121014048D01*
X112679659Y-120822313D01*
X112429454Y-120718418D01*
X112158535Y-120718182D01*
X112100627Y-120742109D01*
X112161482Y-120595554D01*
X112161718Y-120324635D01*
X112058261Y-120074248D01*
X112057680Y-120073665D01*
X117124082Y-120073665D01*
X117227539Y-120324052D01*
X117418941Y-120515787D01*
X117669146Y-120619682D01*
X117940065Y-120619918D01*
X118190452Y-120516461D01*
X118377357Y-120329880D01*
X118395939Y-120374852D01*
X118587341Y-120566587D01*
X118837546Y-120670482D01*
X119108465Y-120670718D01*
X119358852Y-120567261D01*
X119550587Y-120375859D01*
X119591693Y-120276865D01*
X120781682Y-120276865D01*
X120885139Y-120527252D01*
X121076541Y-120718987D01*
X121326746Y-120822882D01*
X121597665Y-120823118D01*
X121848052Y-120719661D01*
X122039787Y-120528259D01*
X122143682Y-120278054D01*
X122143918Y-120007135D01*
X122045468Y-119768865D01*
X126064882Y-119768865D01*
X126168339Y-120019252D01*
X126359741Y-120210987D01*
X126609946Y-120314882D01*
X126880865Y-120315118D01*
X127131252Y-120211661D01*
X127322987Y-120020259D01*
X127426882Y-119770054D01*
X127426944Y-119698400D01*
X129063536Y-119698400D01*
X129063536Y-121398400D01*
X129090103Y-121539590D01*
X129173546Y-121669265D01*
X129300866Y-121756259D01*
X129452000Y-121786864D01*
X131152000Y-121786864D01*
X131293190Y-121760297D01*
X131422865Y-121676854D01*
X131509859Y-121549534D01*
X131540464Y-121398400D01*
X131540464Y-119698400D01*
X131513897Y-119557210D01*
X131430454Y-119427535D01*
X131303134Y-119340541D01*
X131152000Y-119309936D01*
X129452000Y-119309936D01*
X129310810Y-119336503D01*
X129181135Y-119419946D01*
X129094141Y-119547266D01*
X129063536Y-119698400D01*
X127426944Y-119698400D01*
X127427118Y-119499135D01*
X127323661Y-119248748D01*
X127132259Y-119057013D01*
X126882054Y-118953118D01*
X126611135Y-118952882D01*
X126360748Y-119056339D01*
X126169013Y-119247741D01*
X126065118Y-119497946D01*
X126064882Y-119768865D01*
X122045468Y-119768865D01*
X122040461Y-119756748D01*
X121849059Y-119565013D01*
X121598854Y-119461118D01*
X121327935Y-119460882D01*
X121077548Y-119564339D01*
X120885813Y-119755741D01*
X120781918Y-120005946D01*
X120781682Y-120276865D01*
X119591693Y-120276865D01*
X119654482Y-120125654D01*
X119654718Y-119854735D01*
X119551261Y-119604348D01*
X119359859Y-119412613D01*
X119109654Y-119308718D01*
X118838735Y-119308482D01*
X118588348Y-119411939D01*
X118401443Y-119598520D01*
X118382861Y-119553548D01*
X118191459Y-119361813D01*
X117941254Y-119257918D01*
X117670335Y-119257682D01*
X117419948Y-119361139D01*
X117228213Y-119552541D01*
X117124318Y-119802746D01*
X117124082Y-120073665D01*
X112057680Y-120073665D01*
X111866859Y-119882513D01*
X111616654Y-119778618D01*
X111345735Y-119778382D01*
X111131371Y-119866955D01*
X111143187Y-119855159D01*
X111247082Y-119604954D01*
X111247318Y-119334035D01*
X111143861Y-119083648D01*
X110952459Y-118891913D01*
X110702254Y-118788018D01*
X110431335Y-118787782D01*
X110180948Y-118891239D01*
X109989213Y-119082641D01*
X109885318Y-119332846D01*
X109885082Y-119603765D01*
X102056000Y-119603765D01*
X102056000Y-114221559D01*
X105638402Y-114221559D01*
X105812046Y-114641812D01*
X106133297Y-114963623D01*
X106553246Y-115138001D01*
X107007959Y-115138398D01*
X107428212Y-114964754D01*
X107750023Y-114643503D01*
X107924401Y-114223554D01*
X107924798Y-113768841D01*
X107751154Y-113348588D01*
X107429903Y-113026777D01*
X107009954Y-112852399D01*
X106555241Y-112852002D01*
X106134988Y-113025646D01*
X105813177Y-113346897D01*
X105638799Y-113766846D01*
X105638402Y-114221559D01*
X102056000Y-114221559D01*
X102056000Y-110617000D01*
X116586000Y-110617000D01*
X116635410Y-110606994D01*
X116665336Y-110589170D01*
X121110336Y-107033170D01*
X121142669Y-106994491D01*
X121158000Y-106934000D01*
X121158000Y-102446065D01*
X121530982Y-102446065D01*
X121634439Y-102696452D01*
X121825841Y-102888187D01*
X122076046Y-102992082D01*
X122346965Y-102992318D01*
X122597352Y-102888861D01*
X122789087Y-102697459D01*
X122892982Y-102447254D01*
X122893218Y-102176335D01*
X122789761Y-101925948D01*
X122717938Y-101854000D01*
X127014883Y-101854000D01*
X127108587Y-102325083D01*
X127375435Y-102724448D01*
X127774800Y-102991296D01*
X128245883Y-103085000D01*
X128294117Y-103085000D01*
X128765200Y-102991296D01*
X129164565Y-102724448D01*
X129431413Y-102325083D01*
X129525117Y-101854000D01*
X129431413Y-101382917D01*
X129164565Y-100983552D01*
X128920489Y-100820465D01*
X129570082Y-100820465D01*
X129673539Y-101070852D01*
X129864941Y-101262587D01*
X130115146Y-101366482D01*
X130386065Y-101366718D01*
X130636452Y-101263261D01*
X130828187Y-101071859D01*
X130932082Y-100821654D01*
X130932318Y-100550735D01*
X130828861Y-100300348D01*
X130637459Y-100108613D01*
X130387254Y-100004718D01*
X130116335Y-100004482D01*
X129865948Y-100107939D01*
X129674213Y-100299341D01*
X129570318Y-100549546D01*
X129570082Y-100820465D01*
X128920489Y-100820465D01*
X128765200Y-100716704D01*
X128294117Y-100623000D01*
X128245883Y-100623000D01*
X127774800Y-100716704D01*
X127375435Y-100983552D01*
X127108587Y-101382917D01*
X127014883Y-101854000D01*
X122717938Y-101854000D01*
X122598359Y-101734213D01*
X122348154Y-101630318D01*
X122077235Y-101630082D01*
X121826848Y-101733539D01*
X121635113Y-101924941D01*
X121531218Y-102175146D01*
X121530982Y-102446065D01*
X121158000Y-102446065D01*
X121158000Y-99296465D01*
X124693282Y-99296465D01*
X124796739Y-99546852D01*
X124988141Y-99738587D01*
X125238346Y-99842482D01*
X125509265Y-99842718D01*
X125759652Y-99739261D01*
X125951387Y-99547859D01*
X126048494Y-99314000D01*
X127014883Y-99314000D01*
X127108587Y-99785083D01*
X127375435Y-100184448D01*
X127774800Y-100451296D01*
X128245883Y-100545000D01*
X128294117Y-100545000D01*
X128765200Y-100451296D01*
X129164565Y-100184448D01*
X129431413Y-99785083D01*
X129525117Y-99314000D01*
X129437964Y-98875850D01*
X133084200Y-98875850D01*
X133084200Y-99579385D01*
X133142204Y-99719419D01*
X133249380Y-99826596D01*
X133389414Y-99884600D01*
X134092950Y-99884600D01*
X134188200Y-99789350D01*
X134188200Y-98780600D01*
X134442200Y-98780600D01*
X134442200Y-99789350D01*
X134537450Y-99884600D01*
X135240986Y-99884600D01*
X135381020Y-99826596D01*
X135488196Y-99719419D01*
X135546200Y-99579385D01*
X135546200Y-98875850D01*
X135450950Y-98780600D01*
X134442200Y-98780600D01*
X134188200Y-98780600D01*
X133179450Y-98780600D01*
X133084200Y-98875850D01*
X129437964Y-98875850D01*
X129431413Y-98842917D01*
X129164565Y-98443552D01*
X128765200Y-98176704D01*
X128294117Y-98083000D01*
X128245883Y-98083000D01*
X127774800Y-98176704D01*
X127375435Y-98443552D01*
X127108587Y-98842917D01*
X127014883Y-99314000D01*
X126048494Y-99314000D01*
X126055282Y-99297654D01*
X126055518Y-99026735D01*
X125952061Y-98776348D01*
X125850128Y-98674238D01*
X126063846Y-98762982D01*
X126334765Y-98763218D01*
X126585152Y-98659761D01*
X126776887Y-98468359D01*
X126880782Y-98218154D01*
X126881018Y-97947235D01*
X126777561Y-97696848D01*
X126586159Y-97505113D01*
X126335954Y-97401218D01*
X126065035Y-97400982D01*
X125814648Y-97504439D01*
X125622913Y-97695841D01*
X125519018Y-97946046D01*
X125518782Y-98216965D01*
X125622239Y-98467352D01*
X125724172Y-98569462D01*
X125510454Y-98480718D01*
X125239535Y-98480482D01*
X124989148Y-98583939D01*
X124797413Y-98775341D01*
X124693518Y-99025546D01*
X124693282Y-99296465D01*
X121158000Y-99296465D01*
X121158000Y-95613465D01*
X126217282Y-95613465D01*
X126320739Y-95863852D01*
X126512141Y-96055587D01*
X126762346Y-96159482D01*
X127033265Y-96159718D01*
X127269487Y-96062114D01*
X127108587Y-96302917D01*
X127014883Y-96774000D01*
X127108587Y-97245083D01*
X127375435Y-97644448D01*
X127774800Y-97911296D01*
X128245883Y-98005000D01*
X128294117Y-98005000D01*
X128765200Y-97911296D01*
X129039797Y-97727815D01*
X133084200Y-97727815D01*
X133084200Y-98431350D01*
X133179450Y-98526600D01*
X134188200Y-98526600D01*
X134188200Y-97517850D01*
X134442200Y-97517850D01*
X134442200Y-98526600D01*
X135450950Y-98526600D01*
X135546200Y-98431350D01*
X135546200Y-97727815D01*
X135488196Y-97587781D01*
X135381020Y-97480604D01*
X135240986Y-97422600D01*
X134537450Y-97422600D01*
X134442200Y-97517850D01*
X134188200Y-97517850D01*
X134092950Y-97422600D01*
X133389414Y-97422600D01*
X133249380Y-97480604D01*
X133142204Y-97587781D01*
X133084200Y-97727815D01*
X129039797Y-97727815D01*
X129164565Y-97644448D01*
X129431413Y-97245083D01*
X129525117Y-96774000D01*
X129431413Y-96302917D01*
X129164565Y-95903552D01*
X128765200Y-95636704D01*
X128294117Y-95543000D01*
X128245883Y-95543000D01*
X127774800Y-95636704D01*
X127491532Y-95825978D01*
X127579282Y-95614654D01*
X127579518Y-95343735D01*
X127520773Y-95201560D01*
X127774800Y-95371296D01*
X128245883Y-95465000D01*
X128294117Y-95465000D01*
X128765200Y-95371296D01*
X129164565Y-95104448D01*
X129431413Y-94705083D01*
X129525117Y-94234000D01*
X129431413Y-93762917D01*
X129164565Y-93363552D01*
X128765200Y-93096704D01*
X128294117Y-93003000D01*
X128245883Y-93003000D01*
X127774800Y-93096704D01*
X127375435Y-93363552D01*
X127108587Y-93762917D01*
X127014883Y-94234000D01*
X127108587Y-94705083D01*
X127222719Y-94875893D01*
X127034454Y-94797718D01*
X126763535Y-94797482D01*
X126513148Y-94900939D01*
X126321413Y-95092341D01*
X126217518Y-95342546D01*
X126217282Y-95613465D01*
X121158000Y-95613465D01*
X121158000Y-94368865D01*
X122559682Y-94368865D01*
X122663139Y-94619252D01*
X122854541Y-94810987D01*
X123104746Y-94914882D01*
X123375665Y-94915118D01*
X123626052Y-94811661D01*
X123817787Y-94620259D01*
X123921682Y-94370054D01*
X123921918Y-94099135D01*
X123818461Y-93848748D01*
X123627059Y-93657013D01*
X123376854Y-93553118D01*
X123105935Y-93552882D01*
X122855548Y-93656339D01*
X122663813Y-93847741D01*
X122559918Y-94097946D01*
X122559682Y-94368865D01*
X121158000Y-94368865D01*
X121158000Y-91694000D01*
X127014883Y-91694000D01*
X127108587Y-92165083D01*
X127375435Y-92564448D01*
X127774800Y-92831296D01*
X128245883Y-92925000D01*
X128294117Y-92925000D01*
X128765200Y-92831296D01*
X129164565Y-92564448D01*
X129431413Y-92165083D01*
X129525117Y-91694000D01*
X129431413Y-91222917D01*
X129164565Y-90823552D01*
X128765200Y-90556704D01*
X128294117Y-90463000D01*
X128245883Y-90463000D01*
X127774800Y-90556704D01*
X127375435Y-90823552D01*
X127108587Y-91222917D01*
X127014883Y-91694000D01*
X121158000Y-91694000D01*
X121158000Y-89154000D01*
X127014883Y-89154000D01*
X127108587Y-89625083D01*
X127375435Y-90024448D01*
X127774800Y-90291296D01*
X128245883Y-90385000D01*
X128294117Y-90385000D01*
X128765200Y-90291296D01*
X129164565Y-90024448D01*
X129431413Y-89625083D01*
X129525117Y-89154000D01*
X129431413Y-88682917D01*
X129164565Y-88283552D01*
X128765200Y-88016704D01*
X128294117Y-87923000D01*
X128245883Y-87923000D01*
X127774800Y-88016704D01*
X127375435Y-88283552D01*
X127108587Y-88682917D01*
X127014883Y-89154000D01*
X121158000Y-89154000D01*
X121158000Y-86614000D01*
X127014883Y-86614000D01*
X127108587Y-87085083D01*
X127375435Y-87484448D01*
X127774800Y-87751296D01*
X128245883Y-87845000D01*
X128294117Y-87845000D01*
X128765200Y-87751296D01*
X129164565Y-87484448D01*
X129431413Y-87085083D01*
X129525117Y-86614000D01*
X129431413Y-86142917D01*
X129164565Y-85743552D01*
X128765200Y-85476704D01*
X128294117Y-85383000D01*
X128245883Y-85383000D01*
X127774800Y-85476704D01*
X127375435Y-85743552D01*
X127108587Y-86142917D01*
X127014883Y-86614000D01*
X121158000Y-86614000D01*
X121158000Y-85983345D01*
X121276552Y-85934361D01*
X121468287Y-85742959D01*
X121572182Y-85492754D01*
X121572418Y-85221835D01*
X121468961Y-84971448D01*
X121277559Y-84779713D01*
X121158000Y-84730067D01*
X121158000Y-84074000D01*
X127014883Y-84074000D01*
X127108587Y-84545083D01*
X127375435Y-84944448D01*
X127774800Y-85211296D01*
X128245883Y-85305000D01*
X128294117Y-85305000D01*
X128765200Y-85211296D01*
X129164565Y-84944448D01*
X129431413Y-84545083D01*
X129525117Y-84074000D01*
X129431413Y-83602917D01*
X129401138Y-83557607D01*
X134445098Y-83557607D01*
X134453122Y-83630460D01*
X134658248Y-83960780D01*
X134974168Y-84187457D01*
X135352785Y-84275982D01*
X135509000Y-84173666D01*
X135509000Y-83407000D01*
X135763000Y-83407000D01*
X135763000Y-84173666D01*
X135919215Y-84275982D01*
X136297832Y-84187457D01*
X136613752Y-83960780D01*
X136818878Y-83630460D01*
X136826902Y-83557607D01*
X136762598Y-83407000D01*
X135763000Y-83407000D01*
X135509000Y-83407000D01*
X134509402Y-83407000D01*
X134445098Y-83557607D01*
X129401138Y-83557607D01*
X129164565Y-83203552D01*
X128863511Y-83002393D01*
X134445098Y-83002393D01*
X134509402Y-83153000D01*
X135509000Y-83153000D01*
X135509000Y-82386334D01*
X135763000Y-82386334D01*
X135763000Y-83153000D01*
X136762598Y-83153000D01*
X136826902Y-83002393D01*
X136818878Y-82929540D01*
X136613752Y-82599220D01*
X136297832Y-82372543D01*
X135919215Y-82284018D01*
X135763000Y-82386334D01*
X135509000Y-82386334D01*
X135352785Y-82284018D01*
X134974168Y-82372543D01*
X134658248Y-82599220D01*
X134453122Y-82929540D01*
X134445098Y-83002393D01*
X128863511Y-83002393D01*
X128765200Y-82936704D01*
X128294117Y-82843000D01*
X128245883Y-82843000D01*
X127774800Y-82936704D01*
X127375435Y-83203552D01*
X127108587Y-83602917D01*
X127014883Y-84074000D01*
X121158000Y-84074000D01*
X121158000Y-81534000D01*
X127014883Y-81534000D01*
X127108587Y-82005083D01*
X127375435Y-82404448D01*
X127774800Y-82671296D01*
X128245883Y-82765000D01*
X128294117Y-82765000D01*
X128765200Y-82671296D01*
X129164565Y-82404448D01*
X129431413Y-82005083D01*
X129525117Y-81534000D01*
X129431413Y-81062917D01*
X129175556Y-80680000D01*
X134397536Y-80680000D01*
X134397536Y-81880000D01*
X134424103Y-82021190D01*
X134507546Y-82150865D01*
X134634866Y-82237859D01*
X134786000Y-82268464D01*
X136486000Y-82268464D01*
X136627190Y-82241897D01*
X136756865Y-82158454D01*
X136843859Y-82031134D01*
X136874464Y-81880000D01*
X136874464Y-80680000D01*
X136847897Y-80538810D01*
X136764454Y-80409135D01*
X136637134Y-80322141D01*
X136486000Y-80291536D01*
X134786000Y-80291536D01*
X134644810Y-80318103D01*
X134515135Y-80401546D01*
X134428141Y-80528866D01*
X134397536Y-80680000D01*
X129175556Y-80680000D01*
X129164565Y-80663552D01*
X128765200Y-80396704D01*
X128294117Y-80303000D01*
X128245883Y-80303000D01*
X127774800Y-80396704D01*
X127375435Y-80663552D01*
X127108587Y-81062917D01*
X127014883Y-81534000D01*
X121158000Y-81534000D01*
X121158000Y-80055965D01*
X124020182Y-80055965D01*
X124123639Y-80306352D01*
X124315041Y-80498087D01*
X124565246Y-80601982D01*
X124836165Y-80602218D01*
X125086552Y-80498761D01*
X125278287Y-80307359D01*
X125382182Y-80057154D01*
X125382418Y-79786235D01*
X125278961Y-79535848D01*
X125087559Y-79344113D01*
X125007767Y-79310980D01*
X127080511Y-79310980D01*
X127204755Y-79610964D01*
X127521944Y-79971652D01*
X127953018Y-80183501D01*
X128143000Y-80123193D01*
X128143000Y-79121000D01*
X128397000Y-79121000D01*
X128397000Y-80123193D01*
X128586982Y-80183501D01*
X129018056Y-79971652D01*
X129335245Y-79610964D01*
X129459489Y-79310980D01*
X129398627Y-79121000D01*
X128397000Y-79121000D01*
X128143000Y-79121000D01*
X127141373Y-79121000D01*
X127080511Y-79310980D01*
X125007767Y-79310980D01*
X124837354Y-79240218D01*
X124566435Y-79239982D01*
X124316048Y-79343439D01*
X124124313Y-79534841D01*
X124020418Y-79785046D01*
X124020182Y-80055965D01*
X121158000Y-80055965D01*
X121158000Y-78677020D01*
X127080511Y-78677020D01*
X127141373Y-78867000D01*
X128143000Y-78867000D01*
X128143000Y-77864807D01*
X128397000Y-77864807D01*
X128397000Y-78867000D01*
X129398627Y-78867000D01*
X129459489Y-78677020D01*
X129335245Y-78377036D01*
X129018056Y-78016348D01*
X128586982Y-77804499D01*
X128397000Y-77864807D01*
X128143000Y-77864807D01*
X127953018Y-77804499D01*
X127521944Y-78016348D01*
X127204755Y-78377036D01*
X127080511Y-78677020D01*
X121158000Y-78677020D01*
X121158000Y-77630265D01*
X124667882Y-77630265D01*
X124771339Y-77880652D01*
X124962741Y-78072387D01*
X125212946Y-78176282D01*
X125483865Y-78176518D01*
X125734252Y-78073061D01*
X125925987Y-77881659D01*
X126029882Y-77631454D01*
X126030118Y-77360535D01*
X125926661Y-77110148D01*
X125735259Y-76918413D01*
X125485054Y-76814518D01*
X125214135Y-76814282D01*
X124963748Y-76917739D01*
X124772013Y-77109141D01*
X124668118Y-77359346D01*
X124667882Y-77630265D01*
X121158000Y-77630265D01*
X121158000Y-76763605D01*
X121374818Y-76563465D01*
X122686682Y-76563465D01*
X122790139Y-76813852D01*
X122981541Y-77005587D01*
X123231746Y-77109482D01*
X123502665Y-77109718D01*
X123753052Y-77006261D01*
X123944787Y-76814859D01*
X124048682Y-76564654D01*
X124048918Y-76293735D01*
X123945461Y-76043348D01*
X123754059Y-75851613D01*
X123503854Y-75747718D01*
X123232935Y-75747482D01*
X122982548Y-75850939D01*
X122790813Y-76042341D01*
X122686918Y-76292546D01*
X122686682Y-76563465D01*
X121374818Y-76563465D01*
X122731655Y-75311000D01*
X127803476Y-75311000D01*
X127774800Y-75316704D01*
X127375435Y-75583552D01*
X127108587Y-75982917D01*
X127014883Y-76454000D01*
X127108587Y-76925083D01*
X127375435Y-77324448D01*
X127774800Y-77591296D01*
X128245883Y-77685000D01*
X128294117Y-77685000D01*
X128765200Y-77591296D01*
X129164565Y-77324448D01*
X129431413Y-76925083D01*
X129525117Y-76454000D01*
X129431413Y-75982917D01*
X129164565Y-75583552D01*
X128765200Y-75316704D01*
X128736524Y-75311000D01*
X132842000Y-75311000D01*
X132891410Y-75300994D01*
X132941170Y-75263336D01*
X133957170Y-73993336D01*
X133980223Y-73948503D01*
X133985000Y-73914000D01*
X133985000Y-66632065D01*
X138155282Y-66632065D01*
X138258739Y-66882452D01*
X138450141Y-67074187D01*
X138700346Y-67178082D01*
X138971265Y-67178318D01*
X139221652Y-67074861D01*
X139413387Y-66883459D01*
X139517282Y-66633254D01*
X139517518Y-66362335D01*
X139414061Y-66111948D01*
X139222659Y-65920213D01*
X138972454Y-65816318D01*
X138701535Y-65816082D01*
X138451148Y-65919539D01*
X138259413Y-66110941D01*
X138155518Y-66361146D01*
X138155282Y-66632065D01*
X133985000Y-66632065D01*
X133985000Y-61779031D01*
X138514374Y-57752921D01*
X138544656Y-57712616D01*
X138557000Y-57658000D01*
X138557000Y-53086000D01*
X138546994Y-53036590D01*
X138519803Y-52996197D01*
X137503803Y-51980197D01*
X137461789Y-51952334D01*
X137414000Y-51943000D01*
X134164606Y-51943000D01*
X131445000Y-49223394D01*
X131445000Y-49007916D01*
X134467457Y-49007916D01*
X134768411Y-49736280D01*
X135325189Y-50294031D01*
X136053026Y-50596255D01*
X136841116Y-50596943D01*
X137569480Y-50295989D01*
X138127231Y-49739211D01*
X138429455Y-49011374D01*
X138430143Y-48223284D01*
X138129189Y-47494920D01*
X137572411Y-46937169D01*
X136844574Y-46634945D01*
X136056484Y-46634257D01*
X135328120Y-46935211D01*
X134770369Y-47491989D01*
X134468145Y-48219826D01*
X134467457Y-49007916D01*
X131445000Y-49007916D01*
X131445000Y-38892187D01*
X133033187Y-38892187D01*
X133220200Y-39344795D01*
X133566184Y-39691383D01*
X134018465Y-39879186D01*
X134508187Y-39879613D01*
X134960795Y-39692600D01*
X135307383Y-39346616D01*
X135495186Y-38894335D01*
X135495613Y-38404613D01*
X135308600Y-37952005D01*
X134962616Y-37605417D01*
X134510335Y-37417614D01*
X134020613Y-37417187D01*
X133568005Y-37604200D01*
X133221417Y-37950184D01*
X133033614Y-38402465D01*
X133033187Y-38892187D01*
X131445000Y-38892187D01*
X131445000Y-38354000D01*
X131434994Y-38304590D01*
X131406553Y-38262965D01*
X131364159Y-38235685D01*
X131318000Y-38227000D01*
X120350718Y-38227000D01*
X120441882Y-38007454D01*
X120442118Y-37736535D01*
X120338661Y-37486148D01*
X120147259Y-37294413D01*
X119997405Y-37232188D01*
X119997618Y-36987235D01*
X119894161Y-36736848D01*
X119702759Y-36545113D01*
X119452554Y-36441218D01*
X119181635Y-36440982D01*
X118931248Y-36544439D01*
X118739513Y-36735841D01*
X118635618Y-36986046D01*
X118635382Y-37256965D01*
X118738839Y-37507352D01*
X118930241Y-37699087D01*
X119080095Y-37761312D01*
X119079882Y-38006265D01*
X119171087Y-38227000D01*
X110236000Y-38227000D01*
X110186590Y-38237006D01*
X110151041Y-38259602D01*
X107611041Y-40545602D01*
X107581009Y-40586093D01*
X107569000Y-40640000D01*
X107569000Y-48451241D01*
X107136856Y-48781704D01*
X107137343Y-48223284D01*
X106836389Y-47494920D01*
X106279611Y-46937169D01*
X105551774Y-46634945D01*
X104763684Y-46634257D01*
X104035320Y-46935211D01*
X103477569Y-47491989D01*
X103175345Y-48219826D01*
X103174657Y-49007916D01*
X103475611Y-49736280D01*
X104032389Y-50294031D01*
X104760226Y-50596255D01*
X104763977Y-50596258D01*
X103300854Y-51715117D01*
X103267683Y-51753079D01*
X103251033Y-51818886D01*
X103505033Y-62994886D01*
X103516159Y-63044056D01*
X103545538Y-63085023D01*
X103588541Y-63111333D01*
X103630802Y-63118994D01*
X107543600Y-63155907D01*
X107543600Y-79920099D01*
X107359664Y-79918654D01*
X107359664Y-78245600D01*
X107333097Y-78104410D01*
X107249654Y-77974735D01*
X107122334Y-77887741D01*
X106971200Y-77857136D01*
X105271200Y-77857136D01*
X105130010Y-77883703D01*
X105000335Y-77967146D01*
X104913341Y-78094466D01*
X104882736Y-78245600D01*
X104882736Y-79899202D01*
X104499114Y-79896189D01*
X104558852Y-79843656D01*
X104770701Y-79412582D01*
X104710393Y-79222600D01*
X103708200Y-79222600D01*
X103708200Y-79242600D01*
X103454200Y-79242600D01*
X103454200Y-79222600D01*
X102452007Y-79222600D01*
X102391699Y-79412582D01*
X102603548Y-79843656D01*
X102715102Y-79941756D01*
X102701252Y-79962913D01*
X102692200Y-80010000D01*
X102692200Y-80768800D01*
X102443904Y-81140400D01*
X102350200Y-81611483D01*
X102350200Y-81659717D01*
X102443904Y-82130800D01*
X102692200Y-82502400D01*
X102692200Y-83312000D01*
X102698660Y-83343902D01*
X102603548Y-83427544D01*
X102391699Y-83858618D01*
X102452007Y-84048600D01*
X103454200Y-84048600D01*
X103454200Y-84028600D01*
X103708200Y-84028600D01*
X103708200Y-84048600D01*
X104710393Y-84048600D01*
X104770701Y-83858618D01*
X104558852Y-83427544D01*
X104556410Y-83425397D01*
X104882736Y-83422841D01*
X104882736Y-85025600D01*
X104909303Y-85166790D01*
X104992746Y-85296465D01*
X105120066Y-85383459D01*
X105271200Y-85414064D01*
X106971200Y-85414064D01*
X107112390Y-85387497D01*
X107242065Y-85304054D01*
X107329059Y-85176734D01*
X107359664Y-85025600D01*
X107359664Y-83403439D01*
X107556300Y-83401899D01*
X107556300Y-91089858D01*
X106125264Y-92328486D01*
X102655475Y-92290907D01*
X102605960Y-92300378D01*
X102564030Y-92328366D01*
X102536292Y-92370462D01*
X102527102Y-92418647D01*
X102533913Y-93576506D01*
X102525741Y-93588466D01*
X102495136Y-93739600D01*
X102495136Y-95439600D01*
X102521703Y-95580790D01*
X102545924Y-95618431D01*
X102552502Y-96736647D01*
X102554623Y-96746815D01*
X102478483Y-97129600D01*
X102572187Y-97600683D01*
X102839035Y-98000048D01*
X103238400Y-98266896D01*
X103709483Y-98360600D01*
X103757717Y-98360600D01*
X104228800Y-98266896D01*
X104628165Y-98000048D01*
X104895013Y-97600683D01*
X104988717Y-97129600D01*
X104940575Y-96887573D01*
X106170615Y-96900992D01*
X106220131Y-96891526D01*
X106261803Y-96863803D01*
X111304606Y-91821000D01*
X111800145Y-91821000D01*
X111868587Y-92165083D01*
X112135435Y-92564448D01*
X112534800Y-92831296D01*
X112903000Y-92904535D01*
X112903000Y-93023465D01*
X112534800Y-93096704D01*
X112135435Y-93363552D01*
X111868587Y-93762917D01*
X111774883Y-94234000D01*
X111868587Y-94705083D01*
X112135435Y-95104448D01*
X112534800Y-95371296D01*
X112903000Y-95444535D01*
X112903000Y-95563465D01*
X112534800Y-95636704D01*
X112135435Y-95903552D01*
X111868587Y-96302917D01*
X111774883Y-96774000D01*
X111868587Y-97245083D01*
X112135435Y-97644448D01*
X112534800Y-97911296D01*
X112903000Y-97984535D01*
X112903000Y-98103465D01*
X112534800Y-98176704D01*
X112135435Y-98443552D01*
X111868587Y-98842917D01*
X111774883Y-99314000D01*
X111868587Y-99785083D01*
X112135435Y-100184448D01*
X112534800Y-100451296D01*
X112903000Y-100524535D01*
X112903000Y-100643465D01*
X112534800Y-100716704D01*
X112135435Y-100983552D01*
X111868587Y-101382917D01*
X111774883Y-101854000D01*
X111868587Y-102325083D01*
X112135435Y-102724448D01*
X112534800Y-102991296D01*
X112696862Y-103023532D01*
X111961394Y-103759000D01*
X102056000Y-103759000D01*
X102056000Y-102526580D01*
X102544111Y-102526580D01*
X102668355Y-102826564D01*
X102985544Y-103187252D01*
X103416618Y-103399101D01*
X103606600Y-103338793D01*
X103606600Y-102336600D01*
X103860600Y-102336600D01*
X103860600Y-103338793D01*
X104050582Y-103399101D01*
X104481656Y-103187252D01*
X104798845Y-102826564D01*
X104923089Y-102526580D01*
X104862227Y-102336600D01*
X103860600Y-102336600D01*
X103606600Y-102336600D01*
X102604973Y-102336600D01*
X102544111Y-102526580D01*
X102056000Y-102526580D01*
X102056000Y-101892620D01*
X102544111Y-101892620D01*
X102604973Y-102082600D01*
X103606600Y-102082600D01*
X103606600Y-101080407D01*
X103860600Y-101080407D01*
X103860600Y-102082600D01*
X104862227Y-102082600D01*
X104923089Y-101892620D01*
X104798845Y-101592636D01*
X104481656Y-101231948D01*
X104050582Y-101020099D01*
X103860600Y-101080407D01*
X103606600Y-101080407D01*
X103416618Y-101020099D01*
X102985544Y-101231948D01*
X102668355Y-101592636D01*
X102544111Y-101892620D01*
X102056000Y-101892620D01*
X102056000Y-99669600D01*
X102478483Y-99669600D01*
X102572187Y-100140683D01*
X102839035Y-100540048D01*
X103238400Y-100806896D01*
X103709483Y-100900600D01*
X103757717Y-100900600D01*
X104228800Y-100806896D01*
X104360547Y-100718865D01*
X110672482Y-100718865D01*
X110775939Y-100969252D01*
X110967341Y-101160987D01*
X111217546Y-101264882D01*
X111488465Y-101265118D01*
X111738852Y-101161661D01*
X111930587Y-100970259D01*
X112034482Y-100720054D01*
X112034718Y-100449135D01*
X111931261Y-100198748D01*
X111739859Y-100007013D01*
X111489654Y-99903118D01*
X111218735Y-99902882D01*
X110968348Y-100006339D01*
X110776613Y-100197741D01*
X110672718Y-100447946D01*
X110672482Y-100718865D01*
X104360547Y-100718865D01*
X104628165Y-100540048D01*
X104895013Y-100140683D01*
X104988717Y-99669600D01*
X104895013Y-99198517D01*
X104628165Y-98799152D01*
X104228800Y-98532304D01*
X103757717Y-98438600D01*
X103709483Y-98438600D01*
X103238400Y-98532304D01*
X102839035Y-98799152D01*
X102572187Y-99198517D01*
X102478483Y-99669600D01*
X102056000Y-99669600D01*
X102056000Y-87032582D01*
X102391699Y-87032582D01*
X102603548Y-87463656D01*
X102964236Y-87780845D01*
X103264220Y-87905089D01*
X103454200Y-87844227D01*
X103454200Y-86842600D01*
X103708200Y-86842600D01*
X103708200Y-87844227D01*
X103898180Y-87905089D01*
X104198164Y-87780845D01*
X104558852Y-87463656D01*
X104770701Y-87032582D01*
X104710393Y-86842600D01*
X103708200Y-86842600D01*
X103454200Y-86842600D01*
X102452007Y-86842600D01*
X102391699Y-87032582D01*
X102056000Y-87032582D01*
X102056000Y-86398618D01*
X102391699Y-86398618D01*
X102452007Y-86588600D01*
X103454200Y-86588600D01*
X103454200Y-85586973D01*
X103708200Y-85586973D01*
X103708200Y-86588600D01*
X104710393Y-86588600D01*
X104770701Y-86398618D01*
X104558852Y-85967544D01*
X104442928Y-85865600D01*
X104882736Y-85865600D01*
X104882736Y-87565600D01*
X104909303Y-87706790D01*
X104992746Y-87836465D01*
X105120066Y-87923459D01*
X105271200Y-87954064D01*
X106971200Y-87954064D01*
X107112390Y-87927497D01*
X107242065Y-87844054D01*
X107329059Y-87716734D01*
X107359664Y-87565600D01*
X107359664Y-85865600D01*
X107333097Y-85724410D01*
X107249654Y-85594735D01*
X107122334Y-85507741D01*
X106971200Y-85477136D01*
X105271200Y-85477136D01*
X105130010Y-85503703D01*
X105000335Y-85587146D01*
X104913341Y-85714466D01*
X104882736Y-85865600D01*
X104442928Y-85865600D01*
X104198164Y-85650355D01*
X103898180Y-85526111D01*
X103708200Y-85586973D01*
X103454200Y-85586973D01*
X103264220Y-85526111D01*
X102964236Y-85650355D01*
X102603548Y-85967544D01*
X102391699Y-86398618D01*
X102056000Y-86398618D01*
X102056000Y-84492582D01*
X102391699Y-84492582D01*
X102603548Y-84923656D01*
X102964236Y-85240845D01*
X103264220Y-85365089D01*
X103454200Y-85304227D01*
X103454200Y-84302600D01*
X103708200Y-84302600D01*
X103708200Y-85304227D01*
X103898180Y-85365089D01*
X104198164Y-85240845D01*
X104558852Y-84923656D01*
X104770701Y-84492582D01*
X104710393Y-84302600D01*
X103708200Y-84302600D01*
X103454200Y-84302600D01*
X102452007Y-84302600D01*
X102391699Y-84492582D01*
X102056000Y-84492582D01*
X102056000Y-78778618D01*
X102391699Y-78778618D01*
X102452007Y-78968600D01*
X103454200Y-78968600D01*
X103454200Y-77966973D01*
X103708200Y-77966973D01*
X103708200Y-78968600D01*
X104710393Y-78968600D01*
X104770701Y-78778618D01*
X104558852Y-78347544D01*
X104198164Y-78030355D01*
X103898180Y-77906111D01*
X103708200Y-77966973D01*
X103454200Y-77966973D01*
X103264220Y-77906111D01*
X102964236Y-78030355D01*
X102603548Y-78347544D01*
X102391699Y-78778618D01*
X102056000Y-78778618D01*
X102056000Y-76872582D01*
X102391699Y-76872582D01*
X102603548Y-77303656D01*
X102964236Y-77620845D01*
X103264220Y-77745089D01*
X103454200Y-77684227D01*
X103454200Y-76682600D01*
X103708200Y-76682600D01*
X103708200Y-77684227D01*
X103898180Y-77745089D01*
X104198164Y-77620845D01*
X104558852Y-77303656D01*
X104770701Y-76872582D01*
X104710393Y-76682600D01*
X103708200Y-76682600D01*
X103454200Y-76682600D01*
X102452007Y-76682600D01*
X102391699Y-76872582D01*
X102056000Y-76872582D01*
X102056000Y-76238618D01*
X102391699Y-76238618D01*
X102452007Y-76428600D01*
X103454200Y-76428600D01*
X103454200Y-75426973D01*
X103708200Y-75426973D01*
X103708200Y-76428600D01*
X104710393Y-76428600D01*
X104770701Y-76238618D01*
X104558852Y-75807544D01*
X104442928Y-75705600D01*
X104882736Y-75705600D01*
X104882736Y-77405600D01*
X104909303Y-77546790D01*
X104992746Y-77676465D01*
X105120066Y-77763459D01*
X105271200Y-77794064D01*
X106971200Y-77794064D01*
X107112390Y-77767497D01*
X107242065Y-77684054D01*
X107329059Y-77556734D01*
X107359664Y-77405600D01*
X107359664Y-75705600D01*
X107333097Y-75564410D01*
X107249654Y-75434735D01*
X107122334Y-75347741D01*
X106971200Y-75317136D01*
X105271200Y-75317136D01*
X105130010Y-75343703D01*
X105000335Y-75427146D01*
X104913341Y-75554466D01*
X104882736Y-75705600D01*
X104442928Y-75705600D01*
X104198164Y-75490355D01*
X103898180Y-75366111D01*
X103708200Y-75426973D01*
X103454200Y-75426973D01*
X103264220Y-75366111D01*
X102964236Y-75490355D01*
X102603548Y-75807544D01*
X102391699Y-76238618D01*
X102056000Y-76238618D01*
X102056000Y-64396865D01*
X104220882Y-64396865D01*
X104324339Y-64647252D01*
X104515741Y-64838987D01*
X104765946Y-64942882D01*
X105036865Y-64943118D01*
X105287252Y-64839661D01*
X105478987Y-64648259D01*
X105582882Y-64398054D01*
X105583118Y-64127135D01*
X105479661Y-63876748D01*
X105288259Y-63685013D01*
X105038054Y-63581118D01*
X104767135Y-63580882D01*
X104516748Y-63684339D01*
X104325013Y-63875741D01*
X104221118Y-64125946D01*
X104220882Y-64396865D01*
X102056000Y-64396865D01*
X102056000Y-38892187D01*
X106413987Y-38892187D01*
X106601000Y-39344795D01*
X106946984Y-39691383D01*
X107399265Y-39879186D01*
X107888987Y-39879613D01*
X108341595Y-39692600D01*
X108688183Y-39346616D01*
X108875986Y-38894335D01*
X108876413Y-38404613D01*
X108689400Y-37952005D01*
X108343416Y-37605417D01*
X107891135Y-37417614D01*
X107401413Y-37417187D01*
X106948805Y-37604200D01*
X106602217Y-37950184D01*
X106414414Y-38402465D01*
X106413987Y-38892187D01*
X102056000Y-38892187D01*
X102056000Y-36228265D01*
X124553582Y-36228265D01*
X124657039Y-36478652D01*
X124848441Y-36670387D01*
X125098646Y-36774282D01*
X125369565Y-36774518D01*
X125619952Y-36671061D01*
X125811687Y-36479659D01*
X125915582Y-36229454D01*
X125915818Y-35958535D01*
X125812361Y-35708148D01*
X125620959Y-35516413D01*
X125370754Y-35412518D01*
X125099835Y-35412282D01*
X124849448Y-35515739D01*
X124657713Y-35707141D01*
X124553818Y-35957346D01*
X124553582Y-36228265D01*
X102056000Y-36228265D01*
X102056000Y-31892187D01*
X106413987Y-31892187D01*
X106601000Y-32344795D01*
X106946984Y-32691383D01*
X107399265Y-32879186D01*
X107888987Y-32879613D01*
X108341595Y-32692600D01*
X108357185Y-32677037D01*
X115224362Y-32677037D01*
X115224362Y-32854961D01*
X115417708Y-33826977D01*
X115485796Y-33991356D01*
X116036399Y-34815391D01*
X116162209Y-34941201D01*
X116986244Y-35491804D01*
X117150623Y-35559892D01*
X118122639Y-35753238D01*
X118167550Y-35753238D01*
X118211600Y-35762000D01*
X123291600Y-35762000D01*
X123335650Y-35753238D01*
X123380561Y-35753238D01*
X124352577Y-35559892D01*
X124516956Y-35491804D01*
X125340991Y-34941201D01*
X125466803Y-34815389D01*
X126017404Y-33991356D01*
X126085492Y-33826977D01*
X126278838Y-32854961D01*
X126278838Y-32677037D01*
X126122722Y-31892187D01*
X133033187Y-31892187D01*
X133220200Y-32344795D01*
X133566184Y-32691383D01*
X134018465Y-32879186D01*
X134508187Y-32879613D01*
X134960795Y-32692600D01*
X135307383Y-32346616D01*
X135495186Y-31894335D01*
X135495613Y-31404613D01*
X135308600Y-30952005D01*
X134962616Y-30605417D01*
X134510335Y-30417614D01*
X134020613Y-30417187D01*
X133568005Y-30604200D01*
X133221417Y-30950184D01*
X133033614Y-31402465D01*
X133033187Y-31892187D01*
X126122722Y-31892187D01*
X126085492Y-31705023D01*
X126017404Y-31540644D01*
X125466801Y-30716609D01*
X125340991Y-30590799D01*
X124516956Y-30040196D01*
X124352577Y-29972108D01*
X123380561Y-29778762D01*
X123335650Y-29778762D01*
X123291600Y-29770000D01*
X118211600Y-29770000D01*
X118167550Y-29778762D01*
X118122639Y-29778762D01*
X117150623Y-29972108D01*
X116986244Y-30040196D01*
X116162211Y-30590797D01*
X116036399Y-30716609D01*
X115485796Y-31540644D01*
X115417708Y-31705023D01*
X115224362Y-32677037D01*
X108357185Y-32677037D01*
X108688183Y-32346616D01*
X108875986Y-31894335D01*
X108876413Y-31404613D01*
X108689400Y-30952005D01*
X108343416Y-30605417D01*
X107891135Y-30417614D01*
X107401413Y-30417187D01*
X106948805Y-30604200D01*
X106602217Y-30950184D01*
X106414414Y-31402465D01*
X106413987Y-31892187D01*
X102056000Y-31892187D01*
X102056000Y-28599200D01*
X139599600Y-28599200D01*
X139599600Y-86818400D01*
X139599600Y-86818400D01*
G37*
X139599600Y-86818400D02*
X132384800Y-86818400D01*
X132210296Y-86853111D01*
X132062359Y-86951959D01*
X131963511Y-87099896D01*
X131928800Y-87274400D01*
X131928800Y-94996000D01*
X131963511Y-95170504D01*
X132062359Y-95318441D01*
X132210296Y-95417289D01*
X132384800Y-95452000D01*
X137541000Y-95452000D01*
X137541000Y-100521886D01*
X133018030Y-104039752D01*
X132985171Y-104077985D01*
X132969000Y-104140000D01*
X132969000Y-125274000D01*
X102056000Y-125274000D01*
X102056000Y-122515516D01*
X103225457Y-122515516D01*
X103526411Y-123243880D01*
X104083189Y-123801631D01*
X104811026Y-124103855D01*
X105599116Y-124104543D01*
X106327480Y-123803589D01*
X106885231Y-123246811D01*
X107187455Y-122518974D01*
X107188143Y-121730884D01*
X106887189Y-121002520D01*
X106330411Y-120444769D01*
X105602574Y-120142545D01*
X104814484Y-120141857D01*
X104086120Y-120442811D01*
X103528369Y-120999589D01*
X103226145Y-121727426D01*
X103225457Y-122515516D01*
X102056000Y-122515516D01*
X102056000Y-119603765D01*
X109885082Y-119603765D01*
X109988539Y-119854152D01*
X110179941Y-120045887D01*
X110430146Y-120149782D01*
X110701065Y-120150018D01*
X110915429Y-120061445D01*
X110903613Y-120073241D01*
X110799718Y-120323446D01*
X110799482Y-120594365D01*
X110902939Y-120844752D01*
X111094341Y-121036487D01*
X111344546Y-121140382D01*
X111615465Y-121140618D01*
X111673373Y-121116691D01*
X111612518Y-121263246D01*
X111612282Y-121534165D01*
X111715739Y-121784552D01*
X111907141Y-121976287D01*
X112157346Y-122080182D01*
X112428265Y-122080418D01*
X112678652Y-121976961D01*
X112870387Y-121785559D01*
X112974282Y-121535354D01*
X112974518Y-121264435D01*
X112871061Y-121014048D01*
X112679659Y-120822313D01*
X112429454Y-120718418D01*
X112158535Y-120718182D01*
X112100627Y-120742109D01*
X112161482Y-120595554D01*
X112161718Y-120324635D01*
X112058261Y-120074248D01*
X112057680Y-120073665D01*
X117124082Y-120073665D01*
X117227539Y-120324052D01*
X117418941Y-120515787D01*
X117669146Y-120619682D01*
X117940065Y-120619918D01*
X118190452Y-120516461D01*
X118377357Y-120329880D01*
X118395939Y-120374852D01*
X118587341Y-120566587D01*
X118837546Y-120670482D01*
X119108465Y-120670718D01*
X119358852Y-120567261D01*
X119550587Y-120375859D01*
X119591693Y-120276865D01*
X120781682Y-120276865D01*
X120885139Y-120527252D01*
X121076541Y-120718987D01*
X121326746Y-120822882D01*
X121597665Y-120823118D01*
X121848052Y-120719661D01*
X122039787Y-120528259D01*
X122143682Y-120278054D01*
X122143918Y-120007135D01*
X122045468Y-119768865D01*
X126064882Y-119768865D01*
X126168339Y-120019252D01*
X126359741Y-120210987D01*
X126609946Y-120314882D01*
X126880865Y-120315118D01*
X127131252Y-120211661D01*
X127322987Y-120020259D01*
X127426882Y-119770054D01*
X127426944Y-119698400D01*
X129063536Y-119698400D01*
X129063536Y-121398400D01*
X129090103Y-121539590D01*
X129173546Y-121669265D01*
X129300866Y-121756259D01*
X129452000Y-121786864D01*
X131152000Y-121786864D01*
X131293190Y-121760297D01*
X131422865Y-121676854D01*
X131509859Y-121549534D01*
X131540464Y-121398400D01*
X131540464Y-119698400D01*
X131513897Y-119557210D01*
X131430454Y-119427535D01*
X131303134Y-119340541D01*
X131152000Y-119309936D01*
X129452000Y-119309936D01*
X129310810Y-119336503D01*
X129181135Y-119419946D01*
X129094141Y-119547266D01*
X129063536Y-119698400D01*
X127426944Y-119698400D01*
X127427118Y-119499135D01*
X127323661Y-119248748D01*
X127132259Y-119057013D01*
X126882054Y-118953118D01*
X126611135Y-118952882D01*
X126360748Y-119056339D01*
X126169013Y-119247741D01*
X126065118Y-119497946D01*
X126064882Y-119768865D01*
X122045468Y-119768865D01*
X122040461Y-119756748D01*
X121849059Y-119565013D01*
X121598854Y-119461118D01*
X121327935Y-119460882D01*
X121077548Y-119564339D01*
X120885813Y-119755741D01*
X120781918Y-120005946D01*
X120781682Y-120276865D01*
X119591693Y-120276865D01*
X119654482Y-120125654D01*
X119654718Y-119854735D01*
X119551261Y-119604348D01*
X119359859Y-119412613D01*
X119109654Y-119308718D01*
X118838735Y-119308482D01*
X118588348Y-119411939D01*
X118401443Y-119598520D01*
X118382861Y-119553548D01*
X118191459Y-119361813D01*
X117941254Y-119257918D01*
X117670335Y-119257682D01*
X117419948Y-119361139D01*
X117228213Y-119552541D01*
X117124318Y-119802746D01*
X117124082Y-120073665D01*
X112057680Y-120073665D01*
X111866859Y-119882513D01*
X111616654Y-119778618D01*
X111345735Y-119778382D01*
X111131371Y-119866955D01*
X111143187Y-119855159D01*
X111247082Y-119604954D01*
X111247318Y-119334035D01*
X111143861Y-119083648D01*
X110952459Y-118891913D01*
X110702254Y-118788018D01*
X110431335Y-118787782D01*
X110180948Y-118891239D01*
X109989213Y-119082641D01*
X109885318Y-119332846D01*
X109885082Y-119603765D01*
X102056000Y-119603765D01*
X102056000Y-114221559D01*
X105638402Y-114221559D01*
X105812046Y-114641812D01*
X106133297Y-114963623D01*
X106553246Y-115138001D01*
X107007959Y-115138398D01*
X107428212Y-114964754D01*
X107750023Y-114643503D01*
X107924401Y-114223554D01*
X107924798Y-113768841D01*
X107751154Y-113348588D01*
X107429903Y-113026777D01*
X107009954Y-112852399D01*
X106555241Y-112852002D01*
X106134988Y-113025646D01*
X105813177Y-113346897D01*
X105638799Y-113766846D01*
X105638402Y-114221559D01*
X102056000Y-114221559D01*
X102056000Y-110617000D01*
X116586000Y-110617000D01*
X116635410Y-110606994D01*
X116665336Y-110589170D01*
X121110336Y-107033170D01*
X121142669Y-106994491D01*
X121158000Y-106934000D01*
X121158000Y-102446065D01*
X121530982Y-102446065D01*
X121634439Y-102696452D01*
X121825841Y-102888187D01*
X122076046Y-102992082D01*
X122346965Y-102992318D01*
X122597352Y-102888861D01*
X122789087Y-102697459D01*
X122892982Y-102447254D01*
X122893218Y-102176335D01*
X122789761Y-101925948D01*
X122717938Y-101854000D01*
X127014883Y-101854000D01*
X127108587Y-102325083D01*
X127375435Y-102724448D01*
X127774800Y-102991296D01*
X128245883Y-103085000D01*
X128294117Y-103085000D01*
X128765200Y-102991296D01*
X129164565Y-102724448D01*
X129431413Y-102325083D01*
X129525117Y-101854000D01*
X129431413Y-101382917D01*
X129164565Y-100983552D01*
X128920489Y-100820465D01*
X129570082Y-100820465D01*
X129673539Y-101070852D01*
X129864941Y-101262587D01*
X130115146Y-101366482D01*
X130386065Y-101366718D01*
X130636452Y-101263261D01*
X130828187Y-101071859D01*
X130932082Y-100821654D01*
X130932318Y-100550735D01*
X130828861Y-100300348D01*
X130637459Y-100108613D01*
X130387254Y-100004718D01*
X130116335Y-100004482D01*
X129865948Y-100107939D01*
X129674213Y-100299341D01*
X129570318Y-100549546D01*
X129570082Y-100820465D01*
X128920489Y-100820465D01*
X128765200Y-100716704D01*
X128294117Y-100623000D01*
X128245883Y-100623000D01*
X127774800Y-100716704D01*
X127375435Y-100983552D01*
X127108587Y-101382917D01*
X127014883Y-101854000D01*
X122717938Y-101854000D01*
X122598359Y-101734213D01*
X122348154Y-101630318D01*
X122077235Y-101630082D01*
X121826848Y-101733539D01*
X121635113Y-101924941D01*
X121531218Y-102175146D01*
X121530982Y-102446065D01*
X121158000Y-102446065D01*
X121158000Y-99296465D01*
X124693282Y-99296465D01*
X124796739Y-99546852D01*
X124988141Y-99738587D01*
X125238346Y-99842482D01*
X125509265Y-99842718D01*
X125759652Y-99739261D01*
X125951387Y-99547859D01*
X126048494Y-99314000D01*
X127014883Y-99314000D01*
X127108587Y-99785083D01*
X127375435Y-100184448D01*
X127774800Y-100451296D01*
X128245883Y-100545000D01*
X128294117Y-100545000D01*
X128765200Y-100451296D01*
X129164565Y-100184448D01*
X129431413Y-99785083D01*
X129525117Y-99314000D01*
X129437964Y-98875850D01*
X133084200Y-98875850D01*
X133084200Y-99579385D01*
X133142204Y-99719419D01*
X133249380Y-99826596D01*
X133389414Y-99884600D01*
X134092950Y-99884600D01*
X134188200Y-99789350D01*
X134188200Y-98780600D01*
X134442200Y-98780600D01*
X134442200Y-99789350D01*
X134537450Y-99884600D01*
X135240986Y-99884600D01*
X135381020Y-99826596D01*
X135488196Y-99719419D01*
X135546200Y-99579385D01*
X135546200Y-98875850D01*
X135450950Y-98780600D01*
X134442200Y-98780600D01*
X134188200Y-98780600D01*
X133179450Y-98780600D01*
X133084200Y-98875850D01*
X129437964Y-98875850D01*
X129431413Y-98842917D01*
X129164565Y-98443552D01*
X128765200Y-98176704D01*
X128294117Y-98083000D01*
X128245883Y-98083000D01*
X127774800Y-98176704D01*
X127375435Y-98443552D01*
X127108587Y-98842917D01*
X127014883Y-99314000D01*
X126048494Y-99314000D01*
X126055282Y-99297654D01*
X126055518Y-99026735D01*
X125952061Y-98776348D01*
X125850128Y-98674238D01*
X126063846Y-98762982D01*
X126334765Y-98763218D01*
X126585152Y-98659761D01*
X126776887Y-98468359D01*
X126880782Y-98218154D01*
X126881018Y-97947235D01*
X126777561Y-97696848D01*
X126586159Y-97505113D01*
X126335954Y-97401218D01*
X126065035Y-97400982D01*
X125814648Y-97504439D01*
X125622913Y-97695841D01*
X125519018Y-97946046D01*
X125518782Y-98216965D01*
X125622239Y-98467352D01*
X125724172Y-98569462D01*
X125510454Y-98480718D01*
X125239535Y-98480482D01*
X124989148Y-98583939D01*
X124797413Y-98775341D01*
X124693518Y-99025546D01*
X124693282Y-99296465D01*
X121158000Y-99296465D01*
X121158000Y-95613465D01*
X126217282Y-95613465D01*
X126320739Y-95863852D01*
X126512141Y-96055587D01*
X126762346Y-96159482D01*
X127033265Y-96159718D01*
X127269487Y-96062114D01*
X127108587Y-96302917D01*
X127014883Y-96774000D01*
X127108587Y-97245083D01*
X127375435Y-97644448D01*
X127774800Y-97911296D01*
X128245883Y-98005000D01*
X128294117Y-98005000D01*
X128765200Y-97911296D01*
X129039797Y-97727815D01*
X133084200Y-97727815D01*
X133084200Y-98431350D01*
X133179450Y-98526600D01*
X134188200Y-98526600D01*
X134188200Y-97517850D01*
X134442200Y-97517850D01*
X134442200Y-98526600D01*
X135450950Y-98526600D01*
X135546200Y-98431350D01*
X135546200Y-97727815D01*
X135488196Y-97587781D01*
X135381020Y-97480604D01*
X135240986Y-97422600D01*
X134537450Y-97422600D01*
X134442200Y-97517850D01*
X134188200Y-97517850D01*
X134092950Y-97422600D01*
X133389414Y-97422600D01*
X133249380Y-97480604D01*
X133142204Y-97587781D01*
X133084200Y-97727815D01*
X129039797Y-97727815D01*
X129164565Y-97644448D01*
X129431413Y-97245083D01*
X129525117Y-96774000D01*
X129431413Y-96302917D01*
X129164565Y-95903552D01*
X128765200Y-95636704D01*
X128294117Y-95543000D01*
X128245883Y-95543000D01*
X127774800Y-95636704D01*
X127491532Y-95825978D01*
X127579282Y-95614654D01*
X127579518Y-95343735D01*
X127520773Y-95201560D01*
X127774800Y-95371296D01*
X128245883Y-95465000D01*
X128294117Y-95465000D01*
X128765200Y-95371296D01*
X129164565Y-95104448D01*
X129431413Y-94705083D01*
X129525117Y-94234000D01*
X129431413Y-93762917D01*
X129164565Y-93363552D01*
X128765200Y-93096704D01*
X128294117Y-93003000D01*
X128245883Y-93003000D01*
X127774800Y-93096704D01*
X127375435Y-93363552D01*
X127108587Y-93762917D01*
X127014883Y-94234000D01*
X127108587Y-94705083D01*
X127222719Y-94875893D01*
X127034454Y-94797718D01*
X126763535Y-94797482D01*
X126513148Y-94900939D01*
X126321413Y-95092341D01*
X126217518Y-95342546D01*
X126217282Y-95613465D01*
X121158000Y-95613465D01*
X121158000Y-94368865D01*
X122559682Y-94368865D01*
X122663139Y-94619252D01*
X122854541Y-94810987D01*
X123104746Y-94914882D01*
X123375665Y-94915118D01*
X123626052Y-94811661D01*
X123817787Y-94620259D01*
X123921682Y-94370054D01*
X123921918Y-94099135D01*
X123818461Y-93848748D01*
X123627059Y-93657013D01*
X123376854Y-93553118D01*
X123105935Y-93552882D01*
X122855548Y-93656339D01*
X122663813Y-93847741D01*
X122559918Y-94097946D01*
X122559682Y-94368865D01*
X121158000Y-94368865D01*
X121158000Y-91694000D01*
X127014883Y-91694000D01*
X127108587Y-92165083D01*
X127375435Y-92564448D01*
X127774800Y-92831296D01*
X128245883Y-92925000D01*
X128294117Y-92925000D01*
X128765200Y-92831296D01*
X129164565Y-92564448D01*
X129431413Y-92165083D01*
X129525117Y-91694000D01*
X129431413Y-91222917D01*
X129164565Y-90823552D01*
X128765200Y-90556704D01*
X128294117Y-90463000D01*
X128245883Y-90463000D01*
X127774800Y-90556704D01*
X127375435Y-90823552D01*
X127108587Y-91222917D01*
X127014883Y-91694000D01*
X121158000Y-91694000D01*
X121158000Y-89154000D01*
X127014883Y-89154000D01*
X127108587Y-89625083D01*
X127375435Y-90024448D01*
X127774800Y-90291296D01*
X128245883Y-90385000D01*
X128294117Y-90385000D01*
X128765200Y-90291296D01*
X129164565Y-90024448D01*
X129431413Y-89625083D01*
X129525117Y-89154000D01*
X129431413Y-88682917D01*
X129164565Y-88283552D01*
X128765200Y-88016704D01*
X128294117Y-87923000D01*
X128245883Y-87923000D01*
X127774800Y-88016704D01*
X127375435Y-88283552D01*
X127108587Y-88682917D01*
X127014883Y-89154000D01*
X121158000Y-89154000D01*
X121158000Y-86614000D01*
X127014883Y-86614000D01*
X127108587Y-87085083D01*
X127375435Y-87484448D01*
X127774800Y-87751296D01*
X128245883Y-87845000D01*
X128294117Y-87845000D01*
X128765200Y-87751296D01*
X129164565Y-87484448D01*
X129431413Y-87085083D01*
X129525117Y-86614000D01*
X129431413Y-86142917D01*
X129164565Y-85743552D01*
X128765200Y-85476704D01*
X128294117Y-85383000D01*
X128245883Y-85383000D01*
X127774800Y-85476704D01*
X127375435Y-85743552D01*
X127108587Y-86142917D01*
X127014883Y-86614000D01*
X121158000Y-86614000D01*
X121158000Y-85983345D01*
X121276552Y-85934361D01*
X121468287Y-85742959D01*
X121572182Y-85492754D01*
X121572418Y-85221835D01*
X121468961Y-84971448D01*
X121277559Y-84779713D01*
X121158000Y-84730067D01*
X121158000Y-84074000D01*
X127014883Y-84074000D01*
X127108587Y-84545083D01*
X127375435Y-84944448D01*
X127774800Y-85211296D01*
X128245883Y-85305000D01*
X128294117Y-85305000D01*
X128765200Y-85211296D01*
X129164565Y-84944448D01*
X129431413Y-84545083D01*
X129525117Y-84074000D01*
X129431413Y-83602917D01*
X129401138Y-83557607D01*
X134445098Y-83557607D01*
X134453122Y-83630460D01*
X134658248Y-83960780D01*
X134974168Y-84187457D01*
X135352785Y-84275982D01*
X135509000Y-84173666D01*
X135509000Y-83407000D01*
X135763000Y-83407000D01*
X135763000Y-84173666D01*
X135919215Y-84275982D01*
X136297832Y-84187457D01*
X136613752Y-83960780D01*
X136818878Y-83630460D01*
X136826902Y-83557607D01*
X136762598Y-83407000D01*
X135763000Y-83407000D01*
X135509000Y-83407000D01*
X134509402Y-83407000D01*
X134445098Y-83557607D01*
X129401138Y-83557607D01*
X129164565Y-83203552D01*
X128863511Y-83002393D01*
X134445098Y-83002393D01*
X134509402Y-83153000D01*
X135509000Y-83153000D01*
X135509000Y-82386334D01*
X135763000Y-82386334D01*
X135763000Y-83153000D01*
X136762598Y-83153000D01*
X136826902Y-83002393D01*
X136818878Y-82929540D01*
X136613752Y-82599220D01*
X136297832Y-82372543D01*
X135919215Y-82284018D01*
X135763000Y-82386334D01*
X135509000Y-82386334D01*
X135352785Y-82284018D01*
X134974168Y-82372543D01*
X134658248Y-82599220D01*
X134453122Y-82929540D01*
X134445098Y-83002393D01*
X128863511Y-83002393D01*
X128765200Y-82936704D01*
X128294117Y-82843000D01*
X128245883Y-82843000D01*
X127774800Y-82936704D01*
X127375435Y-83203552D01*
X127108587Y-83602917D01*
X127014883Y-84074000D01*
X121158000Y-84074000D01*
X121158000Y-81534000D01*
X127014883Y-81534000D01*
X127108587Y-82005083D01*
X127375435Y-82404448D01*
X127774800Y-82671296D01*
X128245883Y-82765000D01*
X128294117Y-82765000D01*
X128765200Y-82671296D01*
X129164565Y-82404448D01*
X129431413Y-82005083D01*
X129525117Y-81534000D01*
X129431413Y-81062917D01*
X129175556Y-80680000D01*
X134397536Y-80680000D01*
X134397536Y-81880000D01*
X134424103Y-82021190D01*
X134507546Y-82150865D01*
X134634866Y-82237859D01*
X134786000Y-82268464D01*
X136486000Y-82268464D01*
X136627190Y-82241897D01*
X136756865Y-82158454D01*
X136843859Y-82031134D01*
X136874464Y-81880000D01*
X136874464Y-80680000D01*
X136847897Y-80538810D01*
X136764454Y-80409135D01*
X136637134Y-80322141D01*
X136486000Y-80291536D01*
X134786000Y-80291536D01*
X134644810Y-80318103D01*
X134515135Y-80401546D01*
X134428141Y-80528866D01*
X134397536Y-80680000D01*
X129175556Y-80680000D01*
X129164565Y-80663552D01*
X128765200Y-80396704D01*
X128294117Y-80303000D01*
X128245883Y-80303000D01*
X127774800Y-80396704D01*
X127375435Y-80663552D01*
X127108587Y-81062917D01*
X127014883Y-81534000D01*
X121158000Y-81534000D01*
X121158000Y-80055965D01*
X124020182Y-80055965D01*
X124123639Y-80306352D01*
X124315041Y-80498087D01*
X124565246Y-80601982D01*
X124836165Y-80602218D01*
X125086552Y-80498761D01*
X125278287Y-80307359D01*
X125382182Y-80057154D01*
X125382418Y-79786235D01*
X125278961Y-79535848D01*
X125087559Y-79344113D01*
X125007767Y-79310980D01*
X127080511Y-79310980D01*
X127204755Y-79610964D01*
X127521944Y-79971652D01*
X127953018Y-80183501D01*
X128143000Y-80123193D01*
X128143000Y-79121000D01*
X128397000Y-79121000D01*
X128397000Y-80123193D01*
X128586982Y-80183501D01*
X129018056Y-79971652D01*
X129335245Y-79610964D01*
X129459489Y-79310980D01*
X129398627Y-79121000D01*
X128397000Y-79121000D01*
X128143000Y-79121000D01*
X127141373Y-79121000D01*
X127080511Y-79310980D01*
X125007767Y-79310980D01*
X124837354Y-79240218D01*
X124566435Y-79239982D01*
X124316048Y-79343439D01*
X124124313Y-79534841D01*
X124020418Y-79785046D01*
X124020182Y-80055965D01*
X121158000Y-80055965D01*
X121158000Y-78677020D01*
X127080511Y-78677020D01*
X127141373Y-78867000D01*
X128143000Y-78867000D01*
X128143000Y-77864807D01*
X128397000Y-77864807D01*
X128397000Y-78867000D01*
X129398627Y-78867000D01*
X129459489Y-78677020D01*
X129335245Y-78377036D01*
X129018056Y-78016348D01*
X128586982Y-77804499D01*
X128397000Y-77864807D01*
X128143000Y-77864807D01*
X127953018Y-77804499D01*
X127521944Y-78016348D01*
X127204755Y-78377036D01*
X127080511Y-78677020D01*
X121158000Y-78677020D01*
X121158000Y-77630265D01*
X124667882Y-77630265D01*
X124771339Y-77880652D01*
X124962741Y-78072387D01*
X125212946Y-78176282D01*
X125483865Y-78176518D01*
X125734252Y-78073061D01*
X125925987Y-77881659D01*
X126029882Y-77631454D01*
X126030118Y-77360535D01*
X125926661Y-77110148D01*
X125735259Y-76918413D01*
X125485054Y-76814518D01*
X125214135Y-76814282D01*
X124963748Y-76917739D01*
X124772013Y-77109141D01*
X124668118Y-77359346D01*
X124667882Y-77630265D01*
X121158000Y-77630265D01*
X121158000Y-76763605D01*
X121374818Y-76563465D01*
X122686682Y-76563465D01*
X122790139Y-76813852D01*
X122981541Y-77005587D01*
X123231746Y-77109482D01*
X123502665Y-77109718D01*
X123753052Y-77006261D01*
X123944787Y-76814859D01*
X124048682Y-76564654D01*
X124048918Y-76293735D01*
X123945461Y-76043348D01*
X123754059Y-75851613D01*
X123503854Y-75747718D01*
X123232935Y-75747482D01*
X122982548Y-75850939D01*
X122790813Y-76042341D01*
X122686918Y-76292546D01*
X122686682Y-76563465D01*
X121374818Y-76563465D01*
X122731655Y-75311000D01*
X127803476Y-75311000D01*
X127774800Y-75316704D01*
X127375435Y-75583552D01*
X127108587Y-75982917D01*
X127014883Y-76454000D01*
X127108587Y-76925083D01*
X127375435Y-77324448D01*
X127774800Y-77591296D01*
X128245883Y-77685000D01*
X128294117Y-77685000D01*
X128765200Y-77591296D01*
X129164565Y-77324448D01*
X129431413Y-76925083D01*
X129525117Y-76454000D01*
X129431413Y-75982917D01*
X129164565Y-75583552D01*
X128765200Y-75316704D01*
X128736524Y-75311000D01*
X132842000Y-75311000D01*
X132891410Y-75300994D01*
X132941170Y-75263336D01*
X133957170Y-73993336D01*
X133980223Y-73948503D01*
X133985000Y-73914000D01*
X133985000Y-66632065D01*
X138155282Y-66632065D01*
X138258739Y-66882452D01*
X138450141Y-67074187D01*
X138700346Y-67178082D01*
X138971265Y-67178318D01*
X139221652Y-67074861D01*
X139413387Y-66883459D01*
X139517282Y-66633254D01*
X139517518Y-66362335D01*
X139414061Y-66111948D01*
X139222659Y-65920213D01*
X138972454Y-65816318D01*
X138701535Y-65816082D01*
X138451148Y-65919539D01*
X138259413Y-66110941D01*
X138155518Y-66361146D01*
X138155282Y-66632065D01*
X133985000Y-66632065D01*
X133985000Y-61779031D01*
X138514374Y-57752921D01*
X138544656Y-57712616D01*
X138557000Y-57658000D01*
X138557000Y-53086000D01*
X138546994Y-53036590D01*
X138519803Y-52996197D01*
X137503803Y-51980197D01*
X137461789Y-51952334D01*
X137414000Y-51943000D01*
X134164606Y-51943000D01*
X131445000Y-49223394D01*
X131445000Y-49007916D01*
X134467457Y-49007916D01*
X134768411Y-49736280D01*
X135325189Y-50294031D01*
X136053026Y-50596255D01*
X136841116Y-50596943D01*
X137569480Y-50295989D01*
X138127231Y-49739211D01*
X138429455Y-49011374D01*
X138430143Y-48223284D01*
X138129189Y-47494920D01*
X137572411Y-46937169D01*
X136844574Y-46634945D01*
X136056484Y-46634257D01*
X135328120Y-46935211D01*
X134770369Y-47491989D01*
X134468145Y-48219826D01*
X134467457Y-49007916D01*
X131445000Y-49007916D01*
X131445000Y-38892187D01*
X133033187Y-38892187D01*
X133220200Y-39344795D01*
X133566184Y-39691383D01*
X134018465Y-39879186D01*
X134508187Y-39879613D01*
X134960795Y-39692600D01*
X135307383Y-39346616D01*
X135495186Y-38894335D01*
X135495613Y-38404613D01*
X135308600Y-37952005D01*
X134962616Y-37605417D01*
X134510335Y-37417614D01*
X134020613Y-37417187D01*
X133568005Y-37604200D01*
X133221417Y-37950184D01*
X133033614Y-38402465D01*
X133033187Y-38892187D01*
X131445000Y-38892187D01*
X131445000Y-38354000D01*
X131434994Y-38304590D01*
X131406553Y-38262965D01*
X131364159Y-38235685D01*
X131318000Y-38227000D01*
X120350718Y-38227000D01*
X120441882Y-38007454D01*
X120442118Y-37736535D01*
X120338661Y-37486148D01*
X120147259Y-37294413D01*
X119997405Y-37232188D01*
X119997618Y-36987235D01*
X119894161Y-36736848D01*
X119702759Y-36545113D01*
X119452554Y-36441218D01*
X119181635Y-36440982D01*
X118931248Y-36544439D01*
X118739513Y-36735841D01*
X118635618Y-36986046D01*
X118635382Y-37256965D01*
X118738839Y-37507352D01*
X118930241Y-37699087D01*
X119080095Y-37761312D01*
X119079882Y-38006265D01*
X119171087Y-38227000D01*
X110236000Y-38227000D01*
X110186590Y-38237006D01*
X110151041Y-38259602D01*
X107611041Y-40545602D01*
X107581009Y-40586093D01*
X107569000Y-40640000D01*
X107569000Y-48451241D01*
X107136856Y-48781704D01*
X107137343Y-48223284D01*
X106836389Y-47494920D01*
X106279611Y-46937169D01*
X105551774Y-46634945D01*
X104763684Y-46634257D01*
X104035320Y-46935211D01*
X103477569Y-47491989D01*
X103175345Y-48219826D01*
X103174657Y-49007916D01*
X103475611Y-49736280D01*
X104032389Y-50294031D01*
X104760226Y-50596255D01*
X104763977Y-50596258D01*
X103300854Y-51715117D01*
X103267683Y-51753079D01*
X103251033Y-51818886D01*
X103505033Y-62994886D01*
X103516159Y-63044056D01*
X103545538Y-63085023D01*
X103588541Y-63111333D01*
X103630802Y-63118994D01*
X107543600Y-63155907D01*
X107543600Y-79920099D01*
X107359664Y-79918654D01*
X107359664Y-78245600D01*
X107333097Y-78104410D01*
X107249654Y-77974735D01*
X107122334Y-77887741D01*
X106971200Y-77857136D01*
X105271200Y-77857136D01*
X105130010Y-77883703D01*
X105000335Y-77967146D01*
X104913341Y-78094466D01*
X104882736Y-78245600D01*
X104882736Y-79899202D01*
X104499114Y-79896189D01*
X104558852Y-79843656D01*
X104770701Y-79412582D01*
X104710393Y-79222600D01*
X103708200Y-79222600D01*
X103708200Y-79242600D01*
X103454200Y-79242600D01*
X103454200Y-79222600D01*
X102452007Y-79222600D01*
X102391699Y-79412582D01*
X102603548Y-79843656D01*
X102715102Y-79941756D01*
X102701252Y-79962913D01*
X102692200Y-80010000D01*
X102692200Y-80768800D01*
X102443904Y-81140400D01*
X102350200Y-81611483D01*
X102350200Y-81659717D01*
X102443904Y-82130800D01*
X102692200Y-82502400D01*
X102692200Y-83312000D01*
X102698660Y-83343902D01*
X102603548Y-83427544D01*
X102391699Y-83858618D01*
X102452007Y-84048600D01*
X103454200Y-84048600D01*
X103454200Y-84028600D01*
X103708200Y-84028600D01*
X103708200Y-84048600D01*
X104710393Y-84048600D01*
X104770701Y-83858618D01*
X104558852Y-83427544D01*
X104556410Y-83425397D01*
X104882736Y-83422841D01*
X104882736Y-85025600D01*
X104909303Y-85166790D01*
X104992746Y-85296465D01*
X105120066Y-85383459D01*
X105271200Y-85414064D01*
X106971200Y-85414064D01*
X107112390Y-85387497D01*
X107242065Y-85304054D01*
X107329059Y-85176734D01*
X107359664Y-85025600D01*
X107359664Y-83403439D01*
X107556300Y-83401899D01*
X107556300Y-91089858D01*
X106125264Y-92328486D01*
X102655475Y-92290907D01*
X102605960Y-92300378D01*
X102564030Y-92328366D01*
X102536292Y-92370462D01*
X102527102Y-92418647D01*
X102533913Y-93576506D01*
X102525741Y-93588466D01*
X102495136Y-93739600D01*
X102495136Y-95439600D01*
X102521703Y-95580790D01*
X102545924Y-95618431D01*
X102552502Y-96736647D01*
X102554623Y-96746815D01*
X102478483Y-97129600D01*
X102572187Y-97600683D01*
X102839035Y-98000048D01*
X103238400Y-98266896D01*
X103709483Y-98360600D01*
X103757717Y-98360600D01*
X104228800Y-98266896D01*
X104628165Y-98000048D01*
X104895013Y-97600683D01*
X104988717Y-97129600D01*
X104940575Y-96887573D01*
X106170615Y-96900992D01*
X106220131Y-96891526D01*
X106261803Y-96863803D01*
X111304606Y-91821000D01*
X111800145Y-91821000D01*
X111868587Y-92165083D01*
X112135435Y-92564448D01*
X112534800Y-92831296D01*
X112903000Y-92904535D01*
X112903000Y-93023465D01*
X112534800Y-93096704D01*
X112135435Y-93363552D01*
X111868587Y-93762917D01*
X111774883Y-94234000D01*
X111868587Y-94705083D01*
X112135435Y-95104448D01*
X112534800Y-95371296D01*
X112903000Y-95444535D01*
X112903000Y-95563465D01*
X112534800Y-95636704D01*
X112135435Y-95903552D01*
X111868587Y-96302917D01*
X111774883Y-96774000D01*
X111868587Y-97245083D01*
X112135435Y-97644448D01*
X112534800Y-97911296D01*
X112903000Y-97984535D01*
X112903000Y-98103465D01*
X112534800Y-98176704D01*
X112135435Y-98443552D01*
X111868587Y-98842917D01*
X111774883Y-99314000D01*
X111868587Y-99785083D01*
X112135435Y-100184448D01*
X112534800Y-100451296D01*
X112903000Y-100524535D01*
X112903000Y-100643465D01*
X112534800Y-100716704D01*
X112135435Y-100983552D01*
X111868587Y-101382917D01*
X111774883Y-101854000D01*
X111868587Y-102325083D01*
X112135435Y-102724448D01*
X112534800Y-102991296D01*
X112696862Y-103023532D01*
X111961394Y-103759000D01*
X102056000Y-103759000D01*
X102056000Y-102526580D01*
X102544111Y-102526580D01*
X102668355Y-102826564D01*
X102985544Y-103187252D01*
X103416618Y-103399101D01*
X103606600Y-103338793D01*
X103606600Y-102336600D01*
X103860600Y-102336600D01*
X103860600Y-103338793D01*
X104050582Y-103399101D01*
X104481656Y-103187252D01*
X104798845Y-102826564D01*
X104923089Y-102526580D01*
X104862227Y-102336600D01*
X103860600Y-102336600D01*
X103606600Y-102336600D01*
X102604973Y-102336600D01*
X102544111Y-102526580D01*
X102056000Y-102526580D01*
X102056000Y-101892620D01*
X102544111Y-101892620D01*
X102604973Y-102082600D01*
X103606600Y-102082600D01*
X103606600Y-101080407D01*
X103860600Y-101080407D01*
X103860600Y-102082600D01*
X104862227Y-102082600D01*
X104923089Y-101892620D01*
X104798845Y-101592636D01*
X104481656Y-101231948D01*
X104050582Y-101020099D01*
X103860600Y-101080407D01*
X103606600Y-101080407D01*
X103416618Y-101020099D01*
X102985544Y-101231948D01*
X102668355Y-101592636D01*
X102544111Y-101892620D01*
X102056000Y-101892620D01*
X102056000Y-99669600D01*
X102478483Y-99669600D01*
X102572187Y-100140683D01*
X102839035Y-100540048D01*
X103238400Y-100806896D01*
X103709483Y-100900600D01*
X103757717Y-100900600D01*
X104228800Y-100806896D01*
X104360547Y-100718865D01*
X110672482Y-100718865D01*
X110775939Y-100969252D01*
X110967341Y-101160987D01*
X111217546Y-101264882D01*
X111488465Y-101265118D01*
X111738852Y-101161661D01*
X111930587Y-100970259D01*
X112034482Y-100720054D01*
X112034718Y-100449135D01*
X111931261Y-100198748D01*
X111739859Y-100007013D01*
X111489654Y-99903118D01*
X111218735Y-99902882D01*
X110968348Y-100006339D01*
X110776613Y-100197741D01*
X110672718Y-100447946D01*
X110672482Y-100718865D01*
X104360547Y-100718865D01*
X104628165Y-100540048D01*
X104895013Y-100140683D01*
X104988717Y-99669600D01*
X104895013Y-99198517D01*
X104628165Y-98799152D01*
X104228800Y-98532304D01*
X103757717Y-98438600D01*
X103709483Y-98438600D01*
X103238400Y-98532304D01*
X102839035Y-98799152D01*
X102572187Y-99198517D01*
X102478483Y-99669600D01*
X102056000Y-99669600D01*
X102056000Y-87032582D01*
X102391699Y-87032582D01*
X102603548Y-87463656D01*
X102964236Y-87780845D01*
X103264220Y-87905089D01*
X103454200Y-87844227D01*
X103454200Y-86842600D01*
X103708200Y-86842600D01*
X103708200Y-87844227D01*
X103898180Y-87905089D01*
X104198164Y-87780845D01*
X104558852Y-87463656D01*
X104770701Y-87032582D01*
X104710393Y-86842600D01*
X103708200Y-86842600D01*
X103454200Y-86842600D01*
X102452007Y-86842600D01*
X102391699Y-87032582D01*
X102056000Y-87032582D01*
X102056000Y-86398618D01*
X102391699Y-86398618D01*
X102452007Y-86588600D01*
X103454200Y-86588600D01*
X103454200Y-85586973D01*
X103708200Y-85586973D01*
X103708200Y-86588600D01*
X104710393Y-86588600D01*
X104770701Y-86398618D01*
X104558852Y-85967544D01*
X104442928Y-85865600D01*
X104882736Y-85865600D01*
X104882736Y-87565600D01*
X104909303Y-87706790D01*
X104992746Y-87836465D01*
X105120066Y-87923459D01*
X105271200Y-87954064D01*
X106971200Y-87954064D01*
X107112390Y-87927497D01*
X107242065Y-87844054D01*
X107329059Y-87716734D01*
X107359664Y-87565600D01*
X107359664Y-85865600D01*
X107333097Y-85724410D01*
X107249654Y-85594735D01*
X107122334Y-85507741D01*
X106971200Y-85477136D01*
X105271200Y-85477136D01*
X105130010Y-85503703D01*
X105000335Y-85587146D01*
X104913341Y-85714466D01*
X104882736Y-85865600D01*
X104442928Y-85865600D01*
X104198164Y-85650355D01*
X103898180Y-85526111D01*
X103708200Y-85586973D01*
X103454200Y-85586973D01*
X103264220Y-85526111D01*
X102964236Y-85650355D01*
X102603548Y-85967544D01*
X102391699Y-86398618D01*
X102056000Y-86398618D01*
X102056000Y-84492582D01*
X102391699Y-84492582D01*
X102603548Y-84923656D01*
X102964236Y-85240845D01*
X103264220Y-85365089D01*
X103454200Y-85304227D01*
X103454200Y-84302600D01*
X103708200Y-84302600D01*
X103708200Y-85304227D01*
X103898180Y-85365089D01*
X104198164Y-85240845D01*
X104558852Y-84923656D01*
X104770701Y-84492582D01*
X104710393Y-84302600D01*
X103708200Y-84302600D01*
X103454200Y-84302600D01*
X102452007Y-84302600D01*
X102391699Y-84492582D01*
X102056000Y-84492582D01*
X102056000Y-78778618D01*
X102391699Y-78778618D01*
X102452007Y-78968600D01*
X103454200Y-78968600D01*
X103454200Y-77966973D01*
X103708200Y-77966973D01*
X103708200Y-78968600D01*
X104710393Y-78968600D01*
X104770701Y-78778618D01*
X104558852Y-78347544D01*
X104198164Y-78030355D01*
X103898180Y-77906111D01*
X103708200Y-77966973D01*
X103454200Y-77966973D01*
X103264220Y-77906111D01*
X102964236Y-78030355D01*
X102603548Y-78347544D01*
X102391699Y-78778618D01*
X102056000Y-78778618D01*
X102056000Y-76872582D01*
X102391699Y-76872582D01*
X102603548Y-77303656D01*
X102964236Y-77620845D01*
X103264220Y-77745089D01*
X103454200Y-77684227D01*
X103454200Y-76682600D01*
X103708200Y-76682600D01*
X103708200Y-77684227D01*
X103898180Y-77745089D01*
X104198164Y-77620845D01*
X104558852Y-77303656D01*
X104770701Y-76872582D01*
X104710393Y-76682600D01*
X103708200Y-76682600D01*
X103454200Y-76682600D01*
X102452007Y-76682600D01*
X102391699Y-76872582D01*
X102056000Y-76872582D01*
X102056000Y-76238618D01*
X102391699Y-76238618D01*
X102452007Y-76428600D01*
X103454200Y-76428600D01*
X103454200Y-75426973D01*
X103708200Y-75426973D01*
X103708200Y-76428600D01*
X104710393Y-76428600D01*
X104770701Y-76238618D01*
X104558852Y-75807544D01*
X104442928Y-75705600D01*
X104882736Y-75705600D01*
X104882736Y-77405600D01*
X104909303Y-77546790D01*
X104992746Y-77676465D01*
X105120066Y-77763459D01*
X105271200Y-77794064D01*
X106971200Y-77794064D01*
X107112390Y-77767497D01*
X107242065Y-77684054D01*
X107329059Y-77556734D01*
X107359664Y-77405600D01*
X107359664Y-75705600D01*
X107333097Y-75564410D01*
X107249654Y-75434735D01*
X107122334Y-75347741D01*
X106971200Y-75317136D01*
X105271200Y-75317136D01*
X105130010Y-75343703D01*
X105000335Y-75427146D01*
X104913341Y-75554466D01*
X104882736Y-75705600D01*
X104442928Y-75705600D01*
X104198164Y-75490355D01*
X103898180Y-75366111D01*
X103708200Y-75426973D01*
X103454200Y-75426973D01*
X103264220Y-75366111D01*
X102964236Y-75490355D01*
X102603548Y-75807544D01*
X102391699Y-76238618D01*
X102056000Y-76238618D01*
X102056000Y-64396865D01*
X104220882Y-64396865D01*
X104324339Y-64647252D01*
X104515741Y-64838987D01*
X104765946Y-64942882D01*
X105036865Y-64943118D01*
X105287252Y-64839661D01*
X105478987Y-64648259D01*
X105582882Y-64398054D01*
X105583118Y-64127135D01*
X105479661Y-63876748D01*
X105288259Y-63685013D01*
X105038054Y-63581118D01*
X104767135Y-63580882D01*
X104516748Y-63684339D01*
X104325013Y-63875741D01*
X104221118Y-64125946D01*
X104220882Y-64396865D01*
X102056000Y-64396865D01*
X102056000Y-38892187D01*
X106413987Y-38892187D01*
X106601000Y-39344795D01*
X106946984Y-39691383D01*
X107399265Y-39879186D01*
X107888987Y-39879613D01*
X108341595Y-39692600D01*
X108688183Y-39346616D01*
X108875986Y-38894335D01*
X108876413Y-38404613D01*
X108689400Y-37952005D01*
X108343416Y-37605417D01*
X107891135Y-37417614D01*
X107401413Y-37417187D01*
X106948805Y-37604200D01*
X106602217Y-37950184D01*
X106414414Y-38402465D01*
X106413987Y-38892187D01*
X102056000Y-38892187D01*
X102056000Y-36228265D01*
X124553582Y-36228265D01*
X124657039Y-36478652D01*
X124848441Y-36670387D01*
X125098646Y-36774282D01*
X125369565Y-36774518D01*
X125619952Y-36671061D01*
X125811687Y-36479659D01*
X125915582Y-36229454D01*
X125915818Y-35958535D01*
X125812361Y-35708148D01*
X125620959Y-35516413D01*
X125370754Y-35412518D01*
X125099835Y-35412282D01*
X124849448Y-35515739D01*
X124657713Y-35707141D01*
X124553818Y-35957346D01*
X124553582Y-36228265D01*
X102056000Y-36228265D01*
X102056000Y-31892187D01*
X106413987Y-31892187D01*
X106601000Y-32344795D01*
X106946984Y-32691383D01*
X107399265Y-32879186D01*
X107888987Y-32879613D01*
X108341595Y-32692600D01*
X108357185Y-32677037D01*
X115224362Y-32677037D01*
X115224362Y-32854961D01*
X115417708Y-33826977D01*
X115485796Y-33991356D01*
X116036399Y-34815391D01*
X116162209Y-34941201D01*
X116986244Y-35491804D01*
X117150623Y-35559892D01*
X118122639Y-35753238D01*
X118167550Y-35753238D01*
X118211600Y-35762000D01*
X123291600Y-35762000D01*
X123335650Y-35753238D01*
X123380561Y-35753238D01*
X124352577Y-35559892D01*
X124516956Y-35491804D01*
X125340991Y-34941201D01*
X125466803Y-34815389D01*
X126017404Y-33991356D01*
X126085492Y-33826977D01*
X126278838Y-32854961D01*
X126278838Y-32677037D01*
X126122722Y-31892187D01*
X133033187Y-31892187D01*
X133220200Y-32344795D01*
X133566184Y-32691383D01*
X134018465Y-32879186D01*
X134508187Y-32879613D01*
X134960795Y-32692600D01*
X135307383Y-32346616D01*
X135495186Y-31894335D01*
X135495613Y-31404613D01*
X135308600Y-30952005D01*
X134962616Y-30605417D01*
X134510335Y-30417614D01*
X134020613Y-30417187D01*
X133568005Y-30604200D01*
X133221417Y-30950184D01*
X133033614Y-31402465D01*
X133033187Y-31892187D01*
X126122722Y-31892187D01*
X126085492Y-31705023D01*
X126017404Y-31540644D01*
X125466801Y-30716609D01*
X125340991Y-30590799D01*
X124516956Y-30040196D01*
X124352577Y-29972108D01*
X123380561Y-29778762D01*
X123335650Y-29778762D01*
X123291600Y-29770000D01*
X118211600Y-29770000D01*
X118167550Y-29778762D01*
X118122639Y-29778762D01*
X117150623Y-29972108D01*
X116986244Y-30040196D01*
X116162211Y-30590797D01*
X116036399Y-30716609D01*
X115485796Y-31540644D01*
X115417708Y-31705023D01*
X115224362Y-32677037D01*
X108357185Y-32677037D01*
X108688183Y-32346616D01*
X108875986Y-31894335D01*
X108876413Y-31404613D01*
X108689400Y-30952005D01*
X108343416Y-30605417D01*
X107891135Y-30417614D01*
X107401413Y-30417187D01*
X106948805Y-30604200D01*
X106602217Y-30950184D01*
X106414414Y-31402465D01*
X106413987Y-31892187D01*
X102056000Y-31892187D01*
X102056000Y-28599200D01*
X139599600Y-28599200D01*
X139599600Y-86818400D01*
G36*
X124728866Y-47181859D02*
X124880000Y-47212464D01*
X126580000Y-47212464D01*
X126721190Y-47185897D01*
X126828260Y-47117000D01*
X127803476Y-47117000D01*
X128245883Y-47205000D01*
X128294117Y-47205000D01*
X128736524Y-47117000D01*
X130683000Y-47117000D01*
X130683000Y-50165000D01*
X129136800Y-50165000D01*
X128765200Y-49916704D01*
X128294117Y-49823000D01*
X128245883Y-49823000D01*
X127774800Y-49916704D01*
X127403200Y-50165000D01*
X127000000Y-50165000D01*
X126950590Y-50175006D01*
X126908965Y-50203447D01*
X126881685Y-50245841D01*
X126873006Y-50290743D01*
X126868492Y-50746673D01*
X126852859Y-50731013D01*
X126602654Y-50627118D01*
X126331735Y-50626882D01*
X126106362Y-50720004D01*
X126169582Y-50567754D01*
X126169818Y-50296835D01*
X126066361Y-50046448D01*
X125874959Y-49854713D01*
X125743463Y-49800111D01*
X125788582Y-49691454D01*
X125788818Y-49420535D01*
X125685361Y-49170148D01*
X125493959Y-48978413D01*
X125243754Y-48874518D01*
X124972835Y-48874282D01*
X124722448Y-48977739D01*
X124530713Y-49169141D01*
X124426818Y-49419346D01*
X124426582Y-49690265D01*
X124530039Y-49940652D01*
X124721441Y-50132387D01*
X124852937Y-50186989D01*
X124807818Y-50295646D01*
X124807582Y-50566565D01*
X124911039Y-50816952D01*
X125102441Y-51008687D01*
X125352646Y-51112582D01*
X125623565Y-51112818D01*
X125848938Y-51019696D01*
X125785718Y-51171946D01*
X125785482Y-51442865D01*
X125888939Y-51693252D01*
X125973431Y-51777891D01*
X125876913Y-51874241D01*
X125773018Y-52124446D01*
X125772782Y-52395365D01*
X125876239Y-52645752D01*
X126067641Y-52837487D01*
X126317846Y-52941382D01*
X126588765Y-52941618D01*
X126839152Y-52838161D01*
X126847870Y-52829458D01*
X126787384Y-58938570D01*
X126551248Y-59036139D01*
X126359513Y-59227541D01*
X126255618Y-59477746D01*
X126255382Y-59748665D01*
X126358839Y-59999052D01*
X126550241Y-60190787D01*
X126774066Y-60283728D01*
X126747251Y-62992000D01*
X123571000Y-62992000D01*
X123521590Y-63002006D01*
X123481197Y-63029197D01*
X120306197Y-66204197D01*
X120278334Y-66246211D01*
X120269000Y-66294000D01*
X120269000Y-85079566D01*
X120210418Y-85220646D01*
X120210182Y-85491565D01*
X120269000Y-85633917D01*
X120269000Y-86847499D01*
X120019835Y-86847282D01*
X119769448Y-86950739D01*
X119577713Y-87142141D01*
X119473818Y-87392346D01*
X119473582Y-87663265D01*
X119577039Y-87913652D01*
X119768441Y-88105387D01*
X120018646Y-88209282D01*
X120269000Y-88209500D01*
X120269000Y-106619552D01*
X116286911Y-109855000D01*
X109934973Y-109855000D01*
X109983155Y-109756360D01*
X109321600Y-109094805D01*
X108660045Y-109756360D01*
X108708227Y-109855000D01*
X105343239Y-109855000D01*
X105361459Y-109828334D01*
X105392064Y-109677200D01*
X105392064Y-108768255D01*
X108165509Y-108768255D01*
X108197278Y-109221857D01*
X108309744Y-109493376D01*
X108480440Y-109576755D01*
X109141995Y-108915200D01*
X109501205Y-108915200D01*
X110162760Y-109576755D01*
X110333456Y-109493376D01*
X110477691Y-109062145D01*
X110445922Y-108608543D01*
X110333456Y-108337024D01*
X110162760Y-108253645D01*
X109501205Y-108915200D01*
X109141995Y-108915200D01*
X108480440Y-108253645D01*
X108309744Y-108337024D01*
X108165509Y-108768255D01*
X105392064Y-108768255D01*
X105392064Y-108153200D01*
X105377169Y-108074040D01*
X108660045Y-108074040D01*
X109321600Y-108735595D01*
X109972330Y-108084865D01*
X114279282Y-108084865D01*
X114382739Y-108335252D01*
X114574141Y-108526987D01*
X114824346Y-108630882D01*
X115095265Y-108631118D01*
X115345652Y-108527661D01*
X115537387Y-108336259D01*
X115641282Y-108086054D01*
X115641518Y-107815135D01*
X115538061Y-107564748D01*
X115346659Y-107373013D01*
X115096454Y-107269118D01*
X114825535Y-107268882D01*
X114575148Y-107372339D01*
X114383413Y-107563741D01*
X114279518Y-107813946D01*
X114279282Y-108084865D01*
X109972330Y-108084865D01*
X109983155Y-108074040D01*
X109899776Y-107903344D01*
X109468545Y-107759109D01*
X109014943Y-107790878D01*
X108743424Y-107903344D01*
X108660045Y-108074040D01*
X105377169Y-108074040D01*
X105365497Y-108012010D01*
X105282054Y-107882335D01*
X105154734Y-107795341D01*
X105003600Y-107764736D01*
X103479600Y-107764736D01*
X103338410Y-107791303D01*
X103208735Y-107874746D01*
X103121741Y-108002066D01*
X103091136Y-108153200D01*
X103091136Y-109677200D01*
X103117703Y-109818390D01*
X103141261Y-109855000D01*
X102056000Y-109855000D01*
X102056000Y-104521000D01*
X112268000Y-104521000D01*
X112317410Y-104510994D01*
X112347336Y-104493170D01*
X114887336Y-102461170D01*
X114919669Y-102422491D01*
X114935000Y-102362301D01*
X114939463Y-100477565D01*
X115917582Y-100477565D01*
X116021039Y-100727952D01*
X116212441Y-100919687D01*
X116462646Y-101023582D01*
X116733565Y-101023818D01*
X116983952Y-100920361D01*
X117175687Y-100728959D01*
X117279582Y-100478754D01*
X117279818Y-100207835D01*
X117176361Y-99957448D01*
X116984959Y-99765713D01*
X116734754Y-99661818D01*
X116463835Y-99661582D01*
X116213448Y-99765039D01*
X116021713Y-99956441D01*
X115917818Y-100206646D01*
X115917582Y-100477565D01*
X114939463Y-100477565D01*
X114947674Y-97010465D01*
X115092082Y-97010465D01*
X115195539Y-97260852D01*
X115386941Y-97452587D01*
X115637146Y-97556482D01*
X115908065Y-97556718D01*
X116158452Y-97453261D01*
X116350187Y-97261859D01*
X116454082Y-97011654D01*
X116454318Y-96740735D01*
X116350861Y-96490348D01*
X116159459Y-96298613D01*
X115909254Y-96194718D01*
X115638335Y-96194482D01*
X115387948Y-96297939D01*
X115196213Y-96489341D01*
X115092318Y-96739546D01*
X115092082Y-97010465D01*
X114947674Y-97010465D01*
X114977149Y-84564465D01*
X118305182Y-84564465D01*
X118408639Y-84814852D01*
X118600041Y-85006587D01*
X118850246Y-85110482D01*
X119121165Y-85110718D01*
X119371552Y-85007261D01*
X119563287Y-84815859D01*
X119667182Y-84565654D01*
X119667418Y-84294735D01*
X119563961Y-84044348D01*
X119372559Y-83852613D01*
X119122354Y-83748718D01*
X118851435Y-83748482D01*
X118601048Y-83851939D01*
X118409313Y-84043341D01*
X118305418Y-84293546D01*
X118305182Y-84564465D01*
X114977149Y-84564465D01*
X114983165Y-82024465D01*
X116768482Y-82024465D01*
X116871939Y-82274852D01*
X117063341Y-82466587D01*
X117313546Y-82570482D01*
X117584465Y-82570718D01*
X117834852Y-82467261D01*
X118026587Y-82275859D01*
X118130482Y-82025654D01*
X118130718Y-81754735D01*
X118027261Y-81504348D01*
X117835859Y-81312613D01*
X117585654Y-81208718D01*
X117314735Y-81208482D01*
X117064348Y-81311939D01*
X116872613Y-81503341D01*
X116768718Y-81753546D01*
X116768482Y-82024465D01*
X114983165Y-82024465D01*
X114985800Y-80912001D01*
X114975911Y-80862567D01*
X114947569Y-80820875D01*
X114905239Y-80793495D01*
X114860558Y-80784712D01*
X113997540Y-80772767D01*
X113924565Y-80663552D01*
X113525200Y-80396704D01*
X113054117Y-80303000D01*
X113005883Y-80303000D01*
X112534800Y-80396704D01*
X112135435Y-80663552D01*
X112080191Y-80746230D01*
X111315088Y-80735640D01*
X111310402Y-79310980D01*
X111840511Y-79310980D01*
X111964755Y-79610964D01*
X112281944Y-79971652D01*
X112713018Y-80183501D01*
X112903000Y-80123193D01*
X112903000Y-79121000D01*
X113157000Y-79121000D01*
X113157000Y-80123193D01*
X113346982Y-80183501D01*
X113778056Y-79971652D01*
X114095245Y-79610964D01*
X114219489Y-79310980D01*
X114158627Y-79121000D01*
X113157000Y-79121000D01*
X112903000Y-79121000D01*
X111901373Y-79121000D01*
X111840511Y-79310980D01*
X111310402Y-79310980D01*
X111308317Y-78677020D01*
X111840511Y-78677020D01*
X111901373Y-78867000D01*
X112903000Y-78867000D01*
X112903000Y-77864807D01*
X113157000Y-77864807D01*
X113157000Y-78867000D01*
X114158627Y-78867000D01*
X114219489Y-78677020D01*
X114095245Y-78377036D01*
X113778056Y-78016348D01*
X113346982Y-77804499D01*
X113157000Y-77864807D01*
X112903000Y-77864807D01*
X112713018Y-77804499D01*
X112281944Y-78016348D01*
X111964755Y-78377036D01*
X111840511Y-78677020D01*
X111308317Y-78677020D01*
X111303218Y-77127100D01*
X112003571Y-77127100D01*
X112135435Y-77324448D01*
X112534800Y-77591296D01*
X113005883Y-77685000D01*
X113054117Y-77685000D01*
X113525200Y-77591296D01*
X113924565Y-77324448D01*
X114056429Y-77127100D01*
X115011200Y-77127100D01*
X115060610Y-77117094D01*
X115102235Y-77088653D01*
X115129515Y-77046259D01*
X115138198Y-77000784D01*
X115154294Y-74010765D01*
X117695582Y-74010765D01*
X117799039Y-74261152D01*
X117990441Y-74452887D01*
X118240646Y-74556782D01*
X118511565Y-74557018D01*
X118761952Y-74453561D01*
X118953687Y-74262159D01*
X119057582Y-74011954D01*
X119057818Y-73741035D01*
X118954361Y-73490648D01*
X118762959Y-73298913D01*
X118512754Y-73195018D01*
X118241835Y-73194782D01*
X117991448Y-73298239D01*
X117799713Y-73489641D01*
X117695818Y-73739846D01*
X117695582Y-74010765D01*
X115154294Y-74010765D01*
X115184241Y-68448165D01*
X116400182Y-68448165D01*
X116503639Y-68698552D01*
X116695041Y-68890287D01*
X116945246Y-68994182D01*
X117216165Y-68994418D01*
X117466552Y-68890961D01*
X117658287Y-68699559D01*
X117762182Y-68449354D01*
X117762418Y-68178435D01*
X117658961Y-67928048D01*
X117467559Y-67736313D01*
X117217354Y-67632418D01*
X116946435Y-67632182D01*
X116696048Y-67735639D01*
X116504313Y-67927041D01*
X116400418Y-68177246D01*
X116400182Y-68448165D01*
X115184241Y-68448165D01*
X115188701Y-67619881D01*
X117951102Y-65069973D01*
X118117865Y-65070118D01*
X118368252Y-64966661D01*
X118559987Y-64775259D01*
X118663882Y-64525054D01*
X118663981Y-64411931D01*
X120276268Y-62923665D01*
X122051682Y-62923665D01*
X122155139Y-63174052D01*
X122346541Y-63365787D01*
X122596746Y-63469682D01*
X122867665Y-63469918D01*
X123118052Y-63366461D01*
X123309787Y-63175059D01*
X123413682Y-62924854D01*
X123413918Y-62653935D01*
X123310461Y-62403548D01*
X123119059Y-62211813D01*
X122868854Y-62107918D01*
X122597935Y-62107682D01*
X122347548Y-62211139D01*
X122155813Y-62402541D01*
X122051918Y-62652746D01*
X122051682Y-62923665D01*
X120276268Y-62923665D01*
X121752142Y-61561320D01*
X121781662Y-61520454D01*
X121793000Y-61468000D01*
X121793000Y-60729274D01*
X121847446Y-60751882D01*
X122118365Y-60752118D01*
X122368752Y-60648661D01*
X122560487Y-60457259D01*
X122664382Y-60207054D01*
X122664618Y-59936135D01*
X122561161Y-59685748D01*
X122514802Y-59639309D01*
X122535087Y-59619059D01*
X122638982Y-59368854D01*
X122639218Y-59097935D01*
X122535761Y-58847548D01*
X122344359Y-58655813D01*
X122094154Y-58551918D01*
X121823235Y-58551682D01*
X121793000Y-58564175D01*
X121793000Y-57297565D01*
X122623182Y-57297565D01*
X122726639Y-57547952D01*
X122918041Y-57739687D01*
X123168246Y-57843582D01*
X123439165Y-57843818D01*
X123689552Y-57740361D01*
X123881287Y-57548959D01*
X123980402Y-57310265D01*
X124299582Y-57310265D01*
X124403039Y-57560652D01*
X124594441Y-57752387D01*
X124844646Y-57856282D01*
X125115565Y-57856518D01*
X125365952Y-57753061D01*
X125557687Y-57561659D01*
X125661582Y-57311454D01*
X125661818Y-57040535D01*
X125558361Y-56790148D01*
X125366959Y-56598413D01*
X125116754Y-56494518D01*
X124845835Y-56494282D01*
X124595448Y-56597739D01*
X124403713Y-56789141D01*
X124299818Y-57039346D01*
X124299582Y-57310265D01*
X123980402Y-57310265D01*
X123985182Y-57298754D01*
X123985418Y-57027835D01*
X123881961Y-56777448D01*
X123690559Y-56585713D01*
X123440354Y-56481818D01*
X123169435Y-56481582D01*
X122919048Y-56585039D01*
X122727313Y-56776441D01*
X122623418Y-57026646D01*
X122623182Y-57297565D01*
X121793000Y-57297565D01*
X121793000Y-55125865D01*
X125137782Y-55125865D01*
X125241239Y-55376252D01*
X125432641Y-55567987D01*
X125682846Y-55671882D01*
X125953765Y-55672118D01*
X126204152Y-55568661D01*
X126395887Y-55377259D01*
X126499782Y-55127054D01*
X126500018Y-54856135D01*
X126396561Y-54605748D01*
X126205159Y-54414013D01*
X125954954Y-54310118D01*
X125684035Y-54309882D01*
X125433648Y-54413339D01*
X125241913Y-54604741D01*
X125138018Y-54854946D01*
X125137782Y-55125865D01*
X121793000Y-55125865D01*
X121793000Y-53193080D01*
X121836465Y-53193118D01*
X122086852Y-53089661D01*
X122278587Y-52898259D01*
X122382482Y-52648054D01*
X122382718Y-52377135D01*
X122279261Y-52126748D01*
X122087859Y-51935013D01*
X121837654Y-51831118D01*
X121793000Y-51831079D01*
X121793000Y-51293080D01*
X121836465Y-51293118D01*
X122086852Y-51189661D01*
X122278587Y-50998259D01*
X122382482Y-50748054D01*
X122382718Y-50477135D01*
X122279261Y-50226748D01*
X122087859Y-50035013D01*
X121837654Y-49931118D01*
X121793000Y-49931079D01*
X121793000Y-49131465D01*
X122661282Y-49131465D01*
X122764739Y-49381852D01*
X122956141Y-49573587D01*
X123206346Y-49677482D01*
X123477265Y-49677718D01*
X123727652Y-49574261D01*
X123919387Y-49382859D01*
X124023282Y-49132654D01*
X124023518Y-48861735D01*
X124010811Y-48830980D01*
X127080511Y-48830980D01*
X127204755Y-49130964D01*
X127521944Y-49491652D01*
X127953018Y-49703501D01*
X128143000Y-49643193D01*
X128143000Y-48641000D01*
X128397000Y-48641000D01*
X128397000Y-49643193D01*
X128586982Y-49703501D01*
X129018056Y-49491652D01*
X129335245Y-49130964D01*
X129459489Y-48830980D01*
X129398627Y-48641000D01*
X128397000Y-48641000D01*
X128143000Y-48641000D01*
X127141373Y-48641000D01*
X127080511Y-48830980D01*
X124010811Y-48830980D01*
X123920061Y-48611348D01*
X123728659Y-48419613D01*
X123478454Y-48315718D01*
X123207535Y-48315482D01*
X122957148Y-48418939D01*
X122765413Y-48610341D01*
X122661518Y-48860546D01*
X122661282Y-49131465D01*
X121793000Y-49131465D01*
X121793000Y-48197020D01*
X127080511Y-48197020D01*
X127141373Y-48387000D01*
X128143000Y-48387000D01*
X128143000Y-47384807D01*
X128397000Y-47384807D01*
X128397000Y-48387000D01*
X129398627Y-48387000D01*
X129459489Y-48197020D01*
X129335245Y-47897036D01*
X129018056Y-47536348D01*
X128586982Y-47324499D01*
X128397000Y-47384807D01*
X128143000Y-47384807D01*
X127953018Y-47324499D01*
X127521944Y-47536348D01*
X127204755Y-47897036D01*
X127080511Y-48197020D01*
X121793000Y-48197020D01*
X121793000Y-47117000D01*
X124633942Y-47117000D01*
X124728866Y-47181859D01*
X124728866Y-47181859D01*
G37*
X124728866Y-47181859D02*
X124880000Y-47212464D01*
X126580000Y-47212464D01*
X126721190Y-47185897D01*
X126828260Y-47117000D01*
X127803476Y-47117000D01*
X128245883Y-47205000D01*
X128294117Y-47205000D01*
X128736524Y-47117000D01*
X130683000Y-47117000D01*
X130683000Y-50165000D01*
X129136800Y-50165000D01*
X128765200Y-49916704D01*
X128294117Y-49823000D01*
X128245883Y-49823000D01*
X127774800Y-49916704D01*
X127403200Y-50165000D01*
X127000000Y-50165000D01*
X126950590Y-50175006D01*
X126908965Y-50203447D01*
X126881685Y-50245841D01*
X126873006Y-50290743D01*
X126868492Y-50746673D01*
X126852859Y-50731013D01*
X126602654Y-50627118D01*
X126331735Y-50626882D01*
X126106362Y-50720004D01*
X126169582Y-50567754D01*
X126169818Y-50296835D01*
X126066361Y-50046448D01*
X125874959Y-49854713D01*
X125743463Y-49800111D01*
X125788582Y-49691454D01*
X125788818Y-49420535D01*
X125685361Y-49170148D01*
X125493959Y-48978413D01*
X125243754Y-48874518D01*
X124972835Y-48874282D01*
X124722448Y-48977739D01*
X124530713Y-49169141D01*
X124426818Y-49419346D01*
X124426582Y-49690265D01*
X124530039Y-49940652D01*
X124721441Y-50132387D01*
X124852937Y-50186989D01*
X124807818Y-50295646D01*
X124807582Y-50566565D01*
X124911039Y-50816952D01*
X125102441Y-51008687D01*
X125352646Y-51112582D01*
X125623565Y-51112818D01*
X125848938Y-51019696D01*
X125785718Y-51171946D01*
X125785482Y-51442865D01*
X125888939Y-51693252D01*
X125973431Y-51777891D01*
X125876913Y-51874241D01*
X125773018Y-52124446D01*
X125772782Y-52395365D01*
X125876239Y-52645752D01*
X126067641Y-52837487D01*
X126317846Y-52941382D01*
X126588765Y-52941618D01*
X126839152Y-52838161D01*
X126847870Y-52829458D01*
X126787384Y-58938570D01*
X126551248Y-59036139D01*
X126359513Y-59227541D01*
X126255618Y-59477746D01*
X126255382Y-59748665D01*
X126358839Y-59999052D01*
X126550241Y-60190787D01*
X126774066Y-60283728D01*
X126747251Y-62992000D01*
X123571000Y-62992000D01*
X123521590Y-63002006D01*
X123481197Y-63029197D01*
X120306197Y-66204197D01*
X120278334Y-66246211D01*
X120269000Y-66294000D01*
X120269000Y-85079566D01*
X120210418Y-85220646D01*
X120210182Y-85491565D01*
X120269000Y-85633917D01*
X120269000Y-86847499D01*
X120019835Y-86847282D01*
X119769448Y-86950739D01*
X119577713Y-87142141D01*
X119473818Y-87392346D01*
X119473582Y-87663265D01*
X119577039Y-87913652D01*
X119768441Y-88105387D01*
X120018646Y-88209282D01*
X120269000Y-88209500D01*
X120269000Y-106619552D01*
X116286911Y-109855000D01*
X109934973Y-109855000D01*
X109983155Y-109756360D01*
X109321600Y-109094805D01*
X108660045Y-109756360D01*
X108708227Y-109855000D01*
X105343239Y-109855000D01*
X105361459Y-109828334D01*
X105392064Y-109677200D01*
X105392064Y-108768255D01*
X108165509Y-108768255D01*
X108197278Y-109221857D01*
X108309744Y-109493376D01*
X108480440Y-109576755D01*
X109141995Y-108915200D01*
X109501205Y-108915200D01*
X110162760Y-109576755D01*
X110333456Y-109493376D01*
X110477691Y-109062145D01*
X110445922Y-108608543D01*
X110333456Y-108337024D01*
X110162760Y-108253645D01*
X109501205Y-108915200D01*
X109141995Y-108915200D01*
X108480440Y-108253645D01*
X108309744Y-108337024D01*
X108165509Y-108768255D01*
X105392064Y-108768255D01*
X105392064Y-108153200D01*
X105377169Y-108074040D01*
X108660045Y-108074040D01*
X109321600Y-108735595D01*
X109972330Y-108084865D01*
X114279282Y-108084865D01*
X114382739Y-108335252D01*
X114574141Y-108526987D01*
X114824346Y-108630882D01*
X115095265Y-108631118D01*
X115345652Y-108527661D01*
X115537387Y-108336259D01*
X115641282Y-108086054D01*
X115641518Y-107815135D01*
X115538061Y-107564748D01*
X115346659Y-107373013D01*
X115096454Y-107269118D01*
X114825535Y-107268882D01*
X114575148Y-107372339D01*
X114383413Y-107563741D01*
X114279518Y-107813946D01*
X114279282Y-108084865D01*
X109972330Y-108084865D01*
X109983155Y-108074040D01*
X109899776Y-107903344D01*
X109468545Y-107759109D01*
X109014943Y-107790878D01*
X108743424Y-107903344D01*
X108660045Y-108074040D01*
X105377169Y-108074040D01*
X105365497Y-108012010D01*
X105282054Y-107882335D01*
X105154734Y-107795341D01*
X105003600Y-107764736D01*
X103479600Y-107764736D01*
X103338410Y-107791303D01*
X103208735Y-107874746D01*
X103121741Y-108002066D01*
X103091136Y-108153200D01*
X103091136Y-109677200D01*
X103117703Y-109818390D01*
X103141261Y-109855000D01*
X102056000Y-109855000D01*
X102056000Y-104521000D01*
X112268000Y-104521000D01*
X112317410Y-104510994D01*
X112347336Y-104493170D01*
X114887336Y-102461170D01*
X114919669Y-102422491D01*
X114935000Y-102362301D01*
X114939463Y-100477565D01*
X115917582Y-100477565D01*
X116021039Y-100727952D01*
X116212441Y-100919687D01*
X116462646Y-101023582D01*
X116733565Y-101023818D01*
X116983952Y-100920361D01*
X117175687Y-100728959D01*
X117279582Y-100478754D01*
X117279818Y-100207835D01*
X117176361Y-99957448D01*
X116984959Y-99765713D01*
X116734754Y-99661818D01*
X116463835Y-99661582D01*
X116213448Y-99765039D01*
X116021713Y-99956441D01*
X115917818Y-100206646D01*
X115917582Y-100477565D01*
X114939463Y-100477565D01*
X114947674Y-97010465D01*
X115092082Y-97010465D01*
X115195539Y-97260852D01*
X115386941Y-97452587D01*
X115637146Y-97556482D01*
X115908065Y-97556718D01*
X116158452Y-97453261D01*
X116350187Y-97261859D01*
X116454082Y-97011654D01*
X116454318Y-96740735D01*
X116350861Y-96490348D01*
X116159459Y-96298613D01*
X115909254Y-96194718D01*
X115638335Y-96194482D01*
X115387948Y-96297939D01*
X115196213Y-96489341D01*
X115092318Y-96739546D01*
X115092082Y-97010465D01*
X114947674Y-97010465D01*
X114977149Y-84564465D01*
X118305182Y-84564465D01*
X118408639Y-84814852D01*
X118600041Y-85006587D01*
X118850246Y-85110482D01*
X119121165Y-85110718D01*
X119371552Y-85007261D01*
X119563287Y-84815859D01*
X119667182Y-84565654D01*
X119667418Y-84294735D01*
X119563961Y-84044348D01*
X119372559Y-83852613D01*
X119122354Y-83748718D01*
X118851435Y-83748482D01*
X118601048Y-83851939D01*
X118409313Y-84043341D01*
X118305418Y-84293546D01*
X118305182Y-84564465D01*
X114977149Y-84564465D01*
X114983165Y-82024465D01*
X116768482Y-82024465D01*
X116871939Y-82274852D01*
X117063341Y-82466587D01*
X117313546Y-82570482D01*
X117584465Y-82570718D01*
X117834852Y-82467261D01*
X118026587Y-82275859D01*
X118130482Y-82025654D01*
X118130718Y-81754735D01*
X118027261Y-81504348D01*
X117835859Y-81312613D01*
X117585654Y-81208718D01*
X117314735Y-81208482D01*
X117064348Y-81311939D01*
X116872613Y-81503341D01*
X116768718Y-81753546D01*
X116768482Y-82024465D01*
X114983165Y-82024465D01*
X114985800Y-80912001D01*
X114975911Y-80862567D01*
X114947569Y-80820875D01*
X114905239Y-80793495D01*
X114860558Y-80784712D01*
X113997540Y-80772767D01*
X113924565Y-80663552D01*
X113525200Y-80396704D01*
X113054117Y-80303000D01*
X113005883Y-80303000D01*
X112534800Y-80396704D01*
X112135435Y-80663552D01*
X112080191Y-80746230D01*
X111315088Y-80735640D01*
X111310402Y-79310980D01*
X111840511Y-79310980D01*
X111964755Y-79610964D01*
X112281944Y-79971652D01*
X112713018Y-80183501D01*
X112903000Y-80123193D01*
X112903000Y-79121000D01*
X113157000Y-79121000D01*
X113157000Y-80123193D01*
X113346982Y-80183501D01*
X113778056Y-79971652D01*
X114095245Y-79610964D01*
X114219489Y-79310980D01*
X114158627Y-79121000D01*
X113157000Y-79121000D01*
X112903000Y-79121000D01*
X111901373Y-79121000D01*
X111840511Y-79310980D01*
X111310402Y-79310980D01*
X111308317Y-78677020D01*
X111840511Y-78677020D01*
X111901373Y-78867000D01*
X112903000Y-78867000D01*
X112903000Y-77864807D01*
X113157000Y-77864807D01*
X113157000Y-78867000D01*
X114158627Y-78867000D01*
X114219489Y-78677020D01*
X114095245Y-78377036D01*
X113778056Y-78016348D01*
X113346982Y-77804499D01*
X113157000Y-77864807D01*
X112903000Y-77864807D01*
X112713018Y-77804499D01*
X112281944Y-78016348D01*
X111964755Y-78377036D01*
X111840511Y-78677020D01*
X111308317Y-78677020D01*
X111303218Y-77127100D01*
X112003571Y-77127100D01*
X112135435Y-77324448D01*
X112534800Y-77591296D01*
X113005883Y-77685000D01*
X113054117Y-77685000D01*
X113525200Y-77591296D01*
X113924565Y-77324448D01*
X114056429Y-77127100D01*
X115011200Y-77127100D01*
X115060610Y-77117094D01*
X115102235Y-77088653D01*
X115129515Y-77046259D01*
X115138198Y-77000784D01*
X115154294Y-74010765D01*
X117695582Y-74010765D01*
X117799039Y-74261152D01*
X117990441Y-74452887D01*
X118240646Y-74556782D01*
X118511565Y-74557018D01*
X118761952Y-74453561D01*
X118953687Y-74262159D01*
X119057582Y-74011954D01*
X119057818Y-73741035D01*
X118954361Y-73490648D01*
X118762959Y-73298913D01*
X118512754Y-73195018D01*
X118241835Y-73194782D01*
X117991448Y-73298239D01*
X117799713Y-73489641D01*
X117695818Y-73739846D01*
X117695582Y-74010765D01*
X115154294Y-74010765D01*
X115184241Y-68448165D01*
X116400182Y-68448165D01*
X116503639Y-68698552D01*
X116695041Y-68890287D01*
X116945246Y-68994182D01*
X117216165Y-68994418D01*
X117466552Y-68890961D01*
X117658287Y-68699559D01*
X117762182Y-68449354D01*
X117762418Y-68178435D01*
X117658961Y-67928048D01*
X117467559Y-67736313D01*
X117217354Y-67632418D01*
X116946435Y-67632182D01*
X116696048Y-67735639D01*
X116504313Y-67927041D01*
X116400418Y-68177246D01*
X116400182Y-68448165D01*
X115184241Y-68448165D01*
X115188701Y-67619881D01*
X117951102Y-65069973D01*
X118117865Y-65070118D01*
X118368252Y-64966661D01*
X118559987Y-64775259D01*
X118663882Y-64525054D01*
X118663981Y-64411931D01*
X120276268Y-62923665D01*
X122051682Y-62923665D01*
X122155139Y-63174052D01*
X122346541Y-63365787D01*
X122596746Y-63469682D01*
X122867665Y-63469918D01*
X123118052Y-63366461D01*
X123309787Y-63175059D01*
X123413682Y-62924854D01*
X123413918Y-62653935D01*
X123310461Y-62403548D01*
X123119059Y-62211813D01*
X122868854Y-62107918D01*
X122597935Y-62107682D01*
X122347548Y-62211139D01*
X122155813Y-62402541D01*
X122051918Y-62652746D01*
X122051682Y-62923665D01*
X120276268Y-62923665D01*
X121752142Y-61561320D01*
X121781662Y-61520454D01*
X121793000Y-61468000D01*
X121793000Y-60729274D01*
X121847446Y-60751882D01*
X122118365Y-60752118D01*
X122368752Y-60648661D01*
X122560487Y-60457259D01*
X122664382Y-60207054D01*
X122664618Y-59936135D01*
X122561161Y-59685748D01*
X122514802Y-59639309D01*
X122535087Y-59619059D01*
X122638982Y-59368854D01*
X122639218Y-59097935D01*
X122535761Y-58847548D01*
X122344359Y-58655813D01*
X122094154Y-58551918D01*
X121823235Y-58551682D01*
X121793000Y-58564175D01*
X121793000Y-57297565D01*
X122623182Y-57297565D01*
X122726639Y-57547952D01*
X122918041Y-57739687D01*
X123168246Y-57843582D01*
X123439165Y-57843818D01*
X123689552Y-57740361D01*
X123881287Y-57548959D01*
X123980402Y-57310265D01*
X124299582Y-57310265D01*
X124403039Y-57560652D01*
X124594441Y-57752387D01*
X124844646Y-57856282D01*
X125115565Y-57856518D01*
X125365952Y-57753061D01*
X125557687Y-57561659D01*
X125661582Y-57311454D01*
X125661818Y-57040535D01*
X125558361Y-56790148D01*
X125366959Y-56598413D01*
X125116754Y-56494518D01*
X124845835Y-56494282D01*
X124595448Y-56597739D01*
X124403713Y-56789141D01*
X124299818Y-57039346D01*
X124299582Y-57310265D01*
X123980402Y-57310265D01*
X123985182Y-57298754D01*
X123985418Y-57027835D01*
X123881961Y-56777448D01*
X123690559Y-56585713D01*
X123440354Y-56481818D01*
X123169435Y-56481582D01*
X122919048Y-56585039D01*
X122727313Y-56776441D01*
X122623418Y-57026646D01*
X122623182Y-57297565D01*
X121793000Y-57297565D01*
X121793000Y-55125865D01*
X125137782Y-55125865D01*
X125241239Y-55376252D01*
X125432641Y-55567987D01*
X125682846Y-55671882D01*
X125953765Y-55672118D01*
X126204152Y-55568661D01*
X126395887Y-55377259D01*
X126499782Y-55127054D01*
X126500018Y-54856135D01*
X126396561Y-54605748D01*
X126205159Y-54414013D01*
X125954954Y-54310118D01*
X125684035Y-54309882D01*
X125433648Y-54413339D01*
X125241913Y-54604741D01*
X125138018Y-54854946D01*
X125137782Y-55125865D01*
X121793000Y-55125865D01*
X121793000Y-53193080D01*
X121836465Y-53193118D01*
X122086852Y-53089661D01*
X122278587Y-52898259D01*
X122382482Y-52648054D01*
X122382718Y-52377135D01*
X122279261Y-52126748D01*
X122087859Y-51935013D01*
X121837654Y-51831118D01*
X121793000Y-51831079D01*
X121793000Y-51293080D01*
X121836465Y-51293118D01*
X122086852Y-51189661D01*
X122278587Y-50998259D01*
X122382482Y-50748054D01*
X122382718Y-50477135D01*
X122279261Y-50226748D01*
X122087859Y-50035013D01*
X121837654Y-49931118D01*
X121793000Y-49931079D01*
X121793000Y-49131465D01*
X122661282Y-49131465D01*
X122764739Y-49381852D01*
X122956141Y-49573587D01*
X123206346Y-49677482D01*
X123477265Y-49677718D01*
X123727652Y-49574261D01*
X123919387Y-49382859D01*
X124023282Y-49132654D01*
X124023518Y-48861735D01*
X124010811Y-48830980D01*
X127080511Y-48830980D01*
X127204755Y-49130964D01*
X127521944Y-49491652D01*
X127953018Y-49703501D01*
X128143000Y-49643193D01*
X128143000Y-48641000D01*
X128397000Y-48641000D01*
X128397000Y-49643193D01*
X128586982Y-49703501D01*
X129018056Y-49491652D01*
X129335245Y-49130964D01*
X129459489Y-48830980D01*
X129398627Y-48641000D01*
X128397000Y-48641000D01*
X128143000Y-48641000D01*
X127141373Y-48641000D01*
X127080511Y-48830980D01*
X124010811Y-48830980D01*
X123920061Y-48611348D01*
X123728659Y-48419613D01*
X123478454Y-48315718D01*
X123207535Y-48315482D01*
X122957148Y-48418939D01*
X122765413Y-48610341D01*
X122661518Y-48860546D01*
X122661282Y-49131465D01*
X121793000Y-49131465D01*
X121793000Y-48197020D01*
X127080511Y-48197020D01*
X127141373Y-48387000D01*
X128143000Y-48387000D01*
X128143000Y-47384807D01*
X128397000Y-47384807D01*
X128397000Y-48387000D01*
X129398627Y-48387000D01*
X129459489Y-48197020D01*
X129335245Y-47897036D01*
X129018056Y-47536348D01*
X128586982Y-47324499D01*
X128397000Y-47384807D01*
X128143000Y-47384807D01*
X127953018Y-47324499D01*
X127521944Y-47536348D01*
X127204755Y-47897036D01*
X127080511Y-48197020D01*
X121793000Y-48197020D01*
X121793000Y-47117000D01*
X124633942Y-47117000D01*
X124728866Y-47181859D01*
G36*
X137795000Y-53392606D02*
X137795000Y-57346969D01*
X133265626Y-61373079D01*
X133235344Y-61413384D01*
X133223000Y-61468000D01*
X133223000Y-73617667D01*
X132524500Y-74549000D01*
X129321887Y-74549000D01*
X129431413Y-74385083D01*
X129525117Y-73914000D01*
X129431413Y-73442917D01*
X129164565Y-73043552D01*
X128765200Y-72776704D01*
X128294117Y-72683000D01*
X128245883Y-72683000D01*
X127774800Y-72776704D01*
X127375435Y-73043552D01*
X127108587Y-73442917D01*
X127014883Y-73914000D01*
X127108587Y-74385083D01*
X127218113Y-74549000D01*
X122480606Y-74549000D01*
X121158000Y-73226394D01*
X121158000Y-71374000D01*
X127014883Y-71374000D01*
X127108587Y-71845083D01*
X127375435Y-72244448D01*
X127774800Y-72511296D01*
X128245883Y-72605000D01*
X128294117Y-72605000D01*
X128765200Y-72511296D01*
X129164565Y-72244448D01*
X129431413Y-71845083D01*
X129525117Y-71374000D01*
X129431413Y-70902917D01*
X129233798Y-70607165D01*
X131373482Y-70607165D01*
X131476939Y-70857552D01*
X131668341Y-71049287D01*
X131918546Y-71153182D01*
X132189465Y-71153418D01*
X132439852Y-71049961D01*
X132631587Y-70858559D01*
X132735482Y-70608354D01*
X132735718Y-70337435D01*
X132632261Y-70087048D01*
X132440859Y-69895313D01*
X132190654Y-69791418D01*
X131919735Y-69791182D01*
X131669348Y-69894639D01*
X131477613Y-70086041D01*
X131373718Y-70336246D01*
X131373482Y-70607165D01*
X129233798Y-70607165D01*
X129164565Y-70503552D01*
X128765200Y-70236704D01*
X128294117Y-70143000D01*
X128245883Y-70143000D01*
X127774800Y-70236704D01*
X127375435Y-70503552D01*
X127108587Y-70902917D01*
X127014883Y-71374000D01*
X121158000Y-71374000D01*
X121158000Y-68834000D01*
X127014883Y-68834000D01*
X127108587Y-69305083D01*
X127375435Y-69704448D01*
X127774800Y-69971296D01*
X128245883Y-70065000D01*
X128294117Y-70065000D01*
X128765200Y-69971296D01*
X129164565Y-69704448D01*
X129431413Y-69305083D01*
X129525117Y-68834000D01*
X129431413Y-68362917D01*
X129164565Y-67963552D01*
X128765200Y-67696704D01*
X128294117Y-67603000D01*
X128245883Y-67603000D01*
X127774800Y-67696704D01*
X127375435Y-67963552D01*
X127108587Y-68362917D01*
X127014883Y-68834000D01*
X121158000Y-68834000D01*
X121158000Y-66727606D01*
X121591606Y-66294000D01*
X127014883Y-66294000D01*
X127108587Y-66765083D01*
X127375435Y-67164448D01*
X127774800Y-67431296D01*
X128245883Y-67525000D01*
X128294117Y-67525000D01*
X128765200Y-67431296D01*
X129164565Y-67164448D01*
X129431413Y-66765083D01*
X129525117Y-66294000D01*
X129431413Y-65822917D01*
X129164565Y-65423552D01*
X128765200Y-65156704D01*
X128294117Y-65063000D01*
X128245883Y-65063000D01*
X127774800Y-65156704D01*
X127375435Y-65423552D01*
X127108587Y-65822917D01*
X127014883Y-66294000D01*
X121591606Y-66294000D01*
X124004606Y-63881000D01*
X127040145Y-63881000D01*
X127108587Y-64225083D01*
X127375435Y-64624448D01*
X127774800Y-64891296D01*
X128245883Y-64985000D01*
X128294117Y-64985000D01*
X128765200Y-64891296D01*
X129164565Y-64624448D01*
X129431413Y-64225083D01*
X129499855Y-63881000D01*
X129540000Y-63881000D01*
X129589410Y-63870994D01*
X129631035Y-63842553D01*
X129658315Y-63800159D01*
X129667000Y-63754000D01*
X129667000Y-63380865D01*
X131195682Y-63380865D01*
X131299139Y-63631252D01*
X131490541Y-63822987D01*
X131740746Y-63926882D01*
X132011665Y-63927118D01*
X132262052Y-63823661D01*
X132453787Y-63632259D01*
X132557682Y-63382054D01*
X132557918Y-63111135D01*
X132454461Y-62860748D01*
X132263059Y-62669013D01*
X132012854Y-62565118D01*
X131741935Y-62564882D01*
X131491548Y-62668339D01*
X131299813Y-62859741D01*
X131195918Y-63109946D01*
X131195682Y-63380865D01*
X129667000Y-63380865D01*
X129667000Y-59316865D01*
X132059282Y-59316865D01*
X132162739Y-59567252D01*
X132354141Y-59758987D01*
X132604346Y-59862882D01*
X132875265Y-59863118D01*
X133125652Y-59759661D01*
X133317387Y-59568259D01*
X133421282Y-59318054D01*
X133421518Y-59047135D01*
X133318061Y-58796748D01*
X133126659Y-58605013D01*
X132876454Y-58501118D01*
X132605535Y-58500882D01*
X132355148Y-58604339D01*
X132163413Y-58795741D01*
X132059518Y-59045946D01*
X132059282Y-59316865D01*
X129667000Y-59316865D01*
X129667000Y-58024030D01*
X129861752Y-57943561D01*
X130053487Y-57752159D01*
X130157382Y-57501954D01*
X130157618Y-57231035D01*
X130054161Y-56980648D01*
X129862759Y-56788913D01*
X129667000Y-56707626D01*
X129667000Y-55405265D01*
X133481682Y-55405265D01*
X133585139Y-55655652D01*
X133656920Y-55727558D01*
X133585813Y-55798541D01*
X133481918Y-56048746D01*
X133481682Y-56319665D01*
X133585139Y-56570052D01*
X133631520Y-56616514D01*
X133585813Y-56662141D01*
X133481918Y-56912346D01*
X133481682Y-57183265D01*
X133585139Y-57433652D01*
X133776541Y-57625387D01*
X134026746Y-57729282D01*
X134297665Y-57729518D01*
X134548052Y-57626061D01*
X134739787Y-57434659D01*
X134843682Y-57184454D01*
X134843918Y-56913535D01*
X134740461Y-56663148D01*
X134694080Y-56616686D01*
X134739787Y-56571059D01*
X134843682Y-56320854D01*
X134843918Y-56049935D01*
X134740461Y-55799548D01*
X134668680Y-55727642D01*
X134739787Y-55656659D01*
X134843682Y-55406454D01*
X134843918Y-55135535D01*
X134740461Y-54885148D01*
X134549059Y-54693413D01*
X134298854Y-54589518D01*
X134027935Y-54589282D01*
X133777548Y-54692739D01*
X133585813Y-54884141D01*
X133481918Y-55134346D01*
X133481682Y-55405265D01*
X129667000Y-55405265D01*
X129667000Y-54154606D01*
X131116606Y-52705000D01*
X137107394Y-52705000D01*
X137795000Y-53392606D01*
X137795000Y-53392606D01*
G37*
X137795000Y-53392606D02*
X137795000Y-57346969D01*
X133265626Y-61373079D01*
X133235344Y-61413384D01*
X133223000Y-61468000D01*
X133223000Y-73617667D01*
X132524500Y-74549000D01*
X129321887Y-74549000D01*
X129431413Y-74385083D01*
X129525117Y-73914000D01*
X129431413Y-73442917D01*
X129164565Y-73043552D01*
X128765200Y-72776704D01*
X128294117Y-72683000D01*
X128245883Y-72683000D01*
X127774800Y-72776704D01*
X127375435Y-73043552D01*
X127108587Y-73442917D01*
X127014883Y-73914000D01*
X127108587Y-74385083D01*
X127218113Y-74549000D01*
X122480606Y-74549000D01*
X121158000Y-73226394D01*
X121158000Y-71374000D01*
X127014883Y-71374000D01*
X127108587Y-71845083D01*
X127375435Y-72244448D01*
X127774800Y-72511296D01*
X128245883Y-72605000D01*
X128294117Y-72605000D01*
X128765200Y-72511296D01*
X129164565Y-72244448D01*
X129431413Y-71845083D01*
X129525117Y-71374000D01*
X129431413Y-70902917D01*
X129233798Y-70607165D01*
X131373482Y-70607165D01*
X131476939Y-70857552D01*
X131668341Y-71049287D01*
X131918546Y-71153182D01*
X132189465Y-71153418D01*
X132439852Y-71049961D01*
X132631587Y-70858559D01*
X132735482Y-70608354D01*
X132735718Y-70337435D01*
X132632261Y-70087048D01*
X132440859Y-69895313D01*
X132190654Y-69791418D01*
X131919735Y-69791182D01*
X131669348Y-69894639D01*
X131477613Y-70086041D01*
X131373718Y-70336246D01*
X131373482Y-70607165D01*
X129233798Y-70607165D01*
X129164565Y-70503552D01*
X128765200Y-70236704D01*
X128294117Y-70143000D01*
X128245883Y-70143000D01*
X127774800Y-70236704D01*
X127375435Y-70503552D01*
X127108587Y-70902917D01*
X127014883Y-71374000D01*
X121158000Y-71374000D01*
X121158000Y-68834000D01*
X127014883Y-68834000D01*
X127108587Y-69305083D01*
X127375435Y-69704448D01*
X127774800Y-69971296D01*
X128245883Y-70065000D01*
X128294117Y-70065000D01*
X128765200Y-69971296D01*
X129164565Y-69704448D01*
X129431413Y-69305083D01*
X129525117Y-68834000D01*
X129431413Y-68362917D01*
X129164565Y-67963552D01*
X128765200Y-67696704D01*
X128294117Y-67603000D01*
X128245883Y-67603000D01*
X127774800Y-67696704D01*
X127375435Y-67963552D01*
X127108587Y-68362917D01*
X127014883Y-68834000D01*
X121158000Y-68834000D01*
X121158000Y-66727606D01*
X121591606Y-66294000D01*
X127014883Y-66294000D01*
X127108587Y-66765083D01*
X127375435Y-67164448D01*
X127774800Y-67431296D01*
X128245883Y-67525000D01*
X128294117Y-67525000D01*
X128765200Y-67431296D01*
X129164565Y-67164448D01*
X129431413Y-66765083D01*
X129525117Y-66294000D01*
X129431413Y-65822917D01*
X129164565Y-65423552D01*
X128765200Y-65156704D01*
X128294117Y-65063000D01*
X128245883Y-65063000D01*
X127774800Y-65156704D01*
X127375435Y-65423552D01*
X127108587Y-65822917D01*
X127014883Y-66294000D01*
X121591606Y-66294000D01*
X124004606Y-63881000D01*
X127040145Y-63881000D01*
X127108587Y-64225083D01*
X127375435Y-64624448D01*
X127774800Y-64891296D01*
X128245883Y-64985000D01*
X128294117Y-64985000D01*
X128765200Y-64891296D01*
X129164565Y-64624448D01*
X129431413Y-64225083D01*
X129499855Y-63881000D01*
X129540000Y-63881000D01*
X129589410Y-63870994D01*
X129631035Y-63842553D01*
X129658315Y-63800159D01*
X129667000Y-63754000D01*
X129667000Y-63380865D01*
X131195682Y-63380865D01*
X131299139Y-63631252D01*
X131490541Y-63822987D01*
X131740746Y-63926882D01*
X132011665Y-63927118D01*
X132262052Y-63823661D01*
X132453787Y-63632259D01*
X132557682Y-63382054D01*
X132557918Y-63111135D01*
X132454461Y-62860748D01*
X132263059Y-62669013D01*
X132012854Y-62565118D01*
X131741935Y-62564882D01*
X131491548Y-62668339D01*
X131299813Y-62859741D01*
X131195918Y-63109946D01*
X131195682Y-63380865D01*
X129667000Y-63380865D01*
X129667000Y-59316865D01*
X132059282Y-59316865D01*
X132162739Y-59567252D01*
X132354141Y-59758987D01*
X132604346Y-59862882D01*
X132875265Y-59863118D01*
X133125652Y-59759661D01*
X133317387Y-59568259D01*
X133421282Y-59318054D01*
X133421518Y-59047135D01*
X133318061Y-58796748D01*
X133126659Y-58605013D01*
X132876454Y-58501118D01*
X132605535Y-58500882D01*
X132355148Y-58604339D01*
X132163413Y-58795741D01*
X132059518Y-59045946D01*
X132059282Y-59316865D01*
X129667000Y-59316865D01*
X129667000Y-58024030D01*
X129861752Y-57943561D01*
X130053487Y-57752159D01*
X130157382Y-57501954D01*
X130157618Y-57231035D01*
X130054161Y-56980648D01*
X129862759Y-56788913D01*
X129667000Y-56707626D01*
X129667000Y-55405265D01*
X133481682Y-55405265D01*
X133585139Y-55655652D01*
X133656920Y-55727558D01*
X133585813Y-55798541D01*
X133481918Y-56048746D01*
X133481682Y-56319665D01*
X133585139Y-56570052D01*
X133631520Y-56616514D01*
X133585813Y-56662141D01*
X133481918Y-56912346D01*
X133481682Y-57183265D01*
X133585139Y-57433652D01*
X133776541Y-57625387D01*
X134026746Y-57729282D01*
X134297665Y-57729518D01*
X134548052Y-57626061D01*
X134739787Y-57434659D01*
X134843682Y-57184454D01*
X134843918Y-56913535D01*
X134740461Y-56663148D01*
X134694080Y-56616686D01*
X134739787Y-56571059D01*
X134843682Y-56320854D01*
X134843918Y-56049935D01*
X134740461Y-55799548D01*
X134668680Y-55727642D01*
X134739787Y-55656659D01*
X134843682Y-55406454D01*
X134843918Y-55135535D01*
X134740461Y-54885148D01*
X134549059Y-54693413D01*
X134298854Y-54589518D01*
X134027935Y-54589282D01*
X133777548Y-54692739D01*
X133585813Y-54884141D01*
X133481918Y-55134346D01*
X133481682Y-55405265D01*
X129667000Y-55405265D01*
X129667000Y-54154606D01*
X131116606Y-52705000D01*
X137107394Y-52705000D01*
X137795000Y-53392606D01*
G36*
X120807082Y-39085765D02*
X120910539Y-39336152D01*
X120925313Y-39350952D01*
X120746113Y-39529841D01*
X120642218Y-39780046D01*
X120641982Y-40050965D01*
X120745439Y-40301352D01*
X120936841Y-40493087D01*
X121187046Y-40596982D01*
X121457965Y-40597218D01*
X121708352Y-40493761D01*
X121900087Y-40302359D01*
X122003982Y-40052154D01*
X122004218Y-39781235D01*
X121900761Y-39530848D01*
X121885987Y-39516048D01*
X122065187Y-39337159D01*
X122169082Y-39086954D01*
X122169167Y-38989000D01*
X130683000Y-38989000D01*
X130683000Y-44831000D01*
X128736524Y-44831000D01*
X128294117Y-44743000D01*
X128245883Y-44743000D01*
X127803476Y-44831000D01*
X126826058Y-44831000D01*
X126731134Y-44766141D01*
X126580000Y-44735536D01*
X124880000Y-44735536D01*
X124738810Y-44762103D01*
X124631740Y-44831000D01*
X121158000Y-44831000D01*
X121108590Y-44841006D01*
X121066965Y-44869447D01*
X121039685Y-44911841D01*
X121031000Y-44958000D01*
X121031000Y-50451184D01*
X121020718Y-50475946D01*
X121020482Y-50746865D01*
X121031000Y-50772321D01*
X121031000Y-52351184D01*
X121020718Y-52375946D01*
X121020482Y-52646865D01*
X121031000Y-52672321D01*
X121031000Y-61158132D01*
X118208623Y-63745311D01*
X118119054Y-63708118D01*
X117848135Y-63707882D01*
X117597748Y-63811339D01*
X117406013Y-64002741D01*
X117302118Y-64252946D01*
X117301882Y-64523865D01*
X117317653Y-64562034D01*
X115012599Y-66675000D01*
X114209332Y-66675000D01*
X114285117Y-66294000D01*
X114191413Y-65822917D01*
X114173000Y-65795360D01*
X114173000Y-64252640D01*
X114191413Y-64225083D01*
X114285117Y-63754000D01*
X114191413Y-63282917D01*
X114173000Y-63255360D01*
X114173000Y-62357000D01*
X116332000Y-62357000D01*
X116381410Y-62346994D01*
X116413303Y-62327564D01*
X117937303Y-61057564D01*
X117968856Y-61018246D01*
X117983000Y-60960000D01*
X117983000Y-57500765D01*
X118228982Y-57500765D01*
X118332439Y-57751152D01*
X118523841Y-57942887D01*
X118774046Y-58046782D01*
X119044965Y-58047018D01*
X119295352Y-57943561D01*
X119487087Y-57752159D01*
X119590982Y-57501954D01*
X119591218Y-57231035D01*
X119487761Y-56980648D01*
X119296359Y-56788913D01*
X119046154Y-56685018D01*
X118775235Y-56684782D01*
X118524848Y-56788239D01*
X118333113Y-56979641D01*
X118229218Y-57229846D01*
X118228982Y-57500765D01*
X117983000Y-57500765D01*
X117983000Y-55163890D01*
X118244865Y-55164118D01*
X118495252Y-55060661D01*
X118686987Y-54869259D01*
X118790882Y-54619054D01*
X118791118Y-54348135D01*
X118687661Y-54097748D01*
X118496259Y-53906013D01*
X118246054Y-53802118D01*
X117983000Y-53801889D01*
X117983000Y-52646865D01*
X119120482Y-52646865D01*
X119223939Y-52897252D01*
X119415341Y-53088987D01*
X119665546Y-53192882D01*
X119936465Y-53193118D01*
X120186852Y-53089661D01*
X120378587Y-52898259D01*
X120482482Y-52648054D01*
X120482718Y-52377135D01*
X120379261Y-52126748D01*
X120187859Y-51935013D01*
X119937654Y-51831118D01*
X119666735Y-51830882D01*
X119416348Y-51934339D01*
X119224613Y-52125741D01*
X119120718Y-52375946D01*
X119120482Y-52646865D01*
X117983000Y-52646865D01*
X117983000Y-50746865D01*
X119120482Y-50746865D01*
X119223939Y-50997252D01*
X119415341Y-51188987D01*
X119665546Y-51292882D01*
X119936465Y-51293118D01*
X120186852Y-51189661D01*
X120378587Y-50998259D01*
X120482482Y-50748054D01*
X120482718Y-50477135D01*
X120379261Y-50226748D01*
X120187859Y-50035013D01*
X119937654Y-49931118D01*
X119666735Y-49930882D01*
X119416348Y-50034339D01*
X119224613Y-50225741D01*
X119120718Y-50475946D01*
X119120482Y-50746865D01*
X117983000Y-50746865D01*
X117983000Y-49561420D01*
X118228552Y-49459961D01*
X118420287Y-49268559D01*
X118524182Y-49018354D01*
X118524418Y-48747435D01*
X118420961Y-48497048D01*
X118229559Y-48305313D01*
X117979354Y-48201418D01*
X117965816Y-48201406D01*
X117932200Y-48158400D01*
X116916200Y-47396400D01*
X116870668Y-47374759D01*
X116840000Y-47371000D01*
X113496524Y-47371000D01*
X113054117Y-47283000D01*
X113005883Y-47283000D01*
X112534800Y-47376704D01*
X112135435Y-47643552D01*
X111868587Y-48042917D01*
X111774883Y-48514000D01*
X111786147Y-48570628D01*
X107361116Y-52226088D01*
X107329395Y-52265270D01*
X107315000Y-52324000D01*
X107315000Y-62357000D01*
X104517864Y-62357000D01*
X104268520Y-52383213D01*
X108284085Y-49120566D01*
X108316124Y-49081643D01*
X108331000Y-49022000D01*
X108331000Y-48661565D01*
X109986682Y-48661565D01*
X110090139Y-48911952D01*
X110281541Y-49103687D01*
X110531746Y-49207582D01*
X110802665Y-49207818D01*
X111053052Y-49104361D01*
X111244787Y-48912959D01*
X111348682Y-48662754D01*
X111348918Y-48391835D01*
X111245461Y-48141448D01*
X111054059Y-47949713D01*
X110803854Y-47845818D01*
X110532935Y-47845582D01*
X110282548Y-47949039D01*
X110090813Y-48140441D01*
X109986918Y-48390646D01*
X109986682Y-48661565D01*
X108331000Y-48661565D01*
X108331000Y-45974000D01*
X111774883Y-45974000D01*
X111868587Y-46445083D01*
X112135435Y-46844448D01*
X112534800Y-47111296D01*
X113005883Y-47205000D01*
X113054117Y-47205000D01*
X113525200Y-47111296D01*
X113924565Y-46844448D01*
X114191413Y-46445083D01*
X114243133Y-46185065D01*
X117657482Y-46185065D01*
X117760939Y-46435452D01*
X117952341Y-46627187D01*
X118202546Y-46731082D01*
X118473465Y-46731318D01*
X118723852Y-46627861D01*
X118915587Y-46436459D01*
X119019482Y-46186254D01*
X119019660Y-45981865D01*
X119308482Y-45981865D01*
X119411939Y-46232252D01*
X119603341Y-46423987D01*
X119688846Y-46459492D01*
X119651618Y-46549146D01*
X119651382Y-46820065D01*
X119754839Y-47070452D01*
X119794870Y-47110552D01*
X119755513Y-47149841D01*
X119651618Y-47400046D01*
X119651382Y-47670965D01*
X119754839Y-47921352D01*
X119946241Y-48113087D01*
X120196446Y-48216982D01*
X120467365Y-48217218D01*
X120717752Y-48113761D01*
X120909487Y-47922359D01*
X121013382Y-47672154D01*
X121013618Y-47401235D01*
X120910161Y-47150848D01*
X120870130Y-47110748D01*
X120909487Y-47071459D01*
X121013382Y-46821254D01*
X121013618Y-46550335D01*
X120910161Y-46299948D01*
X120718759Y-46108213D01*
X120633254Y-46072708D01*
X120670482Y-45983054D01*
X120670718Y-45712135D01*
X120567261Y-45461748D01*
X120375859Y-45270013D01*
X120125654Y-45166118D01*
X119854735Y-45165882D01*
X119604348Y-45269339D01*
X119412613Y-45460741D01*
X119308718Y-45710946D01*
X119308482Y-45981865D01*
X119019660Y-45981865D01*
X119019718Y-45915335D01*
X118916261Y-45664948D01*
X118724859Y-45473213D01*
X118474654Y-45369318D01*
X118203735Y-45369082D01*
X117953348Y-45472539D01*
X117761613Y-45663941D01*
X117657718Y-45914146D01*
X117657482Y-46185065D01*
X114243133Y-46185065D01*
X114285117Y-45974000D01*
X114210897Y-45600865D01*
X114850782Y-45600865D01*
X114954239Y-45851252D01*
X115145641Y-46042987D01*
X115395846Y-46146882D01*
X115666765Y-46147118D01*
X115917152Y-46043661D01*
X116108887Y-45852259D01*
X116212782Y-45602054D01*
X116213018Y-45331135D01*
X116109561Y-45080748D01*
X115918159Y-44889013D01*
X115667954Y-44785118D01*
X115397035Y-44784882D01*
X115146648Y-44888339D01*
X114954913Y-45079741D01*
X114851018Y-45329946D01*
X114850782Y-45600865D01*
X114210897Y-45600865D01*
X114191413Y-45502917D01*
X113924565Y-45103552D01*
X113525200Y-44836704D01*
X113054117Y-44743000D01*
X113005883Y-44743000D01*
X112534800Y-44836704D01*
X112135435Y-45103552D01*
X111868587Y-45502917D01*
X111774883Y-45974000D01*
X108331000Y-45974000D01*
X108331000Y-42584000D01*
X111791536Y-42584000D01*
X111791536Y-44284000D01*
X111818103Y-44425190D01*
X111901546Y-44554865D01*
X112028866Y-44641859D01*
X112180000Y-44672464D01*
X113880000Y-44672464D01*
X114021190Y-44645897D01*
X114150865Y-44562454D01*
X114237859Y-44435134D01*
X114268464Y-44284000D01*
X114268464Y-44140365D01*
X115549282Y-44140365D01*
X115652739Y-44390752D01*
X115844141Y-44582487D01*
X116094346Y-44686382D01*
X116365265Y-44686618D01*
X116615652Y-44583161D01*
X116807387Y-44391759D01*
X116911282Y-44141554D01*
X116911518Y-43870635D01*
X116822937Y-43656250D01*
X127039000Y-43656250D01*
X127039000Y-44359785D01*
X127097004Y-44499819D01*
X127204180Y-44606996D01*
X127344214Y-44665000D01*
X128047750Y-44665000D01*
X128143000Y-44569750D01*
X128143000Y-43561000D01*
X128397000Y-43561000D01*
X128397000Y-44569750D01*
X128492250Y-44665000D01*
X129195786Y-44665000D01*
X129335820Y-44606996D01*
X129442996Y-44499819D01*
X129501000Y-44359785D01*
X129501000Y-43656250D01*
X129405750Y-43561000D01*
X128397000Y-43561000D01*
X128143000Y-43561000D01*
X127134250Y-43561000D01*
X127039000Y-43656250D01*
X116822937Y-43656250D01*
X116808061Y-43620248D01*
X116616659Y-43428513D01*
X116366454Y-43324618D01*
X116095535Y-43324382D01*
X115845148Y-43427839D01*
X115653413Y-43619241D01*
X115549518Y-43869446D01*
X115549282Y-44140365D01*
X114268464Y-44140365D01*
X114268464Y-42584000D01*
X114241897Y-42442810D01*
X114158454Y-42313135D01*
X114031134Y-42226141D01*
X113880000Y-42195536D01*
X112180000Y-42195536D01*
X112038810Y-42222103D01*
X111909135Y-42305546D01*
X111822141Y-42432866D01*
X111791536Y-42584000D01*
X108331000Y-42584000D01*
X108331000Y-41892465D01*
X126166482Y-41892465D01*
X126269939Y-42142852D01*
X126461341Y-42334587D01*
X126711546Y-42438482D01*
X126982465Y-42438718D01*
X127085405Y-42396185D01*
X127039000Y-42508215D01*
X127039000Y-43211750D01*
X127134250Y-43307000D01*
X128143000Y-43307000D01*
X128143000Y-42298250D01*
X128397000Y-42298250D01*
X128397000Y-43307000D01*
X129405750Y-43307000D01*
X129501000Y-43211750D01*
X129501000Y-42508215D01*
X129442996Y-42368181D01*
X129335820Y-42261004D01*
X129195786Y-42203000D01*
X128492250Y-42203000D01*
X128397000Y-42298250D01*
X128143000Y-42298250D01*
X128047750Y-42203000D01*
X127365343Y-42203000D01*
X127424587Y-42143859D01*
X127528482Y-41893654D01*
X127528718Y-41622735D01*
X127425261Y-41372348D01*
X127233859Y-41180613D01*
X126983654Y-41076718D01*
X126712735Y-41076482D01*
X126462348Y-41179939D01*
X126270613Y-41371341D01*
X126166718Y-41621546D01*
X126166482Y-41892465D01*
X108331000Y-41892465D01*
X108331000Y-40951031D01*
X108386311Y-40901865D01*
X116489082Y-40901865D01*
X116592539Y-41152252D01*
X116783941Y-41343987D01*
X117034146Y-41447882D01*
X117305065Y-41448118D01*
X117555452Y-41344661D01*
X117747187Y-41153259D01*
X117851082Y-40903054D01*
X117851318Y-40632135D01*
X117747861Y-40381748D01*
X117556459Y-40190013D01*
X117306254Y-40086118D01*
X117035335Y-40085882D01*
X116784948Y-40189339D01*
X116593213Y-40380741D01*
X116489318Y-40630946D01*
X116489082Y-40901865D01*
X108386311Y-40901865D01*
X110538285Y-38989000D01*
X120807166Y-38989000D01*
X120807082Y-39085765D01*
X120807082Y-39085765D01*
G37*
X120807082Y-39085765D02*
X120910539Y-39336152D01*
X120925313Y-39350952D01*
X120746113Y-39529841D01*
X120642218Y-39780046D01*
X120641982Y-40050965D01*
X120745439Y-40301352D01*
X120936841Y-40493087D01*
X121187046Y-40596982D01*
X121457965Y-40597218D01*
X121708352Y-40493761D01*
X121900087Y-40302359D01*
X122003982Y-40052154D01*
X122004218Y-39781235D01*
X121900761Y-39530848D01*
X121885987Y-39516048D01*
X122065187Y-39337159D01*
X122169082Y-39086954D01*
X122169167Y-38989000D01*
X130683000Y-38989000D01*
X130683000Y-44831000D01*
X128736524Y-44831000D01*
X128294117Y-44743000D01*
X128245883Y-44743000D01*
X127803476Y-44831000D01*
X126826058Y-44831000D01*
X126731134Y-44766141D01*
X126580000Y-44735536D01*
X124880000Y-44735536D01*
X124738810Y-44762103D01*
X124631740Y-44831000D01*
X121158000Y-44831000D01*
X121108590Y-44841006D01*
X121066965Y-44869447D01*
X121039685Y-44911841D01*
X121031000Y-44958000D01*
X121031000Y-50451184D01*
X121020718Y-50475946D01*
X121020482Y-50746865D01*
X121031000Y-50772321D01*
X121031000Y-52351184D01*
X121020718Y-52375946D01*
X121020482Y-52646865D01*
X121031000Y-52672321D01*
X121031000Y-61158132D01*
X118208623Y-63745311D01*
X118119054Y-63708118D01*
X117848135Y-63707882D01*
X117597748Y-63811339D01*
X117406013Y-64002741D01*
X117302118Y-64252946D01*
X117301882Y-64523865D01*
X117317653Y-64562034D01*
X115012599Y-66675000D01*
X114209332Y-66675000D01*
X114285117Y-66294000D01*
X114191413Y-65822917D01*
X114173000Y-65795360D01*
X114173000Y-64252640D01*
X114191413Y-64225083D01*
X114285117Y-63754000D01*
X114191413Y-63282917D01*
X114173000Y-63255360D01*
X114173000Y-62357000D01*
X116332000Y-62357000D01*
X116381410Y-62346994D01*
X116413303Y-62327564D01*
X117937303Y-61057564D01*
X117968856Y-61018246D01*
X117983000Y-60960000D01*
X117983000Y-57500765D01*
X118228982Y-57500765D01*
X118332439Y-57751152D01*
X118523841Y-57942887D01*
X118774046Y-58046782D01*
X119044965Y-58047018D01*
X119295352Y-57943561D01*
X119487087Y-57752159D01*
X119590982Y-57501954D01*
X119591218Y-57231035D01*
X119487761Y-56980648D01*
X119296359Y-56788913D01*
X119046154Y-56685018D01*
X118775235Y-56684782D01*
X118524848Y-56788239D01*
X118333113Y-56979641D01*
X118229218Y-57229846D01*
X118228982Y-57500765D01*
X117983000Y-57500765D01*
X117983000Y-55163890D01*
X118244865Y-55164118D01*
X118495252Y-55060661D01*
X118686987Y-54869259D01*
X118790882Y-54619054D01*
X118791118Y-54348135D01*
X118687661Y-54097748D01*
X118496259Y-53906013D01*
X118246054Y-53802118D01*
X117983000Y-53801889D01*
X117983000Y-52646865D01*
X119120482Y-52646865D01*
X119223939Y-52897252D01*
X119415341Y-53088987D01*
X119665546Y-53192882D01*
X119936465Y-53193118D01*
X120186852Y-53089661D01*
X120378587Y-52898259D01*
X120482482Y-52648054D01*
X120482718Y-52377135D01*
X120379261Y-52126748D01*
X120187859Y-51935013D01*
X119937654Y-51831118D01*
X119666735Y-51830882D01*
X119416348Y-51934339D01*
X119224613Y-52125741D01*
X119120718Y-52375946D01*
X119120482Y-52646865D01*
X117983000Y-52646865D01*
X117983000Y-50746865D01*
X119120482Y-50746865D01*
X119223939Y-50997252D01*
X119415341Y-51188987D01*
X119665546Y-51292882D01*
X119936465Y-51293118D01*
X120186852Y-51189661D01*
X120378587Y-50998259D01*
X120482482Y-50748054D01*
X120482718Y-50477135D01*
X120379261Y-50226748D01*
X120187859Y-50035013D01*
X119937654Y-49931118D01*
X119666735Y-49930882D01*
X119416348Y-50034339D01*
X119224613Y-50225741D01*
X119120718Y-50475946D01*
X119120482Y-50746865D01*
X117983000Y-50746865D01*
X117983000Y-49561420D01*
X118228552Y-49459961D01*
X118420287Y-49268559D01*
X118524182Y-49018354D01*
X118524418Y-48747435D01*
X118420961Y-48497048D01*
X118229559Y-48305313D01*
X117979354Y-48201418D01*
X117965816Y-48201406D01*
X117932200Y-48158400D01*
X116916200Y-47396400D01*
X116870668Y-47374759D01*
X116840000Y-47371000D01*
X113496524Y-47371000D01*
X113054117Y-47283000D01*
X113005883Y-47283000D01*
X112534800Y-47376704D01*
X112135435Y-47643552D01*
X111868587Y-48042917D01*
X111774883Y-48514000D01*
X111786147Y-48570628D01*
X107361116Y-52226088D01*
X107329395Y-52265270D01*
X107315000Y-52324000D01*
X107315000Y-62357000D01*
X104517864Y-62357000D01*
X104268520Y-52383213D01*
X108284085Y-49120566D01*
X108316124Y-49081643D01*
X108331000Y-49022000D01*
X108331000Y-48661565D01*
X109986682Y-48661565D01*
X110090139Y-48911952D01*
X110281541Y-49103687D01*
X110531746Y-49207582D01*
X110802665Y-49207818D01*
X111053052Y-49104361D01*
X111244787Y-48912959D01*
X111348682Y-48662754D01*
X111348918Y-48391835D01*
X111245461Y-48141448D01*
X111054059Y-47949713D01*
X110803854Y-47845818D01*
X110532935Y-47845582D01*
X110282548Y-47949039D01*
X110090813Y-48140441D01*
X109986918Y-48390646D01*
X109986682Y-48661565D01*
X108331000Y-48661565D01*
X108331000Y-45974000D01*
X111774883Y-45974000D01*
X111868587Y-46445083D01*
X112135435Y-46844448D01*
X112534800Y-47111296D01*
X113005883Y-47205000D01*
X113054117Y-47205000D01*
X113525200Y-47111296D01*
X113924565Y-46844448D01*
X114191413Y-46445083D01*
X114243133Y-46185065D01*
X117657482Y-46185065D01*
X117760939Y-46435452D01*
X117952341Y-46627187D01*
X118202546Y-46731082D01*
X118473465Y-46731318D01*
X118723852Y-46627861D01*
X118915587Y-46436459D01*
X119019482Y-46186254D01*
X119019660Y-45981865D01*
X119308482Y-45981865D01*
X119411939Y-46232252D01*
X119603341Y-46423987D01*
X119688846Y-46459492D01*
X119651618Y-46549146D01*
X119651382Y-46820065D01*
X119754839Y-47070452D01*
X119794870Y-47110552D01*
X119755513Y-47149841D01*
X119651618Y-47400046D01*
X119651382Y-47670965D01*
X119754839Y-47921352D01*
X119946241Y-48113087D01*
X120196446Y-48216982D01*
X120467365Y-48217218D01*
X120717752Y-48113761D01*
X120909487Y-47922359D01*
X121013382Y-47672154D01*
X121013618Y-47401235D01*
X120910161Y-47150848D01*
X120870130Y-47110748D01*
X120909487Y-47071459D01*
X121013382Y-46821254D01*
X121013618Y-46550335D01*
X120910161Y-46299948D01*
X120718759Y-46108213D01*
X120633254Y-46072708D01*
X120670482Y-45983054D01*
X120670718Y-45712135D01*
X120567261Y-45461748D01*
X120375859Y-45270013D01*
X120125654Y-45166118D01*
X119854735Y-45165882D01*
X119604348Y-45269339D01*
X119412613Y-45460741D01*
X119308718Y-45710946D01*
X119308482Y-45981865D01*
X119019660Y-45981865D01*
X119019718Y-45915335D01*
X118916261Y-45664948D01*
X118724859Y-45473213D01*
X118474654Y-45369318D01*
X118203735Y-45369082D01*
X117953348Y-45472539D01*
X117761613Y-45663941D01*
X117657718Y-45914146D01*
X117657482Y-46185065D01*
X114243133Y-46185065D01*
X114285117Y-45974000D01*
X114210897Y-45600865D01*
X114850782Y-45600865D01*
X114954239Y-45851252D01*
X115145641Y-46042987D01*
X115395846Y-46146882D01*
X115666765Y-46147118D01*
X115917152Y-46043661D01*
X116108887Y-45852259D01*
X116212782Y-45602054D01*
X116213018Y-45331135D01*
X116109561Y-45080748D01*
X115918159Y-44889013D01*
X115667954Y-44785118D01*
X115397035Y-44784882D01*
X115146648Y-44888339D01*
X114954913Y-45079741D01*
X114851018Y-45329946D01*
X114850782Y-45600865D01*
X114210897Y-45600865D01*
X114191413Y-45502917D01*
X113924565Y-45103552D01*
X113525200Y-44836704D01*
X113054117Y-44743000D01*
X113005883Y-44743000D01*
X112534800Y-44836704D01*
X112135435Y-45103552D01*
X111868587Y-45502917D01*
X111774883Y-45974000D01*
X108331000Y-45974000D01*
X108331000Y-42584000D01*
X111791536Y-42584000D01*
X111791536Y-44284000D01*
X111818103Y-44425190D01*
X111901546Y-44554865D01*
X112028866Y-44641859D01*
X112180000Y-44672464D01*
X113880000Y-44672464D01*
X114021190Y-44645897D01*
X114150865Y-44562454D01*
X114237859Y-44435134D01*
X114268464Y-44284000D01*
X114268464Y-44140365D01*
X115549282Y-44140365D01*
X115652739Y-44390752D01*
X115844141Y-44582487D01*
X116094346Y-44686382D01*
X116365265Y-44686618D01*
X116615652Y-44583161D01*
X116807387Y-44391759D01*
X116911282Y-44141554D01*
X116911518Y-43870635D01*
X116822937Y-43656250D01*
X127039000Y-43656250D01*
X127039000Y-44359785D01*
X127097004Y-44499819D01*
X127204180Y-44606996D01*
X127344214Y-44665000D01*
X128047750Y-44665000D01*
X128143000Y-44569750D01*
X128143000Y-43561000D01*
X128397000Y-43561000D01*
X128397000Y-44569750D01*
X128492250Y-44665000D01*
X129195786Y-44665000D01*
X129335820Y-44606996D01*
X129442996Y-44499819D01*
X129501000Y-44359785D01*
X129501000Y-43656250D01*
X129405750Y-43561000D01*
X128397000Y-43561000D01*
X128143000Y-43561000D01*
X127134250Y-43561000D01*
X127039000Y-43656250D01*
X116822937Y-43656250D01*
X116808061Y-43620248D01*
X116616659Y-43428513D01*
X116366454Y-43324618D01*
X116095535Y-43324382D01*
X115845148Y-43427839D01*
X115653413Y-43619241D01*
X115549518Y-43869446D01*
X115549282Y-44140365D01*
X114268464Y-44140365D01*
X114268464Y-42584000D01*
X114241897Y-42442810D01*
X114158454Y-42313135D01*
X114031134Y-42226141D01*
X113880000Y-42195536D01*
X112180000Y-42195536D01*
X112038810Y-42222103D01*
X111909135Y-42305546D01*
X111822141Y-42432866D01*
X111791536Y-42584000D01*
X108331000Y-42584000D01*
X108331000Y-41892465D01*
X126166482Y-41892465D01*
X126269939Y-42142852D01*
X126461341Y-42334587D01*
X126711546Y-42438482D01*
X126982465Y-42438718D01*
X127085405Y-42396185D01*
X127039000Y-42508215D01*
X127039000Y-43211750D01*
X127134250Y-43307000D01*
X128143000Y-43307000D01*
X128143000Y-42298250D01*
X128397000Y-42298250D01*
X128397000Y-43307000D01*
X129405750Y-43307000D01*
X129501000Y-43211750D01*
X129501000Y-42508215D01*
X129442996Y-42368181D01*
X129335820Y-42261004D01*
X129195786Y-42203000D01*
X128492250Y-42203000D01*
X128397000Y-42298250D01*
X128143000Y-42298250D01*
X128047750Y-42203000D01*
X127365343Y-42203000D01*
X127424587Y-42143859D01*
X127528482Y-41893654D01*
X127528718Y-41622735D01*
X127425261Y-41372348D01*
X127233859Y-41180613D01*
X126983654Y-41076718D01*
X126712735Y-41076482D01*
X126462348Y-41179939D01*
X126270613Y-41371341D01*
X126166718Y-41621546D01*
X126166482Y-41892465D01*
X108331000Y-41892465D01*
X108331000Y-40951031D01*
X108386311Y-40901865D01*
X116489082Y-40901865D01*
X116592539Y-41152252D01*
X116783941Y-41343987D01*
X117034146Y-41447882D01*
X117305065Y-41448118D01*
X117555452Y-41344661D01*
X117747187Y-41153259D01*
X117851082Y-40903054D01*
X117851318Y-40632135D01*
X117747861Y-40381748D01*
X117556459Y-40190013D01*
X117306254Y-40086118D01*
X117035335Y-40085882D01*
X116784948Y-40189339D01*
X116593213Y-40380741D01*
X116489318Y-40630946D01*
X116489082Y-40901865D01*
X108386311Y-40901865D01*
X110538285Y-38989000D01*
X120807166Y-38989000D01*
X120807082Y-39085765D01*
G36*
X117221000Y-48581968D02*
X117221000Y-48605166D01*
X117162418Y-48746246D01*
X117162182Y-49017165D01*
X117221000Y-49159517D01*
X117221000Y-49694106D01*
X117204654Y-49687318D01*
X116933735Y-49687082D01*
X116683348Y-49790539D01*
X116491613Y-49981941D01*
X116387718Y-50232146D01*
X116387482Y-50503065D01*
X116490939Y-50753452D01*
X116682341Y-50945187D01*
X116932546Y-51049082D01*
X117203465Y-51049318D01*
X117221000Y-51042073D01*
X117221000Y-57167599D01*
X116971835Y-57167382D01*
X116721448Y-57270839D01*
X116529713Y-57462241D01*
X116425818Y-57712446D01*
X116425582Y-57983365D01*
X116529039Y-58233752D01*
X116720441Y-58425487D01*
X116970646Y-58529382D01*
X117221000Y-58529600D01*
X117221000Y-60644961D01*
X116033452Y-61595000D01*
X114209332Y-61595000D01*
X114285117Y-61214000D01*
X114191413Y-60742917D01*
X113924565Y-60343552D01*
X113525200Y-60076704D01*
X113054117Y-59983000D01*
X113005883Y-59983000D01*
X112534800Y-60076704D01*
X112135435Y-60343552D01*
X111868587Y-60742917D01*
X111774883Y-61214000D01*
X111850668Y-61595000D01*
X111506000Y-61595000D01*
X111456590Y-61605006D01*
X111414965Y-61633447D01*
X111387685Y-61675841D01*
X111379000Y-61721773D01*
X111353713Y-75857015D01*
X110388400Y-76581000D01*
X110354875Y-76618651D01*
X110337600Y-76682815D01*
X110362911Y-91641483D01*
X105865394Y-96139000D01*
X104448345Y-96139000D01*
X104228800Y-95992304D01*
X103757717Y-95898600D01*
X103709483Y-95898600D01*
X103274244Y-95985174D01*
X103272978Y-95820600D01*
X103511350Y-95820600D01*
X103606600Y-95725350D01*
X103606600Y-94716600D01*
X103860600Y-94716600D01*
X103860600Y-95725350D01*
X103955850Y-95820600D01*
X104659386Y-95820600D01*
X104799420Y-95762596D01*
X104906596Y-95655419D01*
X104964600Y-95515385D01*
X104964600Y-94811850D01*
X104869350Y-94716600D01*
X103860600Y-94716600D01*
X103606600Y-94716600D01*
X103586600Y-94716600D01*
X103586600Y-94462600D01*
X103606600Y-94462600D01*
X103606600Y-93453850D01*
X103860600Y-93453850D01*
X103860600Y-94462600D01*
X104869350Y-94462600D01*
X104964600Y-94367350D01*
X104964600Y-93663815D01*
X104906596Y-93523781D01*
X104799420Y-93416604D01*
X104659386Y-93358600D01*
X103955850Y-93358600D01*
X103860600Y-93453850D01*
X103606600Y-93453850D01*
X103511350Y-93358600D01*
X103254039Y-93358600D01*
X103251980Y-93091000D01*
X106426000Y-93091000D01*
X106475410Y-93080994D01*
X106515803Y-93053803D01*
X108039803Y-91529803D01*
X108067666Y-91487789D01*
X108077000Y-91440000D01*
X108077000Y-82956400D01*
X108066994Y-82906990D01*
X108038553Y-82865365D01*
X107996159Y-82838085D01*
X107950000Y-82829400D01*
X107136794Y-82829400D01*
X107187019Y-82808596D01*
X107294196Y-82701420D01*
X107352200Y-82561386D01*
X107352200Y-81857850D01*
X107256950Y-81762600D01*
X106248200Y-81762600D01*
X106248200Y-81782600D01*
X105994200Y-81782600D01*
X105994200Y-81762600D01*
X104985450Y-81762600D01*
X104890200Y-81857850D01*
X104890200Y-82561386D01*
X104948204Y-82701420D01*
X105055381Y-82808596D01*
X105105606Y-82829400D01*
X103708202Y-82829400D01*
X103708202Y-82764228D01*
X103898180Y-82825089D01*
X104198164Y-82700845D01*
X104558852Y-82383656D01*
X104770701Y-81952582D01*
X104710393Y-81762600D01*
X103708200Y-81762600D01*
X103708200Y-81782600D01*
X103454200Y-81782600D01*
X103454200Y-81762600D01*
X103434200Y-81762600D01*
X103434200Y-81508600D01*
X103454200Y-81508600D01*
X103454200Y-81488600D01*
X103708200Y-81488600D01*
X103708200Y-81508600D01*
X104710393Y-81508600D01*
X104770701Y-81318618D01*
X104558852Y-80887544D01*
X104198164Y-80570355D01*
X104010427Y-80492600D01*
X105025385Y-80492600D01*
X104948204Y-80569780D01*
X104890200Y-80709814D01*
X104890200Y-81413350D01*
X104985450Y-81508600D01*
X105994200Y-81508600D01*
X105994200Y-81488600D01*
X106248200Y-81488600D01*
X106248200Y-81508600D01*
X107256950Y-81508600D01*
X107352200Y-81413350D01*
X107352200Y-80709814D01*
X107294196Y-80569780D01*
X107217015Y-80492600D01*
X107950000Y-80492600D01*
X107999410Y-80482594D01*
X108041035Y-80454153D01*
X108068315Y-80411759D01*
X108077000Y-80365600D01*
X108077000Y-72829665D01*
X108742082Y-72829665D01*
X108845539Y-73080052D01*
X109036941Y-73271787D01*
X109287146Y-73375682D01*
X109558065Y-73375918D01*
X109808452Y-73272461D01*
X110000187Y-73081059D01*
X110104082Y-72830854D01*
X110104318Y-72559935D01*
X110000861Y-72309548D01*
X109809459Y-72117813D01*
X109559254Y-72013918D01*
X109288335Y-72013682D01*
X109037948Y-72117139D01*
X108846213Y-72308541D01*
X108742318Y-72558746D01*
X108742082Y-72829665D01*
X108077000Y-72829665D01*
X108077000Y-58674000D01*
X111774883Y-58674000D01*
X111868587Y-59145083D01*
X112135435Y-59544448D01*
X112534800Y-59811296D01*
X113005883Y-59905000D01*
X113054117Y-59905000D01*
X113525200Y-59811296D01*
X113924565Y-59544448D01*
X114191413Y-59145083D01*
X114285117Y-58674000D01*
X114191413Y-58202917D01*
X113924565Y-57803552D01*
X113525200Y-57536704D01*
X113054117Y-57443000D01*
X113005883Y-57443000D01*
X112534800Y-57536704D01*
X112135435Y-57803552D01*
X111868587Y-58202917D01*
X111774883Y-58674000D01*
X108077000Y-58674000D01*
X108077000Y-58046865D01*
X108894482Y-58046865D01*
X108997939Y-58297252D01*
X109189341Y-58488987D01*
X109439546Y-58592882D01*
X109710465Y-58593118D01*
X109960852Y-58489661D01*
X110152587Y-58298259D01*
X110256482Y-58048054D01*
X110256718Y-57777135D01*
X110153261Y-57526748D01*
X109961859Y-57335013D01*
X109711654Y-57231118D01*
X109440735Y-57230882D01*
X109190348Y-57334339D01*
X108998613Y-57525741D01*
X108894718Y-57775946D01*
X108894482Y-58046865D01*
X108077000Y-58046865D01*
X108077000Y-56134000D01*
X111774883Y-56134000D01*
X111868587Y-56605083D01*
X112135435Y-57004448D01*
X112534800Y-57271296D01*
X113005883Y-57365000D01*
X113054117Y-57365000D01*
X113525200Y-57271296D01*
X113924565Y-57004448D01*
X114102089Y-56738765D01*
X114914282Y-56738765D01*
X115017739Y-56989152D01*
X115209141Y-57180887D01*
X115459346Y-57284782D01*
X115730265Y-57285018D01*
X115980652Y-57181561D01*
X116172387Y-56990159D01*
X116276282Y-56739954D01*
X116276518Y-56469035D01*
X116173061Y-56218648D01*
X115981659Y-56026913D01*
X115731454Y-55923018D01*
X115460535Y-55922782D01*
X115210148Y-56026239D01*
X115018413Y-56217641D01*
X114914518Y-56467846D01*
X114914282Y-56738765D01*
X114102089Y-56738765D01*
X114191413Y-56605083D01*
X114285117Y-56134000D01*
X114191413Y-55662917D01*
X113924565Y-55263552D01*
X113525200Y-54996704D01*
X113054117Y-54903000D01*
X113005883Y-54903000D01*
X112534800Y-54996704D01*
X112135435Y-55263552D01*
X111868587Y-55662917D01*
X111774883Y-56134000D01*
X108077000Y-56134000D01*
X108077000Y-53594000D01*
X111774883Y-53594000D01*
X111868587Y-54065083D01*
X112135435Y-54464448D01*
X112534800Y-54731296D01*
X113005883Y-54825000D01*
X113054117Y-54825000D01*
X113525200Y-54731296D01*
X113924565Y-54464448D01*
X114191413Y-54065083D01*
X114285117Y-53594000D01*
X114191413Y-53122917D01*
X113924565Y-52723552D01*
X113525200Y-52456704D01*
X113054117Y-52363000D01*
X113005883Y-52363000D01*
X112534800Y-52456704D01*
X112135435Y-52723552D01*
X111868587Y-53122917D01*
X111774883Y-53594000D01*
X108077000Y-53594000D01*
X108077000Y-52639877D01*
X110103398Y-51054000D01*
X111774883Y-51054000D01*
X111868587Y-51525083D01*
X112135435Y-51924448D01*
X112534800Y-52191296D01*
X113005883Y-52285000D01*
X113054117Y-52285000D01*
X113525200Y-52191296D01*
X113924565Y-51924448D01*
X114191413Y-51525083D01*
X114285117Y-51054000D01*
X114191413Y-50582917D01*
X114121086Y-50477665D01*
X114711082Y-50477665D01*
X114814539Y-50728052D01*
X115005941Y-50919787D01*
X115256146Y-51023682D01*
X115527065Y-51023918D01*
X115777452Y-50920461D01*
X115969187Y-50729059D01*
X116073082Y-50478854D01*
X116073318Y-50207935D01*
X115969861Y-49957548D01*
X115778459Y-49765813D01*
X115528254Y-49661918D01*
X115257335Y-49661682D01*
X115006948Y-49765139D01*
X114815213Y-49956541D01*
X114711318Y-50206746D01*
X114711082Y-50477665D01*
X114121086Y-50477665D01*
X113924565Y-50183552D01*
X113525200Y-49916704D01*
X113054117Y-49823000D01*
X113005883Y-49823000D01*
X112534800Y-49916704D01*
X112135435Y-50183552D01*
X111868587Y-50582917D01*
X111774883Y-51054000D01*
X110103398Y-51054000D01*
X112190069Y-49420954D01*
X112534800Y-49651296D01*
X113005883Y-49745000D01*
X113054117Y-49745000D01*
X113525200Y-49651296D01*
X113924565Y-49384448D01*
X114191413Y-48985083D01*
X114285117Y-48514000D01*
X114209332Y-48133000D01*
X116547548Y-48133000D01*
X117221000Y-48581968D01*
X117221000Y-48581968D01*
G37*
X117221000Y-48581968D02*
X117221000Y-48605166D01*
X117162418Y-48746246D01*
X117162182Y-49017165D01*
X117221000Y-49159517D01*
X117221000Y-49694106D01*
X117204654Y-49687318D01*
X116933735Y-49687082D01*
X116683348Y-49790539D01*
X116491613Y-49981941D01*
X116387718Y-50232146D01*
X116387482Y-50503065D01*
X116490939Y-50753452D01*
X116682341Y-50945187D01*
X116932546Y-51049082D01*
X117203465Y-51049318D01*
X117221000Y-51042073D01*
X117221000Y-57167599D01*
X116971835Y-57167382D01*
X116721448Y-57270839D01*
X116529713Y-57462241D01*
X116425818Y-57712446D01*
X116425582Y-57983365D01*
X116529039Y-58233752D01*
X116720441Y-58425487D01*
X116970646Y-58529382D01*
X117221000Y-58529600D01*
X117221000Y-60644961D01*
X116033452Y-61595000D01*
X114209332Y-61595000D01*
X114285117Y-61214000D01*
X114191413Y-60742917D01*
X113924565Y-60343552D01*
X113525200Y-60076704D01*
X113054117Y-59983000D01*
X113005883Y-59983000D01*
X112534800Y-60076704D01*
X112135435Y-60343552D01*
X111868587Y-60742917D01*
X111774883Y-61214000D01*
X111850668Y-61595000D01*
X111506000Y-61595000D01*
X111456590Y-61605006D01*
X111414965Y-61633447D01*
X111387685Y-61675841D01*
X111379000Y-61721773D01*
X111353713Y-75857015D01*
X110388400Y-76581000D01*
X110354875Y-76618651D01*
X110337600Y-76682815D01*
X110362911Y-91641483D01*
X105865394Y-96139000D01*
X104448345Y-96139000D01*
X104228800Y-95992304D01*
X103757717Y-95898600D01*
X103709483Y-95898600D01*
X103274244Y-95985174D01*
X103272978Y-95820600D01*
X103511350Y-95820600D01*
X103606600Y-95725350D01*
X103606600Y-94716600D01*
X103860600Y-94716600D01*
X103860600Y-95725350D01*
X103955850Y-95820600D01*
X104659386Y-95820600D01*
X104799420Y-95762596D01*
X104906596Y-95655419D01*
X104964600Y-95515385D01*
X104964600Y-94811850D01*
X104869350Y-94716600D01*
X103860600Y-94716600D01*
X103606600Y-94716600D01*
X103586600Y-94716600D01*
X103586600Y-94462600D01*
X103606600Y-94462600D01*
X103606600Y-93453850D01*
X103860600Y-93453850D01*
X103860600Y-94462600D01*
X104869350Y-94462600D01*
X104964600Y-94367350D01*
X104964600Y-93663815D01*
X104906596Y-93523781D01*
X104799420Y-93416604D01*
X104659386Y-93358600D01*
X103955850Y-93358600D01*
X103860600Y-93453850D01*
X103606600Y-93453850D01*
X103511350Y-93358600D01*
X103254039Y-93358600D01*
X103251980Y-93091000D01*
X106426000Y-93091000D01*
X106475410Y-93080994D01*
X106515803Y-93053803D01*
X108039803Y-91529803D01*
X108067666Y-91487789D01*
X108077000Y-91440000D01*
X108077000Y-82956400D01*
X108066994Y-82906990D01*
X108038553Y-82865365D01*
X107996159Y-82838085D01*
X107950000Y-82829400D01*
X107136794Y-82829400D01*
X107187019Y-82808596D01*
X107294196Y-82701420D01*
X107352200Y-82561386D01*
X107352200Y-81857850D01*
X107256950Y-81762600D01*
X106248200Y-81762600D01*
X106248200Y-81782600D01*
X105994200Y-81782600D01*
X105994200Y-81762600D01*
X104985450Y-81762600D01*
X104890200Y-81857850D01*
X104890200Y-82561386D01*
X104948204Y-82701420D01*
X105055381Y-82808596D01*
X105105606Y-82829400D01*
X103708202Y-82829400D01*
X103708202Y-82764228D01*
X103898180Y-82825089D01*
X104198164Y-82700845D01*
X104558852Y-82383656D01*
X104770701Y-81952582D01*
X104710393Y-81762600D01*
X103708200Y-81762600D01*
X103708200Y-81782600D01*
X103454200Y-81782600D01*
X103454200Y-81762600D01*
X103434200Y-81762600D01*
X103434200Y-81508600D01*
X103454200Y-81508600D01*
X103454200Y-81488600D01*
X103708200Y-81488600D01*
X103708200Y-81508600D01*
X104710393Y-81508600D01*
X104770701Y-81318618D01*
X104558852Y-80887544D01*
X104198164Y-80570355D01*
X104010427Y-80492600D01*
X105025385Y-80492600D01*
X104948204Y-80569780D01*
X104890200Y-80709814D01*
X104890200Y-81413350D01*
X104985450Y-81508600D01*
X105994200Y-81508600D01*
X105994200Y-81488600D01*
X106248200Y-81488600D01*
X106248200Y-81508600D01*
X107256950Y-81508600D01*
X107352200Y-81413350D01*
X107352200Y-80709814D01*
X107294196Y-80569780D01*
X107217015Y-80492600D01*
X107950000Y-80492600D01*
X107999410Y-80482594D01*
X108041035Y-80454153D01*
X108068315Y-80411759D01*
X108077000Y-80365600D01*
X108077000Y-72829665D01*
X108742082Y-72829665D01*
X108845539Y-73080052D01*
X109036941Y-73271787D01*
X109287146Y-73375682D01*
X109558065Y-73375918D01*
X109808452Y-73272461D01*
X110000187Y-73081059D01*
X110104082Y-72830854D01*
X110104318Y-72559935D01*
X110000861Y-72309548D01*
X109809459Y-72117813D01*
X109559254Y-72013918D01*
X109288335Y-72013682D01*
X109037948Y-72117139D01*
X108846213Y-72308541D01*
X108742318Y-72558746D01*
X108742082Y-72829665D01*
X108077000Y-72829665D01*
X108077000Y-58674000D01*
X111774883Y-58674000D01*
X111868587Y-59145083D01*
X112135435Y-59544448D01*
X112534800Y-59811296D01*
X113005883Y-59905000D01*
X113054117Y-59905000D01*
X113525200Y-59811296D01*
X113924565Y-59544448D01*
X114191413Y-59145083D01*
X114285117Y-58674000D01*
X114191413Y-58202917D01*
X113924565Y-57803552D01*
X113525200Y-57536704D01*
X113054117Y-57443000D01*
X113005883Y-57443000D01*
X112534800Y-57536704D01*
X112135435Y-57803552D01*
X111868587Y-58202917D01*
X111774883Y-58674000D01*
X108077000Y-58674000D01*
X108077000Y-58046865D01*
X108894482Y-58046865D01*
X108997939Y-58297252D01*
X109189341Y-58488987D01*
X109439546Y-58592882D01*
X109710465Y-58593118D01*
X109960852Y-58489661D01*
X110152587Y-58298259D01*
X110256482Y-58048054D01*
X110256718Y-57777135D01*
X110153261Y-57526748D01*
X109961859Y-57335013D01*
X109711654Y-57231118D01*
X109440735Y-57230882D01*
X109190348Y-57334339D01*
X108998613Y-57525741D01*
X108894718Y-57775946D01*
X108894482Y-58046865D01*
X108077000Y-58046865D01*
X108077000Y-56134000D01*
X111774883Y-56134000D01*
X111868587Y-56605083D01*
X112135435Y-57004448D01*
X112534800Y-57271296D01*
X113005883Y-57365000D01*
X113054117Y-57365000D01*
X113525200Y-57271296D01*
X113924565Y-57004448D01*
X114102089Y-56738765D01*
X114914282Y-56738765D01*
X115017739Y-56989152D01*
X115209141Y-57180887D01*
X115459346Y-57284782D01*
X115730265Y-57285018D01*
X115980652Y-57181561D01*
X116172387Y-56990159D01*
X116276282Y-56739954D01*
X116276518Y-56469035D01*
X116173061Y-56218648D01*
X115981659Y-56026913D01*
X115731454Y-55923018D01*
X115460535Y-55922782D01*
X115210148Y-56026239D01*
X115018413Y-56217641D01*
X114914518Y-56467846D01*
X114914282Y-56738765D01*
X114102089Y-56738765D01*
X114191413Y-56605083D01*
X114285117Y-56134000D01*
X114191413Y-55662917D01*
X113924565Y-55263552D01*
X113525200Y-54996704D01*
X113054117Y-54903000D01*
X113005883Y-54903000D01*
X112534800Y-54996704D01*
X112135435Y-55263552D01*
X111868587Y-55662917D01*
X111774883Y-56134000D01*
X108077000Y-56134000D01*
X108077000Y-53594000D01*
X111774883Y-53594000D01*
X111868587Y-54065083D01*
X112135435Y-54464448D01*
X112534800Y-54731296D01*
X113005883Y-54825000D01*
X113054117Y-54825000D01*
X113525200Y-54731296D01*
X113924565Y-54464448D01*
X114191413Y-54065083D01*
X114285117Y-53594000D01*
X114191413Y-53122917D01*
X113924565Y-52723552D01*
X113525200Y-52456704D01*
X113054117Y-52363000D01*
X113005883Y-52363000D01*
X112534800Y-52456704D01*
X112135435Y-52723552D01*
X111868587Y-53122917D01*
X111774883Y-53594000D01*
X108077000Y-53594000D01*
X108077000Y-52639877D01*
X110103398Y-51054000D01*
X111774883Y-51054000D01*
X111868587Y-51525083D01*
X112135435Y-51924448D01*
X112534800Y-52191296D01*
X113005883Y-52285000D01*
X113054117Y-52285000D01*
X113525200Y-52191296D01*
X113924565Y-51924448D01*
X114191413Y-51525083D01*
X114285117Y-51054000D01*
X114191413Y-50582917D01*
X114121086Y-50477665D01*
X114711082Y-50477665D01*
X114814539Y-50728052D01*
X115005941Y-50919787D01*
X115256146Y-51023682D01*
X115527065Y-51023918D01*
X115777452Y-50920461D01*
X115969187Y-50729059D01*
X116073082Y-50478854D01*
X116073318Y-50207935D01*
X115969861Y-49957548D01*
X115778459Y-49765813D01*
X115528254Y-49661918D01*
X115257335Y-49661682D01*
X115006948Y-49765139D01*
X114815213Y-49956541D01*
X114711318Y-50206746D01*
X114711082Y-50477665D01*
X114121086Y-50477665D01*
X113924565Y-50183552D01*
X113525200Y-49916704D01*
X113054117Y-49823000D01*
X113005883Y-49823000D01*
X112534800Y-49916704D01*
X112135435Y-50183552D01*
X111868587Y-50582917D01*
X111774883Y-51054000D01*
X110103398Y-51054000D01*
X112190069Y-49420954D01*
X112534800Y-49651296D01*
X113005883Y-49745000D01*
X113054117Y-49745000D01*
X113525200Y-49651296D01*
X113924565Y-49384448D01*
X114191413Y-48985083D01*
X114285117Y-48514000D01*
X114209332Y-48133000D01*
X116547548Y-48133000D01*
X117221000Y-48581968D01*
M02*
