G04 #@! TF.FileFunction,Soldermask,Bot*
%FSLAX46Y46*%
G04 Gerber Fmt 4.6, Leading zero omitted, Abs format (unit mm)*
G04 Created by KiCad (PCBNEW 4.0.0-stable) date Friday, August 18, 2017 'PMt' 03:24:48 PM*
%MOMM*%
G01*
G04 APERTURE LIST*
%ADD10C,0.100000*%
%ADD11C,3.600000*%
%ADD12R,2.100000X1.600000*%
%ADD13O,2.100000X1.600000*%
%ADD14R,2.100000X2.100000*%
%ADD15O,2.100000X2.100000*%
%ADD16R,1.924000X1.924000*%
%ADD17C,1.924000*%
%ADD18C,2.100000*%
G04 APERTURE END LIST*
D10*
D11*
X105156000Y-48615600D03*
X105206800Y-122123200D03*
X136499600Y-122123200D03*
X136448800Y-48615600D03*
D12*
X135636000Y-81280000D03*
D13*
X135636000Y-83280000D03*
D14*
X130302000Y-120548400D03*
X103733600Y-94589600D03*
D15*
X103733600Y-97129600D03*
X103733600Y-99669600D03*
X103733600Y-102209600D03*
D14*
X134315200Y-98653600D03*
X113030000Y-43434000D03*
D15*
X113030000Y-45974000D03*
X113030000Y-48514000D03*
X113030000Y-51054000D03*
X113030000Y-53594000D03*
X113030000Y-56134000D03*
X113030000Y-58674000D03*
X113030000Y-61214000D03*
X113030000Y-63754000D03*
X113030000Y-66294000D03*
X113030000Y-68834000D03*
X113030000Y-71374000D03*
X113030000Y-73914000D03*
X113030000Y-76454000D03*
X113030000Y-78994000D03*
X113030000Y-81534000D03*
X113030000Y-84074000D03*
X113030000Y-86614000D03*
X113030000Y-89154000D03*
X113030000Y-91694000D03*
X113030000Y-94234000D03*
X113030000Y-96774000D03*
X113030000Y-99314000D03*
X113030000Y-101854000D03*
D14*
X125730000Y-45974000D03*
X128270000Y-43434000D03*
D15*
X128270000Y-45974000D03*
X128270000Y-48514000D03*
X128270000Y-51054000D03*
X128270000Y-53594000D03*
X128270000Y-56134000D03*
X128270000Y-58674000D03*
X128270000Y-61214000D03*
X128270000Y-63754000D03*
X128270000Y-66294000D03*
X128270000Y-68834000D03*
X128270000Y-71374000D03*
X128270000Y-73914000D03*
X128270000Y-76454000D03*
X128270000Y-78994000D03*
X128270000Y-81534000D03*
X128270000Y-84074000D03*
X128270000Y-86614000D03*
X128270000Y-89154000D03*
X128270000Y-91694000D03*
X128270000Y-94234000D03*
X128270000Y-96774000D03*
X128270000Y-99314000D03*
X128270000Y-101854000D03*
D14*
X106121200Y-76555600D03*
D15*
X103581200Y-76555600D03*
D14*
X106121200Y-79095600D03*
D15*
X103581200Y-79095600D03*
D14*
X106121200Y-81635600D03*
D15*
X103581200Y-81635600D03*
D14*
X106121200Y-84175600D03*
D15*
X103581200Y-84175600D03*
D14*
X106121200Y-86715600D03*
D15*
X103581200Y-86715600D03*
D16*
X104241600Y-108915200D03*
D17*
X109321600Y-108915200D03*
X106781600Y-113995200D03*
D18*
X107645200Y-38648400D03*
X107645200Y-31648400D03*
X134264400Y-38648400D03*
X134264400Y-31648400D03*
M02*
