M48
;DRILL file {KiCad 4.0.0-stable} date Friday, August 18, 2017 'PMt' 03:24:54 PM
;FORMAT={-:-/ absolute / inch / decimal}
FMAT,2
INCH,TZ
T1C0.016
T2C0.030
T3C0.030
T4C0.039
%
G90
G05
M72
T1
X0.13Y2.42
X0.16Y2.58
X0.1615Y3.749
X0.275Y2.635
X0.308Y2.088
X0.314Y2.67
X0.3225Y0.441
X0.324Y0.094
X0.353Y0.2465
X0.357Y3.0395
X0.384Y0.99
X0.389Y0.2075
X0.421Y0.1705
X0.526Y0.7
X0.54Y2.548
X0.543Y2.968
X0.545Y2.435
X0.5485Y3.16
X0.5505Y3.1175
X0.551Y2.7215
X0.558Y1.136
X0.5705Y3.034
X0.576Y3.2175
X0.59Y0.878
X0.5905Y2.722
X0.5905Y0.9995
X0.609Y2.967
X0.6095Y2.2605
X0.6105Y2.6725
X0.612Y0.724
X0.613Y3.345
X0.624Y1.726
X0.638Y0.228
X0.6395Y3.0255
X0.645Y2.485
X0.645Y2.415
X0.646Y0.094
X0.65Y2.805
X0.659Y3.137
X0.6605Y2.0415
X0.6815Y2.6915
X0.684Y0.226
X0.6845Y1.626
X0.6975Y3.4885
X0.715Y3.459
X0.7166Y2.9574
X0.7166Y2.8826
X0.724Y3.145
X0.7305Y1.504
X0.7375Y3.112
X0.7375Y3.0785
X0.7595Y1.5895
X0.7765Y3.3785
X0.782Y0.22
X0.783Y3.4165
X0.7914Y2.9574
X0.7914Y2.8826
X0.8015Y2.618
X0.8025Y2.585
X0.8115Y0.922
X0.832Y2.478
X0.852Y1.24
X0.8545Y2.6995
X0.856Y3.021
X0.857Y1.941
X0.876Y3.1415
X0.881Y2.379
X0.9095Y1.8035
X0.9195Y2.742
X0.9205Y2.699
X0.9255Y2.999
X0.9305Y3.529
X0.935Y1.899
X0.936Y1.046
X0.94Y0.174
X0.9405Y2.9645
X0.942Y2.4815
X0.9535Y2.785
X0.9685Y1.0885
X0.9785Y2.8925
X0.979Y2.93
X0.99Y0.24
X0.994Y3.306
X0.996Y1.191
X0.9975Y2.603
X1.0625Y0.7425
X1.0975Y2.6915
X1.128Y0.986
X1.143Y3.5365
X1.192Y2.46
X1.199Y2.1755
X1.2Y2.908
X1.2055Y3.766
X1.226Y2.62
X1.26Y2.805
X1.282Y2.774
X1.282Y2.738
X1.282Y2.704
X1.336Y2.422
X1.404Y2.81
X1.427Y2.4775
X1.466Y2.332
T2
X1.34Y1.75
X1.34Y1.6713
T3
X0.104Y0.662
X0.204Y0.462
X0.304Y0.662
T4
X0.078Y1.936
X0.078Y1.836
X0.078Y1.736
X0.078Y1.636
X0.078Y1.536
X0.084Y1.226
X0.084Y1.126
X0.084Y1.026
X0.084Y0.926
X0.178Y1.936
X0.178Y1.836
X0.178Y1.736
X0.178Y1.636
X0.178Y1.536
X0.45Y3.24
X0.45Y3.14
X0.45Y3.04
X0.45Y2.94
X0.45Y2.84
X0.45Y2.74
X0.45Y2.64
X0.45Y2.54
X0.45Y2.44
X0.45Y2.34
X0.45Y2.24
X0.45Y2.14
X0.45Y2.04
X0.45Y1.94
X0.45Y1.84
X0.45Y1.74
X0.45Y1.64
X0.45Y1.54
X0.45Y1.44
X0.45Y1.34
X0.45Y1.24
X0.45Y1.14
X0.45Y1.04
X0.45Y0.94
X0.95Y3.14
X1.05Y3.24
X1.05Y3.14
X1.05Y3.04
X1.05Y2.94
X1.05Y2.84
X1.05Y2.74
X1.05Y2.64
X1.05Y2.54
X1.05Y2.44
X1.05Y2.34
X1.05Y2.24
X1.05Y2.14
X1.05Y2.04
X1.05Y1.94
X1.05Y1.84
X1.05Y1.74
X1.05Y1.64
X1.05Y1.54
X1.05Y1.44
X1.05Y1.34
X1.05Y1.24
X1.05Y1.14
X1.05Y1.04
X1.05Y0.94
X1.13Y0.204
X1.288Y1.066
T0
M30
