G04 #@! TF.FileFunction,Copper,L2,Inr,Signal*
%FSLAX46Y46*%
G04 Gerber Fmt 4.6, Leading zero omitted, Abs format (unit mm)*
G04 Created by KiCad (PCBNEW 4.0.0-stable) date Friday, August 18, 2017 'PMt' 03:24:48 PM*
%MOMM*%
G01*
G04 APERTURE LIST*
%ADD10C,0.100000*%
%ADD11R,1.700000X1.200000*%
%ADD12O,1.700000X1.200000*%
%ADD13R,1.700000X1.700000*%
%ADD14O,1.700000X1.700000*%
%ADD15R,1.524000X1.524000*%
%ADD16C,1.524000*%
%ADD17C,0.600000*%
%ADD18C,0.254000*%
G04 APERTURE END LIST*
D10*
D11*
X135636000Y-81280000D03*
D12*
X135636000Y-83280000D03*
D13*
X130302000Y-120548400D03*
X103733600Y-94589600D03*
D14*
X103733600Y-97129600D03*
X103733600Y-99669600D03*
X103733600Y-102209600D03*
D13*
X134315200Y-98653600D03*
X113030000Y-43434000D03*
D14*
X113030000Y-45974000D03*
X113030000Y-48514000D03*
X113030000Y-51054000D03*
X113030000Y-53594000D03*
X113030000Y-56134000D03*
X113030000Y-58674000D03*
X113030000Y-61214000D03*
X113030000Y-63754000D03*
X113030000Y-66294000D03*
X113030000Y-68834000D03*
X113030000Y-71374000D03*
X113030000Y-73914000D03*
X113030000Y-76454000D03*
X113030000Y-78994000D03*
X113030000Y-81534000D03*
X113030000Y-84074000D03*
X113030000Y-86614000D03*
X113030000Y-89154000D03*
X113030000Y-91694000D03*
X113030000Y-94234000D03*
X113030000Y-96774000D03*
X113030000Y-99314000D03*
X113030000Y-101854000D03*
D13*
X125730000Y-45974000D03*
X128270000Y-43434000D03*
D14*
X128270000Y-45974000D03*
X128270000Y-48514000D03*
X128270000Y-51054000D03*
X128270000Y-53594000D03*
X128270000Y-56134000D03*
X128270000Y-58674000D03*
X128270000Y-61214000D03*
X128270000Y-63754000D03*
X128270000Y-66294000D03*
X128270000Y-68834000D03*
X128270000Y-71374000D03*
X128270000Y-73914000D03*
X128270000Y-76454000D03*
X128270000Y-78994000D03*
X128270000Y-81534000D03*
X128270000Y-84074000D03*
X128270000Y-86614000D03*
X128270000Y-89154000D03*
X128270000Y-91694000D03*
X128270000Y-94234000D03*
X128270000Y-96774000D03*
X128270000Y-99314000D03*
X128270000Y-101854000D03*
D13*
X106121200Y-76555600D03*
D14*
X103581200Y-76555600D03*
D13*
X106121200Y-79095600D03*
D14*
X103581200Y-79095600D03*
D13*
X106121200Y-81635600D03*
D14*
X103581200Y-81635600D03*
D13*
X106121200Y-84175600D03*
D14*
X103581200Y-84175600D03*
D13*
X106121200Y-86715600D03*
D14*
X103581200Y-86715600D03*
D15*
X104241600Y-108915200D03*
D16*
X109321600Y-108915200D03*
X106781600Y-113995200D03*
D17*
X132219700Y-30073600D03*
X119989600Y-45847000D03*
X132054600Y-70472300D03*
X137845800Y-62801500D03*
X109791500Y-114528600D03*
X116598700Y-100342700D03*
X119801600Y-52512000D03*
X121701600Y-52512000D03*
X121701600Y-50612000D03*
X119801600Y-50612000D03*
X122732800Y-62788800D03*
X109575600Y-57912000D03*
X115595400Y-56603900D03*
X115392200Y-50342800D03*
X105702100Y-30505400D03*
X130632200Y-35902900D03*
X121488200Y-38950900D03*
X123850400Y-45935900D03*
X115531900Y-45466000D03*
X124980700Y-57175400D03*
X128587500Y-106870500D03*
X114960400Y-107950000D03*
X109829600Y-123342400D03*
X118008400Y-123342400D03*
X125476000Y-121310400D03*
X131876800Y-63246000D03*
X135534400Y-64211200D03*
X134162800Y-57048400D03*
X134162800Y-55270400D03*
X134162800Y-56184800D03*
X117983000Y-64389000D03*
X118110000Y-54483000D03*
X124955300Y-56083200D03*
X125526800Y-62699900D03*
X117144800Y-107340400D03*
X116586000Y-103428800D03*
X115582700Y-46545500D03*
X117983000Y-62611000D03*
X115443000Y-63881000D03*
X105664000Y-60198000D03*
X116598700Y-56591200D03*
X116090700Y-48666400D03*
X118338600Y-46050200D03*
X123977400Y-65303400D03*
X133604000Y-54483000D03*
X137261600Y-54356000D03*
X115316000Y-61010800D03*
X108585000Y-58801000D03*
X109423200Y-72694800D03*
X138836400Y-66497200D03*
X121323100Y-39916100D03*
X123342400Y-48996600D03*
X121958100Y-59232800D03*
X104902000Y-64262000D03*
X130251200Y-100685600D03*
X125234700Y-36093400D03*
X132080000Y-51866800D03*
X126847600Y-41757600D03*
X132740400Y-59182000D03*
X126466600Y-51308000D03*
X126898400Y-95478600D03*
X126199900Y-98082100D03*
X125818900Y-54991000D03*
X111480600Y-120459500D03*
X110566200Y-119468900D03*
X110667800Y-48526700D03*
X111353600Y-100584000D03*
X125374400Y-99161600D03*
X126746000Y-119634000D03*
X122212100Y-102311200D03*
X121983500Y-60071000D03*
X117081300Y-68313300D03*
X117106700Y-57848500D03*
X118376700Y-73875900D03*
X118910100Y-57365900D03*
X117805200Y-119938800D03*
X117449600Y-81889600D03*
X118986300Y-84429600D03*
X118973600Y-119989600D03*
X129476500Y-57365900D03*
X126936500Y-59613800D03*
X126453900Y-52260500D03*
X123367800Y-76428600D03*
X123304300Y-57162700D03*
X121462800Y-120142000D03*
X123240800Y-94234000D03*
X112293400Y-121399300D03*
X115773200Y-96875600D03*
X125349000Y-77495400D03*
X125488700Y-50431700D03*
X124701300Y-79921100D03*
X125107700Y-49555400D03*
X120332500Y-47536100D03*
X120891300Y-85356700D03*
X120332500Y-46685200D03*
X120154700Y-87528400D03*
X117843300Y-48882300D03*
X119761000Y-37871400D03*
X117068600Y-50368200D03*
X119316500Y-37122100D03*
X117170200Y-40767000D03*
X116230400Y-44005500D03*
D18*
G36*
X139599600Y-86818400D02*
X132384800Y-86818400D01*
X132210296Y-86853111D01*
X132062359Y-86951959D01*
X131963511Y-87099896D01*
X131928800Y-87274400D01*
X131928800Y-94996000D01*
X131963511Y-95170504D01*
X132062359Y-95318441D01*
X132210296Y-95417289D01*
X132384800Y-95452000D01*
X137541000Y-95452000D01*
X137541000Y-100521886D01*
X133018030Y-104039752D01*
X132985171Y-104077985D01*
X132969000Y-104140000D01*
X132969000Y-125274000D01*
X102056000Y-125274000D01*
X102056000Y-122515516D01*
X103225457Y-122515516D01*
X103526411Y-123243880D01*
X104083189Y-123801631D01*
X104811026Y-124103855D01*
X105599116Y-124104543D01*
X106327480Y-123803589D01*
X106885231Y-123246811D01*
X107187455Y-122518974D01*
X107188143Y-121730884D01*
X106887189Y-121002520D01*
X106330411Y-120444769D01*
X105602574Y-120142545D01*
X104814484Y-120141857D01*
X104086120Y-120442811D01*
X103528369Y-120999589D01*
X103226145Y-121727426D01*
X103225457Y-122515516D01*
X102056000Y-122515516D01*
X102056000Y-119603765D01*
X109885082Y-119603765D01*
X109988539Y-119854152D01*
X110179941Y-120045887D01*
X110430146Y-120149782D01*
X110701065Y-120150018D01*
X110915429Y-120061445D01*
X110903613Y-120073241D01*
X110799718Y-120323446D01*
X110799482Y-120594365D01*
X110902939Y-120844752D01*
X111094341Y-121036487D01*
X111344546Y-121140382D01*
X111615465Y-121140618D01*
X111673373Y-121116691D01*
X111612518Y-121263246D01*
X111612282Y-121534165D01*
X111715739Y-121784552D01*
X111907141Y-121976287D01*
X112157346Y-122080182D01*
X112428265Y-122080418D01*
X112678652Y-121976961D01*
X112870387Y-121785559D01*
X112974282Y-121535354D01*
X112974518Y-121264435D01*
X112871061Y-121014048D01*
X112679659Y-120822313D01*
X112429454Y-120718418D01*
X112158535Y-120718182D01*
X112100627Y-120742109D01*
X112161482Y-120595554D01*
X112161718Y-120324635D01*
X112058261Y-120074248D01*
X112057680Y-120073665D01*
X117124082Y-120073665D01*
X117227539Y-120324052D01*
X117418941Y-120515787D01*
X117669146Y-120619682D01*
X117940065Y-120619918D01*
X118190452Y-120516461D01*
X118377357Y-120329880D01*
X118395939Y-120374852D01*
X118587341Y-120566587D01*
X118837546Y-120670482D01*
X119108465Y-120670718D01*
X119358852Y-120567261D01*
X119550587Y-120375859D01*
X119591693Y-120276865D01*
X120781682Y-120276865D01*
X120885139Y-120527252D01*
X121076541Y-120718987D01*
X121326746Y-120822882D01*
X121597665Y-120823118D01*
X121848052Y-120719661D01*
X122039787Y-120528259D01*
X122143682Y-120278054D01*
X122143918Y-120007135D01*
X122045468Y-119768865D01*
X126064882Y-119768865D01*
X126168339Y-120019252D01*
X126359741Y-120210987D01*
X126609946Y-120314882D01*
X126880865Y-120315118D01*
X127131252Y-120211661D01*
X127322987Y-120020259D01*
X127426882Y-119770054D01*
X127426944Y-119698400D01*
X129063536Y-119698400D01*
X129063536Y-121398400D01*
X129090103Y-121539590D01*
X129173546Y-121669265D01*
X129300866Y-121756259D01*
X129452000Y-121786864D01*
X131152000Y-121786864D01*
X131293190Y-121760297D01*
X131422865Y-121676854D01*
X131509859Y-121549534D01*
X131540464Y-121398400D01*
X131540464Y-119698400D01*
X131513897Y-119557210D01*
X131430454Y-119427535D01*
X131303134Y-119340541D01*
X131152000Y-119309936D01*
X129452000Y-119309936D01*
X129310810Y-119336503D01*
X129181135Y-119419946D01*
X129094141Y-119547266D01*
X129063536Y-119698400D01*
X127426944Y-119698400D01*
X127427118Y-119499135D01*
X127323661Y-119248748D01*
X127132259Y-119057013D01*
X126882054Y-118953118D01*
X126611135Y-118952882D01*
X126360748Y-119056339D01*
X126169013Y-119247741D01*
X126065118Y-119497946D01*
X126064882Y-119768865D01*
X122045468Y-119768865D01*
X122040461Y-119756748D01*
X121849059Y-119565013D01*
X121598854Y-119461118D01*
X121327935Y-119460882D01*
X121077548Y-119564339D01*
X120885813Y-119755741D01*
X120781918Y-120005946D01*
X120781682Y-120276865D01*
X119591693Y-120276865D01*
X119654482Y-120125654D01*
X119654718Y-119854735D01*
X119551261Y-119604348D01*
X119359859Y-119412613D01*
X119109654Y-119308718D01*
X118838735Y-119308482D01*
X118588348Y-119411939D01*
X118401443Y-119598520D01*
X118382861Y-119553548D01*
X118191459Y-119361813D01*
X117941254Y-119257918D01*
X117670335Y-119257682D01*
X117419948Y-119361139D01*
X117228213Y-119552541D01*
X117124318Y-119802746D01*
X117124082Y-120073665D01*
X112057680Y-120073665D01*
X111866859Y-119882513D01*
X111616654Y-119778618D01*
X111345735Y-119778382D01*
X111131371Y-119866955D01*
X111143187Y-119855159D01*
X111247082Y-119604954D01*
X111247318Y-119334035D01*
X111143861Y-119083648D01*
X110952459Y-118891913D01*
X110702254Y-118788018D01*
X110431335Y-118787782D01*
X110180948Y-118891239D01*
X109989213Y-119082641D01*
X109885318Y-119332846D01*
X109885082Y-119603765D01*
X102056000Y-119603765D01*
X102056000Y-114221559D01*
X105638402Y-114221559D01*
X105812046Y-114641812D01*
X106133297Y-114963623D01*
X106553246Y-115138001D01*
X107007959Y-115138398D01*
X107428212Y-114964754D01*
X107750023Y-114643503D01*
X107924401Y-114223554D01*
X107924798Y-113768841D01*
X107751154Y-113348588D01*
X107429903Y-113026777D01*
X107009954Y-112852399D01*
X106555241Y-112852002D01*
X106134988Y-113025646D01*
X105813177Y-113346897D01*
X105638799Y-113766846D01*
X105638402Y-114221559D01*
X102056000Y-114221559D01*
X102056000Y-109137450D01*
X103098600Y-109137450D01*
X103098600Y-109752985D01*
X103156604Y-109893019D01*
X103263780Y-110000196D01*
X103403814Y-110058200D01*
X104019350Y-110058200D01*
X104114600Y-109962950D01*
X104114600Y-109042200D01*
X104368600Y-109042200D01*
X104368600Y-109962950D01*
X104463850Y-110058200D01*
X105079386Y-110058200D01*
X105219420Y-110000196D01*
X105326596Y-109893019D01*
X105384600Y-109752985D01*
X105384600Y-109141559D01*
X108178402Y-109141559D01*
X108352046Y-109561812D01*
X108673297Y-109883623D01*
X109093246Y-110058001D01*
X109547959Y-110058398D01*
X109968212Y-109884754D01*
X110290023Y-109563503D01*
X110464401Y-109143554D01*
X110464798Y-108688841D01*
X110291154Y-108268588D01*
X109969903Y-107946777D01*
X109549954Y-107772399D01*
X109095241Y-107772002D01*
X108674988Y-107945646D01*
X108353177Y-108266897D01*
X108178799Y-108686846D01*
X108178402Y-109141559D01*
X105384600Y-109141559D01*
X105384600Y-109137450D01*
X105289350Y-109042200D01*
X104368600Y-109042200D01*
X104114600Y-109042200D01*
X103193850Y-109042200D01*
X103098600Y-109137450D01*
X102056000Y-109137450D01*
X102056000Y-108077415D01*
X103098600Y-108077415D01*
X103098600Y-108692950D01*
X103193850Y-108788200D01*
X104114600Y-108788200D01*
X104114600Y-107867450D01*
X104368600Y-107867450D01*
X104368600Y-108788200D01*
X105289350Y-108788200D01*
X105384600Y-108692950D01*
X105384600Y-108077415D01*
X105326596Y-107937381D01*
X105219420Y-107830204D01*
X105079386Y-107772200D01*
X104463850Y-107772200D01*
X104368600Y-107867450D01*
X104114600Y-107867450D01*
X104019350Y-107772200D01*
X103403814Y-107772200D01*
X103263780Y-107830204D01*
X103156604Y-107937381D01*
X103098600Y-108077415D01*
X102056000Y-108077415D01*
X102056000Y-107475265D01*
X116463682Y-107475265D01*
X116567139Y-107725652D01*
X116758541Y-107917387D01*
X117008746Y-108021282D01*
X117279665Y-108021518D01*
X117530052Y-107918061D01*
X117721787Y-107726659D01*
X117825682Y-107476454D01*
X117825918Y-107205535D01*
X117722461Y-106955148D01*
X117531059Y-106763413D01*
X117280854Y-106659518D01*
X117009935Y-106659282D01*
X116759548Y-106762739D01*
X116567813Y-106954141D01*
X116463918Y-107204346D01*
X116463682Y-107475265D01*
X102056000Y-107475265D01*
X102056000Y-103563665D01*
X115904882Y-103563665D01*
X116008339Y-103814052D01*
X116199741Y-104005787D01*
X116449946Y-104109682D01*
X116720865Y-104109918D01*
X116971252Y-104006461D01*
X117162987Y-103815059D01*
X117266882Y-103564854D01*
X117267118Y-103293935D01*
X117163661Y-103043548D01*
X116972259Y-102851813D01*
X116722054Y-102747918D01*
X116451135Y-102747682D01*
X116200748Y-102851139D01*
X116009013Y-103042541D01*
X115905118Y-103292746D01*
X115904882Y-103563665D01*
X102056000Y-103563665D01*
X102056000Y-102526580D01*
X102544111Y-102526580D01*
X102668355Y-102826564D01*
X102985544Y-103187252D01*
X103416618Y-103399101D01*
X103606600Y-103338793D01*
X103606600Y-102336600D01*
X103860600Y-102336600D01*
X103860600Y-103338793D01*
X104050582Y-103399101D01*
X104481656Y-103187252D01*
X104798845Y-102826564D01*
X104923089Y-102526580D01*
X104862227Y-102336600D01*
X103860600Y-102336600D01*
X103606600Y-102336600D01*
X102604973Y-102336600D01*
X102544111Y-102526580D01*
X102056000Y-102526580D01*
X102056000Y-101892620D01*
X102544111Y-101892620D01*
X102604973Y-102082600D01*
X103606600Y-102082600D01*
X103606600Y-101080407D01*
X103860600Y-101080407D01*
X103860600Y-102082600D01*
X104862227Y-102082600D01*
X104923089Y-101892620D01*
X104907094Y-101854000D01*
X111774883Y-101854000D01*
X111868587Y-102325083D01*
X112135435Y-102724448D01*
X112534800Y-102991296D01*
X113005883Y-103085000D01*
X113054117Y-103085000D01*
X113525200Y-102991296D01*
X113924565Y-102724448D01*
X114110575Y-102446065D01*
X121530982Y-102446065D01*
X121634439Y-102696452D01*
X121825841Y-102888187D01*
X122076046Y-102992082D01*
X122346965Y-102992318D01*
X122597352Y-102888861D01*
X122789087Y-102697459D01*
X122892982Y-102447254D01*
X122893218Y-102176335D01*
X122789761Y-101925948D01*
X122717938Y-101854000D01*
X127014883Y-101854000D01*
X127108587Y-102325083D01*
X127375435Y-102724448D01*
X127774800Y-102991296D01*
X128245883Y-103085000D01*
X128294117Y-103085000D01*
X128765200Y-102991296D01*
X129164565Y-102724448D01*
X129431413Y-102325083D01*
X129525117Y-101854000D01*
X129431413Y-101382917D01*
X129164565Y-100983552D01*
X128920489Y-100820465D01*
X129570082Y-100820465D01*
X129673539Y-101070852D01*
X129864941Y-101262587D01*
X130115146Y-101366482D01*
X130386065Y-101366718D01*
X130636452Y-101263261D01*
X130828187Y-101071859D01*
X130932082Y-100821654D01*
X130932318Y-100550735D01*
X130828861Y-100300348D01*
X130637459Y-100108613D01*
X130387254Y-100004718D01*
X130116335Y-100004482D01*
X129865948Y-100107939D01*
X129674213Y-100299341D01*
X129570318Y-100549546D01*
X129570082Y-100820465D01*
X128920489Y-100820465D01*
X128765200Y-100716704D01*
X128294117Y-100623000D01*
X128245883Y-100623000D01*
X127774800Y-100716704D01*
X127375435Y-100983552D01*
X127108587Y-101382917D01*
X127014883Y-101854000D01*
X122717938Y-101854000D01*
X122598359Y-101734213D01*
X122348154Y-101630318D01*
X122077235Y-101630082D01*
X121826848Y-101733539D01*
X121635113Y-101924941D01*
X121531218Y-102175146D01*
X121530982Y-102446065D01*
X114110575Y-102446065D01*
X114191413Y-102325083D01*
X114285117Y-101854000D01*
X114191413Y-101382917D01*
X113924565Y-100983552D01*
X113525200Y-100716704D01*
X113054117Y-100623000D01*
X113005883Y-100623000D01*
X112534800Y-100716704D01*
X112135435Y-100983552D01*
X111868587Y-101382917D01*
X111774883Y-101854000D01*
X104907094Y-101854000D01*
X104798845Y-101592636D01*
X104481656Y-101231948D01*
X104050582Y-101020099D01*
X103860600Y-101080407D01*
X103606600Y-101080407D01*
X103416618Y-101020099D01*
X102985544Y-101231948D01*
X102668355Y-101592636D01*
X102544111Y-101892620D01*
X102056000Y-101892620D01*
X102056000Y-99669600D01*
X102478483Y-99669600D01*
X102572187Y-100140683D01*
X102839035Y-100540048D01*
X103238400Y-100806896D01*
X103709483Y-100900600D01*
X103757717Y-100900600D01*
X104228800Y-100806896D01*
X104360547Y-100718865D01*
X110672482Y-100718865D01*
X110775939Y-100969252D01*
X110967341Y-101160987D01*
X111217546Y-101264882D01*
X111488465Y-101265118D01*
X111738852Y-101161661D01*
X111930587Y-100970259D01*
X112034482Y-100720054D01*
X112034718Y-100449135D01*
X111931261Y-100198748D01*
X111739859Y-100007013D01*
X111489654Y-99903118D01*
X111218735Y-99902882D01*
X110968348Y-100006339D01*
X110776613Y-100197741D01*
X110672718Y-100447946D01*
X110672482Y-100718865D01*
X104360547Y-100718865D01*
X104628165Y-100540048D01*
X104895013Y-100140683D01*
X104988717Y-99669600D01*
X104917984Y-99314000D01*
X111774883Y-99314000D01*
X111868587Y-99785083D01*
X112135435Y-100184448D01*
X112534800Y-100451296D01*
X113005883Y-100545000D01*
X113054117Y-100545000D01*
X113525200Y-100451296D01*
X113924565Y-100184448D01*
X114191413Y-99785083D01*
X114285117Y-99314000D01*
X114281630Y-99296465D01*
X124693282Y-99296465D01*
X124796739Y-99546852D01*
X124988141Y-99738587D01*
X125238346Y-99842482D01*
X125509265Y-99842718D01*
X125759652Y-99739261D01*
X125951387Y-99547859D01*
X126048494Y-99314000D01*
X127014883Y-99314000D01*
X127108587Y-99785083D01*
X127375435Y-100184448D01*
X127774800Y-100451296D01*
X128245883Y-100545000D01*
X128294117Y-100545000D01*
X128765200Y-100451296D01*
X129164565Y-100184448D01*
X129431413Y-99785083D01*
X129525117Y-99314000D01*
X129437964Y-98875850D01*
X133084200Y-98875850D01*
X133084200Y-99579385D01*
X133142204Y-99719419D01*
X133249380Y-99826596D01*
X133389414Y-99884600D01*
X134092950Y-99884600D01*
X134188200Y-99789350D01*
X134188200Y-98780600D01*
X134442200Y-98780600D01*
X134442200Y-99789350D01*
X134537450Y-99884600D01*
X135240986Y-99884600D01*
X135381020Y-99826596D01*
X135488196Y-99719419D01*
X135546200Y-99579385D01*
X135546200Y-98875850D01*
X135450950Y-98780600D01*
X134442200Y-98780600D01*
X134188200Y-98780600D01*
X133179450Y-98780600D01*
X133084200Y-98875850D01*
X129437964Y-98875850D01*
X129431413Y-98842917D01*
X129164565Y-98443552D01*
X128765200Y-98176704D01*
X128294117Y-98083000D01*
X128245883Y-98083000D01*
X127774800Y-98176704D01*
X127375435Y-98443552D01*
X127108587Y-98842917D01*
X127014883Y-99314000D01*
X126048494Y-99314000D01*
X126055282Y-99297654D01*
X126055518Y-99026735D01*
X125952061Y-98776348D01*
X125850128Y-98674238D01*
X126063846Y-98762982D01*
X126334765Y-98763218D01*
X126585152Y-98659761D01*
X126776887Y-98468359D01*
X126880782Y-98218154D01*
X126881018Y-97947235D01*
X126777561Y-97696848D01*
X126586159Y-97505113D01*
X126335954Y-97401218D01*
X126065035Y-97400982D01*
X125814648Y-97504439D01*
X125622913Y-97695841D01*
X125519018Y-97946046D01*
X125518782Y-98216965D01*
X125622239Y-98467352D01*
X125724172Y-98569462D01*
X125510454Y-98480718D01*
X125239535Y-98480482D01*
X124989148Y-98583939D01*
X124797413Y-98775341D01*
X124693518Y-99025546D01*
X124693282Y-99296465D01*
X114281630Y-99296465D01*
X114191413Y-98842917D01*
X113924565Y-98443552D01*
X113525200Y-98176704D01*
X113054117Y-98083000D01*
X113005883Y-98083000D01*
X112534800Y-98176704D01*
X112135435Y-98443552D01*
X111868587Y-98842917D01*
X111774883Y-99314000D01*
X104917984Y-99314000D01*
X104895013Y-99198517D01*
X104628165Y-98799152D01*
X104228800Y-98532304D01*
X103757717Y-98438600D01*
X103709483Y-98438600D01*
X103238400Y-98532304D01*
X102839035Y-98799152D01*
X102572187Y-99198517D01*
X102478483Y-99669600D01*
X102056000Y-99669600D01*
X102056000Y-97129600D01*
X102478483Y-97129600D01*
X102572187Y-97600683D01*
X102839035Y-98000048D01*
X103238400Y-98266896D01*
X103709483Y-98360600D01*
X103757717Y-98360600D01*
X104228800Y-98266896D01*
X104628165Y-98000048D01*
X104895013Y-97600683D01*
X104988717Y-97129600D01*
X104917984Y-96774000D01*
X111774883Y-96774000D01*
X111868587Y-97245083D01*
X112135435Y-97644448D01*
X112534800Y-97911296D01*
X113005883Y-98005000D01*
X113054117Y-98005000D01*
X113525200Y-97911296D01*
X113924565Y-97644448D01*
X114191413Y-97245083D01*
X114238081Y-97010465D01*
X115092082Y-97010465D01*
X115195539Y-97260852D01*
X115386941Y-97452587D01*
X115637146Y-97556482D01*
X115908065Y-97556718D01*
X116158452Y-97453261D01*
X116350187Y-97261859D01*
X116454082Y-97011654D01*
X116454318Y-96740735D01*
X116350861Y-96490348D01*
X116159459Y-96298613D01*
X115909254Y-96194718D01*
X115638335Y-96194482D01*
X115387948Y-96297939D01*
X115196213Y-96489341D01*
X115092318Y-96739546D01*
X115092082Y-97010465D01*
X114238081Y-97010465D01*
X114285117Y-96774000D01*
X114191413Y-96302917D01*
X113924565Y-95903552D01*
X113525200Y-95636704D01*
X113408370Y-95613465D01*
X126217282Y-95613465D01*
X126320739Y-95863852D01*
X126512141Y-96055587D01*
X126762346Y-96159482D01*
X127033265Y-96159718D01*
X127269487Y-96062114D01*
X127108587Y-96302917D01*
X127014883Y-96774000D01*
X127108587Y-97245083D01*
X127375435Y-97644448D01*
X127774800Y-97911296D01*
X128245883Y-98005000D01*
X128294117Y-98005000D01*
X128765200Y-97911296D01*
X129039797Y-97727815D01*
X133084200Y-97727815D01*
X133084200Y-98431350D01*
X133179450Y-98526600D01*
X134188200Y-98526600D01*
X134188200Y-97517850D01*
X134442200Y-97517850D01*
X134442200Y-98526600D01*
X135450950Y-98526600D01*
X135546200Y-98431350D01*
X135546200Y-97727815D01*
X135488196Y-97587781D01*
X135381020Y-97480604D01*
X135240986Y-97422600D01*
X134537450Y-97422600D01*
X134442200Y-97517850D01*
X134188200Y-97517850D01*
X134092950Y-97422600D01*
X133389414Y-97422600D01*
X133249380Y-97480604D01*
X133142204Y-97587781D01*
X133084200Y-97727815D01*
X129039797Y-97727815D01*
X129164565Y-97644448D01*
X129431413Y-97245083D01*
X129525117Y-96774000D01*
X129431413Y-96302917D01*
X129164565Y-95903552D01*
X128765200Y-95636704D01*
X128294117Y-95543000D01*
X128245883Y-95543000D01*
X127774800Y-95636704D01*
X127491532Y-95825978D01*
X127579282Y-95614654D01*
X127579518Y-95343735D01*
X127520773Y-95201560D01*
X127774800Y-95371296D01*
X128245883Y-95465000D01*
X128294117Y-95465000D01*
X128765200Y-95371296D01*
X129164565Y-95104448D01*
X129431413Y-94705083D01*
X129525117Y-94234000D01*
X129431413Y-93762917D01*
X129164565Y-93363552D01*
X128765200Y-93096704D01*
X128294117Y-93003000D01*
X128245883Y-93003000D01*
X127774800Y-93096704D01*
X127375435Y-93363552D01*
X127108587Y-93762917D01*
X127014883Y-94234000D01*
X127108587Y-94705083D01*
X127222719Y-94875893D01*
X127034454Y-94797718D01*
X126763535Y-94797482D01*
X126513148Y-94900939D01*
X126321413Y-95092341D01*
X126217518Y-95342546D01*
X126217282Y-95613465D01*
X113408370Y-95613465D01*
X113054117Y-95543000D01*
X113005883Y-95543000D01*
X112534800Y-95636704D01*
X112135435Y-95903552D01*
X111868587Y-96302917D01*
X111774883Y-96774000D01*
X104917984Y-96774000D01*
X104895013Y-96658517D01*
X104628165Y-96259152D01*
X104228800Y-95992304D01*
X103757717Y-95898600D01*
X103709483Y-95898600D01*
X103238400Y-95992304D01*
X102839035Y-96259152D01*
X102572187Y-96658517D01*
X102478483Y-97129600D01*
X102056000Y-97129600D01*
X102056000Y-93739600D01*
X102495136Y-93739600D01*
X102495136Y-95439600D01*
X102521703Y-95580790D01*
X102605146Y-95710465D01*
X102732466Y-95797459D01*
X102883600Y-95828064D01*
X104583600Y-95828064D01*
X104724790Y-95801497D01*
X104854465Y-95718054D01*
X104941459Y-95590734D01*
X104972064Y-95439600D01*
X104972064Y-94234000D01*
X111774883Y-94234000D01*
X111868587Y-94705083D01*
X112135435Y-95104448D01*
X112534800Y-95371296D01*
X113005883Y-95465000D01*
X113054117Y-95465000D01*
X113525200Y-95371296D01*
X113924565Y-95104448D01*
X114191413Y-94705083D01*
X114258290Y-94368865D01*
X122559682Y-94368865D01*
X122663139Y-94619252D01*
X122854541Y-94810987D01*
X123104746Y-94914882D01*
X123375665Y-94915118D01*
X123626052Y-94811661D01*
X123817787Y-94620259D01*
X123921682Y-94370054D01*
X123921918Y-94099135D01*
X123818461Y-93848748D01*
X123627059Y-93657013D01*
X123376854Y-93553118D01*
X123105935Y-93552882D01*
X122855548Y-93656339D01*
X122663813Y-93847741D01*
X122559918Y-94097946D01*
X122559682Y-94368865D01*
X114258290Y-94368865D01*
X114285117Y-94234000D01*
X114191413Y-93762917D01*
X113924565Y-93363552D01*
X113525200Y-93096704D01*
X113054117Y-93003000D01*
X113005883Y-93003000D01*
X112534800Y-93096704D01*
X112135435Y-93363552D01*
X111868587Y-93762917D01*
X111774883Y-94234000D01*
X104972064Y-94234000D01*
X104972064Y-93739600D01*
X104945497Y-93598410D01*
X104862054Y-93468735D01*
X104734734Y-93381741D01*
X104583600Y-93351136D01*
X102883600Y-93351136D01*
X102742410Y-93377703D01*
X102612735Y-93461146D01*
X102525741Y-93588466D01*
X102495136Y-93739600D01*
X102056000Y-93739600D01*
X102056000Y-91694000D01*
X111774883Y-91694000D01*
X111868587Y-92165083D01*
X112135435Y-92564448D01*
X112534800Y-92831296D01*
X113005883Y-92925000D01*
X113054117Y-92925000D01*
X113525200Y-92831296D01*
X113924565Y-92564448D01*
X114191413Y-92165083D01*
X114285117Y-91694000D01*
X127014883Y-91694000D01*
X127108587Y-92165083D01*
X127375435Y-92564448D01*
X127774800Y-92831296D01*
X128245883Y-92925000D01*
X128294117Y-92925000D01*
X128765200Y-92831296D01*
X129164565Y-92564448D01*
X129431413Y-92165083D01*
X129525117Y-91694000D01*
X129431413Y-91222917D01*
X129164565Y-90823552D01*
X128765200Y-90556704D01*
X128294117Y-90463000D01*
X128245883Y-90463000D01*
X127774800Y-90556704D01*
X127375435Y-90823552D01*
X127108587Y-91222917D01*
X127014883Y-91694000D01*
X114285117Y-91694000D01*
X114191413Y-91222917D01*
X113924565Y-90823552D01*
X113525200Y-90556704D01*
X113054117Y-90463000D01*
X113005883Y-90463000D01*
X112534800Y-90556704D01*
X112135435Y-90823552D01*
X111868587Y-91222917D01*
X111774883Y-91694000D01*
X102056000Y-91694000D01*
X102056000Y-89154000D01*
X111774883Y-89154000D01*
X111868587Y-89625083D01*
X112135435Y-90024448D01*
X112534800Y-90291296D01*
X113005883Y-90385000D01*
X113054117Y-90385000D01*
X113525200Y-90291296D01*
X113924565Y-90024448D01*
X114191413Y-89625083D01*
X114285117Y-89154000D01*
X127014883Y-89154000D01*
X127108587Y-89625083D01*
X127375435Y-90024448D01*
X127774800Y-90291296D01*
X128245883Y-90385000D01*
X128294117Y-90385000D01*
X128765200Y-90291296D01*
X129164565Y-90024448D01*
X129431413Y-89625083D01*
X129525117Y-89154000D01*
X129431413Y-88682917D01*
X129164565Y-88283552D01*
X128765200Y-88016704D01*
X128294117Y-87923000D01*
X128245883Y-87923000D01*
X127774800Y-88016704D01*
X127375435Y-88283552D01*
X127108587Y-88682917D01*
X127014883Y-89154000D01*
X114285117Y-89154000D01*
X114191413Y-88682917D01*
X113924565Y-88283552D01*
X113525200Y-88016704D01*
X113054117Y-87923000D01*
X113005883Y-87923000D01*
X112534800Y-88016704D01*
X112135435Y-88283552D01*
X111868587Y-88682917D01*
X111774883Y-89154000D01*
X102056000Y-89154000D01*
X102056000Y-87032582D01*
X102391699Y-87032582D01*
X102603548Y-87463656D01*
X102964236Y-87780845D01*
X103264220Y-87905089D01*
X103454200Y-87844227D01*
X103454200Y-86842600D01*
X103708200Y-86842600D01*
X103708200Y-87844227D01*
X103898180Y-87905089D01*
X104198164Y-87780845D01*
X104558852Y-87463656D01*
X104770701Y-87032582D01*
X104710393Y-86842600D01*
X103708200Y-86842600D01*
X103454200Y-86842600D01*
X102452007Y-86842600D01*
X102391699Y-87032582D01*
X102056000Y-87032582D01*
X102056000Y-86398618D01*
X102391699Y-86398618D01*
X102452007Y-86588600D01*
X103454200Y-86588600D01*
X103454200Y-85586973D01*
X103708200Y-85586973D01*
X103708200Y-86588600D01*
X104710393Y-86588600D01*
X104770701Y-86398618D01*
X104558852Y-85967544D01*
X104442928Y-85865600D01*
X104882736Y-85865600D01*
X104882736Y-87565600D01*
X104909303Y-87706790D01*
X104992746Y-87836465D01*
X105120066Y-87923459D01*
X105271200Y-87954064D01*
X106971200Y-87954064D01*
X107112390Y-87927497D01*
X107242065Y-87844054D01*
X107329059Y-87716734D01*
X107359664Y-87565600D01*
X107359664Y-86614000D01*
X111774883Y-86614000D01*
X111868587Y-87085083D01*
X112135435Y-87484448D01*
X112534800Y-87751296D01*
X113005883Y-87845000D01*
X113054117Y-87845000D01*
X113525200Y-87751296D01*
X113656947Y-87663265D01*
X119473582Y-87663265D01*
X119577039Y-87913652D01*
X119768441Y-88105387D01*
X120018646Y-88209282D01*
X120289565Y-88209518D01*
X120539952Y-88106061D01*
X120731687Y-87914659D01*
X120835582Y-87664454D01*
X120835818Y-87393535D01*
X120732361Y-87143148D01*
X120540959Y-86951413D01*
X120290754Y-86847518D01*
X120019835Y-86847282D01*
X119769448Y-86950739D01*
X119577713Y-87142141D01*
X119473818Y-87392346D01*
X119473582Y-87663265D01*
X113656947Y-87663265D01*
X113924565Y-87484448D01*
X114191413Y-87085083D01*
X114285117Y-86614000D01*
X127014883Y-86614000D01*
X127108587Y-87085083D01*
X127375435Y-87484448D01*
X127774800Y-87751296D01*
X128245883Y-87845000D01*
X128294117Y-87845000D01*
X128765200Y-87751296D01*
X129164565Y-87484448D01*
X129431413Y-87085083D01*
X129525117Y-86614000D01*
X129431413Y-86142917D01*
X129164565Y-85743552D01*
X128765200Y-85476704D01*
X128294117Y-85383000D01*
X128245883Y-85383000D01*
X127774800Y-85476704D01*
X127375435Y-85743552D01*
X127108587Y-86142917D01*
X127014883Y-86614000D01*
X114285117Y-86614000D01*
X114191413Y-86142917D01*
X113924565Y-85743552D01*
X113547441Y-85491565D01*
X120210182Y-85491565D01*
X120313639Y-85741952D01*
X120505041Y-85933687D01*
X120755246Y-86037582D01*
X121026165Y-86037818D01*
X121276552Y-85934361D01*
X121468287Y-85742959D01*
X121572182Y-85492754D01*
X121572418Y-85221835D01*
X121468961Y-84971448D01*
X121277559Y-84779713D01*
X121027354Y-84675818D01*
X120756435Y-84675582D01*
X120506048Y-84779039D01*
X120314313Y-84970441D01*
X120210418Y-85220646D01*
X120210182Y-85491565D01*
X113547441Y-85491565D01*
X113525200Y-85476704D01*
X113054117Y-85383000D01*
X113005883Y-85383000D01*
X112534800Y-85476704D01*
X112135435Y-85743552D01*
X111868587Y-86142917D01*
X111774883Y-86614000D01*
X107359664Y-86614000D01*
X107359664Y-85865600D01*
X107333097Y-85724410D01*
X107249654Y-85594735D01*
X107122334Y-85507741D01*
X106971200Y-85477136D01*
X105271200Y-85477136D01*
X105130010Y-85503703D01*
X105000335Y-85587146D01*
X104913341Y-85714466D01*
X104882736Y-85865600D01*
X104442928Y-85865600D01*
X104198164Y-85650355D01*
X103898180Y-85526111D01*
X103708200Y-85586973D01*
X103454200Y-85586973D01*
X103264220Y-85526111D01*
X102964236Y-85650355D01*
X102603548Y-85967544D01*
X102391699Y-86398618D01*
X102056000Y-86398618D01*
X102056000Y-84492582D01*
X102391699Y-84492582D01*
X102603548Y-84923656D01*
X102964236Y-85240845D01*
X103264220Y-85365089D01*
X103454200Y-85304227D01*
X103454200Y-84302600D01*
X103708200Y-84302600D01*
X103708200Y-85304227D01*
X103898180Y-85365089D01*
X104198164Y-85240845D01*
X104558852Y-84923656D01*
X104770701Y-84492582D01*
X104710393Y-84302600D01*
X103708200Y-84302600D01*
X103454200Y-84302600D01*
X102452007Y-84302600D01*
X102391699Y-84492582D01*
X102056000Y-84492582D01*
X102056000Y-83858618D01*
X102391699Y-83858618D01*
X102452007Y-84048600D01*
X103454200Y-84048600D01*
X103454200Y-83046973D01*
X103708200Y-83046973D01*
X103708200Y-84048600D01*
X104710393Y-84048600D01*
X104770701Y-83858618D01*
X104558852Y-83427544D01*
X104442928Y-83325600D01*
X104882736Y-83325600D01*
X104882736Y-85025600D01*
X104909303Y-85166790D01*
X104992746Y-85296465D01*
X105120066Y-85383459D01*
X105271200Y-85414064D01*
X106971200Y-85414064D01*
X107112390Y-85387497D01*
X107242065Y-85304054D01*
X107329059Y-85176734D01*
X107359664Y-85025600D01*
X107359664Y-84074000D01*
X111774883Y-84074000D01*
X111868587Y-84545083D01*
X112135435Y-84944448D01*
X112534800Y-85211296D01*
X113005883Y-85305000D01*
X113054117Y-85305000D01*
X113525200Y-85211296D01*
X113924565Y-84944448D01*
X114178462Y-84564465D01*
X118305182Y-84564465D01*
X118408639Y-84814852D01*
X118600041Y-85006587D01*
X118850246Y-85110482D01*
X119121165Y-85110718D01*
X119371552Y-85007261D01*
X119563287Y-84815859D01*
X119667182Y-84565654D01*
X119667418Y-84294735D01*
X119576213Y-84074000D01*
X127014883Y-84074000D01*
X127108587Y-84545083D01*
X127375435Y-84944448D01*
X127774800Y-85211296D01*
X128245883Y-85305000D01*
X128294117Y-85305000D01*
X128765200Y-85211296D01*
X129164565Y-84944448D01*
X129431413Y-84545083D01*
X129525117Y-84074000D01*
X129431413Y-83602917D01*
X129401138Y-83557607D01*
X134445098Y-83557607D01*
X134453122Y-83630460D01*
X134658248Y-83960780D01*
X134974168Y-84187457D01*
X135352785Y-84275982D01*
X135509000Y-84173666D01*
X135509000Y-83407000D01*
X135763000Y-83407000D01*
X135763000Y-84173666D01*
X135919215Y-84275982D01*
X136297832Y-84187457D01*
X136613752Y-83960780D01*
X136818878Y-83630460D01*
X136826902Y-83557607D01*
X136762598Y-83407000D01*
X135763000Y-83407000D01*
X135509000Y-83407000D01*
X134509402Y-83407000D01*
X134445098Y-83557607D01*
X129401138Y-83557607D01*
X129164565Y-83203552D01*
X128863511Y-83002393D01*
X134445098Y-83002393D01*
X134509402Y-83153000D01*
X135509000Y-83153000D01*
X135509000Y-82386334D01*
X135763000Y-82386334D01*
X135763000Y-83153000D01*
X136762598Y-83153000D01*
X136826902Y-83002393D01*
X136818878Y-82929540D01*
X136613752Y-82599220D01*
X136297832Y-82372543D01*
X135919215Y-82284018D01*
X135763000Y-82386334D01*
X135509000Y-82386334D01*
X135352785Y-82284018D01*
X134974168Y-82372543D01*
X134658248Y-82599220D01*
X134453122Y-82929540D01*
X134445098Y-83002393D01*
X128863511Y-83002393D01*
X128765200Y-82936704D01*
X128294117Y-82843000D01*
X128245883Y-82843000D01*
X127774800Y-82936704D01*
X127375435Y-83203552D01*
X127108587Y-83602917D01*
X127014883Y-84074000D01*
X119576213Y-84074000D01*
X119563961Y-84044348D01*
X119372559Y-83852613D01*
X119122354Y-83748718D01*
X118851435Y-83748482D01*
X118601048Y-83851939D01*
X118409313Y-84043341D01*
X118305418Y-84293546D01*
X118305182Y-84564465D01*
X114178462Y-84564465D01*
X114191413Y-84545083D01*
X114285117Y-84074000D01*
X114191413Y-83602917D01*
X113924565Y-83203552D01*
X113525200Y-82936704D01*
X113054117Y-82843000D01*
X113005883Y-82843000D01*
X112534800Y-82936704D01*
X112135435Y-83203552D01*
X111868587Y-83602917D01*
X111774883Y-84074000D01*
X107359664Y-84074000D01*
X107359664Y-83325600D01*
X107333097Y-83184410D01*
X107249654Y-83054735D01*
X107122334Y-82967741D01*
X106971200Y-82937136D01*
X105271200Y-82937136D01*
X105130010Y-82963703D01*
X105000335Y-83047146D01*
X104913341Y-83174466D01*
X104882736Y-83325600D01*
X104442928Y-83325600D01*
X104198164Y-83110355D01*
X103898180Y-82986111D01*
X103708200Y-83046973D01*
X103454200Y-83046973D01*
X103264220Y-82986111D01*
X102964236Y-83110355D01*
X102603548Y-83427544D01*
X102391699Y-83858618D01*
X102056000Y-83858618D01*
X102056000Y-81611483D01*
X102350200Y-81611483D01*
X102350200Y-81659717D01*
X102443904Y-82130800D01*
X102710752Y-82530165D01*
X103110117Y-82797013D01*
X103581200Y-82890717D01*
X104052283Y-82797013D01*
X104451648Y-82530165D01*
X104718496Y-82130800D01*
X104812200Y-81659717D01*
X104812200Y-81611483D01*
X104718496Y-81140400D01*
X104481426Y-80785600D01*
X104882736Y-80785600D01*
X104882736Y-82485600D01*
X104909303Y-82626790D01*
X104992746Y-82756465D01*
X105120066Y-82843459D01*
X105271200Y-82874064D01*
X106971200Y-82874064D01*
X107112390Y-82847497D01*
X107242065Y-82764054D01*
X107329059Y-82636734D01*
X107359664Y-82485600D01*
X107359664Y-81534000D01*
X111774883Y-81534000D01*
X111868587Y-82005083D01*
X112135435Y-82404448D01*
X112534800Y-82671296D01*
X113005883Y-82765000D01*
X113054117Y-82765000D01*
X113525200Y-82671296D01*
X113924565Y-82404448D01*
X114178462Y-82024465D01*
X116768482Y-82024465D01*
X116871939Y-82274852D01*
X117063341Y-82466587D01*
X117313546Y-82570482D01*
X117584465Y-82570718D01*
X117834852Y-82467261D01*
X118026587Y-82275859D01*
X118130482Y-82025654D01*
X118130718Y-81754735D01*
X118039513Y-81534000D01*
X127014883Y-81534000D01*
X127108587Y-82005083D01*
X127375435Y-82404448D01*
X127774800Y-82671296D01*
X128245883Y-82765000D01*
X128294117Y-82765000D01*
X128765200Y-82671296D01*
X129164565Y-82404448D01*
X129431413Y-82005083D01*
X129525117Y-81534000D01*
X129431413Y-81062917D01*
X129175556Y-80680000D01*
X134397536Y-80680000D01*
X134397536Y-81880000D01*
X134424103Y-82021190D01*
X134507546Y-82150865D01*
X134634866Y-82237859D01*
X134786000Y-82268464D01*
X136486000Y-82268464D01*
X136627190Y-82241897D01*
X136756865Y-82158454D01*
X136843859Y-82031134D01*
X136874464Y-81880000D01*
X136874464Y-80680000D01*
X136847897Y-80538810D01*
X136764454Y-80409135D01*
X136637134Y-80322141D01*
X136486000Y-80291536D01*
X134786000Y-80291536D01*
X134644810Y-80318103D01*
X134515135Y-80401546D01*
X134428141Y-80528866D01*
X134397536Y-80680000D01*
X129175556Y-80680000D01*
X129164565Y-80663552D01*
X128765200Y-80396704D01*
X128294117Y-80303000D01*
X128245883Y-80303000D01*
X127774800Y-80396704D01*
X127375435Y-80663552D01*
X127108587Y-81062917D01*
X127014883Y-81534000D01*
X118039513Y-81534000D01*
X118027261Y-81504348D01*
X117835859Y-81312613D01*
X117585654Y-81208718D01*
X117314735Y-81208482D01*
X117064348Y-81311939D01*
X116872613Y-81503341D01*
X116768718Y-81753546D01*
X116768482Y-82024465D01*
X114178462Y-82024465D01*
X114191413Y-82005083D01*
X114285117Y-81534000D01*
X114191413Y-81062917D01*
X113924565Y-80663552D01*
X113525200Y-80396704D01*
X113054117Y-80303000D01*
X113005883Y-80303000D01*
X112534800Y-80396704D01*
X112135435Y-80663552D01*
X111868587Y-81062917D01*
X111774883Y-81534000D01*
X107359664Y-81534000D01*
X107359664Y-80785600D01*
X107333097Y-80644410D01*
X107249654Y-80514735D01*
X107122334Y-80427741D01*
X106971200Y-80397136D01*
X105271200Y-80397136D01*
X105130010Y-80423703D01*
X105000335Y-80507146D01*
X104913341Y-80634466D01*
X104882736Y-80785600D01*
X104481426Y-80785600D01*
X104451648Y-80741035D01*
X104052283Y-80474187D01*
X103581200Y-80380483D01*
X103110117Y-80474187D01*
X102710752Y-80741035D01*
X102443904Y-81140400D01*
X102350200Y-81611483D01*
X102056000Y-81611483D01*
X102056000Y-79412582D01*
X102391699Y-79412582D01*
X102603548Y-79843656D01*
X102964236Y-80160845D01*
X103264220Y-80285089D01*
X103454200Y-80224227D01*
X103454200Y-79222600D01*
X103708200Y-79222600D01*
X103708200Y-80224227D01*
X103898180Y-80285089D01*
X104198164Y-80160845D01*
X104558852Y-79843656D01*
X104770701Y-79412582D01*
X104710393Y-79222600D01*
X103708200Y-79222600D01*
X103454200Y-79222600D01*
X102452007Y-79222600D01*
X102391699Y-79412582D01*
X102056000Y-79412582D01*
X102056000Y-78778618D01*
X102391699Y-78778618D01*
X102452007Y-78968600D01*
X103454200Y-78968600D01*
X103454200Y-77966973D01*
X103708200Y-77966973D01*
X103708200Y-78968600D01*
X104710393Y-78968600D01*
X104770701Y-78778618D01*
X104558852Y-78347544D01*
X104442928Y-78245600D01*
X104882736Y-78245600D01*
X104882736Y-79945600D01*
X104909303Y-80086790D01*
X104992746Y-80216465D01*
X105120066Y-80303459D01*
X105271200Y-80334064D01*
X106971200Y-80334064D01*
X107112390Y-80307497D01*
X107242065Y-80224054D01*
X107329059Y-80096734D01*
X107359664Y-79945600D01*
X107359664Y-78994000D01*
X111774883Y-78994000D01*
X111868587Y-79465083D01*
X112135435Y-79864448D01*
X112534800Y-80131296D01*
X113005883Y-80225000D01*
X113054117Y-80225000D01*
X113525200Y-80131296D01*
X113637940Y-80055965D01*
X124020182Y-80055965D01*
X124123639Y-80306352D01*
X124315041Y-80498087D01*
X124565246Y-80601982D01*
X124836165Y-80602218D01*
X125086552Y-80498761D01*
X125278287Y-80307359D01*
X125382182Y-80057154D01*
X125382418Y-79786235D01*
X125278961Y-79535848D01*
X125087559Y-79344113D01*
X125007767Y-79310980D01*
X127080511Y-79310980D01*
X127204755Y-79610964D01*
X127521944Y-79971652D01*
X127953018Y-80183501D01*
X128143000Y-80123193D01*
X128143000Y-79121000D01*
X128397000Y-79121000D01*
X128397000Y-80123193D01*
X128586982Y-80183501D01*
X129018056Y-79971652D01*
X129335245Y-79610964D01*
X129459489Y-79310980D01*
X129398627Y-79121000D01*
X128397000Y-79121000D01*
X128143000Y-79121000D01*
X127141373Y-79121000D01*
X127080511Y-79310980D01*
X125007767Y-79310980D01*
X124837354Y-79240218D01*
X124566435Y-79239982D01*
X124316048Y-79343439D01*
X124124313Y-79534841D01*
X124020418Y-79785046D01*
X124020182Y-80055965D01*
X113637940Y-80055965D01*
X113924565Y-79864448D01*
X114191413Y-79465083D01*
X114285117Y-78994000D01*
X114222066Y-78677020D01*
X127080511Y-78677020D01*
X127141373Y-78867000D01*
X128143000Y-78867000D01*
X128143000Y-77864807D01*
X128397000Y-77864807D01*
X128397000Y-78867000D01*
X129398627Y-78867000D01*
X129459489Y-78677020D01*
X129335245Y-78377036D01*
X129018056Y-78016348D01*
X128586982Y-77804499D01*
X128397000Y-77864807D01*
X128143000Y-77864807D01*
X127953018Y-77804499D01*
X127521944Y-78016348D01*
X127204755Y-78377036D01*
X127080511Y-78677020D01*
X114222066Y-78677020D01*
X114191413Y-78522917D01*
X113924565Y-78123552D01*
X113525200Y-77856704D01*
X113054117Y-77763000D01*
X113005883Y-77763000D01*
X112534800Y-77856704D01*
X112135435Y-78123552D01*
X111868587Y-78522917D01*
X111774883Y-78994000D01*
X107359664Y-78994000D01*
X107359664Y-78245600D01*
X107333097Y-78104410D01*
X107249654Y-77974735D01*
X107122334Y-77887741D01*
X106971200Y-77857136D01*
X105271200Y-77857136D01*
X105130010Y-77883703D01*
X105000335Y-77967146D01*
X104913341Y-78094466D01*
X104882736Y-78245600D01*
X104442928Y-78245600D01*
X104198164Y-78030355D01*
X103898180Y-77906111D01*
X103708200Y-77966973D01*
X103454200Y-77966973D01*
X103264220Y-77906111D01*
X102964236Y-78030355D01*
X102603548Y-78347544D01*
X102391699Y-78778618D01*
X102056000Y-78778618D01*
X102056000Y-76872582D01*
X102391699Y-76872582D01*
X102603548Y-77303656D01*
X102964236Y-77620845D01*
X103264220Y-77745089D01*
X103454200Y-77684227D01*
X103454200Y-76682600D01*
X103708200Y-76682600D01*
X103708200Y-77684227D01*
X103898180Y-77745089D01*
X104198164Y-77620845D01*
X104558852Y-77303656D01*
X104770701Y-76872582D01*
X104710393Y-76682600D01*
X103708200Y-76682600D01*
X103454200Y-76682600D01*
X102452007Y-76682600D01*
X102391699Y-76872582D01*
X102056000Y-76872582D01*
X102056000Y-76238618D01*
X102391699Y-76238618D01*
X102452007Y-76428600D01*
X103454200Y-76428600D01*
X103454200Y-75426973D01*
X103708200Y-75426973D01*
X103708200Y-76428600D01*
X104710393Y-76428600D01*
X104770701Y-76238618D01*
X104558852Y-75807544D01*
X104442928Y-75705600D01*
X104882736Y-75705600D01*
X104882736Y-77405600D01*
X104909303Y-77546790D01*
X104992746Y-77676465D01*
X105120066Y-77763459D01*
X105271200Y-77794064D01*
X106971200Y-77794064D01*
X107112390Y-77767497D01*
X107242065Y-77684054D01*
X107329059Y-77556734D01*
X107359664Y-77405600D01*
X107359664Y-76454000D01*
X111774883Y-76454000D01*
X111868587Y-76925083D01*
X112135435Y-77324448D01*
X112534800Y-77591296D01*
X113005883Y-77685000D01*
X113054117Y-77685000D01*
X113329289Y-77630265D01*
X124667882Y-77630265D01*
X124771339Y-77880652D01*
X124962741Y-78072387D01*
X125212946Y-78176282D01*
X125483865Y-78176518D01*
X125734252Y-78073061D01*
X125925987Y-77881659D01*
X126029882Y-77631454D01*
X126030118Y-77360535D01*
X125926661Y-77110148D01*
X125735259Y-76918413D01*
X125485054Y-76814518D01*
X125214135Y-76814282D01*
X124963748Y-76917739D01*
X124772013Y-77109141D01*
X124668118Y-77359346D01*
X124667882Y-77630265D01*
X113329289Y-77630265D01*
X113525200Y-77591296D01*
X113924565Y-77324448D01*
X114191413Y-76925083D01*
X114263343Y-76563465D01*
X122686682Y-76563465D01*
X122790139Y-76813852D01*
X122981541Y-77005587D01*
X123231746Y-77109482D01*
X123502665Y-77109718D01*
X123753052Y-77006261D01*
X123944787Y-76814859D01*
X124048682Y-76564654D01*
X124048778Y-76454000D01*
X127014883Y-76454000D01*
X127108587Y-76925083D01*
X127375435Y-77324448D01*
X127774800Y-77591296D01*
X128245883Y-77685000D01*
X128294117Y-77685000D01*
X128765200Y-77591296D01*
X129164565Y-77324448D01*
X129431413Y-76925083D01*
X129525117Y-76454000D01*
X129431413Y-75982917D01*
X129164565Y-75583552D01*
X128765200Y-75316704D01*
X128294117Y-75223000D01*
X128245883Y-75223000D01*
X127774800Y-75316704D01*
X127375435Y-75583552D01*
X127108587Y-75982917D01*
X127014883Y-76454000D01*
X124048778Y-76454000D01*
X124048918Y-76293735D01*
X123945461Y-76043348D01*
X123754059Y-75851613D01*
X123503854Y-75747718D01*
X123232935Y-75747482D01*
X122982548Y-75850939D01*
X122790813Y-76042341D01*
X122686918Y-76292546D01*
X122686682Y-76563465D01*
X114263343Y-76563465D01*
X114285117Y-76454000D01*
X114191413Y-75982917D01*
X113924565Y-75583552D01*
X113525200Y-75316704D01*
X113054117Y-75223000D01*
X113005883Y-75223000D01*
X112534800Y-75316704D01*
X112135435Y-75583552D01*
X111868587Y-75982917D01*
X111774883Y-76454000D01*
X107359664Y-76454000D01*
X107359664Y-75705600D01*
X107333097Y-75564410D01*
X107249654Y-75434735D01*
X107122334Y-75347741D01*
X106971200Y-75317136D01*
X105271200Y-75317136D01*
X105130010Y-75343703D01*
X105000335Y-75427146D01*
X104913341Y-75554466D01*
X104882736Y-75705600D01*
X104442928Y-75705600D01*
X104198164Y-75490355D01*
X103898180Y-75366111D01*
X103708200Y-75426973D01*
X103454200Y-75426973D01*
X103264220Y-75366111D01*
X102964236Y-75490355D01*
X102603548Y-75807544D01*
X102391699Y-76238618D01*
X102056000Y-76238618D01*
X102056000Y-73914000D01*
X111774883Y-73914000D01*
X111868587Y-74385083D01*
X112135435Y-74784448D01*
X112534800Y-75051296D01*
X113005883Y-75145000D01*
X113054117Y-75145000D01*
X113525200Y-75051296D01*
X113924565Y-74784448D01*
X114191413Y-74385083D01*
X114265869Y-74010765D01*
X117695582Y-74010765D01*
X117799039Y-74261152D01*
X117990441Y-74452887D01*
X118240646Y-74556782D01*
X118511565Y-74557018D01*
X118761952Y-74453561D01*
X118953687Y-74262159D01*
X119057582Y-74011954D01*
X119057667Y-73914000D01*
X127014883Y-73914000D01*
X127108587Y-74385083D01*
X127375435Y-74784448D01*
X127774800Y-75051296D01*
X128245883Y-75145000D01*
X128294117Y-75145000D01*
X128765200Y-75051296D01*
X129164565Y-74784448D01*
X129431413Y-74385083D01*
X129525117Y-73914000D01*
X129431413Y-73442917D01*
X129164565Y-73043552D01*
X128765200Y-72776704D01*
X128294117Y-72683000D01*
X128245883Y-72683000D01*
X127774800Y-72776704D01*
X127375435Y-73043552D01*
X127108587Y-73442917D01*
X127014883Y-73914000D01*
X119057667Y-73914000D01*
X119057818Y-73741035D01*
X118954361Y-73490648D01*
X118762959Y-73298913D01*
X118512754Y-73195018D01*
X118241835Y-73194782D01*
X117991448Y-73298239D01*
X117799713Y-73489641D01*
X117695818Y-73739846D01*
X117695582Y-74010765D01*
X114265869Y-74010765D01*
X114285117Y-73914000D01*
X114191413Y-73442917D01*
X113924565Y-73043552D01*
X113525200Y-72776704D01*
X113054117Y-72683000D01*
X113005883Y-72683000D01*
X112534800Y-72776704D01*
X112135435Y-73043552D01*
X111868587Y-73442917D01*
X111774883Y-73914000D01*
X102056000Y-73914000D01*
X102056000Y-72829665D01*
X108742082Y-72829665D01*
X108845539Y-73080052D01*
X109036941Y-73271787D01*
X109287146Y-73375682D01*
X109558065Y-73375918D01*
X109808452Y-73272461D01*
X110000187Y-73081059D01*
X110104082Y-72830854D01*
X110104318Y-72559935D01*
X110000861Y-72309548D01*
X109809459Y-72117813D01*
X109559254Y-72013918D01*
X109288335Y-72013682D01*
X109037948Y-72117139D01*
X108846213Y-72308541D01*
X108742318Y-72558746D01*
X108742082Y-72829665D01*
X102056000Y-72829665D01*
X102056000Y-71374000D01*
X111774883Y-71374000D01*
X111868587Y-71845083D01*
X112135435Y-72244448D01*
X112534800Y-72511296D01*
X113005883Y-72605000D01*
X113054117Y-72605000D01*
X113525200Y-72511296D01*
X113924565Y-72244448D01*
X114191413Y-71845083D01*
X114285117Y-71374000D01*
X127014883Y-71374000D01*
X127108587Y-71845083D01*
X127375435Y-72244448D01*
X127774800Y-72511296D01*
X128245883Y-72605000D01*
X128294117Y-72605000D01*
X128765200Y-72511296D01*
X129164565Y-72244448D01*
X129431413Y-71845083D01*
X129525117Y-71374000D01*
X129431413Y-70902917D01*
X129164565Y-70503552D01*
X128765200Y-70236704D01*
X128294117Y-70143000D01*
X128245883Y-70143000D01*
X127774800Y-70236704D01*
X127375435Y-70503552D01*
X127108587Y-70902917D01*
X127014883Y-71374000D01*
X114285117Y-71374000D01*
X114191413Y-70902917D01*
X113924565Y-70503552D01*
X113525200Y-70236704D01*
X113054117Y-70143000D01*
X113005883Y-70143000D01*
X112534800Y-70236704D01*
X112135435Y-70503552D01*
X111868587Y-70902917D01*
X111774883Y-71374000D01*
X102056000Y-71374000D01*
X102056000Y-68834000D01*
X111774883Y-68834000D01*
X111868587Y-69305083D01*
X112135435Y-69704448D01*
X112534800Y-69971296D01*
X113005883Y-70065000D01*
X113054117Y-70065000D01*
X113525200Y-69971296D01*
X113924565Y-69704448D01*
X114191413Y-69305083D01*
X114285117Y-68834000D01*
X114208370Y-68448165D01*
X116400182Y-68448165D01*
X116503639Y-68698552D01*
X116695041Y-68890287D01*
X116945246Y-68994182D01*
X117216165Y-68994418D01*
X117466552Y-68890961D01*
X117523612Y-68834000D01*
X127014883Y-68834000D01*
X127108587Y-69305083D01*
X127375435Y-69704448D01*
X127774800Y-69971296D01*
X128245883Y-70065000D01*
X128294117Y-70065000D01*
X128765200Y-69971296D01*
X129164565Y-69704448D01*
X129431413Y-69305083D01*
X129525117Y-68834000D01*
X129431413Y-68362917D01*
X129164565Y-67963552D01*
X128765200Y-67696704D01*
X128294117Y-67603000D01*
X128245883Y-67603000D01*
X127774800Y-67696704D01*
X127375435Y-67963552D01*
X127108587Y-68362917D01*
X127014883Y-68834000D01*
X117523612Y-68834000D01*
X117658287Y-68699559D01*
X117762182Y-68449354D01*
X117762418Y-68178435D01*
X117658961Y-67928048D01*
X117467559Y-67736313D01*
X117217354Y-67632418D01*
X116946435Y-67632182D01*
X116696048Y-67735639D01*
X116504313Y-67927041D01*
X116400418Y-68177246D01*
X116400182Y-68448165D01*
X114208370Y-68448165D01*
X114191413Y-68362917D01*
X113924565Y-67963552D01*
X113525200Y-67696704D01*
X113054117Y-67603000D01*
X113005883Y-67603000D01*
X112534800Y-67696704D01*
X112135435Y-67963552D01*
X111868587Y-68362917D01*
X111774883Y-68834000D01*
X102056000Y-68834000D01*
X102056000Y-66294000D01*
X111774883Y-66294000D01*
X111868587Y-66765083D01*
X112135435Y-67164448D01*
X112534800Y-67431296D01*
X113005883Y-67525000D01*
X113054117Y-67525000D01*
X113525200Y-67431296D01*
X113924565Y-67164448D01*
X114191413Y-66765083D01*
X114285117Y-66294000D01*
X127014883Y-66294000D01*
X127108587Y-66765083D01*
X127375435Y-67164448D01*
X127774800Y-67431296D01*
X128245883Y-67525000D01*
X128294117Y-67525000D01*
X128765200Y-67431296D01*
X129164565Y-67164448D01*
X129431413Y-66765083D01*
X129457871Y-66632065D01*
X138155282Y-66632065D01*
X138258739Y-66882452D01*
X138450141Y-67074187D01*
X138700346Y-67178082D01*
X138971265Y-67178318D01*
X139221652Y-67074861D01*
X139413387Y-66883459D01*
X139517282Y-66633254D01*
X139517518Y-66362335D01*
X139414061Y-66111948D01*
X139222659Y-65920213D01*
X138972454Y-65816318D01*
X138701535Y-65816082D01*
X138451148Y-65919539D01*
X138259413Y-66110941D01*
X138155518Y-66361146D01*
X138155282Y-66632065D01*
X129457871Y-66632065D01*
X129525117Y-66294000D01*
X129431413Y-65822917D01*
X129164565Y-65423552D01*
X128765200Y-65156704D01*
X128294117Y-65063000D01*
X128245883Y-65063000D01*
X127774800Y-65156704D01*
X127375435Y-65423552D01*
X127108587Y-65822917D01*
X127014883Y-66294000D01*
X114285117Y-66294000D01*
X114191413Y-65822917D01*
X113934396Y-65438265D01*
X123296282Y-65438265D01*
X123399739Y-65688652D01*
X123591141Y-65880387D01*
X123841346Y-65984282D01*
X124112265Y-65984518D01*
X124362652Y-65881061D01*
X124554387Y-65689659D01*
X124658282Y-65439454D01*
X124658518Y-65168535D01*
X124555061Y-64918148D01*
X124363659Y-64726413D01*
X124113454Y-64622518D01*
X123842535Y-64622282D01*
X123592148Y-64725739D01*
X123400413Y-64917141D01*
X123296518Y-65167346D01*
X123296282Y-65438265D01*
X113934396Y-65438265D01*
X113924565Y-65423552D01*
X113525200Y-65156704D01*
X113054117Y-65063000D01*
X113005883Y-65063000D01*
X112534800Y-65156704D01*
X112135435Y-65423552D01*
X111868587Y-65822917D01*
X111774883Y-66294000D01*
X102056000Y-66294000D01*
X102056000Y-64396865D01*
X104220882Y-64396865D01*
X104324339Y-64647252D01*
X104515741Y-64838987D01*
X104765946Y-64942882D01*
X105036865Y-64943118D01*
X105287252Y-64839661D01*
X105478987Y-64648259D01*
X105582882Y-64398054D01*
X105583118Y-64127135D01*
X105479661Y-63876748D01*
X105357127Y-63754000D01*
X111774883Y-63754000D01*
X111868587Y-64225083D01*
X112135435Y-64624448D01*
X112534800Y-64891296D01*
X113005883Y-64985000D01*
X113054117Y-64985000D01*
X113525200Y-64891296D01*
X113924565Y-64624448D01*
X114191413Y-64225083D01*
X114233028Y-64015865D01*
X114761882Y-64015865D01*
X114865339Y-64266252D01*
X115056741Y-64457987D01*
X115306946Y-64561882D01*
X115577865Y-64562118D01*
X115828252Y-64458661D01*
X116019987Y-64267259D01*
X116123882Y-64017054D01*
X116124111Y-63754000D01*
X127014883Y-63754000D01*
X127108587Y-64225083D01*
X127375435Y-64624448D01*
X127774800Y-64891296D01*
X128245883Y-64985000D01*
X128294117Y-64985000D01*
X128765200Y-64891296D01*
X129164565Y-64624448D01*
X129431413Y-64225083D01*
X129525117Y-63754000D01*
X129431413Y-63282917D01*
X129164565Y-62883552D01*
X128765200Y-62616704D01*
X128294117Y-62523000D01*
X128245883Y-62523000D01*
X127774800Y-62616704D01*
X127375435Y-62883552D01*
X127108587Y-63282917D01*
X127014883Y-63754000D01*
X116124111Y-63754000D01*
X116124118Y-63746135D01*
X116020661Y-63495748D01*
X115829259Y-63304013D01*
X115579054Y-63200118D01*
X115308135Y-63199882D01*
X115057748Y-63303339D01*
X114866013Y-63494741D01*
X114762118Y-63744946D01*
X114761882Y-64015865D01*
X114233028Y-64015865D01*
X114285117Y-63754000D01*
X114191413Y-63282917D01*
X113924565Y-62883552D01*
X113718503Y-62745865D01*
X117301882Y-62745865D01*
X117405339Y-62996252D01*
X117596741Y-63187987D01*
X117846946Y-63291882D01*
X118117865Y-63292118D01*
X118368252Y-63188661D01*
X118559987Y-62997259D01*
X118627460Y-62834765D01*
X124845682Y-62834765D01*
X124949139Y-63085152D01*
X125140541Y-63276887D01*
X125390746Y-63380782D01*
X125661665Y-63381018D01*
X125912052Y-63277561D01*
X126103787Y-63086159D01*
X126207682Y-62835954D01*
X126207918Y-62565035D01*
X126104461Y-62314648D01*
X125913059Y-62122913D01*
X125662854Y-62019018D01*
X125391935Y-62018782D01*
X125141548Y-62122239D01*
X124949813Y-62313641D01*
X124845918Y-62563846D01*
X124845682Y-62834765D01*
X118627460Y-62834765D01*
X118663882Y-62747054D01*
X118664118Y-62476135D01*
X118560661Y-62225748D01*
X118369259Y-62034013D01*
X118119054Y-61930118D01*
X117848135Y-61929882D01*
X117597748Y-62033339D01*
X117406013Y-62224741D01*
X117302118Y-62474946D01*
X117301882Y-62745865D01*
X113718503Y-62745865D01*
X113525200Y-62616704D01*
X113054117Y-62523000D01*
X113005883Y-62523000D01*
X112534800Y-62616704D01*
X112135435Y-62883552D01*
X111868587Y-63282917D01*
X111774883Y-63754000D01*
X105357127Y-63754000D01*
X105288259Y-63685013D01*
X105038054Y-63581118D01*
X104767135Y-63580882D01*
X104516748Y-63684339D01*
X104325013Y-63875741D01*
X104221118Y-64125946D01*
X104220882Y-64396865D01*
X102056000Y-64396865D01*
X102056000Y-61214000D01*
X111774883Y-61214000D01*
X111868587Y-61685083D01*
X112135435Y-62084448D01*
X112534800Y-62351296D01*
X113005883Y-62445000D01*
X113054117Y-62445000D01*
X113525200Y-62351296D01*
X113924565Y-62084448D01*
X114191413Y-61685083D01*
X114285117Y-61214000D01*
X114271525Y-61145665D01*
X114634882Y-61145665D01*
X114738339Y-61396052D01*
X114929741Y-61587787D01*
X115179946Y-61691682D01*
X115450865Y-61691918D01*
X115701252Y-61588461D01*
X115892987Y-61397059D01*
X115969000Y-61214000D01*
X127014883Y-61214000D01*
X127108587Y-61685083D01*
X127375435Y-62084448D01*
X127774800Y-62351296D01*
X128245883Y-62445000D01*
X128294117Y-62445000D01*
X128765200Y-62351296D01*
X129164565Y-62084448D01*
X129431413Y-61685083D01*
X129525117Y-61214000D01*
X129431413Y-60742917D01*
X129164565Y-60343552D01*
X128765200Y-60076704D01*
X128294117Y-59983000D01*
X128245883Y-59983000D01*
X127774800Y-60076704D01*
X127375435Y-60343552D01*
X127108587Y-60742917D01*
X127014883Y-61214000D01*
X115969000Y-61214000D01*
X115996882Y-61146854D01*
X115997118Y-60875935D01*
X115893661Y-60625548D01*
X115702259Y-60433813D01*
X115452054Y-60329918D01*
X115181135Y-60329682D01*
X114930748Y-60433139D01*
X114739013Y-60624541D01*
X114635118Y-60874746D01*
X114634882Y-61145665D01*
X114271525Y-61145665D01*
X114191413Y-60742917D01*
X113924565Y-60343552D01*
X113525200Y-60076704D01*
X113054117Y-59983000D01*
X113005883Y-59983000D01*
X112534800Y-60076704D01*
X112135435Y-60343552D01*
X111868587Y-60742917D01*
X111774883Y-61214000D01*
X102056000Y-61214000D01*
X102056000Y-60332865D01*
X104982882Y-60332865D01*
X105086339Y-60583252D01*
X105277741Y-60774987D01*
X105527946Y-60878882D01*
X105798865Y-60879118D01*
X106049252Y-60775661D01*
X106240987Y-60584259D01*
X106344882Y-60334054D01*
X106345118Y-60063135D01*
X106241661Y-59812748D01*
X106050259Y-59621013D01*
X105800054Y-59517118D01*
X105529135Y-59516882D01*
X105278748Y-59620339D01*
X105087013Y-59811741D01*
X104983118Y-60061946D01*
X104982882Y-60332865D01*
X102056000Y-60332865D01*
X102056000Y-58935865D01*
X107903882Y-58935865D01*
X108007339Y-59186252D01*
X108198741Y-59377987D01*
X108448946Y-59481882D01*
X108719865Y-59482118D01*
X108970252Y-59378661D01*
X109161987Y-59187259D01*
X109265882Y-58937054D01*
X109266111Y-58674000D01*
X111774883Y-58674000D01*
X111868587Y-59145083D01*
X112135435Y-59544448D01*
X112534800Y-59811296D01*
X113005883Y-59905000D01*
X113054117Y-59905000D01*
X113525200Y-59811296D01*
X113924565Y-59544448D01*
X114042687Y-59367665D01*
X121276982Y-59367665D01*
X121380439Y-59618052D01*
X121426798Y-59664491D01*
X121406513Y-59684741D01*
X121302618Y-59934946D01*
X121302382Y-60205865D01*
X121405839Y-60456252D01*
X121597241Y-60647987D01*
X121847446Y-60751882D01*
X122118365Y-60752118D01*
X122368752Y-60648661D01*
X122560487Y-60457259D01*
X122664382Y-60207054D01*
X122664618Y-59936135D01*
X122587158Y-59748665D01*
X126255382Y-59748665D01*
X126358839Y-59999052D01*
X126550241Y-60190787D01*
X126800446Y-60294682D01*
X127071365Y-60294918D01*
X127321752Y-60191461D01*
X127513487Y-60000059D01*
X127617382Y-59749854D01*
X127617420Y-59706138D01*
X127774800Y-59811296D01*
X128245883Y-59905000D01*
X128294117Y-59905000D01*
X128765200Y-59811296D01*
X129164565Y-59544448D01*
X129316631Y-59316865D01*
X132059282Y-59316865D01*
X132162739Y-59567252D01*
X132354141Y-59758987D01*
X132604346Y-59862882D01*
X132875265Y-59863118D01*
X133125652Y-59759661D01*
X133317387Y-59568259D01*
X133421282Y-59318054D01*
X133421518Y-59047135D01*
X133318061Y-58796748D01*
X133126659Y-58605013D01*
X132876454Y-58501118D01*
X132605535Y-58500882D01*
X132355148Y-58604339D01*
X132163413Y-58795741D01*
X132059518Y-59045946D01*
X132059282Y-59316865D01*
X129316631Y-59316865D01*
X129431413Y-59145083D01*
X129525117Y-58674000D01*
X129431413Y-58202917D01*
X129321957Y-58039104D01*
X129340446Y-58046782D01*
X129611365Y-58047018D01*
X129861752Y-57943561D01*
X130053487Y-57752159D01*
X130157382Y-57501954D01*
X130157618Y-57231035D01*
X130054161Y-56980648D01*
X129862759Y-56788913D01*
X129612554Y-56685018D01*
X129378138Y-56684814D01*
X129431413Y-56605083D01*
X129525117Y-56134000D01*
X129431413Y-55662917D01*
X129164565Y-55263552D01*
X128765200Y-54996704D01*
X128294117Y-54903000D01*
X128245883Y-54903000D01*
X127774800Y-54996704D01*
X127375435Y-55263552D01*
X127108587Y-55662917D01*
X127014883Y-56134000D01*
X127108587Y-56605083D01*
X127375435Y-57004448D01*
X127774800Y-57271296D01*
X128245883Y-57365000D01*
X128294117Y-57365000D01*
X128765200Y-57271296D01*
X128795600Y-57250984D01*
X128795382Y-57500765D01*
X128827406Y-57578269D01*
X128765200Y-57536704D01*
X128294117Y-57443000D01*
X128245883Y-57443000D01*
X127774800Y-57536704D01*
X127375435Y-57803552D01*
X127108587Y-58202917D01*
X127014883Y-58674000D01*
X127066384Y-58932913D01*
X126801635Y-58932682D01*
X126551248Y-59036139D01*
X126359513Y-59227541D01*
X126255618Y-59477746D01*
X126255382Y-59748665D01*
X122587158Y-59748665D01*
X122561161Y-59685748D01*
X122514802Y-59639309D01*
X122535087Y-59619059D01*
X122638982Y-59368854D01*
X122639218Y-59097935D01*
X122535761Y-58847548D01*
X122344359Y-58655813D01*
X122094154Y-58551918D01*
X121823235Y-58551682D01*
X121572848Y-58655139D01*
X121381113Y-58846541D01*
X121277218Y-59096746D01*
X121276982Y-59367665D01*
X114042687Y-59367665D01*
X114191413Y-59145083D01*
X114285117Y-58674000D01*
X114191413Y-58202917D01*
X113924565Y-57803552D01*
X113525200Y-57536704D01*
X113054117Y-57443000D01*
X113005883Y-57443000D01*
X112534800Y-57536704D01*
X112135435Y-57803552D01*
X111868587Y-58202917D01*
X111774883Y-58674000D01*
X109266111Y-58674000D01*
X109266118Y-58666135D01*
X109162661Y-58415748D01*
X108971259Y-58224013D01*
X108721054Y-58120118D01*
X108450135Y-58119882D01*
X108199748Y-58223339D01*
X108008013Y-58414741D01*
X107904118Y-58664946D01*
X107903882Y-58935865D01*
X102056000Y-58935865D01*
X102056000Y-56134000D01*
X111774883Y-56134000D01*
X111868587Y-56605083D01*
X112135435Y-57004448D01*
X112534800Y-57271296D01*
X113005883Y-57365000D01*
X113054117Y-57365000D01*
X113525200Y-57271296D01*
X113924565Y-57004448D01*
X114110575Y-56726065D01*
X115917582Y-56726065D01*
X116021039Y-56976452D01*
X116212441Y-57168187D01*
X116462646Y-57272082D01*
X116719978Y-57272306D01*
X116529713Y-57462241D01*
X116425818Y-57712446D01*
X116425582Y-57983365D01*
X116529039Y-58233752D01*
X116720441Y-58425487D01*
X116970646Y-58529382D01*
X117241565Y-58529618D01*
X117491952Y-58426161D01*
X117683687Y-58234759D01*
X117787582Y-57984554D01*
X117787818Y-57713635D01*
X117699863Y-57500765D01*
X118228982Y-57500765D01*
X118332439Y-57751152D01*
X118523841Y-57942887D01*
X118774046Y-58046782D01*
X119044965Y-58047018D01*
X119295352Y-57943561D01*
X119487087Y-57752159D01*
X119590982Y-57501954D01*
X119591160Y-57297565D01*
X122623182Y-57297565D01*
X122726639Y-57547952D01*
X122918041Y-57739687D01*
X123168246Y-57843582D01*
X123439165Y-57843818D01*
X123689552Y-57740361D01*
X123881287Y-57548959D01*
X123985182Y-57298754D01*
X123985418Y-57027835D01*
X123881961Y-56777448D01*
X123690559Y-56585713D01*
X123440354Y-56481818D01*
X123169435Y-56481582D01*
X122919048Y-56585039D01*
X122727313Y-56776441D01*
X122623418Y-57026646D01*
X122623182Y-57297565D01*
X119591160Y-57297565D01*
X119591218Y-57231035D01*
X119487761Y-56980648D01*
X119296359Y-56788913D01*
X119046154Y-56685018D01*
X118775235Y-56684782D01*
X118524848Y-56788239D01*
X118333113Y-56979641D01*
X118229218Y-57229846D01*
X118228982Y-57500765D01*
X117699863Y-57500765D01*
X117684361Y-57463248D01*
X117492959Y-57271513D01*
X117242754Y-57167618D01*
X116985422Y-57167394D01*
X117175687Y-56977459D01*
X117279582Y-56727254D01*
X117279818Y-56456335D01*
X117181368Y-56218065D01*
X124274182Y-56218065D01*
X124377639Y-56468452D01*
X124569041Y-56660187D01*
X124819246Y-56764082D01*
X125090165Y-56764318D01*
X125340552Y-56660861D01*
X125532287Y-56469459D01*
X125636182Y-56219254D01*
X125636418Y-55948335D01*
X125532961Y-55697948D01*
X125341559Y-55506213D01*
X125091354Y-55402318D01*
X124820435Y-55402082D01*
X124570048Y-55505539D01*
X124378313Y-55696941D01*
X124274418Y-55947146D01*
X124274182Y-56218065D01*
X117181368Y-56218065D01*
X117176361Y-56205948D01*
X116984959Y-56014213D01*
X116734754Y-55910318D01*
X116463835Y-55910082D01*
X116213448Y-56013539D01*
X116021713Y-56204941D01*
X115917818Y-56455146D01*
X115917582Y-56726065D01*
X114110575Y-56726065D01*
X114191413Y-56605083D01*
X114285117Y-56134000D01*
X114191413Y-55662917D01*
X113924565Y-55263552D01*
X113718503Y-55125865D01*
X125137782Y-55125865D01*
X125241239Y-55376252D01*
X125432641Y-55567987D01*
X125682846Y-55671882D01*
X125953765Y-55672118D01*
X126204152Y-55568661D01*
X126395887Y-55377259D01*
X126499782Y-55127054D01*
X126500018Y-54856135D01*
X126396561Y-54605748D01*
X126205159Y-54414013D01*
X125954954Y-54310118D01*
X125684035Y-54309882D01*
X125433648Y-54413339D01*
X125241913Y-54604741D01*
X125138018Y-54854946D01*
X125137782Y-55125865D01*
X113718503Y-55125865D01*
X113525200Y-54996704D01*
X113054117Y-54903000D01*
X113005883Y-54903000D01*
X112534800Y-54996704D01*
X112135435Y-55263552D01*
X111868587Y-55662917D01*
X111774883Y-56134000D01*
X102056000Y-56134000D01*
X102056000Y-53594000D01*
X111774883Y-53594000D01*
X111868587Y-54065083D01*
X112135435Y-54464448D01*
X112534800Y-54731296D01*
X113005883Y-54825000D01*
X113054117Y-54825000D01*
X113525200Y-54731296D01*
X113924565Y-54464448D01*
X114191413Y-54065083D01*
X114285117Y-53594000D01*
X127014883Y-53594000D01*
X127108587Y-54065083D01*
X127375435Y-54464448D01*
X127774800Y-54731296D01*
X128245883Y-54825000D01*
X128294117Y-54825000D01*
X128765200Y-54731296D01*
X128934960Y-54617865D01*
X132922882Y-54617865D01*
X133026339Y-54868252D01*
X133217741Y-55059987D01*
X133467946Y-55163882D01*
X133738865Y-55164118D01*
X133989252Y-55060661D01*
X134180987Y-54869259D01*
X134284882Y-54619054D01*
X134284993Y-54490865D01*
X136580482Y-54490865D01*
X136683939Y-54741252D01*
X136875341Y-54932987D01*
X137125546Y-55036882D01*
X137396465Y-55037118D01*
X137646852Y-54933661D01*
X137838587Y-54742259D01*
X137942482Y-54492054D01*
X137942718Y-54221135D01*
X137839261Y-53970748D01*
X137647859Y-53779013D01*
X137397654Y-53675118D01*
X137126735Y-53674882D01*
X136876348Y-53778339D01*
X136684613Y-53969741D01*
X136580718Y-54219946D01*
X136580482Y-54490865D01*
X134284993Y-54490865D01*
X134285118Y-54348135D01*
X134181661Y-54097748D01*
X133990259Y-53906013D01*
X133740054Y-53802118D01*
X133469135Y-53801882D01*
X133218748Y-53905339D01*
X133027013Y-54096741D01*
X132923118Y-54346946D01*
X132922882Y-54617865D01*
X128934960Y-54617865D01*
X129164565Y-54464448D01*
X129431413Y-54065083D01*
X129525117Y-53594000D01*
X129431413Y-53122917D01*
X129164565Y-52723552D01*
X128765200Y-52456704D01*
X128294117Y-52363000D01*
X128245883Y-52363000D01*
X127774800Y-52456704D01*
X127375435Y-52723552D01*
X127108587Y-53122917D01*
X127014883Y-53594000D01*
X114285117Y-53594000D01*
X114191413Y-53122917D01*
X113924565Y-52723552D01*
X113525200Y-52456704D01*
X113054117Y-52363000D01*
X113005883Y-52363000D01*
X112534800Y-52456704D01*
X112135435Y-52723552D01*
X111868587Y-53122917D01*
X111774883Y-53594000D01*
X102056000Y-53594000D01*
X102056000Y-51054000D01*
X111774883Y-51054000D01*
X111868587Y-51525083D01*
X112135435Y-51924448D01*
X112534800Y-52191296D01*
X113005883Y-52285000D01*
X113054117Y-52285000D01*
X113525200Y-52191296D01*
X113924565Y-51924448D01*
X114191413Y-51525083D01*
X114285117Y-51054000D01*
X114191413Y-50582917D01*
X114138058Y-50503065D01*
X116387482Y-50503065D01*
X116490939Y-50753452D01*
X116682341Y-50945187D01*
X116932546Y-51049082D01*
X117203465Y-51049318D01*
X117453852Y-50945861D01*
X117645587Y-50754459D01*
X117749482Y-50504254D01*
X117749718Y-50233335D01*
X117646261Y-49982948D01*
X117454859Y-49791213D01*
X117211752Y-49690265D01*
X124426582Y-49690265D01*
X124530039Y-49940652D01*
X124721441Y-50132387D01*
X124852937Y-50186989D01*
X124807818Y-50295646D01*
X124807582Y-50566565D01*
X124911039Y-50816952D01*
X125102441Y-51008687D01*
X125352646Y-51112582D01*
X125623565Y-51112818D01*
X125848938Y-51019696D01*
X125785718Y-51171946D01*
X125785482Y-51442865D01*
X125888939Y-51693252D01*
X125973431Y-51777891D01*
X125876913Y-51874241D01*
X125773018Y-52124446D01*
X125772782Y-52395365D01*
X125876239Y-52645752D01*
X126067641Y-52837487D01*
X126317846Y-52941382D01*
X126588765Y-52941618D01*
X126839152Y-52838161D01*
X127030887Y-52646759D01*
X127134782Y-52396554D01*
X127135018Y-52125635D01*
X127031561Y-51875248D01*
X126947069Y-51790609D01*
X127043587Y-51694259D01*
X127111824Y-51529927D01*
X127375435Y-51924448D01*
X127774800Y-52191296D01*
X128245883Y-52285000D01*
X128294117Y-52285000D01*
X128765200Y-52191296D01*
X129049001Y-52001665D01*
X131398882Y-52001665D01*
X131502339Y-52252052D01*
X131693741Y-52443787D01*
X131943946Y-52547682D01*
X132214865Y-52547918D01*
X132465252Y-52444461D01*
X132656987Y-52253059D01*
X132760882Y-52002854D01*
X132761118Y-51731935D01*
X132657661Y-51481548D01*
X132466259Y-51289813D01*
X132216054Y-51185918D01*
X131945135Y-51185682D01*
X131694748Y-51289139D01*
X131503013Y-51480541D01*
X131399118Y-51730746D01*
X131398882Y-52001665D01*
X129049001Y-52001665D01*
X129164565Y-51924448D01*
X129431413Y-51525083D01*
X129525117Y-51054000D01*
X129431413Y-50582917D01*
X129164565Y-50183552D01*
X128765200Y-49916704D01*
X128294117Y-49823000D01*
X128245883Y-49823000D01*
X127774800Y-49916704D01*
X127375435Y-50183552D01*
X127108587Y-50582917D01*
X127041534Y-50920016D01*
X126852859Y-50731013D01*
X126602654Y-50627118D01*
X126331735Y-50626882D01*
X126106362Y-50720004D01*
X126169582Y-50567754D01*
X126169818Y-50296835D01*
X126066361Y-50046448D01*
X125874959Y-49854713D01*
X125743463Y-49800111D01*
X125788582Y-49691454D01*
X125788818Y-49420535D01*
X125685361Y-49170148D01*
X125493959Y-48978413D01*
X125243754Y-48874518D01*
X124972835Y-48874282D01*
X124722448Y-48977739D01*
X124530713Y-49169141D01*
X124426818Y-49419346D01*
X124426582Y-49690265D01*
X117211752Y-49690265D01*
X117204654Y-49687318D01*
X116933735Y-49687082D01*
X116683348Y-49790539D01*
X116491613Y-49981941D01*
X116387718Y-50232146D01*
X116387482Y-50503065D01*
X114138058Y-50503065D01*
X113924565Y-50183552D01*
X113525200Y-49916704D01*
X113054117Y-49823000D01*
X113005883Y-49823000D01*
X112534800Y-49916704D01*
X112135435Y-50183552D01*
X111868587Y-50582917D01*
X111774883Y-51054000D01*
X102056000Y-51054000D01*
X102056000Y-49007916D01*
X103174657Y-49007916D01*
X103475611Y-49736280D01*
X104032389Y-50294031D01*
X104760226Y-50596255D01*
X105548316Y-50596943D01*
X106276680Y-50295989D01*
X106834431Y-49739211D01*
X107136655Y-49011374D01*
X107136960Y-48661565D01*
X109986682Y-48661565D01*
X110090139Y-48911952D01*
X110281541Y-49103687D01*
X110531746Y-49207582D01*
X110802665Y-49207818D01*
X111053052Y-49104361D01*
X111244787Y-48912959D01*
X111348682Y-48662754D01*
X111348811Y-48514000D01*
X111774883Y-48514000D01*
X111868587Y-48985083D01*
X112135435Y-49384448D01*
X112534800Y-49651296D01*
X113005883Y-49745000D01*
X113054117Y-49745000D01*
X113525200Y-49651296D01*
X113924565Y-49384448D01*
X114191413Y-48985083D01*
X114227976Y-48801265D01*
X115409582Y-48801265D01*
X115513039Y-49051652D01*
X115704441Y-49243387D01*
X115954646Y-49347282D01*
X116225565Y-49347518D01*
X116475952Y-49244061D01*
X116667687Y-49052659D01*
X116682425Y-49017165D01*
X117162182Y-49017165D01*
X117265639Y-49267552D01*
X117457041Y-49459287D01*
X117707246Y-49563182D01*
X117978165Y-49563418D01*
X118228552Y-49459961D01*
X118420287Y-49268559D01*
X118477213Y-49131465D01*
X122661282Y-49131465D01*
X122764739Y-49381852D01*
X122956141Y-49573587D01*
X123206346Y-49677482D01*
X123477265Y-49677718D01*
X123727652Y-49574261D01*
X123919387Y-49382859D01*
X124023282Y-49132654D01*
X124023518Y-48861735D01*
X123920061Y-48611348D01*
X123822883Y-48514000D01*
X127014883Y-48514000D01*
X127108587Y-48985083D01*
X127375435Y-49384448D01*
X127774800Y-49651296D01*
X128245883Y-49745000D01*
X128294117Y-49745000D01*
X128765200Y-49651296D01*
X129164565Y-49384448D01*
X129416156Y-49007916D01*
X134467457Y-49007916D01*
X134768411Y-49736280D01*
X135325189Y-50294031D01*
X136053026Y-50596255D01*
X136841116Y-50596943D01*
X137569480Y-50295989D01*
X138127231Y-49739211D01*
X138429455Y-49011374D01*
X138430143Y-48223284D01*
X138129189Y-47494920D01*
X137572411Y-46937169D01*
X136844574Y-46634945D01*
X136056484Y-46634257D01*
X135328120Y-46935211D01*
X134770369Y-47491989D01*
X134468145Y-48219826D01*
X134467457Y-49007916D01*
X129416156Y-49007916D01*
X129431413Y-48985083D01*
X129525117Y-48514000D01*
X129431413Y-48042917D01*
X129164565Y-47643552D01*
X128765200Y-47376704D01*
X128294117Y-47283000D01*
X128245883Y-47283000D01*
X127774800Y-47376704D01*
X127375435Y-47643552D01*
X127108587Y-48042917D01*
X127014883Y-48514000D01*
X123822883Y-48514000D01*
X123728659Y-48419613D01*
X123478454Y-48315718D01*
X123207535Y-48315482D01*
X122957148Y-48418939D01*
X122765413Y-48610341D01*
X122661518Y-48860546D01*
X122661282Y-49131465D01*
X118477213Y-49131465D01*
X118524182Y-49018354D01*
X118524418Y-48747435D01*
X118420961Y-48497048D01*
X118229559Y-48305313D01*
X117979354Y-48201418D01*
X117708435Y-48201182D01*
X117458048Y-48304639D01*
X117266313Y-48496041D01*
X117162418Y-48746246D01*
X117162182Y-49017165D01*
X116682425Y-49017165D01*
X116771582Y-48802454D01*
X116771818Y-48531535D01*
X116668361Y-48281148D01*
X116476959Y-48089413D01*
X116226754Y-47985518D01*
X115955835Y-47985282D01*
X115705448Y-48088739D01*
X115513713Y-48280141D01*
X115409818Y-48530346D01*
X115409582Y-48801265D01*
X114227976Y-48801265D01*
X114285117Y-48514000D01*
X114191413Y-48042917D01*
X113924565Y-47643552D01*
X113525200Y-47376704D01*
X113054117Y-47283000D01*
X113005883Y-47283000D01*
X112534800Y-47376704D01*
X112135435Y-47643552D01*
X111868587Y-48042917D01*
X111774883Y-48514000D01*
X111348811Y-48514000D01*
X111348918Y-48391835D01*
X111245461Y-48141448D01*
X111054059Y-47949713D01*
X110803854Y-47845818D01*
X110532935Y-47845582D01*
X110282548Y-47949039D01*
X110090813Y-48140441D01*
X109986918Y-48390646D01*
X109986682Y-48661565D01*
X107136960Y-48661565D01*
X107137343Y-48223284D01*
X106836389Y-47494920D01*
X106279611Y-46937169D01*
X105551774Y-46634945D01*
X104763684Y-46634257D01*
X104035320Y-46935211D01*
X103477569Y-47491989D01*
X103175345Y-48219826D01*
X103174657Y-49007916D01*
X102056000Y-49007916D01*
X102056000Y-45974000D01*
X111774883Y-45974000D01*
X111868587Y-46445083D01*
X112135435Y-46844448D01*
X112534800Y-47111296D01*
X113005883Y-47205000D01*
X113054117Y-47205000D01*
X113525200Y-47111296D01*
X113924565Y-46844448D01*
X114034202Y-46680365D01*
X114901582Y-46680365D01*
X115005039Y-46930752D01*
X115196441Y-47122487D01*
X115446646Y-47226382D01*
X115717565Y-47226618D01*
X115967952Y-47123161D01*
X116159687Y-46931759D01*
X116263582Y-46681554D01*
X116263818Y-46410635D01*
X116170616Y-46185065D01*
X117657482Y-46185065D01*
X117760939Y-46435452D01*
X117952341Y-46627187D01*
X118202546Y-46731082D01*
X118473465Y-46731318D01*
X118723852Y-46627861D01*
X118915587Y-46436459D01*
X119019482Y-46186254D01*
X119019718Y-45915335D01*
X118916261Y-45664948D01*
X118869794Y-45618400D01*
X119392700Y-45618400D01*
X119392700Y-46037500D01*
X119402034Y-46085289D01*
X119429897Y-46127303D01*
X119696597Y-46394003D01*
X119711792Y-46404232D01*
X119651618Y-46549146D01*
X119651382Y-46820065D01*
X119754839Y-47070452D01*
X119794870Y-47110552D01*
X119755513Y-47149841D01*
X119651618Y-47400046D01*
X119651382Y-47670965D01*
X119754839Y-47921352D01*
X119946241Y-48113087D01*
X120196446Y-48216982D01*
X120467365Y-48217218D01*
X120717752Y-48113761D01*
X120909487Y-47922359D01*
X121013382Y-47672154D01*
X121013618Y-47401235D01*
X120910161Y-47150848D01*
X120870130Y-47110748D01*
X120909487Y-47071459D01*
X121013382Y-46821254D01*
X121013618Y-46550335D01*
X120910161Y-46299948D01*
X120718759Y-46108213D01*
X120586500Y-46053294D01*
X120586500Y-45618400D01*
X120577166Y-45570611D01*
X120549303Y-45528597D01*
X120320703Y-45299997D01*
X120280310Y-45272806D01*
X120230900Y-45262800D01*
X119748300Y-45262800D01*
X119700511Y-45272134D01*
X119658497Y-45299997D01*
X119429897Y-45528597D01*
X119402706Y-45568990D01*
X119392700Y-45618400D01*
X118869794Y-45618400D01*
X118724859Y-45473213D01*
X118474654Y-45369318D01*
X118203735Y-45369082D01*
X117953348Y-45472539D01*
X117761613Y-45663941D01*
X117657718Y-45914146D01*
X117657482Y-46185065D01*
X116170616Y-46185065D01*
X116160361Y-46160248D01*
X115968959Y-45968513D01*
X115718754Y-45864618D01*
X115447835Y-45864382D01*
X115197448Y-45967839D01*
X115005713Y-46159241D01*
X114901818Y-46409446D01*
X114901582Y-46680365D01*
X114034202Y-46680365D01*
X114191413Y-46445083D01*
X114285117Y-45974000D01*
X114191413Y-45502917D01*
X113938228Y-45124000D01*
X124491536Y-45124000D01*
X124491536Y-46824000D01*
X124518103Y-46965190D01*
X124601546Y-47094865D01*
X124728866Y-47181859D01*
X124880000Y-47212464D01*
X126580000Y-47212464D01*
X126721190Y-47185897D01*
X126850865Y-47102454D01*
X126937859Y-46975134D01*
X126968464Y-46824000D01*
X126968464Y-46290980D01*
X127080511Y-46290980D01*
X127204755Y-46590964D01*
X127521944Y-46951652D01*
X127953018Y-47163501D01*
X128143000Y-47103193D01*
X128143000Y-46101000D01*
X128397000Y-46101000D01*
X128397000Y-47103193D01*
X128586982Y-47163501D01*
X129018056Y-46951652D01*
X129335245Y-46590964D01*
X129459489Y-46290980D01*
X129398627Y-46101000D01*
X128397000Y-46101000D01*
X128143000Y-46101000D01*
X127141373Y-46101000D01*
X127080511Y-46290980D01*
X126968464Y-46290980D01*
X126968464Y-45657020D01*
X127080511Y-45657020D01*
X127141373Y-45847000D01*
X128143000Y-45847000D01*
X128143000Y-44844807D01*
X128397000Y-44844807D01*
X128397000Y-45847000D01*
X129398627Y-45847000D01*
X129459489Y-45657020D01*
X129335245Y-45357036D01*
X129018056Y-44996348D01*
X128586982Y-44784499D01*
X128397000Y-44844807D01*
X128143000Y-44844807D01*
X127953018Y-44784499D01*
X127521944Y-44996348D01*
X127204755Y-45357036D01*
X127080511Y-45657020D01*
X126968464Y-45657020D01*
X126968464Y-45124000D01*
X126941897Y-44982810D01*
X126858454Y-44853135D01*
X126731134Y-44766141D01*
X126580000Y-44735536D01*
X124880000Y-44735536D01*
X124738810Y-44762103D01*
X124609135Y-44845546D01*
X124522141Y-44972866D01*
X124491536Y-45124000D01*
X113938228Y-45124000D01*
X113924565Y-45103552D01*
X113525200Y-44836704D01*
X113054117Y-44743000D01*
X113005883Y-44743000D01*
X112534800Y-44836704D01*
X112135435Y-45103552D01*
X111868587Y-45502917D01*
X111774883Y-45974000D01*
X102056000Y-45974000D01*
X102056000Y-43656250D01*
X111799000Y-43656250D01*
X111799000Y-44359785D01*
X111857004Y-44499819D01*
X111964180Y-44606996D01*
X112104214Y-44665000D01*
X112807750Y-44665000D01*
X112903000Y-44569750D01*
X112903000Y-43561000D01*
X113157000Y-43561000D01*
X113157000Y-44569750D01*
X113252250Y-44665000D01*
X113955786Y-44665000D01*
X114095820Y-44606996D01*
X114202996Y-44499819D01*
X114261000Y-44359785D01*
X114261000Y-44140365D01*
X115549282Y-44140365D01*
X115652739Y-44390752D01*
X115844141Y-44582487D01*
X116094346Y-44686382D01*
X116365265Y-44686618D01*
X116615652Y-44583161D01*
X116807387Y-44391759D01*
X116911282Y-44141554D01*
X116911518Y-43870635D01*
X116808061Y-43620248D01*
X116616659Y-43428513D01*
X116366454Y-43324618D01*
X116095535Y-43324382D01*
X115845148Y-43427839D01*
X115653413Y-43619241D01*
X115549518Y-43869446D01*
X115549282Y-44140365D01*
X114261000Y-44140365D01*
X114261000Y-43656250D01*
X114165750Y-43561000D01*
X113157000Y-43561000D01*
X112903000Y-43561000D01*
X111894250Y-43561000D01*
X111799000Y-43656250D01*
X102056000Y-43656250D01*
X102056000Y-42508215D01*
X111799000Y-42508215D01*
X111799000Y-43211750D01*
X111894250Y-43307000D01*
X112903000Y-43307000D01*
X112903000Y-42298250D01*
X113157000Y-42298250D01*
X113157000Y-43307000D01*
X114165750Y-43307000D01*
X114261000Y-43211750D01*
X114261000Y-42508215D01*
X114202996Y-42368181D01*
X114095820Y-42261004D01*
X113955786Y-42203000D01*
X113252250Y-42203000D01*
X113157000Y-42298250D01*
X112903000Y-42298250D01*
X112807750Y-42203000D01*
X112104214Y-42203000D01*
X111964180Y-42261004D01*
X111857004Y-42368181D01*
X111799000Y-42508215D01*
X102056000Y-42508215D01*
X102056000Y-41892465D01*
X126166482Y-41892465D01*
X126269939Y-42142852D01*
X126461341Y-42334587D01*
X126711546Y-42438482D01*
X126982465Y-42438718D01*
X127087912Y-42395148D01*
X127062141Y-42432866D01*
X127031536Y-42584000D01*
X127031536Y-44284000D01*
X127058103Y-44425190D01*
X127141546Y-44554865D01*
X127268866Y-44641859D01*
X127420000Y-44672464D01*
X129120000Y-44672464D01*
X129261190Y-44645897D01*
X129390865Y-44562454D01*
X129477859Y-44435134D01*
X129508464Y-44284000D01*
X129508464Y-42584000D01*
X129481897Y-42442810D01*
X129398454Y-42313135D01*
X129271134Y-42226141D01*
X129120000Y-42195536D01*
X127420000Y-42195536D01*
X127361861Y-42206476D01*
X127424587Y-42143859D01*
X127528482Y-41893654D01*
X127528718Y-41622735D01*
X127425261Y-41372348D01*
X127233859Y-41180613D01*
X126983654Y-41076718D01*
X126712735Y-41076482D01*
X126462348Y-41179939D01*
X126270613Y-41371341D01*
X126166718Y-41621546D01*
X126166482Y-41892465D01*
X102056000Y-41892465D01*
X102056000Y-40901865D01*
X116489082Y-40901865D01*
X116592539Y-41152252D01*
X116783941Y-41343987D01*
X117034146Y-41447882D01*
X117305065Y-41448118D01*
X117555452Y-41344661D01*
X117747187Y-41153259D01*
X117851082Y-40903054D01*
X117851318Y-40632135D01*
X117747861Y-40381748D01*
X117556459Y-40190013D01*
X117306254Y-40086118D01*
X117035335Y-40085882D01*
X116784948Y-40189339D01*
X116593213Y-40380741D01*
X116489318Y-40630946D01*
X116489082Y-40901865D01*
X102056000Y-40901865D01*
X102056000Y-40050965D01*
X120641982Y-40050965D01*
X120745439Y-40301352D01*
X120936841Y-40493087D01*
X121187046Y-40596982D01*
X121457965Y-40597218D01*
X121708352Y-40493761D01*
X121900087Y-40302359D01*
X122003982Y-40052154D01*
X122004218Y-39781235D01*
X121900761Y-39530848D01*
X121709359Y-39339113D01*
X121459154Y-39235218D01*
X121188235Y-39234982D01*
X120937848Y-39338439D01*
X120746113Y-39529841D01*
X120642218Y-39780046D01*
X120641982Y-40050965D01*
X102056000Y-40050965D01*
X102056000Y-38892187D01*
X106413987Y-38892187D01*
X106601000Y-39344795D01*
X106946984Y-39691383D01*
X107399265Y-39879186D01*
X107888987Y-39879613D01*
X108341595Y-39692600D01*
X108688183Y-39346616D01*
X108875986Y-38894335D01*
X108875987Y-38892187D01*
X133033187Y-38892187D01*
X133220200Y-39344795D01*
X133566184Y-39691383D01*
X134018465Y-39879186D01*
X134508187Y-39879613D01*
X134960795Y-39692600D01*
X135307383Y-39346616D01*
X135495186Y-38894335D01*
X135495613Y-38404613D01*
X135308600Y-37952005D01*
X134962616Y-37605417D01*
X134510335Y-37417614D01*
X134020613Y-37417187D01*
X133568005Y-37604200D01*
X133221417Y-37950184D01*
X133033614Y-38402465D01*
X133033187Y-38892187D01*
X108875987Y-38892187D01*
X108876413Y-38404613D01*
X108689400Y-37952005D01*
X108343416Y-37605417D01*
X107891135Y-37417614D01*
X107401413Y-37417187D01*
X106948805Y-37604200D01*
X106602217Y-37950184D01*
X106414414Y-38402465D01*
X106413987Y-38892187D01*
X102056000Y-38892187D01*
X102056000Y-37256965D01*
X118635382Y-37256965D01*
X118738839Y-37507352D01*
X118930241Y-37699087D01*
X119080095Y-37761312D01*
X119079882Y-38006265D01*
X119183339Y-38256652D01*
X119374741Y-38448387D01*
X119624946Y-38552282D01*
X119895865Y-38552518D01*
X120146252Y-38449061D01*
X120337987Y-38257659D01*
X120441882Y-38007454D01*
X120442118Y-37736535D01*
X120338661Y-37486148D01*
X120147259Y-37294413D01*
X119997405Y-37232188D01*
X119997618Y-36987235D01*
X119894161Y-36736848D01*
X119702759Y-36545113D01*
X119452554Y-36441218D01*
X119181635Y-36440982D01*
X118931248Y-36544439D01*
X118739513Y-36735841D01*
X118635618Y-36986046D01*
X118635382Y-37256965D01*
X102056000Y-37256965D01*
X102056000Y-36228265D01*
X124553582Y-36228265D01*
X124657039Y-36478652D01*
X124848441Y-36670387D01*
X125098646Y-36774282D01*
X125369565Y-36774518D01*
X125619952Y-36671061D01*
X125811687Y-36479659D01*
X125915582Y-36229454D01*
X125915818Y-35958535D01*
X125812361Y-35708148D01*
X125620959Y-35516413D01*
X125370754Y-35412518D01*
X125099835Y-35412282D01*
X124849448Y-35515739D01*
X124657713Y-35707141D01*
X124553818Y-35957346D01*
X124553582Y-36228265D01*
X102056000Y-36228265D01*
X102056000Y-31892187D01*
X106413987Y-31892187D01*
X106601000Y-32344795D01*
X106946984Y-32691383D01*
X107399265Y-32879186D01*
X107888987Y-32879613D01*
X108341595Y-32692600D01*
X108357185Y-32677037D01*
X115224362Y-32677037D01*
X115224362Y-32854961D01*
X115417708Y-33826977D01*
X115485796Y-33991356D01*
X116036399Y-34815391D01*
X116162209Y-34941201D01*
X116986244Y-35491804D01*
X117150623Y-35559892D01*
X118122639Y-35753238D01*
X118167550Y-35753238D01*
X118211600Y-35762000D01*
X123291600Y-35762000D01*
X123335650Y-35753238D01*
X123380561Y-35753238D01*
X124352577Y-35559892D01*
X124516956Y-35491804D01*
X125340991Y-34941201D01*
X125466803Y-34815389D01*
X126017404Y-33991356D01*
X126085492Y-33826977D01*
X126278838Y-32854961D01*
X126278838Y-32677037D01*
X126122722Y-31892187D01*
X133033187Y-31892187D01*
X133220200Y-32344795D01*
X133566184Y-32691383D01*
X134018465Y-32879186D01*
X134508187Y-32879613D01*
X134960795Y-32692600D01*
X135307383Y-32346616D01*
X135495186Y-31894335D01*
X135495613Y-31404613D01*
X135308600Y-30952005D01*
X134962616Y-30605417D01*
X134510335Y-30417614D01*
X134020613Y-30417187D01*
X133568005Y-30604200D01*
X133221417Y-30950184D01*
X133033614Y-31402465D01*
X133033187Y-31892187D01*
X126122722Y-31892187D01*
X126085492Y-31705023D01*
X126017404Y-31540644D01*
X125466801Y-30716609D01*
X125340991Y-30590799D01*
X124516956Y-30040196D01*
X124352577Y-29972108D01*
X123380561Y-29778762D01*
X123335650Y-29778762D01*
X123291600Y-29770000D01*
X118211600Y-29770000D01*
X118167550Y-29778762D01*
X118122639Y-29778762D01*
X117150623Y-29972108D01*
X116986244Y-30040196D01*
X116162211Y-30590797D01*
X116036399Y-30716609D01*
X115485796Y-31540644D01*
X115417708Y-31705023D01*
X115224362Y-32677037D01*
X108357185Y-32677037D01*
X108688183Y-32346616D01*
X108875986Y-31894335D01*
X108876413Y-31404613D01*
X108689400Y-30952005D01*
X108343416Y-30605417D01*
X107891135Y-30417614D01*
X107401413Y-30417187D01*
X106948805Y-30604200D01*
X106602217Y-30950184D01*
X106414414Y-31402465D01*
X106413987Y-31892187D01*
X102056000Y-31892187D01*
X102056000Y-28599200D01*
X139599600Y-28599200D01*
X139599600Y-86818400D01*
X139599600Y-86818400D01*
G37*
X139599600Y-86818400D02*
X132384800Y-86818400D01*
X132210296Y-86853111D01*
X132062359Y-86951959D01*
X131963511Y-87099896D01*
X131928800Y-87274400D01*
X131928800Y-94996000D01*
X131963511Y-95170504D01*
X132062359Y-95318441D01*
X132210296Y-95417289D01*
X132384800Y-95452000D01*
X137541000Y-95452000D01*
X137541000Y-100521886D01*
X133018030Y-104039752D01*
X132985171Y-104077985D01*
X132969000Y-104140000D01*
X132969000Y-125274000D01*
X102056000Y-125274000D01*
X102056000Y-122515516D01*
X103225457Y-122515516D01*
X103526411Y-123243880D01*
X104083189Y-123801631D01*
X104811026Y-124103855D01*
X105599116Y-124104543D01*
X106327480Y-123803589D01*
X106885231Y-123246811D01*
X107187455Y-122518974D01*
X107188143Y-121730884D01*
X106887189Y-121002520D01*
X106330411Y-120444769D01*
X105602574Y-120142545D01*
X104814484Y-120141857D01*
X104086120Y-120442811D01*
X103528369Y-120999589D01*
X103226145Y-121727426D01*
X103225457Y-122515516D01*
X102056000Y-122515516D01*
X102056000Y-119603765D01*
X109885082Y-119603765D01*
X109988539Y-119854152D01*
X110179941Y-120045887D01*
X110430146Y-120149782D01*
X110701065Y-120150018D01*
X110915429Y-120061445D01*
X110903613Y-120073241D01*
X110799718Y-120323446D01*
X110799482Y-120594365D01*
X110902939Y-120844752D01*
X111094341Y-121036487D01*
X111344546Y-121140382D01*
X111615465Y-121140618D01*
X111673373Y-121116691D01*
X111612518Y-121263246D01*
X111612282Y-121534165D01*
X111715739Y-121784552D01*
X111907141Y-121976287D01*
X112157346Y-122080182D01*
X112428265Y-122080418D01*
X112678652Y-121976961D01*
X112870387Y-121785559D01*
X112974282Y-121535354D01*
X112974518Y-121264435D01*
X112871061Y-121014048D01*
X112679659Y-120822313D01*
X112429454Y-120718418D01*
X112158535Y-120718182D01*
X112100627Y-120742109D01*
X112161482Y-120595554D01*
X112161718Y-120324635D01*
X112058261Y-120074248D01*
X112057680Y-120073665D01*
X117124082Y-120073665D01*
X117227539Y-120324052D01*
X117418941Y-120515787D01*
X117669146Y-120619682D01*
X117940065Y-120619918D01*
X118190452Y-120516461D01*
X118377357Y-120329880D01*
X118395939Y-120374852D01*
X118587341Y-120566587D01*
X118837546Y-120670482D01*
X119108465Y-120670718D01*
X119358852Y-120567261D01*
X119550587Y-120375859D01*
X119591693Y-120276865D01*
X120781682Y-120276865D01*
X120885139Y-120527252D01*
X121076541Y-120718987D01*
X121326746Y-120822882D01*
X121597665Y-120823118D01*
X121848052Y-120719661D01*
X122039787Y-120528259D01*
X122143682Y-120278054D01*
X122143918Y-120007135D01*
X122045468Y-119768865D01*
X126064882Y-119768865D01*
X126168339Y-120019252D01*
X126359741Y-120210987D01*
X126609946Y-120314882D01*
X126880865Y-120315118D01*
X127131252Y-120211661D01*
X127322987Y-120020259D01*
X127426882Y-119770054D01*
X127426944Y-119698400D01*
X129063536Y-119698400D01*
X129063536Y-121398400D01*
X129090103Y-121539590D01*
X129173546Y-121669265D01*
X129300866Y-121756259D01*
X129452000Y-121786864D01*
X131152000Y-121786864D01*
X131293190Y-121760297D01*
X131422865Y-121676854D01*
X131509859Y-121549534D01*
X131540464Y-121398400D01*
X131540464Y-119698400D01*
X131513897Y-119557210D01*
X131430454Y-119427535D01*
X131303134Y-119340541D01*
X131152000Y-119309936D01*
X129452000Y-119309936D01*
X129310810Y-119336503D01*
X129181135Y-119419946D01*
X129094141Y-119547266D01*
X129063536Y-119698400D01*
X127426944Y-119698400D01*
X127427118Y-119499135D01*
X127323661Y-119248748D01*
X127132259Y-119057013D01*
X126882054Y-118953118D01*
X126611135Y-118952882D01*
X126360748Y-119056339D01*
X126169013Y-119247741D01*
X126065118Y-119497946D01*
X126064882Y-119768865D01*
X122045468Y-119768865D01*
X122040461Y-119756748D01*
X121849059Y-119565013D01*
X121598854Y-119461118D01*
X121327935Y-119460882D01*
X121077548Y-119564339D01*
X120885813Y-119755741D01*
X120781918Y-120005946D01*
X120781682Y-120276865D01*
X119591693Y-120276865D01*
X119654482Y-120125654D01*
X119654718Y-119854735D01*
X119551261Y-119604348D01*
X119359859Y-119412613D01*
X119109654Y-119308718D01*
X118838735Y-119308482D01*
X118588348Y-119411939D01*
X118401443Y-119598520D01*
X118382861Y-119553548D01*
X118191459Y-119361813D01*
X117941254Y-119257918D01*
X117670335Y-119257682D01*
X117419948Y-119361139D01*
X117228213Y-119552541D01*
X117124318Y-119802746D01*
X117124082Y-120073665D01*
X112057680Y-120073665D01*
X111866859Y-119882513D01*
X111616654Y-119778618D01*
X111345735Y-119778382D01*
X111131371Y-119866955D01*
X111143187Y-119855159D01*
X111247082Y-119604954D01*
X111247318Y-119334035D01*
X111143861Y-119083648D01*
X110952459Y-118891913D01*
X110702254Y-118788018D01*
X110431335Y-118787782D01*
X110180948Y-118891239D01*
X109989213Y-119082641D01*
X109885318Y-119332846D01*
X109885082Y-119603765D01*
X102056000Y-119603765D01*
X102056000Y-114221559D01*
X105638402Y-114221559D01*
X105812046Y-114641812D01*
X106133297Y-114963623D01*
X106553246Y-115138001D01*
X107007959Y-115138398D01*
X107428212Y-114964754D01*
X107750023Y-114643503D01*
X107924401Y-114223554D01*
X107924798Y-113768841D01*
X107751154Y-113348588D01*
X107429903Y-113026777D01*
X107009954Y-112852399D01*
X106555241Y-112852002D01*
X106134988Y-113025646D01*
X105813177Y-113346897D01*
X105638799Y-113766846D01*
X105638402Y-114221559D01*
X102056000Y-114221559D01*
X102056000Y-109137450D01*
X103098600Y-109137450D01*
X103098600Y-109752985D01*
X103156604Y-109893019D01*
X103263780Y-110000196D01*
X103403814Y-110058200D01*
X104019350Y-110058200D01*
X104114600Y-109962950D01*
X104114600Y-109042200D01*
X104368600Y-109042200D01*
X104368600Y-109962950D01*
X104463850Y-110058200D01*
X105079386Y-110058200D01*
X105219420Y-110000196D01*
X105326596Y-109893019D01*
X105384600Y-109752985D01*
X105384600Y-109141559D01*
X108178402Y-109141559D01*
X108352046Y-109561812D01*
X108673297Y-109883623D01*
X109093246Y-110058001D01*
X109547959Y-110058398D01*
X109968212Y-109884754D01*
X110290023Y-109563503D01*
X110464401Y-109143554D01*
X110464798Y-108688841D01*
X110291154Y-108268588D01*
X109969903Y-107946777D01*
X109549954Y-107772399D01*
X109095241Y-107772002D01*
X108674988Y-107945646D01*
X108353177Y-108266897D01*
X108178799Y-108686846D01*
X108178402Y-109141559D01*
X105384600Y-109141559D01*
X105384600Y-109137450D01*
X105289350Y-109042200D01*
X104368600Y-109042200D01*
X104114600Y-109042200D01*
X103193850Y-109042200D01*
X103098600Y-109137450D01*
X102056000Y-109137450D01*
X102056000Y-108077415D01*
X103098600Y-108077415D01*
X103098600Y-108692950D01*
X103193850Y-108788200D01*
X104114600Y-108788200D01*
X104114600Y-107867450D01*
X104368600Y-107867450D01*
X104368600Y-108788200D01*
X105289350Y-108788200D01*
X105384600Y-108692950D01*
X105384600Y-108077415D01*
X105326596Y-107937381D01*
X105219420Y-107830204D01*
X105079386Y-107772200D01*
X104463850Y-107772200D01*
X104368600Y-107867450D01*
X104114600Y-107867450D01*
X104019350Y-107772200D01*
X103403814Y-107772200D01*
X103263780Y-107830204D01*
X103156604Y-107937381D01*
X103098600Y-108077415D01*
X102056000Y-108077415D01*
X102056000Y-107475265D01*
X116463682Y-107475265D01*
X116567139Y-107725652D01*
X116758541Y-107917387D01*
X117008746Y-108021282D01*
X117279665Y-108021518D01*
X117530052Y-107918061D01*
X117721787Y-107726659D01*
X117825682Y-107476454D01*
X117825918Y-107205535D01*
X117722461Y-106955148D01*
X117531059Y-106763413D01*
X117280854Y-106659518D01*
X117009935Y-106659282D01*
X116759548Y-106762739D01*
X116567813Y-106954141D01*
X116463918Y-107204346D01*
X116463682Y-107475265D01*
X102056000Y-107475265D01*
X102056000Y-103563665D01*
X115904882Y-103563665D01*
X116008339Y-103814052D01*
X116199741Y-104005787D01*
X116449946Y-104109682D01*
X116720865Y-104109918D01*
X116971252Y-104006461D01*
X117162987Y-103815059D01*
X117266882Y-103564854D01*
X117267118Y-103293935D01*
X117163661Y-103043548D01*
X116972259Y-102851813D01*
X116722054Y-102747918D01*
X116451135Y-102747682D01*
X116200748Y-102851139D01*
X116009013Y-103042541D01*
X115905118Y-103292746D01*
X115904882Y-103563665D01*
X102056000Y-103563665D01*
X102056000Y-102526580D01*
X102544111Y-102526580D01*
X102668355Y-102826564D01*
X102985544Y-103187252D01*
X103416618Y-103399101D01*
X103606600Y-103338793D01*
X103606600Y-102336600D01*
X103860600Y-102336600D01*
X103860600Y-103338793D01*
X104050582Y-103399101D01*
X104481656Y-103187252D01*
X104798845Y-102826564D01*
X104923089Y-102526580D01*
X104862227Y-102336600D01*
X103860600Y-102336600D01*
X103606600Y-102336600D01*
X102604973Y-102336600D01*
X102544111Y-102526580D01*
X102056000Y-102526580D01*
X102056000Y-101892620D01*
X102544111Y-101892620D01*
X102604973Y-102082600D01*
X103606600Y-102082600D01*
X103606600Y-101080407D01*
X103860600Y-101080407D01*
X103860600Y-102082600D01*
X104862227Y-102082600D01*
X104923089Y-101892620D01*
X104907094Y-101854000D01*
X111774883Y-101854000D01*
X111868587Y-102325083D01*
X112135435Y-102724448D01*
X112534800Y-102991296D01*
X113005883Y-103085000D01*
X113054117Y-103085000D01*
X113525200Y-102991296D01*
X113924565Y-102724448D01*
X114110575Y-102446065D01*
X121530982Y-102446065D01*
X121634439Y-102696452D01*
X121825841Y-102888187D01*
X122076046Y-102992082D01*
X122346965Y-102992318D01*
X122597352Y-102888861D01*
X122789087Y-102697459D01*
X122892982Y-102447254D01*
X122893218Y-102176335D01*
X122789761Y-101925948D01*
X122717938Y-101854000D01*
X127014883Y-101854000D01*
X127108587Y-102325083D01*
X127375435Y-102724448D01*
X127774800Y-102991296D01*
X128245883Y-103085000D01*
X128294117Y-103085000D01*
X128765200Y-102991296D01*
X129164565Y-102724448D01*
X129431413Y-102325083D01*
X129525117Y-101854000D01*
X129431413Y-101382917D01*
X129164565Y-100983552D01*
X128920489Y-100820465D01*
X129570082Y-100820465D01*
X129673539Y-101070852D01*
X129864941Y-101262587D01*
X130115146Y-101366482D01*
X130386065Y-101366718D01*
X130636452Y-101263261D01*
X130828187Y-101071859D01*
X130932082Y-100821654D01*
X130932318Y-100550735D01*
X130828861Y-100300348D01*
X130637459Y-100108613D01*
X130387254Y-100004718D01*
X130116335Y-100004482D01*
X129865948Y-100107939D01*
X129674213Y-100299341D01*
X129570318Y-100549546D01*
X129570082Y-100820465D01*
X128920489Y-100820465D01*
X128765200Y-100716704D01*
X128294117Y-100623000D01*
X128245883Y-100623000D01*
X127774800Y-100716704D01*
X127375435Y-100983552D01*
X127108587Y-101382917D01*
X127014883Y-101854000D01*
X122717938Y-101854000D01*
X122598359Y-101734213D01*
X122348154Y-101630318D01*
X122077235Y-101630082D01*
X121826848Y-101733539D01*
X121635113Y-101924941D01*
X121531218Y-102175146D01*
X121530982Y-102446065D01*
X114110575Y-102446065D01*
X114191413Y-102325083D01*
X114285117Y-101854000D01*
X114191413Y-101382917D01*
X113924565Y-100983552D01*
X113525200Y-100716704D01*
X113054117Y-100623000D01*
X113005883Y-100623000D01*
X112534800Y-100716704D01*
X112135435Y-100983552D01*
X111868587Y-101382917D01*
X111774883Y-101854000D01*
X104907094Y-101854000D01*
X104798845Y-101592636D01*
X104481656Y-101231948D01*
X104050582Y-101020099D01*
X103860600Y-101080407D01*
X103606600Y-101080407D01*
X103416618Y-101020099D01*
X102985544Y-101231948D01*
X102668355Y-101592636D01*
X102544111Y-101892620D01*
X102056000Y-101892620D01*
X102056000Y-99669600D01*
X102478483Y-99669600D01*
X102572187Y-100140683D01*
X102839035Y-100540048D01*
X103238400Y-100806896D01*
X103709483Y-100900600D01*
X103757717Y-100900600D01*
X104228800Y-100806896D01*
X104360547Y-100718865D01*
X110672482Y-100718865D01*
X110775939Y-100969252D01*
X110967341Y-101160987D01*
X111217546Y-101264882D01*
X111488465Y-101265118D01*
X111738852Y-101161661D01*
X111930587Y-100970259D01*
X112034482Y-100720054D01*
X112034718Y-100449135D01*
X111931261Y-100198748D01*
X111739859Y-100007013D01*
X111489654Y-99903118D01*
X111218735Y-99902882D01*
X110968348Y-100006339D01*
X110776613Y-100197741D01*
X110672718Y-100447946D01*
X110672482Y-100718865D01*
X104360547Y-100718865D01*
X104628165Y-100540048D01*
X104895013Y-100140683D01*
X104988717Y-99669600D01*
X104917984Y-99314000D01*
X111774883Y-99314000D01*
X111868587Y-99785083D01*
X112135435Y-100184448D01*
X112534800Y-100451296D01*
X113005883Y-100545000D01*
X113054117Y-100545000D01*
X113525200Y-100451296D01*
X113924565Y-100184448D01*
X114191413Y-99785083D01*
X114285117Y-99314000D01*
X114281630Y-99296465D01*
X124693282Y-99296465D01*
X124796739Y-99546852D01*
X124988141Y-99738587D01*
X125238346Y-99842482D01*
X125509265Y-99842718D01*
X125759652Y-99739261D01*
X125951387Y-99547859D01*
X126048494Y-99314000D01*
X127014883Y-99314000D01*
X127108587Y-99785083D01*
X127375435Y-100184448D01*
X127774800Y-100451296D01*
X128245883Y-100545000D01*
X128294117Y-100545000D01*
X128765200Y-100451296D01*
X129164565Y-100184448D01*
X129431413Y-99785083D01*
X129525117Y-99314000D01*
X129437964Y-98875850D01*
X133084200Y-98875850D01*
X133084200Y-99579385D01*
X133142204Y-99719419D01*
X133249380Y-99826596D01*
X133389414Y-99884600D01*
X134092950Y-99884600D01*
X134188200Y-99789350D01*
X134188200Y-98780600D01*
X134442200Y-98780600D01*
X134442200Y-99789350D01*
X134537450Y-99884600D01*
X135240986Y-99884600D01*
X135381020Y-99826596D01*
X135488196Y-99719419D01*
X135546200Y-99579385D01*
X135546200Y-98875850D01*
X135450950Y-98780600D01*
X134442200Y-98780600D01*
X134188200Y-98780600D01*
X133179450Y-98780600D01*
X133084200Y-98875850D01*
X129437964Y-98875850D01*
X129431413Y-98842917D01*
X129164565Y-98443552D01*
X128765200Y-98176704D01*
X128294117Y-98083000D01*
X128245883Y-98083000D01*
X127774800Y-98176704D01*
X127375435Y-98443552D01*
X127108587Y-98842917D01*
X127014883Y-99314000D01*
X126048494Y-99314000D01*
X126055282Y-99297654D01*
X126055518Y-99026735D01*
X125952061Y-98776348D01*
X125850128Y-98674238D01*
X126063846Y-98762982D01*
X126334765Y-98763218D01*
X126585152Y-98659761D01*
X126776887Y-98468359D01*
X126880782Y-98218154D01*
X126881018Y-97947235D01*
X126777561Y-97696848D01*
X126586159Y-97505113D01*
X126335954Y-97401218D01*
X126065035Y-97400982D01*
X125814648Y-97504439D01*
X125622913Y-97695841D01*
X125519018Y-97946046D01*
X125518782Y-98216965D01*
X125622239Y-98467352D01*
X125724172Y-98569462D01*
X125510454Y-98480718D01*
X125239535Y-98480482D01*
X124989148Y-98583939D01*
X124797413Y-98775341D01*
X124693518Y-99025546D01*
X124693282Y-99296465D01*
X114281630Y-99296465D01*
X114191413Y-98842917D01*
X113924565Y-98443552D01*
X113525200Y-98176704D01*
X113054117Y-98083000D01*
X113005883Y-98083000D01*
X112534800Y-98176704D01*
X112135435Y-98443552D01*
X111868587Y-98842917D01*
X111774883Y-99314000D01*
X104917984Y-99314000D01*
X104895013Y-99198517D01*
X104628165Y-98799152D01*
X104228800Y-98532304D01*
X103757717Y-98438600D01*
X103709483Y-98438600D01*
X103238400Y-98532304D01*
X102839035Y-98799152D01*
X102572187Y-99198517D01*
X102478483Y-99669600D01*
X102056000Y-99669600D01*
X102056000Y-97129600D01*
X102478483Y-97129600D01*
X102572187Y-97600683D01*
X102839035Y-98000048D01*
X103238400Y-98266896D01*
X103709483Y-98360600D01*
X103757717Y-98360600D01*
X104228800Y-98266896D01*
X104628165Y-98000048D01*
X104895013Y-97600683D01*
X104988717Y-97129600D01*
X104917984Y-96774000D01*
X111774883Y-96774000D01*
X111868587Y-97245083D01*
X112135435Y-97644448D01*
X112534800Y-97911296D01*
X113005883Y-98005000D01*
X113054117Y-98005000D01*
X113525200Y-97911296D01*
X113924565Y-97644448D01*
X114191413Y-97245083D01*
X114238081Y-97010465D01*
X115092082Y-97010465D01*
X115195539Y-97260852D01*
X115386941Y-97452587D01*
X115637146Y-97556482D01*
X115908065Y-97556718D01*
X116158452Y-97453261D01*
X116350187Y-97261859D01*
X116454082Y-97011654D01*
X116454318Y-96740735D01*
X116350861Y-96490348D01*
X116159459Y-96298613D01*
X115909254Y-96194718D01*
X115638335Y-96194482D01*
X115387948Y-96297939D01*
X115196213Y-96489341D01*
X115092318Y-96739546D01*
X115092082Y-97010465D01*
X114238081Y-97010465D01*
X114285117Y-96774000D01*
X114191413Y-96302917D01*
X113924565Y-95903552D01*
X113525200Y-95636704D01*
X113408370Y-95613465D01*
X126217282Y-95613465D01*
X126320739Y-95863852D01*
X126512141Y-96055587D01*
X126762346Y-96159482D01*
X127033265Y-96159718D01*
X127269487Y-96062114D01*
X127108587Y-96302917D01*
X127014883Y-96774000D01*
X127108587Y-97245083D01*
X127375435Y-97644448D01*
X127774800Y-97911296D01*
X128245883Y-98005000D01*
X128294117Y-98005000D01*
X128765200Y-97911296D01*
X129039797Y-97727815D01*
X133084200Y-97727815D01*
X133084200Y-98431350D01*
X133179450Y-98526600D01*
X134188200Y-98526600D01*
X134188200Y-97517850D01*
X134442200Y-97517850D01*
X134442200Y-98526600D01*
X135450950Y-98526600D01*
X135546200Y-98431350D01*
X135546200Y-97727815D01*
X135488196Y-97587781D01*
X135381020Y-97480604D01*
X135240986Y-97422600D01*
X134537450Y-97422600D01*
X134442200Y-97517850D01*
X134188200Y-97517850D01*
X134092950Y-97422600D01*
X133389414Y-97422600D01*
X133249380Y-97480604D01*
X133142204Y-97587781D01*
X133084200Y-97727815D01*
X129039797Y-97727815D01*
X129164565Y-97644448D01*
X129431413Y-97245083D01*
X129525117Y-96774000D01*
X129431413Y-96302917D01*
X129164565Y-95903552D01*
X128765200Y-95636704D01*
X128294117Y-95543000D01*
X128245883Y-95543000D01*
X127774800Y-95636704D01*
X127491532Y-95825978D01*
X127579282Y-95614654D01*
X127579518Y-95343735D01*
X127520773Y-95201560D01*
X127774800Y-95371296D01*
X128245883Y-95465000D01*
X128294117Y-95465000D01*
X128765200Y-95371296D01*
X129164565Y-95104448D01*
X129431413Y-94705083D01*
X129525117Y-94234000D01*
X129431413Y-93762917D01*
X129164565Y-93363552D01*
X128765200Y-93096704D01*
X128294117Y-93003000D01*
X128245883Y-93003000D01*
X127774800Y-93096704D01*
X127375435Y-93363552D01*
X127108587Y-93762917D01*
X127014883Y-94234000D01*
X127108587Y-94705083D01*
X127222719Y-94875893D01*
X127034454Y-94797718D01*
X126763535Y-94797482D01*
X126513148Y-94900939D01*
X126321413Y-95092341D01*
X126217518Y-95342546D01*
X126217282Y-95613465D01*
X113408370Y-95613465D01*
X113054117Y-95543000D01*
X113005883Y-95543000D01*
X112534800Y-95636704D01*
X112135435Y-95903552D01*
X111868587Y-96302917D01*
X111774883Y-96774000D01*
X104917984Y-96774000D01*
X104895013Y-96658517D01*
X104628165Y-96259152D01*
X104228800Y-95992304D01*
X103757717Y-95898600D01*
X103709483Y-95898600D01*
X103238400Y-95992304D01*
X102839035Y-96259152D01*
X102572187Y-96658517D01*
X102478483Y-97129600D01*
X102056000Y-97129600D01*
X102056000Y-93739600D01*
X102495136Y-93739600D01*
X102495136Y-95439600D01*
X102521703Y-95580790D01*
X102605146Y-95710465D01*
X102732466Y-95797459D01*
X102883600Y-95828064D01*
X104583600Y-95828064D01*
X104724790Y-95801497D01*
X104854465Y-95718054D01*
X104941459Y-95590734D01*
X104972064Y-95439600D01*
X104972064Y-94234000D01*
X111774883Y-94234000D01*
X111868587Y-94705083D01*
X112135435Y-95104448D01*
X112534800Y-95371296D01*
X113005883Y-95465000D01*
X113054117Y-95465000D01*
X113525200Y-95371296D01*
X113924565Y-95104448D01*
X114191413Y-94705083D01*
X114258290Y-94368865D01*
X122559682Y-94368865D01*
X122663139Y-94619252D01*
X122854541Y-94810987D01*
X123104746Y-94914882D01*
X123375665Y-94915118D01*
X123626052Y-94811661D01*
X123817787Y-94620259D01*
X123921682Y-94370054D01*
X123921918Y-94099135D01*
X123818461Y-93848748D01*
X123627059Y-93657013D01*
X123376854Y-93553118D01*
X123105935Y-93552882D01*
X122855548Y-93656339D01*
X122663813Y-93847741D01*
X122559918Y-94097946D01*
X122559682Y-94368865D01*
X114258290Y-94368865D01*
X114285117Y-94234000D01*
X114191413Y-93762917D01*
X113924565Y-93363552D01*
X113525200Y-93096704D01*
X113054117Y-93003000D01*
X113005883Y-93003000D01*
X112534800Y-93096704D01*
X112135435Y-93363552D01*
X111868587Y-93762917D01*
X111774883Y-94234000D01*
X104972064Y-94234000D01*
X104972064Y-93739600D01*
X104945497Y-93598410D01*
X104862054Y-93468735D01*
X104734734Y-93381741D01*
X104583600Y-93351136D01*
X102883600Y-93351136D01*
X102742410Y-93377703D01*
X102612735Y-93461146D01*
X102525741Y-93588466D01*
X102495136Y-93739600D01*
X102056000Y-93739600D01*
X102056000Y-91694000D01*
X111774883Y-91694000D01*
X111868587Y-92165083D01*
X112135435Y-92564448D01*
X112534800Y-92831296D01*
X113005883Y-92925000D01*
X113054117Y-92925000D01*
X113525200Y-92831296D01*
X113924565Y-92564448D01*
X114191413Y-92165083D01*
X114285117Y-91694000D01*
X127014883Y-91694000D01*
X127108587Y-92165083D01*
X127375435Y-92564448D01*
X127774800Y-92831296D01*
X128245883Y-92925000D01*
X128294117Y-92925000D01*
X128765200Y-92831296D01*
X129164565Y-92564448D01*
X129431413Y-92165083D01*
X129525117Y-91694000D01*
X129431413Y-91222917D01*
X129164565Y-90823552D01*
X128765200Y-90556704D01*
X128294117Y-90463000D01*
X128245883Y-90463000D01*
X127774800Y-90556704D01*
X127375435Y-90823552D01*
X127108587Y-91222917D01*
X127014883Y-91694000D01*
X114285117Y-91694000D01*
X114191413Y-91222917D01*
X113924565Y-90823552D01*
X113525200Y-90556704D01*
X113054117Y-90463000D01*
X113005883Y-90463000D01*
X112534800Y-90556704D01*
X112135435Y-90823552D01*
X111868587Y-91222917D01*
X111774883Y-91694000D01*
X102056000Y-91694000D01*
X102056000Y-89154000D01*
X111774883Y-89154000D01*
X111868587Y-89625083D01*
X112135435Y-90024448D01*
X112534800Y-90291296D01*
X113005883Y-90385000D01*
X113054117Y-90385000D01*
X113525200Y-90291296D01*
X113924565Y-90024448D01*
X114191413Y-89625083D01*
X114285117Y-89154000D01*
X127014883Y-89154000D01*
X127108587Y-89625083D01*
X127375435Y-90024448D01*
X127774800Y-90291296D01*
X128245883Y-90385000D01*
X128294117Y-90385000D01*
X128765200Y-90291296D01*
X129164565Y-90024448D01*
X129431413Y-89625083D01*
X129525117Y-89154000D01*
X129431413Y-88682917D01*
X129164565Y-88283552D01*
X128765200Y-88016704D01*
X128294117Y-87923000D01*
X128245883Y-87923000D01*
X127774800Y-88016704D01*
X127375435Y-88283552D01*
X127108587Y-88682917D01*
X127014883Y-89154000D01*
X114285117Y-89154000D01*
X114191413Y-88682917D01*
X113924565Y-88283552D01*
X113525200Y-88016704D01*
X113054117Y-87923000D01*
X113005883Y-87923000D01*
X112534800Y-88016704D01*
X112135435Y-88283552D01*
X111868587Y-88682917D01*
X111774883Y-89154000D01*
X102056000Y-89154000D01*
X102056000Y-87032582D01*
X102391699Y-87032582D01*
X102603548Y-87463656D01*
X102964236Y-87780845D01*
X103264220Y-87905089D01*
X103454200Y-87844227D01*
X103454200Y-86842600D01*
X103708200Y-86842600D01*
X103708200Y-87844227D01*
X103898180Y-87905089D01*
X104198164Y-87780845D01*
X104558852Y-87463656D01*
X104770701Y-87032582D01*
X104710393Y-86842600D01*
X103708200Y-86842600D01*
X103454200Y-86842600D01*
X102452007Y-86842600D01*
X102391699Y-87032582D01*
X102056000Y-87032582D01*
X102056000Y-86398618D01*
X102391699Y-86398618D01*
X102452007Y-86588600D01*
X103454200Y-86588600D01*
X103454200Y-85586973D01*
X103708200Y-85586973D01*
X103708200Y-86588600D01*
X104710393Y-86588600D01*
X104770701Y-86398618D01*
X104558852Y-85967544D01*
X104442928Y-85865600D01*
X104882736Y-85865600D01*
X104882736Y-87565600D01*
X104909303Y-87706790D01*
X104992746Y-87836465D01*
X105120066Y-87923459D01*
X105271200Y-87954064D01*
X106971200Y-87954064D01*
X107112390Y-87927497D01*
X107242065Y-87844054D01*
X107329059Y-87716734D01*
X107359664Y-87565600D01*
X107359664Y-86614000D01*
X111774883Y-86614000D01*
X111868587Y-87085083D01*
X112135435Y-87484448D01*
X112534800Y-87751296D01*
X113005883Y-87845000D01*
X113054117Y-87845000D01*
X113525200Y-87751296D01*
X113656947Y-87663265D01*
X119473582Y-87663265D01*
X119577039Y-87913652D01*
X119768441Y-88105387D01*
X120018646Y-88209282D01*
X120289565Y-88209518D01*
X120539952Y-88106061D01*
X120731687Y-87914659D01*
X120835582Y-87664454D01*
X120835818Y-87393535D01*
X120732361Y-87143148D01*
X120540959Y-86951413D01*
X120290754Y-86847518D01*
X120019835Y-86847282D01*
X119769448Y-86950739D01*
X119577713Y-87142141D01*
X119473818Y-87392346D01*
X119473582Y-87663265D01*
X113656947Y-87663265D01*
X113924565Y-87484448D01*
X114191413Y-87085083D01*
X114285117Y-86614000D01*
X127014883Y-86614000D01*
X127108587Y-87085083D01*
X127375435Y-87484448D01*
X127774800Y-87751296D01*
X128245883Y-87845000D01*
X128294117Y-87845000D01*
X128765200Y-87751296D01*
X129164565Y-87484448D01*
X129431413Y-87085083D01*
X129525117Y-86614000D01*
X129431413Y-86142917D01*
X129164565Y-85743552D01*
X128765200Y-85476704D01*
X128294117Y-85383000D01*
X128245883Y-85383000D01*
X127774800Y-85476704D01*
X127375435Y-85743552D01*
X127108587Y-86142917D01*
X127014883Y-86614000D01*
X114285117Y-86614000D01*
X114191413Y-86142917D01*
X113924565Y-85743552D01*
X113547441Y-85491565D01*
X120210182Y-85491565D01*
X120313639Y-85741952D01*
X120505041Y-85933687D01*
X120755246Y-86037582D01*
X121026165Y-86037818D01*
X121276552Y-85934361D01*
X121468287Y-85742959D01*
X121572182Y-85492754D01*
X121572418Y-85221835D01*
X121468961Y-84971448D01*
X121277559Y-84779713D01*
X121027354Y-84675818D01*
X120756435Y-84675582D01*
X120506048Y-84779039D01*
X120314313Y-84970441D01*
X120210418Y-85220646D01*
X120210182Y-85491565D01*
X113547441Y-85491565D01*
X113525200Y-85476704D01*
X113054117Y-85383000D01*
X113005883Y-85383000D01*
X112534800Y-85476704D01*
X112135435Y-85743552D01*
X111868587Y-86142917D01*
X111774883Y-86614000D01*
X107359664Y-86614000D01*
X107359664Y-85865600D01*
X107333097Y-85724410D01*
X107249654Y-85594735D01*
X107122334Y-85507741D01*
X106971200Y-85477136D01*
X105271200Y-85477136D01*
X105130010Y-85503703D01*
X105000335Y-85587146D01*
X104913341Y-85714466D01*
X104882736Y-85865600D01*
X104442928Y-85865600D01*
X104198164Y-85650355D01*
X103898180Y-85526111D01*
X103708200Y-85586973D01*
X103454200Y-85586973D01*
X103264220Y-85526111D01*
X102964236Y-85650355D01*
X102603548Y-85967544D01*
X102391699Y-86398618D01*
X102056000Y-86398618D01*
X102056000Y-84492582D01*
X102391699Y-84492582D01*
X102603548Y-84923656D01*
X102964236Y-85240845D01*
X103264220Y-85365089D01*
X103454200Y-85304227D01*
X103454200Y-84302600D01*
X103708200Y-84302600D01*
X103708200Y-85304227D01*
X103898180Y-85365089D01*
X104198164Y-85240845D01*
X104558852Y-84923656D01*
X104770701Y-84492582D01*
X104710393Y-84302600D01*
X103708200Y-84302600D01*
X103454200Y-84302600D01*
X102452007Y-84302600D01*
X102391699Y-84492582D01*
X102056000Y-84492582D01*
X102056000Y-83858618D01*
X102391699Y-83858618D01*
X102452007Y-84048600D01*
X103454200Y-84048600D01*
X103454200Y-83046973D01*
X103708200Y-83046973D01*
X103708200Y-84048600D01*
X104710393Y-84048600D01*
X104770701Y-83858618D01*
X104558852Y-83427544D01*
X104442928Y-83325600D01*
X104882736Y-83325600D01*
X104882736Y-85025600D01*
X104909303Y-85166790D01*
X104992746Y-85296465D01*
X105120066Y-85383459D01*
X105271200Y-85414064D01*
X106971200Y-85414064D01*
X107112390Y-85387497D01*
X107242065Y-85304054D01*
X107329059Y-85176734D01*
X107359664Y-85025600D01*
X107359664Y-84074000D01*
X111774883Y-84074000D01*
X111868587Y-84545083D01*
X112135435Y-84944448D01*
X112534800Y-85211296D01*
X113005883Y-85305000D01*
X113054117Y-85305000D01*
X113525200Y-85211296D01*
X113924565Y-84944448D01*
X114178462Y-84564465D01*
X118305182Y-84564465D01*
X118408639Y-84814852D01*
X118600041Y-85006587D01*
X118850246Y-85110482D01*
X119121165Y-85110718D01*
X119371552Y-85007261D01*
X119563287Y-84815859D01*
X119667182Y-84565654D01*
X119667418Y-84294735D01*
X119576213Y-84074000D01*
X127014883Y-84074000D01*
X127108587Y-84545083D01*
X127375435Y-84944448D01*
X127774800Y-85211296D01*
X128245883Y-85305000D01*
X128294117Y-85305000D01*
X128765200Y-85211296D01*
X129164565Y-84944448D01*
X129431413Y-84545083D01*
X129525117Y-84074000D01*
X129431413Y-83602917D01*
X129401138Y-83557607D01*
X134445098Y-83557607D01*
X134453122Y-83630460D01*
X134658248Y-83960780D01*
X134974168Y-84187457D01*
X135352785Y-84275982D01*
X135509000Y-84173666D01*
X135509000Y-83407000D01*
X135763000Y-83407000D01*
X135763000Y-84173666D01*
X135919215Y-84275982D01*
X136297832Y-84187457D01*
X136613752Y-83960780D01*
X136818878Y-83630460D01*
X136826902Y-83557607D01*
X136762598Y-83407000D01*
X135763000Y-83407000D01*
X135509000Y-83407000D01*
X134509402Y-83407000D01*
X134445098Y-83557607D01*
X129401138Y-83557607D01*
X129164565Y-83203552D01*
X128863511Y-83002393D01*
X134445098Y-83002393D01*
X134509402Y-83153000D01*
X135509000Y-83153000D01*
X135509000Y-82386334D01*
X135763000Y-82386334D01*
X135763000Y-83153000D01*
X136762598Y-83153000D01*
X136826902Y-83002393D01*
X136818878Y-82929540D01*
X136613752Y-82599220D01*
X136297832Y-82372543D01*
X135919215Y-82284018D01*
X135763000Y-82386334D01*
X135509000Y-82386334D01*
X135352785Y-82284018D01*
X134974168Y-82372543D01*
X134658248Y-82599220D01*
X134453122Y-82929540D01*
X134445098Y-83002393D01*
X128863511Y-83002393D01*
X128765200Y-82936704D01*
X128294117Y-82843000D01*
X128245883Y-82843000D01*
X127774800Y-82936704D01*
X127375435Y-83203552D01*
X127108587Y-83602917D01*
X127014883Y-84074000D01*
X119576213Y-84074000D01*
X119563961Y-84044348D01*
X119372559Y-83852613D01*
X119122354Y-83748718D01*
X118851435Y-83748482D01*
X118601048Y-83851939D01*
X118409313Y-84043341D01*
X118305418Y-84293546D01*
X118305182Y-84564465D01*
X114178462Y-84564465D01*
X114191413Y-84545083D01*
X114285117Y-84074000D01*
X114191413Y-83602917D01*
X113924565Y-83203552D01*
X113525200Y-82936704D01*
X113054117Y-82843000D01*
X113005883Y-82843000D01*
X112534800Y-82936704D01*
X112135435Y-83203552D01*
X111868587Y-83602917D01*
X111774883Y-84074000D01*
X107359664Y-84074000D01*
X107359664Y-83325600D01*
X107333097Y-83184410D01*
X107249654Y-83054735D01*
X107122334Y-82967741D01*
X106971200Y-82937136D01*
X105271200Y-82937136D01*
X105130010Y-82963703D01*
X105000335Y-83047146D01*
X104913341Y-83174466D01*
X104882736Y-83325600D01*
X104442928Y-83325600D01*
X104198164Y-83110355D01*
X103898180Y-82986111D01*
X103708200Y-83046973D01*
X103454200Y-83046973D01*
X103264220Y-82986111D01*
X102964236Y-83110355D01*
X102603548Y-83427544D01*
X102391699Y-83858618D01*
X102056000Y-83858618D01*
X102056000Y-81611483D01*
X102350200Y-81611483D01*
X102350200Y-81659717D01*
X102443904Y-82130800D01*
X102710752Y-82530165D01*
X103110117Y-82797013D01*
X103581200Y-82890717D01*
X104052283Y-82797013D01*
X104451648Y-82530165D01*
X104718496Y-82130800D01*
X104812200Y-81659717D01*
X104812200Y-81611483D01*
X104718496Y-81140400D01*
X104481426Y-80785600D01*
X104882736Y-80785600D01*
X104882736Y-82485600D01*
X104909303Y-82626790D01*
X104992746Y-82756465D01*
X105120066Y-82843459D01*
X105271200Y-82874064D01*
X106971200Y-82874064D01*
X107112390Y-82847497D01*
X107242065Y-82764054D01*
X107329059Y-82636734D01*
X107359664Y-82485600D01*
X107359664Y-81534000D01*
X111774883Y-81534000D01*
X111868587Y-82005083D01*
X112135435Y-82404448D01*
X112534800Y-82671296D01*
X113005883Y-82765000D01*
X113054117Y-82765000D01*
X113525200Y-82671296D01*
X113924565Y-82404448D01*
X114178462Y-82024465D01*
X116768482Y-82024465D01*
X116871939Y-82274852D01*
X117063341Y-82466587D01*
X117313546Y-82570482D01*
X117584465Y-82570718D01*
X117834852Y-82467261D01*
X118026587Y-82275859D01*
X118130482Y-82025654D01*
X118130718Y-81754735D01*
X118039513Y-81534000D01*
X127014883Y-81534000D01*
X127108587Y-82005083D01*
X127375435Y-82404448D01*
X127774800Y-82671296D01*
X128245883Y-82765000D01*
X128294117Y-82765000D01*
X128765200Y-82671296D01*
X129164565Y-82404448D01*
X129431413Y-82005083D01*
X129525117Y-81534000D01*
X129431413Y-81062917D01*
X129175556Y-80680000D01*
X134397536Y-80680000D01*
X134397536Y-81880000D01*
X134424103Y-82021190D01*
X134507546Y-82150865D01*
X134634866Y-82237859D01*
X134786000Y-82268464D01*
X136486000Y-82268464D01*
X136627190Y-82241897D01*
X136756865Y-82158454D01*
X136843859Y-82031134D01*
X136874464Y-81880000D01*
X136874464Y-80680000D01*
X136847897Y-80538810D01*
X136764454Y-80409135D01*
X136637134Y-80322141D01*
X136486000Y-80291536D01*
X134786000Y-80291536D01*
X134644810Y-80318103D01*
X134515135Y-80401546D01*
X134428141Y-80528866D01*
X134397536Y-80680000D01*
X129175556Y-80680000D01*
X129164565Y-80663552D01*
X128765200Y-80396704D01*
X128294117Y-80303000D01*
X128245883Y-80303000D01*
X127774800Y-80396704D01*
X127375435Y-80663552D01*
X127108587Y-81062917D01*
X127014883Y-81534000D01*
X118039513Y-81534000D01*
X118027261Y-81504348D01*
X117835859Y-81312613D01*
X117585654Y-81208718D01*
X117314735Y-81208482D01*
X117064348Y-81311939D01*
X116872613Y-81503341D01*
X116768718Y-81753546D01*
X116768482Y-82024465D01*
X114178462Y-82024465D01*
X114191413Y-82005083D01*
X114285117Y-81534000D01*
X114191413Y-81062917D01*
X113924565Y-80663552D01*
X113525200Y-80396704D01*
X113054117Y-80303000D01*
X113005883Y-80303000D01*
X112534800Y-80396704D01*
X112135435Y-80663552D01*
X111868587Y-81062917D01*
X111774883Y-81534000D01*
X107359664Y-81534000D01*
X107359664Y-80785600D01*
X107333097Y-80644410D01*
X107249654Y-80514735D01*
X107122334Y-80427741D01*
X106971200Y-80397136D01*
X105271200Y-80397136D01*
X105130010Y-80423703D01*
X105000335Y-80507146D01*
X104913341Y-80634466D01*
X104882736Y-80785600D01*
X104481426Y-80785600D01*
X104451648Y-80741035D01*
X104052283Y-80474187D01*
X103581200Y-80380483D01*
X103110117Y-80474187D01*
X102710752Y-80741035D01*
X102443904Y-81140400D01*
X102350200Y-81611483D01*
X102056000Y-81611483D01*
X102056000Y-79412582D01*
X102391699Y-79412582D01*
X102603548Y-79843656D01*
X102964236Y-80160845D01*
X103264220Y-80285089D01*
X103454200Y-80224227D01*
X103454200Y-79222600D01*
X103708200Y-79222600D01*
X103708200Y-80224227D01*
X103898180Y-80285089D01*
X104198164Y-80160845D01*
X104558852Y-79843656D01*
X104770701Y-79412582D01*
X104710393Y-79222600D01*
X103708200Y-79222600D01*
X103454200Y-79222600D01*
X102452007Y-79222600D01*
X102391699Y-79412582D01*
X102056000Y-79412582D01*
X102056000Y-78778618D01*
X102391699Y-78778618D01*
X102452007Y-78968600D01*
X103454200Y-78968600D01*
X103454200Y-77966973D01*
X103708200Y-77966973D01*
X103708200Y-78968600D01*
X104710393Y-78968600D01*
X104770701Y-78778618D01*
X104558852Y-78347544D01*
X104442928Y-78245600D01*
X104882736Y-78245600D01*
X104882736Y-79945600D01*
X104909303Y-80086790D01*
X104992746Y-80216465D01*
X105120066Y-80303459D01*
X105271200Y-80334064D01*
X106971200Y-80334064D01*
X107112390Y-80307497D01*
X107242065Y-80224054D01*
X107329059Y-80096734D01*
X107359664Y-79945600D01*
X107359664Y-78994000D01*
X111774883Y-78994000D01*
X111868587Y-79465083D01*
X112135435Y-79864448D01*
X112534800Y-80131296D01*
X113005883Y-80225000D01*
X113054117Y-80225000D01*
X113525200Y-80131296D01*
X113637940Y-80055965D01*
X124020182Y-80055965D01*
X124123639Y-80306352D01*
X124315041Y-80498087D01*
X124565246Y-80601982D01*
X124836165Y-80602218D01*
X125086552Y-80498761D01*
X125278287Y-80307359D01*
X125382182Y-80057154D01*
X125382418Y-79786235D01*
X125278961Y-79535848D01*
X125087559Y-79344113D01*
X125007767Y-79310980D01*
X127080511Y-79310980D01*
X127204755Y-79610964D01*
X127521944Y-79971652D01*
X127953018Y-80183501D01*
X128143000Y-80123193D01*
X128143000Y-79121000D01*
X128397000Y-79121000D01*
X128397000Y-80123193D01*
X128586982Y-80183501D01*
X129018056Y-79971652D01*
X129335245Y-79610964D01*
X129459489Y-79310980D01*
X129398627Y-79121000D01*
X128397000Y-79121000D01*
X128143000Y-79121000D01*
X127141373Y-79121000D01*
X127080511Y-79310980D01*
X125007767Y-79310980D01*
X124837354Y-79240218D01*
X124566435Y-79239982D01*
X124316048Y-79343439D01*
X124124313Y-79534841D01*
X124020418Y-79785046D01*
X124020182Y-80055965D01*
X113637940Y-80055965D01*
X113924565Y-79864448D01*
X114191413Y-79465083D01*
X114285117Y-78994000D01*
X114222066Y-78677020D01*
X127080511Y-78677020D01*
X127141373Y-78867000D01*
X128143000Y-78867000D01*
X128143000Y-77864807D01*
X128397000Y-77864807D01*
X128397000Y-78867000D01*
X129398627Y-78867000D01*
X129459489Y-78677020D01*
X129335245Y-78377036D01*
X129018056Y-78016348D01*
X128586982Y-77804499D01*
X128397000Y-77864807D01*
X128143000Y-77864807D01*
X127953018Y-77804499D01*
X127521944Y-78016348D01*
X127204755Y-78377036D01*
X127080511Y-78677020D01*
X114222066Y-78677020D01*
X114191413Y-78522917D01*
X113924565Y-78123552D01*
X113525200Y-77856704D01*
X113054117Y-77763000D01*
X113005883Y-77763000D01*
X112534800Y-77856704D01*
X112135435Y-78123552D01*
X111868587Y-78522917D01*
X111774883Y-78994000D01*
X107359664Y-78994000D01*
X107359664Y-78245600D01*
X107333097Y-78104410D01*
X107249654Y-77974735D01*
X107122334Y-77887741D01*
X106971200Y-77857136D01*
X105271200Y-77857136D01*
X105130010Y-77883703D01*
X105000335Y-77967146D01*
X104913341Y-78094466D01*
X104882736Y-78245600D01*
X104442928Y-78245600D01*
X104198164Y-78030355D01*
X103898180Y-77906111D01*
X103708200Y-77966973D01*
X103454200Y-77966973D01*
X103264220Y-77906111D01*
X102964236Y-78030355D01*
X102603548Y-78347544D01*
X102391699Y-78778618D01*
X102056000Y-78778618D01*
X102056000Y-76872582D01*
X102391699Y-76872582D01*
X102603548Y-77303656D01*
X102964236Y-77620845D01*
X103264220Y-77745089D01*
X103454200Y-77684227D01*
X103454200Y-76682600D01*
X103708200Y-76682600D01*
X103708200Y-77684227D01*
X103898180Y-77745089D01*
X104198164Y-77620845D01*
X104558852Y-77303656D01*
X104770701Y-76872582D01*
X104710393Y-76682600D01*
X103708200Y-76682600D01*
X103454200Y-76682600D01*
X102452007Y-76682600D01*
X102391699Y-76872582D01*
X102056000Y-76872582D01*
X102056000Y-76238618D01*
X102391699Y-76238618D01*
X102452007Y-76428600D01*
X103454200Y-76428600D01*
X103454200Y-75426973D01*
X103708200Y-75426973D01*
X103708200Y-76428600D01*
X104710393Y-76428600D01*
X104770701Y-76238618D01*
X104558852Y-75807544D01*
X104442928Y-75705600D01*
X104882736Y-75705600D01*
X104882736Y-77405600D01*
X104909303Y-77546790D01*
X104992746Y-77676465D01*
X105120066Y-77763459D01*
X105271200Y-77794064D01*
X106971200Y-77794064D01*
X107112390Y-77767497D01*
X107242065Y-77684054D01*
X107329059Y-77556734D01*
X107359664Y-77405600D01*
X107359664Y-76454000D01*
X111774883Y-76454000D01*
X111868587Y-76925083D01*
X112135435Y-77324448D01*
X112534800Y-77591296D01*
X113005883Y-77685000D01*
X113054117Y-77685000D01*
X113329289Y-77630265D01*
X124667882Y-77630265D01*
X124771339Y-77880652D01*
X124962741Y-78072387D01*
X125212946Y-78176282D01*
X125483865Y-78176518D01*
X125734252Y-78073061D01*
X125925987Y-77881659D01*
X126029882Y-77631454D01*
X126030118Y-77360535D01*
X125926661Y-77110148D01*
X125735259Y-76918413D01*
X125485054Y-76814518D01*
X125214135Y-76814282D01*
X124963748Y-76917739D01*
X124772013Y-77109141D01*
X124668118Y-77359346D01*
X124667882Y-77630265D01*
X113329289Y-77630265D01*
X113525200Y-77591296D01*
X113924565Y-77324448D01*
X114191413Y-76925083D01*
X114263343Y-76563465D01*
X122686682Y-76563465D01*
X122790139Y-76813852D01*
X122981541Y-77005587D01*
X123231746Y-77109482D01*
X123502665Y-77109718D01*
X123753052Y-77006261D01*
X123944787Y-76814859D01*
X124048682Y-76564654D01*
X124048778Y-76454000D01*
X127014883Y-76454000D01*
X127108587Y-76925083D01*
X127375435Y-77324448D01*
X127774800Y-77591296D01*
X128245883Y-77685000D01*
X128294117Y-77685000D01*
X128765200Y-77591296D01*
X129164565Y-77324448D01*
X129431413Y-76925083D01*
X129525117Y-76454000D01*
X129431413Y-75982917D01*
X129164565Y-75583552D01*
X128765200Y-75316704D01*
X128294117Y-75223000D01*
X128245883Y-75223000D01*
X127774800Y-75316704D01*
X127375435Y-75583552D01*
X127108587Y-75982917D01*
X127014883Y-76454000D01*
X124048778Y-76454000D01*
X124048918Y-76293735D01*
X123945461Y-76043348D01*
X123754059Y-75851613D01*
X123503854Y-75747718D01*
X123232935Y-75747482D01*
X122982548Y-75850939D01*
X122790813Y-76042341D01*
X122686918Y-76292546D01*
X122686682Y-76563465D01*
X114263343Y-76563465D01*
X114285117Y-76454000D01*
X114191413Y-75982917D01*
X113924565Y-75583552D01*
X113525200Y-75316704D01*
X113054117Y-75223000D01*
X113005883Y-75223000D01*
X112534800Y-75316704D01*
X112135435Y-75583552D01*
X111868587Y-75982917D01*
X111774883Y-76454000D01*
X107359664Y-76454000D01*
X107359664Y-75705600D01*
X107333097Y-75564410D01*
X107249654Y-75434735D01*
X107122334Y-75347741D01*
X106971200Y-75317136D01*
X105271200Y-75317136D01*
X105130010Y-75343703D01*
X105000335Y-75427146D01*
X104913341Y-75554466D01*
X104882736Y-75705600D01*
X104442928Y-75705600D01*
X104198164Y-75490355D01*
X103898180Y-75366111D01*
X103708200Y-75426973D01*
X103454200Y-75426973D01*
X103264220Y-75366111D01*
X102964236Y-75490355D01*
X102603548Y-75807544D01*
X102391699Y-76238618D01*
X102056000Y-76238618D01*
X102056000Y-73914000D01*
X111774883Y-73914000D01*
X111868587Y-74385083D01*
X112135435Y-74784448D01*
X112534800Y-75051296D01*
X113005883Y-75145000D01*
X113054117Y-75145000D01*
X113525200Y-75051296D01*
X113924565Y-74784448D01*
X114191413Y-74385083D01*
X114265869Y-74010765D01*
X117695582Y-74010765D01*
X117799039Y-74261152D01*
X117990441Y-74452887D01*
X118240646Y-74556782D01*
X118511565Y-74557018D01*
X118761952Y-74453561D01*
X118953687Y-74262159D01*
X119057582Y-74011954D01*
X119057667Y-73914000D01*
X127014883Y-73914000D01*
X127108587Y-74385083D01*
X127375435Y-74784448D01*
X127774800Y-75051296D01*
X128245883Y-75145000D01*
X128294117Y-75145000D01*
X128765200Y-75051296D01*
X129164565Y-74784448D01*
X129431413Y-74385083D01*
X129525117Y-73914000D01*
X129431413Y-73442917D01*
X129164565Y-73043552D01*
X128765200Y-72776704D01*
X128294117Y-72683000D01*
X128245883Y-72683000D01*
X127774800Y-72776704D01*
X127375435Y-73043552D01*
X127108587Y-73442917D01*
X127014883Y-73914000D01*
X119057667Y-73914000D01*
X119057818Y-73741035D01*
X118954361Y-73490648D01*
X118762959Y-73298913D01*
X118512754Y-73195018D01*
X118241835Y-73194782D01*
X117991448Y-73298239D01*
X117799713Y-73489641D01*
X117695818Y-73739846D01*
X117695582Y-74010765D01*
X114265869Y-74010765D01*
X114285117Y-73914000D01*
X114191413Y-73442917D01*
X113924565Y-73043552D01*
X113525200Y-72776704D01*
X113054117Y-72683000D01*
X113005883Y-72683000D01*
X112534800Y-72776704D01*
X112135435Y-73043552D01*
X111868587Y-73442917D01*
X111774883Y-73914000D01*
X102056000Y-73914000D01*
X102056000Y-72829665D01*
X108742082Y-72829665D01*
X108845539Y-73080052D01*
X109036941Y-73271787D01*
X109287146Y-73375682D01*
X109558065Y-73375918D01*
X109808452Y-73272461D01*
X110000187Y-73081059D01*
X110104082Y-72830854D01*
X110104318Y-72559935D01*
X110000861Y-72309548D01*
X109809459Y-72117813D01*
X109559254Y-72013918D01*
X109288335Y-72013682D01*
X109037948Y-72117139D01*
X108846213Y-72308541D01*
X108742318Y-72558746D01*
X108742082Y-72829665D01*
X102056000Y-72829665D01*
X102056000Y-71374000D01*
X111774883Y-71374000D01*
X111868587Y-71845083D01*
X112135435Y-72244448D01*
X112534800Y-72511296D01*
X113005883Y-72605000D01*
X113054117Y-72605000D01*
X113525200Y-72511296D01*
X113924565Y-72244448D01*
X114191413Y-71845083D01*
X114285117Y-71374000D01*
X127014883Y-71374000D01*
X127108587Y-71845083D01*
X127375435Y-72244448D01*
X127774800Y-72511296D01*
X128245883Y-72605000D01*
X128294117Y-72605000D01*
X128765200Y-72511296D01*
X129164565Y-72244448D01*
X129431413Y-71845083D01*
X129525117Y-71374000D01*
X129431413Y-70902917D01*
X129164565Y-70503552D01*
X128765200Y-70236704D01*
X128294117Y-70143000D01*
X128245883Y-70143000D01*
X127774800Y-70236704D01*
X127375435Y-70503552D01*
X127108587Y-70902917D01*
X127014883Y-71374000D01*
X114285117Y-71374000D01*
X114191413Y-70902917D01*
X113924565Y-70503552D01*
X113525200Y-70236704D01*
X113054117Y-70143000D01*
X113005883Y-70143000D01*
X112534800Y-70236704D01*
X112135435Y-70503552D01*
X111868587Y-70902917D01*
X111774883Y-71374000D01*
X102056000Y-71374000D01*
X102056000Y-68834000D01*
X111774883Y-68834000D01*
X111868587Y-69305083D01*
X112135435Y-69704448D01*
X112534800Y-69971296D01*
X113005883Y-70065000D01*
X113054117Y-70065000D01*
X113525200Y-69971296D01*
X113924565Y-69704448D01*
X114191413Y-69305083D01*
X114285117Y-68834000D01*
X114208370Y-68448165D01*
X116400182Y-68448165D01*
X116503639Y-68698552D01*
X116695041Y-68890287D01*
X116945246Y-68994182D01*
X117216165Y-68994418D01*
X117466552Y-68890961D01*
X117523612Y-68834000D01*
X127014883Y-68834000D01*
X127108587Y-69305083D01*
X127375435Y-69704448D01*
X127774800Y-69971296D01*
X128245883Y-70065000D01*
X128294117Y-70065000D01*
X128765200Y-69971296D01*
X129164565Y-69704448D01*
X129431413Y-69305083D01*
X129525117Y-68834000D01*
X129431413Y-68362917D01*
X129164565Y-67963552D01*
X128765200Y-67696704D01*
X128294117Y-67603000D01*
X128245883Y-67603000D01*
X127774800Y-67696704D01*
X127375435Y-67963552D01*
X127108587Y-68362917D01*
X127014883Y-68834000D01*
X117523612Y-68834000D01*
X117658287Y-68699559D01*
X117762182Y-68449354D01*
X117762418Y-68178435D01*
X117658961Y-67928048D01*
X117467559Y-67736313D01*
X117217354Y-67632418D01*
X116946435Y-67632182D01*
X116696048Y-67735639D01*
X116504313Y-67927041D01*
X116400418Y-68177246D01*
X116400182Y-68448165D01*
X114208370Y-68448165D01*
X114191413Y-68362917D01*
X113924565Y-67963552D01*
X113525200Y-67696704D01*
X113054117Y-67603000D01*
X113005883Y-67603000D01*
X112534800Y-67696704D01*
X112135435Y-67963552D01*
X111868587Y-68362917D01*
X111774883Y-68834000D01*
X102056000Y-68834000D01*
X102056000Y-66294000D01*
X111774883Y-66294000D01*
X111868587Y-66765083D01*
X112135435Y-67164448D01*
X112534800Y-67431296D01*
X113005883Y-67525000D01*
X113054117Y-67525000D01*
X113525200Y-67431296D01*
X113924565Y-67164448D01*
X114191413Y-66765083D01*
X114285117Y-66294000D01*
X127014883Y-66294000D01*
X127108587Y-66765083D01*
X127375435Y-67164448D01*
X127774800Y-67431296D01*
X128245883Y-67525000D01*
X128294117Y-67525000D01*
X128765200Y-67431296D01*
X129164565Y-67164448D01*
X129431413Y-66765083D01*
X129457871Y-66632065D01*
X138155282Y-66632065D01*
X138258739Y-66882452D01*
X138450141Y-67074187D01*
X138700346Y-67178082D01*
X138971265Y-67178318D01*
X139221652Y-67074861D01*
X139413387Y-66883459D01*
X139517282Y-66633254D01*
X139517518Y-66362335D01*
X139414061Y-66111948D01*
X139222659Y-65920213D01*
X138972454Y-65816318D01*
X138701535Y-65816082D01*
X138451148Y-65919539D01*
X138259413Y-66110941D01*
X138155518Y-66361146D01*
X138155282Y-66632065D01*
X129457871Y-66632065D01*
X129525117Y-66294000D01*
X129431413Y-65822917D01*
X129164565Y-65423552D01*
X128765200Y-65156704D01*
X128294117Y-65063000D01*
X128245883Y-65063000D01*
X127774800Y-65156704D01*
X127375435Y-65423552D01*
X127108587Y-65822917D01*
X127014883Y-66294000D01*
X114285117Y-66294000D01*
X114191413Y-65822917D01*
X113934396Y-65438265D01*
X123296282Y-65438265D01*
X123399739Y-65688652D01*
X123591141Y-65880387D01*
X123841346Y-65984282D01*
X124112265Y-65984518D01*
X124362652Y-65881061D01*
X124554387Y-65689659D01*
X124658282Y-65439454D01*
X124658518Y-65168535D01*
X124555061Y-64918148D01*
X124363659Y-64726413D01*
X124113454Y-64622518D01*
X123842535Y-64622282D01*
X123592148Y-64725739D01*
X123400413Y-64917141D01*
X123296518Y-65167346D01*
X123296282Y-65438265D01*
X113934396Y-65438265D01*
X113924565Y-65423552D01*
X113525200Y-65156704D01*
X113054117Y-65063000D01*
X113005883Y-65063000D01*
X112534800Y-65156704D01*
X112135435Y-65423552D01*
X111868587Y-65822917D01*
X111774883Y-66294000D01*
X102056000Y-66294000D01*
X102056000Y-64396865D01*
X104220882Y-64396865D01*
X104324339Y-64647252D01*
X104515741Y-64838987D01*
X104765946Y-64942882D01*
X105036865Y-64943118D01*
X105287252Y-64839661D01*
X105478987Y-64648259D01*
X105582882Y-64398054D01*
X105583118Y-64127135D01*
X105479661Y-63876748D01*
X105357127Y-63754000D01*
X111774883Y-63754000D01*
X111868587Y-64225083D01*
X112135435Y-64624448D01*
X112534800Y-64891296D01*
X113005883Y-64985000D01*
X113054117Y-64985000D01*
X113525200Y-64891296D01*
X113924565Y-64624448D01*
X114191413Y-64225083D01*
X114233028Y-64015865D01*
X114761882Y-64015865D01*
X114865339Y-64266252D01*
X115056741Y-64457987D01*
X115306946Y-64561882D01*
X115577865Y-64562118D01*
X115828252Y-64458661D01*
X116019987Y-64267259D01*
X116123882Y-64017054D01*
X116124111Y-63754000D01*
X127014883Y-63754000D01*
X127108587Y-64225083D01*
X127375435Y-64624448D01*
X127774800Y-64891296D01*
X128245883Y-64985000D01*
X128294117Y-64985000D01*
X128765200Y-64891296D01*
X129164565Y-64624448D01*
X129431413Y-64225083D01*
X129525117Y-63754000D01*
X129431413Y-63282917D01*
X129164565Y-62883552D01*
X128765200Y-62616704D01*
X128294117Y-62523000D01*
X128245883Y-62523000D01*
X127774800Y-62616704D01*
X127375435Y-62883552D01*
X127108587Y-63282917D01*
X127014883Y-63754000D01*
X116124111Y-63754000D01*
X116124118Y-63746135D01*
X116020661Y-63495748D01*
X115829259Y-63304013D01*
X115579054Y-63200118D01*
X115308135Y-63199882D01*
X115057748Y-63303339D01*
X114866013Y-63494741D01*
X114762118Y-63744946D01*
X114761882Y-64015865D01*
X114233028Y-64015865D01*
X114285117Y-63754000D01*
X114191413Y-63282917D01*
X113924565Y-62883552D01*
X113718503Y-62745865D01*
X117301882Y-62745865D01*
X117405339Y-62996252D01*
X117596741Y-63187987D01*
X117846946Y-63291882D01*
X118117865Y-63292118D01*
X118368252Y-63188661D01*
X118559987Y-62997259D01*
X118627460Y-62834765D01*
X124845682Y-62834765D01*
X124949139Y-63085152D01*
X125140541Y-63276887D01*
X125390746Y-63380782D01*
X125661665Y-63381018D01*
X125912052Y-63277561D01*
X126103787Y-63086159D01*
X126207682Y-62835954D01*
X126207918Y-62565035D01*
X126104461Y-62314648D01*
X125913059Y-62122913D01*
X125662854Y-62019018D01*
X125391935Y-62018782D01*
X125141548Y-62122239D01*
X124949813Y-62313641D01*
X124845918Y-62563846D01*
X124845682Y-62834765D01*
X118627460Y-62834765D01*
X118663882Y-62747054D01*
X118664118Y-62476135D01*
X118560661Y-62225748D01*
X118369259Y-62034013D01*
X118119054Y-61930118D01*
X117848135Y-61929882D01*
X117597748Y-62033339D01*
X117406013Y-62224741D01*
X117302118Y-62474946D01*
X117301882Y-62745865D01*
X113718503Y-62745865D01*
X113525200Y-62616704D01*
X113054117Y-62523000D01*
X113005883Y-62523000D01*
X112534800Y-62616704D01*
X112135435Y-62883552D01*
X111868587Y-63282917D01*
X111774883Y-63754000D01*
X105357127Y-63754000D01*
X105288259Y-63685013D01*
X105038054Y-63581118D01*
X104767135Y-63580882D01*
X104516748Y-63684339D01*
X104325013Y-63875741D01*
X104221118Y-64125946D01*
X104220882Y-64396865D01*
X102056000Y-64396865D01*
X102056000Y-61214000D01*
X111774883Y-61214000D01*
X111868587Y-61685083D01*
X112135435Y-62084448D01*
X112534800Y-62351296D01*
X113005883Y-62445000D01*
X113054117Y-62445000D01*
X113525200Y-62351296D01*
X113924565Y-62084448D01*
X114191413Y-61685083D01*
X114285117Y-61214000D01*
X114271525Y-61145665D01*
X114634882Y-61145665D01*
X114738339Y-61396052D01*
X114929741Y-61587787D01*
X115179946Y-61691682D01*
X115450865Y-61691918D01*
X115701252Y-61588461D01*
X115892987Y-61397059D01*
X115969000Y-61214000D01*
X127014883Y-61214000D01*
X127108587Y-61685083D01*
X127375435Y-62084448D01*
X127774800Y-62351296D01*
X128245883Y-62445000D01*
X128294117Y-62445000D01*
X128765200Y-62351296D01*
X129164565Y-62084448D01*
X129431413Y-61685083D01*
X129525117Y-61214000D01*
X129431413Y-60742917D01*
X129164565Y-60343552D01*
X128765200Y-60076704D01*
X128294117Y-59983000D01*
X128245883Y-59983000D01*
X127774800Y-60076704D01*
X127375435Y-60343552D01*
X127108587Y-60742917D01*
X127014883Y-61214000D01*
X115969000Y-61214000D01*
X115996882Y-61146854D01*
X115997118Y-60875935D01*
X115893661Y-60625548D01*
X115702259Y-60433813D01*
X115452054Y-60329918D01*
X115181135Y-60329682D01*
X114930748Y-60433139D01*
X114739013Y-60624541D01*
X114635118Y-60874746D01*
X114634882Y-61145665D01*
X114271525Y-61145665D01*
X114191413Y-60742917D01*
X113924565Y-60343552D01*
X113525200Y-60076704D01*
X113054117Y-59983000D01*
X113005883Y-59983000D01*
X112534800Y-60076704D01*
X112135435Y-60343552D01*
X111868587Y-60742917D01*
X111774883Y-61214000D01*
X102056000Y-61214000D01*
X102056000Y-60332865D01*
X104982882Y-60332865D01*
X105086339Y-60583252D01*
X105277741Y-60774987D01*
X105527946Y-60878882D01*
X105798865Y-60879118D01*
X106049252Y-60775661D01*
X106240987Y-60584259D01*
X106344882Y-60334054D01*
X106345118Y-60063135D01*
X106241661Y-59812748D01*
X106050259Y-59621013D01*
X105800054Y-59517118D01*
X105529135Y-59516882D01*
X105278748Y-59620339D01*
X105087013Y-59811741D01*
X104983118Y-60061946D01*
X104982882Y-60332865D01*
X102056000Y-60332865D01*
X102056000Y-58935865D01*
X107903882Y-58935865D01*
X108007339Y-59186252D01*
X108198741Y-59377987D01*
X108448946Y-59481882D01*
X108719865Y-59482118D01*
X108970252Y-59378661D01*
X109161987Y-59187259D01*
X109265882Y-58937054D01*
X109266111Y-58674000D01*
X111774883Y-58674000D01*
X111868587Y-59145083D01*
X112135435Y-59544448D01*
X112534800Y-59811296D01*
X113005883Y-59905000D01*
X113054117Y-59905000D01*
X113525200Y-59811296D01*
X113924565Y-59544448D01*
X114042687Y-59367665D01*
X121276982Y-59367665D01*
X121380439Y-59618052D01*
X121426798Y-59664491D01*
X121406513Y-59684741D01*
X121302618Y-59934946D01*
X121302382Y-60205865D01*
X121405839Y-60456252D01*
X121597241Y-60647987D01*
X121847446Y-60751882D01*
X122118365Y-60752118D01*
X122368752Y-60648661D01*
X122560487Y-60457259D01*
X122664382Y-60207054D01*
X122664618Y-59936135D01*
X122587158Y-59748665D01*
X126255382Y-59748665D01*
X126358839Y-59999052D01*
X126550241Y-60190787D01*
X126800446Y-60294682D01*
X127071365Y-60294918D01*
X127321752Y-60191461D01*
X127513487Y-60000059D01*
X127617382Y-59749854D01*
X127617420Y-59706138D01*
X127774800Y-59811296D01*
X128245883Y-59905000D01*
X128294117Y-59905000D01*
X128765200Y-59811296D01*
X129164565Y-59544448D01*
X129316631Y-59316865D01*
X132059282Y-59316865D01*
X132162739Y-59567252D01*
X132354141Y-59758987D01*
X132604346Y-59862882D01*
X132875265Y-59863118D01*
X133125652Y-59759661D01*
X133317387Y-59568259D01*
X133421282Y-59318054D01*
X133421518Y-59047135D01*
X133318061Y-58796748D01*
X133126659Y-58605013D01*
X132876454Y-58501118D01*
X132605535Y-58500882D01*
X132355148Y-58604339D01*
X132163413Y-58795741D01*
X132059518Y-59045946D01*
X132059282Y-59316865D01*
X129316631Y-59316865D01*
X129431413Y-59145083D01*
X129525117Y-58674000D01*
X129431413Y-58202917D01*
X129321957Y-58039104D01*
X129340446Y-58046782D01*
X129611365Y-58047018D01*
X129861752Y-57943561D01*
X130053487Y-57752159D01*
X130157382Y-57501954D01*
X130157618Y-57231035D01*
X130054161Y-56980648D01*
X129862759Y-56788913D01*
X129612554Y-56685018D01*
X129378138Y-56684814D01*
X129431413Y-56605083D01*
X129525117Y-56134000D01*
X129431413Y-55662917D01*
X129164565Y-55263552D01*
X128765200Y-54996704D01*
X128294117Y-54903000D01*
X128245883Y-54903000D01*
X127774800Y-54996704D01*
X127375435Y-55263552D01*
X127108587Y-55662917D01*
X127014883Y-56134000D01*
X127108587Y-56605083D01*
X127375435Y-57004448D01*
X127774800Y-57271296D01*
X128245883Y-57365000D01*
X128294117Y-57365000D01*
X128765200Y-57271296D01*
X128795600Y-57250984D01*
X128795382Y-57500765D01*
X128827406Y-57578269D01*
X128765200Y-57536704D01*
X128294117Y-57443000D01*
X128245883Y-57443000D01*
X127774800Y-57536704D01*
X127375435Y-57803552D01*
X127108587Y-58202917D01*
X127014883Y-58674000D01*
X127066384Y-58932913D01*
X126801635Y-58932682D01*
X126551248Y-59036139D01*
X126359513Y-59227541D01*
X126255618Y-59477746D01*
X126255382Y-59748665D01*
X122587158Y-59748665D01*
X122561161Y-59685748D01*
X122514802Y-59639309D01*
X122535087Y-59619059D01*
X122638982Y-59368854D01*
X122639218Y-59097935D01*
X122535761Y-58847548D01*
X122344359Y-58655813D01*
X122094154Y-58551918D01*
X121823235Y-58551682D01*
X121572848Y-58655139D01*
X121381113Y-58846541D01*
X121277218Y-59096746D01*
X121276982Y-59367665D01*
X114042687Y-59367665D01*
X114191413Y-59145083D01*
X114285117Y-58674000D01*
X114191413Y-58202917D01*
X113924565Y-57803552D01*
X113525200Y-57536704D01*
X113054117Y-57443000D01*
X113005883Y-57443000D01*
X112534800Y-57536704D01*
X112135435Y-57803552D01*
X111868587Y-58202917D01*
X111774883Y-58674000D01*
X109266111Y-58674000D01*
X109266118Y-58666135D01*
X109162661Y-58415748D01*
X108971259Y-58224013D01*
X108721054Y-58120118D01*
X108450135Y-58119882D01*
X108199748Y-58223339D01*
X108008013Y-58414741D01*
X107904118Y-58664946D01*
X107903882Y-58935865D01*
X102056000Y-58935865D01*
X102056000Y-56134000D01*
X111774883Y-56134000D01*
X111868587Y-56605083D01*
X112135435Y-57004448D01*
X112534800Y-57271296D01*
X113005883Y-57365000D01*
X113054117Y-57365000D01*
X113525200Y-57271296D01*
X113924565Y-57004448D01*
X114110575Y-56726065D01*
X115917582Y-56726065D01*
X116021039Y-56976452D01*
X116212441Y-57168187D01*
X116462646Y-57272082D01*
X116719978Y-57272306D01*
X116529713Y-57462241D01*
X116425818Y-57712446D01*
X116425582Y-57983365D01*
X116529039Y-58233752D01*
X116720441Y-58425487D01*
X116970646Y-58529382D01*
X117241565Y-58529618D01*
X117491952Y-58426161D01*
X117683687Y-58234759D01*
X117787582Y-57984554D01*
X117787818Y-57713635D01*
X117699863Y-57500765D01*
X118228982Y-57500765D01*
X118332439Y-57751152D01*
X118523841Y-57942887D01*
X118774046Y-58046782D01*
X119044965Y-58047018D01*
X119295352Y-57943561D01*
X119487087Y-57752159D01*
X119590982Y-57501954D01*
X119591160Y-57297565D01*
X122623182Y-57297565D01*
X122726639Y-57547952D01*
X122918041Y-57739687D01*
X123168246Y-57843582D01*
X123439165Y-57843818D01*
X123689552Y-57740361D01*
X123881287Y-57548959D01*
X123985182Y-57298754D01*
X123985418Y-57027835D01*
X123881961Y-56777448D01*
X123690559Y-56585713D01*
X123440354Y-56481818D01*
X123169435Y-56481582D01*
X122919048Y-56585039D01*
X122727313Y-56776441D01*
X122623418Y-57026646D01*
X122623182Y-57297565D01*
X119591160Y-57297565D01*
X119591218Y-57231035D01*
X119487761Y-56980648D01*
X119296359Y-56788913D01*
X119046154Y-56685018D01*
X118775235Y-56684782D01*
X118524848Y-56788239D01*
X118333113Y-56979641D01*
X118229218Y-57229846D01*
X118228982Y-57500765D01*
X117699863Y-57500765D01*
X117684361Y-57463248D01*
X117492959Y-57271513D01*
X117242754Y-57167618D01*
X116985422Y-57167394D01*
X117175687Y-56977459D01*
X117279582Y-56727254D01*
X117279818Y-56456335D01*
X117181368Y-56218065D01*
X124274182Y-56218065D01*
X124377639Y-56468452D01*
X124569041Y-56660187D01*
X124819246Y-56764082D01*
X125090165Y-56764318D01*
X125340552Y-56660861D01*
X125532287Y-56469459D01*
X125636182Y-56219254D01*
X125636418Y-55948335D01*
X125532961Y-55697948D01*
X125341559Y-55506213D01*
X125091354Y-55402318D01*
X124820435Y-55402082D01*
X124570048Y-55505539D01*
X124378313Y-55696941D01*
X124274418Y-55947146D01*
X124274182Y-56218065D01*
X117181368Y-56218065D01*
X117176361Y-56205948D01*
X116984959Y-56014213D01*
X116734754Y-55910318D01*
X116463835Y-55910082D01*
X116213448Y-56013539D01*
X116021713Y-56204941D01*
X115917818Y-56455146D01*
X115917582Y-56726065D01*
X114110575Y-56726065D01*
X114191413Y-56605083D01*
X114285117Y-56134000D01*
X114191413Y-55662917D01*
X113924565Y-55263552D01*
X113718503Y-55125865D01*
X125137782Y-55125865D01*
X125241239Y-55376252D01*
X125432641Y-55567987D01*
X125682846Y-55671882D01*
X125953765Y-55672118D01*
X126204152Y-55568661D01*
X126395887Y-55377259D01*
X126499782Y-55127054D01*
X126500018Y-54856135D01*
X126396561Y-54605748D01*
X126205159Y-54414013D01*
X125954954Y-54310118D01*
X125684035Y-54309882D01*
X125433648Y-54413339D01*
X125241913Y-54604741D01*
X125138018Y-54854946D01*
X125137782Y-55125865D01*
X113718503Y-55125865D01*
X113525200Y-54996704D01*
X113054117Y-54903000D01*
X113005883Y-54903000D01*
X112534800Y-54996704D01*
X112135435Y-55263552D01*
X111868587Y-55662917D01*
X111774883Y-56134000D01*
X102056000Y-56134000D01*
X102056000Y-53594000D01*
X111774883Y-53594000D01*
X111868587Y-54065083D01*
X112135435Y-54464448D01*
X112534800Y-54731296D01*
X113005883Y-54825000D01*
X113054117Y-54825000D01*
X113525200Y-54731296D01*
X113924565Y-54464448D01*
X114191413Y-54065083D01*
X114285117Y-53594000D01*
X127014883Y-53594000D01*
X127108587Y-54065083D01*
X127375435Y-54464448D01*
X127774800Y-54731296D01*
X128245883Y-54825000D01*
X128294117Y-54825000D01*
X128765200Y-54731296D01*
X128934960Y-54617865D01*
X132922882Y-54617865D01*
X133026339Y-54868252D01*
X133217741Y-55059987D01*
X133467946Y-55163882D01*
X133738865Y-55164118D01*
X133989252Y-55060661D01*
X134180987Y-54869259D01*
X134284882Y-54619054D01*
X134284993Y-54490865D01*
X136580482Y-54490865D01*
X136683939Y-54741252D01*
X136875341Y-54932987D01*
X137125546Y-55036882D01*
X137396465Y-55037118D01*
X137646852Y-54933661D01*
X137838587Y-54742259D01*
X137942482Y-54492054D01*
X137942718Y-54221135D01*
X137839261Y-53970748D01*
X137647859Y-53779013D01*
X137397654Y-53675118D01*
X137126735Y-53674882D01*
X136876348Y-53778339D01*
X136684613Y-53969741D01*
X136580718Y-54219946D01*
X136580482Y-54490865D01*
X134284993Y-54490865D01*
X134285118Y-54348135D01*
X134181661Y-54097748D01*
X133990259Y-53906013D01*
X133740054Y-53802118D01*
X133469135Y-53801882D01*
X133218748Y-53905339D01*
X133027013Y-54096741D01*
X132923118Y-54346946D01*
X132922882Y-54617865D01*
X128934960Y-54617865D01*
X129164565Y-54464448D01*
X129431413Y-54065083D01*
X129525117Y-53594000D01*
X129431413Y-53122917D01*
X129164565Y-52723552D01*
X128765200Y-52456704D01*
X128294117Y-52363000D01*
X128245883Y-52363000D01*
X127774800Y-52456704D01*
X127375435Y-52723552D01*
X127108587Y-53122917D01*
X127014883Y-53594000D01*
X114285117Y-53594000D01*
X114191413Y-53122917D01*
X113924565Y-52723552D01*
X113525200Y-52456704D01*
X113054117Y-52363000D01*
X113005883Y-52363000D01*
X112534800Y-52456704D01*
X112135435Y-52723552D01*
X111868587Y-53122917D01*
X111774883Y-53594000D01*
X102056000Y-53594000D01*
X102056000Y-51054000D01*
X111774883Y-51054000D01*
X111868587Y-51525083D01*
X112135435Y-51924448D01*
X112534800Y-52191296D01*
X113005883Y-52285000D01*
X113054117Y-52285000D01*
X113525200Y-52191296D01*
X113924565Y-51924448D01*
X114191413Y-51525083D01*
X114285117Y-51054000D01*
X114191413Y-50582917D01*
X114138058Y-50503065D01*
X116387482Y-50503065D01*
X116490939Y-50753452D01*
X116682341Y-50945187D01*
X116932546Y-51049082D01*
X117203465Y-51049318D01*
X117453852Y-50945861D01*
X117645587Y-50754459D01*
X117749482Y-50504254D01*
X117749718Y-50233335D01*
X117646261Y-49982948D01*
X117454859Y-49791213D01*
X117211752Y-49690265D01*
X124426582Y-49690265D01*
X124530039Y-49940652D01*
X124721441Y-50132387D01*
X124852937Y-50186989D01*
X124807818Y-50295646D01*
X124807582Y-50566565D01*
X124911039Y-50816952D01*
X125102441Y-51008687D01*
X125352646Y-51112582D01*
X125623565Y-51112818D01*
X125848938Y-51019696D01*
X125785718Y-51171946D01*
X125785482Y-51442865D01*
X125888939Y-51693252D01*
X125973431Y-51777891D01*
X125876913Y-51874241D01*
X125773018Y-52124446D01*
X125772782Y-52395365D01*
X125876239Y-52645752D01*
X126067641Y-52837487D01*
X126317846Y-52941382D01*
X126588765Y-52941618D01*
X126839152Y-52838161D01*
X127030887Y-52646759D01*
X127134782Y-52396554D01*
X127135018Y-52125635D01*
X127031561Y-51875248D01*
X126947069Y-51790609D01*
X127043587Y-51694259D01*
X127111824Y-51529927D01*
X127375435Y-51924448D01*
X127774800Y-52191296D01*
X128245883Y-52285000D01*
X128294117Y-52285000D01*
X128765200Y-52191296D01*
X129049001Y-52001665D01*
X131398882Y-52001665D01*
X131502339Y-52252052D01*
X131693741Y-52443787D01*
X131943946Y-52547682D01*
X132214865Y-52547918D01*
X132465252Y-52444461D01*
X132656987Y-52253059D01*
X132760882Y-52002854D01*
X132761118Y-51731935D01*
X132657661Y-51481548D01*
X132466259Y-51289813D01*
X132216054Y-51185918D01*
X131945135Y-51185682D01*
X131694748Y-51289139D01*
X131503013Y-51480541D01*
X131399118Y-51730746D01*
X131398882Y-52001665D01*
X129049001Y-52001665D01*
X129164565Y-51924448D01*
X129431413Y-51525083D01*
X129525117Y-51054000D01*
X129431413Y-50582917D01*
X129164565Y-50183552D01*
X128765200Y-49916704D01*
X128294117Y-49823000D01*
X128245883Y-49823000D01*
X127774800Y-49916704D01*
X127375435Y-50183552D01*
X127108587Y-50582917D01*
X127041534Y-50920016D01*
X126852859Y-50731013D01*
X126602654Y-50627118D01*
X126331735Y-50626882D01*
X126106362Y-50720004D01*
X126169582Y-50567754D01*
X126169818Y-50296835D01*
X126066361Y-50046448D01*
X125874959Y-49854713D01*
X125743463Y-49800111D01*
X125788582Y-49691454D01*
X125788818Y-49420535D01*
X125685361Y-49170148D01*
X125493959Y-48978413D01*
X125243754Y-48874518D01*
X124972835Y-48874282D01*
X124722448Y-48977739D01*
X124530713Y-49169141D01*
X124426818Y-49419346D01*
X124426582Y-49690265D01*
X117211752Y-49690265D01*
X117204654Y-49687318D01*
X116933735Y-49687082D01*
X116683348Y-49790539D01*
X116491613Y-49981941D01*
X116387718Y-50232146D01*
X116387482Y-50503065D01*
X114138058Y-50503065D01*
X113924565Y-50183552D01*
X113525200Y-49916704D01*
X113054117Y-49823000D01*
X113005883Y-49823000D01*
X112534800Y-49916704D01*
X112135435Y-50183552D01*
X111868587Y-50582917D01*
X111774883Y-51054000D01*
X102056000Y-51054000D01*
X102056000Y-49007916D01*
X103174657Y-49007916D01*
X103475611Y-49736280D01*
X104032389Y-50294031D01*
X104760226Y-50596255D01*
X105548316Y-50596943D01*
X106276680Y-50295989D01*
X106834431Y-49739211D01*
X107136655Y-49011374D01*
X107136960Y-48661565D01*
X109986682Y-48661565D01*
X110090139Y-48911952D01*
X110281541Y-49103687D01*
X110531746Y-49207582D01*
X110802665Y-49207818D01*
X111053052Y-49104361D01*
X111244787Y-48912959D01*
X111348682Y-48662754D01*
X111348811Y-48514000D01*
X111774883Y-48514000D01*
X111868587Y-48985083D01*
X112135435Y-49384448D01*
X112534800Y-49651296D01*
X113005883Y-49745000D01*
X113054117Y-49745000D01*
X113525200Y-49651296D01*
X113924565Y-49384448D01*
X114191413Y-48985083D01*
X114227976Y-48801265D01*
X115409582Y-48801265D01*
X115513039Y-49051652D01*
X115704441Y-49243387D01*
X115954646Y-49347282D01*
X116225565Y-49347518D01*
X116475952Y-49244061D01*
X116667687Y-49052659D01*
X116682425Y-49017165D01*
X117162182Y-49017165D01*
X117265639Y-49267552D01*
X117457041Y-49459287D01*
X117707246Y-49563182D01*
X117978165Y-49563418D01*
X118228552Y-49459961D01*
X118420287Y-49268559D01*
X118477213Y-49131465D01*
X122661282Y-49131465D01*
X122764739Y-49381852D01*
X122956141Y-49573587D01*
X123206346Y-49677482D01*
X123477265Y-49677718D01*
X123727652Y-49574261D01*
X123919387Y-49382859D01*
X124023282Y-49132654D01*
X124023518Y-48861735D01*
X123920061Y-48611348D01*
X123822883Y-48514000D01*
X127014883Y-48514000D01*
X127108587Y-48985083D01*
X127375435Y-49384448D01*
X127774800Y-49651296D01*
X128245883Y-49745000D01*
X128294117Y-49745000D01*
X128765200Y-49651296D01*
X129164565Y-49384448D01*
X129416156Y-49007916D01*
X134467457Y-49007916D01*
X134768411Y-49736280D01*
X135325189Y-50294031D01*
X136053026Y-50596255D01*
X136841116Y-50596943D01*
X137569480Y-50295989D01*
X138127231Y-49739211D01*
X138429455Y-49011374D01*
X138430143Y-48223284D01*
X138129189Y-47494920D01*
X137572411Y-46937169D01*
X136844574Y-46634945D01*
X136056484Y-46634257D01*
X135328120Y-46935211D01*
X134770369Y-47491989D01*
X134468145Y-48219826D01*
X134467457Y-49007916D01*
X129416156Y-49007916D01*
X129431413Y-48985083D01*
X129525117Y-48514000D01*
X129431413Y-48042917D01*
X129164565Y-47643552D01*
X128765200Y-47376704D01*
X128294117Y-47283000D01*
X128245883Y-47283000D01*
X127774800Y-47376704D01*
X127375435Y-47643552D01*
X127108587Y-48042917D01*
X127014883Y-48514000D01*
X123822883Y-48514000D01*
X123728659Y-48419613D01*
X123478454Y-48315718D01*
X123207535Y-48315482D01*
X122957148Y-48418939D01*
X122765413Y-48610341D01*
X122661518Y-48860546D01*
X122661282Y-49131465D01*
X118477213Y-49131465D01*
X118524182Y-49018354D01*
X118524418Y-48747435D01*
X118420961Y-48497048D01*
X118229559Y-48305313D01*
X117979354Y-48201418D01*
X117708435Y-48201182D01*
X117458048Y-48304639D01*
X117266313Y-48496041D01*
X117162418Y-48746246D01*
X117162182Y-49017165D01*
X116682425Y-49017165D01*
X116771582Y-48802454D01*
X116771818Y-48531535D01*
X116668361Y-48281148D01*
X116476959Y-48089413D01*
X116226754Y-47985518D01*
X115955835Y-47985282D01*
X115705448Y-48088739D01*
X115513713Y-48280141D01*
X115409818Y-48530346D01*
X115409582Y-48801265D01*
X114227976Y-48801265D01*
X114285117Y-48514000D01*
X114191413Y-48042917D01*
X113924565Y-47643552D01*
X113525200Y-47376704D01*
X113054117Y-47283000D01*
X113005883Y-47283000D01*
X112534800Y-47376704D01*
X112135435Y-47643552D01*
X111868587Y-48042917D01*
X111774883Y-48514000D01*
X111348811Y-48514000D01*
X111348918Y-48391835D01*
X111245461Y-48141448D01*
X111054059Y-47949713D01*
X110803854Y-47845818D01*
X110532935Y-47845582D01*
X110282548Y-47949039D01*
X110090813Y-48140441D01*
X109986918Y-48390646D01*
X109986682Y-48661565D01*
X107136960Y-48661565D01*
X107137343Y-48223284D01*
X106836389Y-47494920D01*
X106279611Y-46937169D01*
X105551774Y-46634945D01*
X104763684Y-46634257D01*
X104035320Y-46935211D01*
X103477569Y-47491989D01*
X103175345Y-48219826D01*
X103174657Y-49007916D01*
X102056000Y-49007916D01*
X102056000Y-45974000D01*
X111774883Y-45974000D01*
X111868587Y-46445083D01*
X112135435Y-46844448D01*
X112534800Y-47111296D01*
X113005883Y-47205000D01*
X113054117Y-47205000D01*
X113525200Y-47111296D01*
X113924565Y-46844448D01*
X114034202Y-46680365D01*
X114901582Y-46680365D01*
X115005039Y-46930752D01*
X115196441Y-47122487D01*
X115446646Y-47226382D01*
X115717565Y-47226618D01*
X115967952Y-47123161D01*
X116159687Y-46931759D01*
X116263582Y-46681554D01*
X116263818Y-46410635D01*
X116170616Y-46185065D01*
X117657482Y-46185065D01*
X117760939Y-46435452D01*
X117952341Y-46627187D01*
X118202546Y-46731082D01*
X118473465Y-46731318D01*
X118723852Y-46627861D01*
X118915587Y-46436459D01*
X119019482Y-46186254D01*
X119019718Y-45915335D01*
X118916261Y-45664948D01*
X118869794Y-45618400D01*
X119392700Y-45618400D01*
X119392700Y-46037500D01*
X119402034Y-46085289D01*
X119429897Y-46127303D01*
X119696597Y-46394003D01*
X119711792Y-46404232D01*
X119651618Y-46549146D01*
X119651382Y-46820065D01*
X119754839Y-47070452D01*
X119794870Y-47110552D01*
X119755513Y-47149841D01*
X119651618Y-47400046D01*
X119651382Y-47670965D01*
X119754839Y-47921352D01*
X119946241Y-48113087D01*
X120196446Y-48216982D01*
X120467365Y-48217218D01*
X120717752Y-48113761D01*
X120909487Y-47922359D01*
X121013382Y-47672154D01*
X121013618Y-47401235D01*
X120910161Y-47150848D01*
X120870130Y-47110748D01*
X120909487Y-47071459D01*
X121013382Y-46821254D01*
X121013618Y-46550335D01*
X120910161Y-46299948D01*
X120718759Y-46108213D01*
X120586500Y-46053294D01*
X120586500Y-45618400D01*
X120577166Y-45570611D01*
X120549303Y-45528597D01*
X120320703Y-45299997D01*
X120280310Y-45272806D01*
X120230900Y-45262800D01*
X119748300Y-45262800D01*
X119700511Y-45272134D01*
X119658497Y-45299997D01*
X119429897Y-45528597D01*
X119402706Y-45568990D01*
X119392700Y-45618400D01*
X118869794Y-45618400D01*
X118724859Y-45473213D01*
X118474654Y-45369318D01*
X118203735Y-45369082D01*
X117953348Y-45472539D01*
X117761613Y-45663941D01*
X117657718Y-45914146D01*
X117657482Y-46185065D01*
X116170616Y-46185065D01*
X116160361Y-46160248D01*
X115968959Y-45968513D01*
X115718754Y-45864618D01*
X115447835Y-45864382D01*
X115197448Y-45967839D01*
X115005713Y-46159241D01*
X114901818Y-46409446D01*
X114901582Y-46680365D01*
X114034202Y-46680365D01*
X114191413Y-46445083D01*
X114285117Y-45974000D01*
X114191413Y-45502917D01*
X113938228Y-45124000D01*
X124491536Y-45124000D01*
X124491536Y-46824000D01*
X124518103Y-46965190D01*
X124601546Y-47094865D01*
X124728866Y-47181859D01*
X124880000Y-47212464D01*
X126580000Y-47212464D01*
X126721190Y-47185897D01*
X126850865Y-47102454D01*
X126937859Y-46975134D01*
X126968464Y-46824000D01*
X126968464Y-46290980D01*
X127080511Y-46290980D01*
X127204755Y-46590964D01*
X127521944Y-46951652D01*
X127953018Y-47163501D01*
X128143000Y-47103193D01*
X128143000Y-46101000D01*
X128397000Y-46101000D01*
X128397000Y-47103193D01*
X128586982Y-47163501D01*
X129018056Y-46951652D01*
X129335245Y-46590964D01*
X129459489Y-46290980D01*
X129398627Y-46101000D01*
X128397000Y-46101000D01*
X128143000Y-46101000D01*
X127141373Y-46101000D01*
X127080511Y-46290980D01*
X126968464Y-46290980D01*
X126968464Y-45657020D01*
X127080511Y-45657020D01*
X127141373Y-45847000D01*
X128143000Y-45847000D01*
X128143000Y-44844807D01*
X128397000Y-44844807D01*
X128397000Y-45847000D01*
X129398627Y-45847000D01*
X129459489Y-45657020D01*
X129335245Y-45357036D01*
X129018056Y-44996348D01*
X128586982Y-44784499D01*
X128397000Y-44844807D01*
X128143000Y-44844807D01*
X127953018Y-44784499D01*
X127521944Y-44996348D01*
X127204755Y-45357036D01*
X127080511Y-45657020D01*
X126968464Y-45657020D01*
X126968464Y-45124000D01*
X126941897Y-44982810D01*
X126858454Y-44853135D01*
X126731134Y-44766141D01*
X126580000Y-44735536D01*
X124880000Y-44735536D01*
X124738810Y-44762103D01*
X124609135Y-44845546D01*
X124522141Y-44972866D01*
X124491536Y-45124000D01*
X113938228Y-45124000D01*
X113924565Y-45103552D01*
X113525200Y-44836704D01*
X113054117Y-44743000D01*
X113005883Y-44743000D01*
X112534800Y-44836704D01*
X112135435Y-45103552D01*
X111868587Y-45502917D01*
X111774883Y-45974000D01*
X102056000Y-45974000D01*
X102056000Y-43656250D01*
X111799000Y-43656250D01*
X111799000Y-44359785D01*
X111857004Y-44499819D01*
X111964180Y-44606996D01*
X112104214Y-44665000D01*
X112807750Y-44665000D01*
X112903000Y-44569750D01*
X112903000Y-43561000D01*
X113157000Y-43561000D01*
X113157000Y-44569750D01*
X113252250Y-44665000D01*
X113955786Y-44665000D01*
X114095820Y-44606996D01*
X114202996Y-44499819D01*
X114261000Y-44359785D01*
X114261000Y-44140365D01*
X115549282Y-44140365D01*
X115652739Y-44390752D01*
X115844141Y-44582487D01*
X116094346Y-44686382D01*
X116365265Y-44686618D01*
X116615652Y-44583161D01*
X116807387Y-44391759D01*
X116911282Y-44141554D01*
X116911518Y-43870635D01*
X116808061Y-43620248D01*
X116616659Y-43428513D01*
X116366454Y-43324618D01*
X116095535Y-43324382D01*
X115845148Y-43427839D01*
X115653413Y-43619241D01*
X115549518Y-43869446D01*
X115549282Y-44140365D01*
X114261000Y-44140365D01*
X114261000Y-43656250D01*
X114165750Y-43561000D01*
X113157000Y-43561000D01*
X112903000Y-43561000D01*
X111894250Y-43561000D01*
X111799000Y-43656250D01*
X102056000Y-43656250D01*
X102056000Y-42508215D01*
X111799000Y-42508215D01*
X111799000Y-43211750D01*
X111894250Y-43307000D01*
X112903000Y-43307000D01*
X112903000Y-42298250D01*
X113157000Y-42298250D01*
X113157000Y-43307000D01*
X114165750Y-43307000D01*
X114261000Y-43211750D01*
X114261000Y-42508215D01*
X114202996Y-42368181D01*
X114095820Y-42261004D01*
X113955786Y-42203000D01*
X113252250Y-42203000D01*
X113157000Y-42298250D01*
X112903000Y-42298250D01*
X112807750Y-42203000D01*
X112104214Y-42203000D01*
X111964180Y-42261004D01*
X111857004Y-42368181D01*
X111799000Y-42508215D01*
X102056000Y-42508215D01*
X102056000Y-41892465D01*
X126166482Y-41892465D01*
X126269939Y-42142852D01*
X126461341Y-42334587D01*
X126711546Y-42438482D01*
X126982465Y-42438718D01*
X127087912Y-42395148D01*
X127062141Y-42432866D01*
X127031536Y-42584000D01*
X127031536Y-44284000D01*
X127058103Y-44425190D01*
X127141546Y-44554865D01*
X127268866Y-44641859D01*
X127420000Y-44672464D01*
X129120000Y-44672464D01*
X129261190Y-44645897D01*
X129390865Y-44562454D01*
X129477859Y-44435134D01*
X129508464Y-44284000D01*
X129508464Y-42584000D01*
X129481897Y-42442810D01*
X129398454Y-42313135D01*
X129271134Y-42226141D01*
X129120000Y-42195536D01*
X127420000Y-42195536D01*
X127361861Y-42206476D01*
X127424587Y-42143859D01*
X127528482Y-41893654D01*
X127528718Y-41622735D01*
X127425261Y-41372348D01*
X127233859Y-41180613D01*
X126983654Y-41076718D01*
X126712735Y-41076482D01*
X126462348Y-41179939D01*
X126270613Y-41371341D01*
X126166718Y-41621546D01*
X126166482Y-41892465D01*
X102056000Y-41892465D01*
X102056000Y-40901865D01*
X116489082Y-40901865D01*
X116592539Y-41152252D01*
X116783941Y-41343987D01*
X117034146Y-41447882D01*
X117305065Y-41448118D01*
X117555452Y-41344661D01*
X117747187Y-41153259D01*
X117851082Y-40903054D01*
X117851318Y-40632135D01*
X117747861Y-40381748D01*
X117556459Y-40190013D01*
X117306254Y-40086118D01*
X117035335Y-40085882D01*
X116784948Y-40189339D01*
X116593213Y-40380741D01*
X116489318Y-40630946D01*
X116489082Y-40901865D01*
X102056000Y-40901865D01*
X102056000Y-40050965D01*
X120641982Y-40050965D01*
X120745439Y-40301352D01*
X120936841Y-40493087D01*
X121187046Y-40596982D01*
X121457965Y-40597218D01*
X121708352Y-40493761D01*
X121900087Y-40302359D01*
X122003982Y-40052154D01*
X122004218Y-39781235D01*
X121900761Y-39530848D01*
X121709359Y-39339113D01*
X121459154Y-39235218D01*
X121188235Y-39234982D01*
X120937848Y-39338439D01*
X120746113Y-39529841D01*
X120642218Y-39780046D01*
X120641982Y-40050965D01*
X102056000Y-40050965D01*
X102056000Y-38892187D01*
X106413987Y-38892187D01*
X106601000Y-39344795D01*
X106946984Y-39691383D01*
X107399265Y-39879186D01*
X107888987Y-39879613D01*
X108341595Y-39692600D01*
X108688183Y-39346616D01*
X108875986Y-38894335D01*
X108875987Y-38892187D01*
X133033187Y-38892187D01*
X133220200Y-39344795D01*
X133566184Y-39691383D01*
X134018465Y-39879186D01*
X134508187Y-39879613D01*
X134960795Y-39692600D01*
X135307383Y-39346616D01*
X135495186Y-38894335D01*
X135495613Y-38404613D01*
X135308600Y-37952005D01*
X134962616Y-37605417D01*
X134510335Y-37417614D01*
X134020613Y-37417187D01*
X133568005Y-37604200D01*
X133221417Y-37950184D01*
X133033614Y-38402465D01*
X133033187Y-38892187D01*
X108875987Y-38892187D01*
X108876413Y-38404613D01*
X108689400Y-37952005D01*
X108343416Y-37605417D01*
X107891135Y-37417614D01*
X107401413Y-37417187D01*
X106948805Y-37604200D01*
X106602217Y-37950184D01*
X106414414Y-38402465D01*
X106413987Y-38892187D01*
X102056000Y-38892187D01*
X102056000Y-37256965D01*
X118635382Y-37256965D01*
X118738839Y-37507352D01*
X118930241Y-37699087D01*
X119080095Y-37761312D01*
X119079882Y-38006265D01*
X119183339Y-38256652D01*
X119374741Y-38448387D01*
X119624946Y-38552282D01*
X119895865Y-38552518D01*
X120146252Y-38449061D01*
X120337987Y-38257659D01*
X120441882Y-38007454D01*
X120442118Y-37736535D01*
X120338661Y-37486148D01*
X120147259Y-37294413D01*
X119997405Y-37232188D01*
X119997618Y-36987235D01*
X119894161Y-36736848D01*
X119702759Y-36545113D01*
X119452554Y-36441218D01*
X119181635Y-36440982D01*
X118931248Y-36544439D01*
X118739513Y-36735841D01*
X118635618Y-36986046D01*
X118635382Y-37256965D01*
X102056000Y-37256965D01*
X102056000Y-36228265D01*
X124553582Y-36228265D01*
X124657039Y-36478652D01*
X124848441Y-36670387D01*
X125098646Y-36774282D01*
X125369565Y-36774518D01*
X125619952Y-36671061D01*
X125811687Y-36479659D01*
X125915582Y-36229454D01*
X125915818Y-35958535D01*
X125812361Y-35708148D01*
X125620959Y-35516413D01*
X125370754Y-35412518D01*
X125099835Y-35412282D01*
X124849448Y-35515739D01*
X124657713Y-35707141D01*
X124553818Y-35957346D01*
X124553582Y-36228265D01*
X102056000Y-36228265D01*
X102056000Y-31892187D01*
X106413987Y-31892187D01*
X106601000Y-32344795D01*
X106946984Y-32691383D01*
X107399265Y-32879186D01*
X107888987Y-32879613D01*
X108341595Y-32692600D01*
X108357185Y-32677037D01*
X115224362Y-32677037D01*
X115224362Y-32854961D01*
X115417708Y-33826977D01*
X115485796Y-33991356D01*
X116036399Y-34815391D01*
X116162209Y-34941201D01*
X116986244Y-35491804D01*
X117150623Y-35559892D01*
X118122639Y-35753238D01*
X118167550Y-35753238D01*
X118211600Y-35762000D01*
X123291600Y-35762000D01*
X123335650Y-35753238D01*
X123380561Y-35753238D01*
X124352577Y-35559892D01*
X124516956Y-35491804D01*
X125340991Y-34941201D01*
X125466803Y-34815389D01*
X126017404Y-33991356D01*
X126085492Y-33826977D01*
X126278838Y-32854961D01*
X126278838Y-32677037D01*
X126122722Y-31892187D01*
X133033187Y-31892187D01*
X133220200Y-32344795D01*
X133566184Y-32691383D01*
X134018465Y-32879186D01*
X134508187Y-32879613D01*
X134960795Y-32692600D01*
X135307383Y-32346616D01*
X135495186Y-31894335D01*
X135495613Y-31404613D01*
X135308600Y-30952005D01*
X134962616Y-30605417D01*
X134510335Y-30417614D01*
X134020613Y-30417187D01*
X133568005Y-30604200D01*
X133221417Y-30950184D01*
X133033614Y-31402465D01*
X133033187Y-31892187D01*
X126122722Y-31892187D01*
X126085492Y-31705023D01*
X126017404Y-31540644D01*
X125466801Y-30716609D01*
X125340991Y-30590799D01*
X124516956Y-30040196D01*
X124352577Y-29972108D01*
X123380561Y-29778762D01*
X123335650Y-29778762D01*
X123291600Y-29770000D01*
X118211600Y-29770000D01*
X118167550Y-29778762D01*
X118122639Y-29778762D01*
X117150623Y-29972108D01*
X116986244Y-30040196D01*
X116162211Y-30590797D01*
X116036399Y-30716609D01*
X115485796Y-31540644D01*
X115417708Y-31705023D01*
X115224362Y-32677037D01*
X108357185Y-32677037D01*
X108688183Y-32346616D01*
X108875986Y-31894335D01*
X108876413Y-31404613D01*
X108689400Y-30952005D01*
X108343416Y-30605417D01*
X107891135Y-30417614D01*
X107401413Y-30417187D01*
X106948805Y-30604200D01*
X106602217Y-30950184D01*
X106414414Y-31402465D01*
X106413987Y-31892187D01*
X102056000Y-31892187D01*
X102056000Y-28599200D01*
X139599600Y-28599200D01*
X139599600Y-86818400D01*
M02*
